<svg xmlns="http://www.w3.org/2000/svg" width="30" height="30" viewBox="0 0 30 30">
  <g id="Group_3" data-name="Group 3" transform="translate(-285 -566)">
    <rect id="Rectangle_315" data-name="Rectangle 315" width="30" height="30" rx="5" transform="translate(285 566)" fill="#ff4387"/>
    <g id="Group">
      <g id="Group-2" data-name="Group">
        <path id="Vector" d="M2.282,4.563A2.282,2.282,0,1,1,2.282,0H6.827a2.282,2.282,0,0,1,0,4.563Z" transform="translate(295.06 574)" fill="#fff"/>
        <path id="Vector-2" data-name="Vector" d="M2.281,4.564H4.6V0H2.281a2.282,2.282,0,0,0,0,4.564Z" transform="translate(295 579.222)" fill="#fff"/>
        <path id="Vector-3" data-name="Vector" d="M2.282,0A2.282,2.282,0,1,0,4.563,2.282,2.282,2.282,0,0,0,2.282,0Z" transform="translate(299.826 579.269)" fill="#fff"/>
        <path id="Vector-4" data-name="Vector" d="M4.558,0H2.195V0A2.28,2.28,0,1,0,4.557,2.4h0V2.372c0-.03,0-.06,0-.09s0-.06,0-.09Z" transform="translate(295.041 584.437)" fill="#fff"/>
      </g>
    </g>
  </g>
</svg>
