<svg xmlns="http://www.w3.org/2000/svg" width="25" height="19" viewBox="0 0 25 19">
  <path id="Vector" d="M25,4.354a2.7,2.7,0,0,0-.854-1.959,3,3,0,0,0-2.062-.812H10.631a1.292,1.292,0,0,1-.693-.2L8.49.466A3.015,3.015,0,0,0,6.869,0H2.917A3,3,0,0,0,.854.812,2.7,2.7,0,0,0,0,2.771V5.146a.386.386,0,0,0,.122.28.428.428,0,0,0,.295.116H24.583a.428.428,0,0,0,.295-.116A.386.386,0,0,0,25,5.146ZM0,16.229a2.7,2.7,0,0,0,.854,1.959A3,3,0,0,0,2.917,19H22.083a3,3,0,0,0,2.062-.812A2.7,2.7,0,0,0,25,16.229V7.521a.386.386,0,0,0-.122-.28.428.428,0,0,0-.295-.116H.417a.428.428,0,0,0-.295.116A.386.386,0,0,0,0,7.521Z" fill="#ffcf26"/>
</svg>
