<svg xmlns="http://www.w3.org/2000/svg" width="14" height="14" viewBox="0 0 14 14">
  <path id="Vector" d="M13.992,5.48A6.347,6.347,0,0,0,8.009,0a1.056,1.056,0,0,0-.8.34,1.114,1.114,0,0,0-.288.821L7.23,5.981A1.144,1.144,0,0,0,8.347,7.059H8.42l4.6-.321a1.02,1.02,0,0,0,.718-.365A1.116,1.116,0,0,0,14,5.583v-.1ZM8.347,5.9,8.04,1.168a5.217,5.217,0,0,1,4.847,4.421Zm2.013,3.3a.562.562,0,0,1,.687-.4.555.555,0,0,1,.346.267.6.6,0,0,1,.059.446,6.045,6.045,0,0,1-2.816,3.728,5.587,5.587,0,0,1-5.477.087A6.081,6.081,0,0,1,.045,8.612,3.969,3.969,0,0,1,0,7.9,6.038,6.038,0,0,1,4.64,1.925a.565.565,0,0,1,.663.462.589.589,0,0,1-.442.693A4.889,4.889,0,0,0,1.125,7.919a3.251,3.251,0,0,0,.031.545,4.806,4.806,0,0,0,4.312,4.317A4.724,4.724,0,0,0,10.359,9.2Z" fill="#001b34" opacity="0.6"/>
</svg>
