<svg xmlns="http://www.w3.org/2000/svg" width="13" height="15" viewBox="0 0 13 15">
  <path id="Vector" d="M12.934,10.31l-.517-4.4c-.331-1.978-1.527-2.637-2.537-2.637A3.628,3.628,0,0,0,7.559.174,3.176,3.176,0,0,0,4.032,1.226a.622.622,0,0,0-.118.566.552.552,0,0,0,.388.4.5.5,0,0,0,.506-.17V1.951a2.168,2.168,0,0,1,3.258-.2,2.66,2.66,0,0,1,.745,1.516H3.173c-.968,0-2.14.659-2.537,2.67l-.15.989a.574.574,0,0,0,.436.631.531.531,0,0,0,.6-.433l.144-.969c.222-1.1.781-1.76,1.5-1.76H9.881c.757,0,1.316.659,1.5,1.714l.511,4.358a3.567,3.567,0,0,1-.391,2.578,2.657,2.657,0,0,1-2.23.771H3.786a2.728,2.728,0,0,1-2.17-.857,3.285,3.285,0,0,1-.451-2.492A.57.57,0,0,0,.72,9.816a.535.535,0,0,0-.6.488,3.971,3.971,0,0,0,.692,3.412,3.222,3.222,0,0,0,2.974,1.256H9.268A3.528,3.528,0,0,0,12.273,13.8,4.671,4.671,0,0,0,12.934,10.31ZM8.216,7.522a.684.684,0,0,0,.234.053.577.577,0,0,0,.421-.2.527.527,0,0,0,.144-.218.6.6,0,0,0,.048-.251.468.468,0,0,0,0-.132.421.421,0,0,0-.036-.125.273.273,0,0,0-.054-.112.917.917,0,0,0-.162-.185.729.729,0,0,0-.222-.1.473.473,0,0,0-.234,0,.4.4,0,0,0-.114.04.441.441,0,0,0-.108.059l-.09.086a.288.288,0,0,0-.072.1l-.06.112v.125a.478.478,0,0,0,0,.132.593.593,0,0,0,.042.251A.652.652,0,0,0,8.216,7.522ZM5.228,6.915a.632.632,0,0,1-.6.659.578.578,0,0,1-.409-.2.667.667,0,0,1-.132-.218.716.716,0,0,1-.042-.251.47.47,0,0,1,0-.132.423.423,0,0,1,.036-.125.383.383,0,0,1,.054-.112.286.286,0,0,1,.072-.1.4.4,0,0,1,.09-.079A.327.327,0,0,1,4.4,6.3a.339.339,0,0,1,.114-.04.473.473,0,0,1,.234,0,.339.339,0,0,1,.114.04.327.327,0,0,1,.1.059.4.4,0,0,1,.1.086.287.287,0,0,1,.072.1.674.674,0,0,1,.06.112l.036.125A.9.9,0,0,1,5.228,6.915Z" fill="#00162a" opacity="0.6"/>
</svg>
