<svg xmlns="http://www.w3.org/2000/svg" width="13" height="15" viewBox="0 0 13 15">
  <path id="Vector" d="M4.408,3.656a1.713,1.713,0,0,1-1.813-.013L2.57,3.617A.6.6,0,0,1,2.4,2.826a.516.516,0,0,1,.739-.184.732.732,0,0,0,.369.112.723.723,0,0,0,.54-.212.829.829,0,0,0,.241-.559A1.92,1.92,0,0,1,6.078,0h.843A1.915,1.915,0,0,1,8.767,1.976a.8.8,0,0,0,.1.4.755.755,0,0,0,.453.376.7.7,0,0,0,.569-.08,1.78,1.78,0,0,1,2.462.711.61.61,0,0,1-.2.784.522.522,0,0,1-.732-.2.724.724,0,0,0-1.022-.29,1.741,1.741,0,0,1-1.809-.021,2,2,0,0,1-.924-1.665A.829.829,0,0,0,7.456,1.4a.722.722,0,0,0-.535-.243H6.078A.727.727,0,0,0,5.54,1.4a.835.835,0,0,0-.213.581A1.97,1.97,0,0,1,4.408,3.656Zm.919,9.388a.778.778,0,0,0,.751.8l-.006.013a.53.53,0,0,1,.464.287.608.608,0,0,1,0,.573A.53.53,0,0,1,6.071,15a1.915,1.915,0,0,1-1.846-1.976.8.8,0,0,0-.1-.4.725.725,0,0,0-1.022-.3,1.78,1.78,0,0,1-2.462-.711l-.418-.784A2.056,2.056,0,0,1,.89,8.2a.792.792,0,0,0,.271-.29.842.842,0,0,0,.122-.637A.794.794,0,0,0,.92,6.752,2.056,2.056,0,0,1,.256,4.117.535.535,0,0,1,.6,3.873a.507.507,0,0,1,.4.087.592.592,0,0,1,.154.764A.828.828,0,0,0,1.431,5.81a1.887,1.887,0,0,1,.64.718,2.055,2.055,0,0,1-.665,2.635A.828.828,0,0,0,1.13,10.25l.425.784a.742.742,0,0,0,.453.378.691.691,0,0,0,.569-.088,1.689,1.689,0,0,1,.9-.257A1.915,1.915,0,0,1,5.327,13.043ZM12.1,8.2a.793.793,0,0,1-.348-.486.847.847,0,0,1,.077-.607.793.793,0,0,1,.271-.29.6.6,0,0,0,.185-.784.529.529,0,0,0-.726-.217A2.055,2.055,0,0,0,10.9,8.445a1.868,1.868,0,0,0,.671.784.785.785,0,0,1,.348.483.839.839,0,0,1-.077.6l-.418.784a.779.779,0,0,1-.455.375.691.691,0,0,1-.566-.086,1.741,1.741,0,0,0-1.812.023,2,2,0,0,0-.921,1.67.539.539,0,0,0,1.077,0,.8.8,0,0,1,.369-.7.7.7,0,0,1,.751.008,1.78,1.78,0,0,0,2.462-.711l.419-.784A2.056,2.056,0,0,0,12.1,8.2ZM6.5,5.026A2.318,2.318,0,0,0,4.358,6.557a2.606,2.606,0,0,0,.5,2.7,2.2,2.2,0,0,0,2.524.533A2.486,2.486,0,0,0,8.81,7.5a2.561,2.561,0,0,0-.678-1.749A2.233,2.233,0,0,0,6.5,5.026Zm0,3.794A1.276,1.276,0,0,1,5.265,7.5,1.276,1.276,0,0,1,6.5,6.186,1.276,1.276,0,0,1,7.727,7.5,1.276,1.276,0,0,1,6.5,8.821Z" fill="#00162a" opacity="0.6"/>
</svg>
