<svg xmlns="http://www.w3.org/2000/svg" width="15.001" height="8.88" viewBox="0 0 15.001 8.88">
  <g id="Group" transform="translate(-704 -217)">
    <path id="Vector" d="M10.015,3.331c0-.032,0-.064,0-.1A2.316,2.316,0,0,0,7.661.963a2.419,2.419,0,0,0-1.143.285A2.368,2.368,0,0,0,4.414,0,2.316,2.316,0,0,0,2.055,2.271a2.185,2.185,0,0,0,.033.363,1.635,1.635,0,0,0-.279-.026A1.924,1.924,0,0,0,0,4.63,1.924,1.924,0,0,0,1.809,6.652H9.856a1.7,1.7,0,0,0,1.728-1.664A1.689,1.689,0,0,0,10.015,3.331Z" transform="translate(707.416 219.228)" fill="#a4cdff"/>
    <path id="Vector-2" data-name="Vector" d="M3.177,7.831a1.932,1.932,0,0,1-1.162.39A2.074,2.074,0,0,1,0,6.092a2.1,2.1,0,0,1,1.694-2.1c-.007-.083-.012-.167-.012-.252A2.742,2.742,0,0,1,4.344.926a2.539,2.539,0,0,1,1.378.41A3.043,3.043,0,0,1,8.216,0a3.159,3.159,0,0,1,3.061,2.754h0q-.1-.007-.2-.007a2.841,2.841,0,0,0-.985.176A2.786,2.786,0,0,0,7.83,1.784,2.755,2.755,0,0,0,5.053,4.4,2.383,2.383,0,0,0,3,6.858a2.681,2.681,0,0,0,.181.973Z" transform="translate(704 217)" fill="#a4cdff"/>
  </g>
</svg>
