<svg xmlns="http://www.w3.org/2000/svg" width="30" height="30" viewBox="0 0 30 30">
  <g id="Group_2" data-name="Group 2" transform="translate(-285 -512)">
    <rect id="Rectangle_120" data-name="Rectangle 120" width="30" height="30" rx="5" transform="translate(285 512)" fill="#ff43ca"/>
    <g id="Group">
      <path id="Vector" d="M.865.232A.718.718,0,0,0,.555.053,1.409,1.409,0,0,0,.149,0H0V2.21H.149a1.3,1.3,0,0,0,.406-.058.771.771,0,0,0,.31-.189.907.907,0,0,0,.2-.345,1.671,1.671,0,0,0,.071-.529A1.625,1.625,0,0,0,1.066.569.847.847,0,0,0,.865.232Z" transform="translate(301.408 527.022)" fill="#fff"/>
      <path id="Vector-2" data-name="Vector" d="M8.711,3.3,8.592,0H0V13.648H11.742V3.335ZM5.461,9.205H4.945a.154.154,0,0,1-.139-.088L4.5,8.494l-.126-.275c-.041-.09-.086-.189-.136-.3H4.217c-.04.106-.078.206-.118.3s-.078.182-.118.275l-.28.623a.166.166,0,0,1-.141.091H3.073a.166.166,0,0,1-.138-.23l.8-1.492a.156.156,0,0,0,0-.148L2.994,5.948a.156.156,0,0,1,.138-.229h.517a.166.166,0,0,1,.141.09l.262.567c.04.083.078.166.118.26s.083.191.134.3h.022c.038-.111.076-.212.114-.3s.073-.177.109-.26l.237-.562a.166.166,0,0,1,.144-.094h.479a.156.156,0,0,1,.138.227L4.8,7.377a.153.153,0,0,0,0,.146l.794,1.449a.154.154,0,0,1-.134.234Zm3.125-.978a1.441,1.441,0,0,1-.346.547,1.422,1.422,0,0,1-.537.332,2.138,2.138,0,0,1-.7.108h-.87a.156.156,0,0,1-.156-.156V5.878a.156.156,0,0,1,.156-.156h.829a2.429,2.429,0,0,1,.721.1,1.456,1.456,0,0,1,.549.31,1.373,1.373,0,0,1,.351.537,2.167,2.167,0,0,1,.124.774,2.215,2.215,0,0,1-.124.782Z" transform="translate(294.643 520.663)" fill="#fff"/>
      <path id="Vector-3" data-name="Vector" d="M12.634,3.372,9.968.456A1.4,1.4,0,0,0,8.935,0H1.4A1.4,1.4,0,0,0,0,1.4V13.521a1.4,1.4,0,0,0,1.4,1.4H11.6a1.4,1.4,0,0,0,1.4-1.4V4.31a1.392,1.392,0,0,0-.366-.938Zm-.884.416H10.033a.467.467,0,0,1-.466-.472V1.4Zm-.149,10.2H1.4a.467.467,0,0,1-.467-.467V1.4A.467.467,0,0,1,1.4.932H8.634V3.315a1.4,1.4,0,0,0,1.4,1.4h2.036v8.806a.469.469,0,0,1-.467.467Z" transform="translate(294 520)" fill="#fff"/>
    </g>
  </g>
</svg>
