<svg xmlns="http://www.w3.org/2000/svg" viewBox="0 0 500 500"><g id="freepik--background-complete--inject-70"><rect y="382.4" width="500" height="0.25" style="fill:#ebebeb"></rect><rect x="416.78" y="398.49" width="33.12" height="0.25" style="fill:#ebebeb"></rect><rect x="260.33" y="395.36" width="12.89" height="0.25" style="fill:#ebebeb"></rect><rect x="322.53" y="396.42" width="27.14" height="0.25" style="fill:#ebebeb"></rect><rect x="359.67" y="389.21" width="56.11" height="0.25" style="fill:#ebebeb"></rect><rect x="52.46" y="400.78" width="26.53" height="0.25" style="fill:#ebebeb"></rect><rect x="87.89" y="400.78" width="23" height="0.25" style="fill:#ebebeb"></rect><rect x="131" y="395.24" width="60.81" height="0.25" style="fill:#ebebeb"></rect><path d="M237,337.8H43.91a5.71,5.71,0,0,1-5.7-5.71V60.66A5.71,5.71,0,0,1,43.91,55H237a5.71,5.71,0,0,1,5.71,5.71V332.09A5.71,5.71,0,0,1,237,337.8ZM43.91,55.2a5.46,5.46,0,0,0-5.45,5.46V332.09a5.46,5.46,0,0,0,5.45,5.46H237a5.47,5.47,0,0,0,5.46-5.46V60.66A5.47,5.47,0,0,0,237,55.2Z" style="fill:#ebebeb"></path><path d="M453.31,337.8H260.21a5.72,5.72,0,0,1-5.71-5.71V60.66A5.72,5.72,0,0,1,260.21,55h193.1A5.71,5.71,0,0,1,459,60.66V332.09A5.71,5.71,0,0,1,453.31,337.8ZM260.21,55.2a5.47,5.47,0,0,0-5.46,5.46V332.09a5.47,5.47,0,0,0,5.46,5.46h193.1a5.47,5.47,0,0,0,5.46-5.46V60.66a5.47,5.47,0,0,0-5.46-5.46Z" style="fill:#ebebeb"></path><path d="M467.06,194.17a53.79,53.79,0,0,0-1-33,46.49,46.49,0,0,0-21-69.85A80.24,80.24,0,0,0,318.17,37.61a41,41,0,0,0-70.69,27.93,61.91,61.91,0,0,0-35.12,100.65,46.59,46.59,0,0,0,27.83,67.36,46.39,46.39,0,0,0,24.11.46,71.94,71.94,0,0,0,96.82,18.46c7.53,17.49,13.71,43.73.4,69.46,48.35-4.74,83.26-51.11,76.14-93.6A54,54,0,0,0,467.06,194.17Z" style="fill:#ebebeb"></path><path d="M374.32,312.33a1,1,0,0,1-.71-.29,1,1,0,0,1-.25-1c6.81-23.72.6-46.46-5.8-61.36l-3.25-7.55-6.94,4.41A64.92,64.92,0,0,1,270,229.9l-2.78-3.83-4.58,1.14a39.56,39.56,0,0,1-44.12-57.63l2.33-4.22-3.11-3.68A54.91,54.91,0,0,1,248.86,72.4l5.56-1.12.06-5.66a34,34,0,0,1,58.63-23.18l4.24,4.44,5-3.62a73.23,73.23,0,0,1,115.85,49l.57,4,3.79,1.5a39.47,39.47,0,0,1,17.81,59.33l-2.06,2.95,1.21,3.4A47.07,47.07,0,0,1,434.74,222l-4.87,2.24.89,5.28c3,18.13-2.43,37.93-15,54.33a81.06,81.06,0,0,1-41.18,28.47A.9.9,0,0,1,374.32,312.33Zm-9.55-72.65a1,1,0,0,1,.29,0,1,1,0,0,1,.62.56l3.71,8.62c6.38,14.83,12.55,37.29,6.37,60.93a79.13,79.13,0,0,0,38.43-27.24c12.22-16,17.54-35.2,14.6-52.78l-1-6a1,1,0,0,1,.56-1.08l5.56-2.55a45.05,45.05,0,0,0,23.69-56l-1.38-3.88a1,1,0,0,1,.13-.91l2.35-3.38a37.46,37.46,0,0,0-16.9-56.32l-4.34-1.72a1,1,0,0,1-.62-.79l-.65-4.61A71.21,71.21,0,0,0,323.49,44.87L317.82,49a1,1,0,0,1-1.31-.11l-4.85-5.07a32.15,32.15,0,0,0-23.16-9.9,32,32,0,0,0-32,31.71l-.07,6.48a1,1,0,0,1-.8,1l-6.35,1.28a52.91,52.91,0,0,0-30,86l3.55,4.21a1,1,0,0,1,.11,1.13l-2.66,4.82a38,38,0,0,0-3.26,7.81,37.59,37.59,0,0,0,45.15,46.91l5.24-1.3a1,1,0,0,1,1.05.38l3.17,4.37a62.87,62.87,0,0,0,84.71,16.15l7.93-5A1,1,0,0,1,364.77,239.68Z" style="fill:#fff"></path><path d="M304.19,146.19,277.39,142l.41-2.68a33.61,33.61,0,0,1,3.28-10.87,25,25,0,0,1,5.84-7.08q3.61-3,15.72-10.26c4.29-2.52,6.64-5.06,7-7.65a8,8,0,0,0-1.35-6.39c-1.3-1.67-3.51-2.75-6.61-3.23a11.31,11.31,0,0,0-8.81,2q-3.8,2.81-6,10.92l-26.84-7.65q3.76-14.87,14.76-22.59t30.74-4.64q15.38,2.39,23.83,10.28,11.48,10.68,9.23,25.14a22.65,22.65,0,0,1-5.11,11q-4.18,5.06-15.67,11.5-8,4.55-10.4,7.67A18.73,18.73,0,0,0,304.19,146.19ZM275.36,149l28.71,4.47-3.94,25.32-28.71-4.47Z" style="fill:#fff"></path><path d="M372.59,185.42l-14.88-12,1.21-1.49a23.85,23.85,0,0,1,5.85-5.47,17.83,17.83,0,0,1,6.07-2.25,103.76,103.76,0,0,1,13.24-.69q5.26,0,7-2.17a5.56,5.56,0,0,0,1.44-4.38,7,7,0,0,0-2.89-4.32,7.94,7.94,0,0,0-6.09-1.88q-3.32.36-7.53,4.53l-13.67-14.19q7.56-7.74,17-8.55t20.42,8.07q8.54,6.91,10.89,14.73,3.22,10.59-3.27,18.61a16,16,0,0,1-7,4.94q-4.35,1.59-13.64,1.46c-4.33,0-7.35.28-9.07,1A13.4,13.4,0,0,0,372.59,185.42ZM354,176.91l15.94,12.91-11.39,14.06L342.61,191Z" style="fill:#fff"></path><path d="M376.75,98.8,370.31,90l.88-.65a13.82,13.82,0,0,1,4-2.16,10,10,0,0,1,3.67-.35,56.9,56.9,0,0,1,7.38,1.54c1.94.5,3.33.44,4.18-.18a3.21,3.21,0,0,0,1.43-2.2,4,4,0,0,0-1-2.8,4.57,4.57,0,0,0-3.08-1.92c-1.25-.18-2.85.28-4.8,1.4l-5.47-9.79a15.14,15.14,0,0,1,10.61-2.24q5.32.93,10.07,7.4,3.69,5.06,3.86,9.69a10.9,10.9,0,0,1-4.51,9.78A9.09,9.09,0,0,1,393,99.22a23.06,23.06,0,0,1-7.72-1.17,14.7,14.7,0,0,0-5.14-.78A7.6,7.6,0,0,0,376.75,98.8Zm-9-7.38,6.9,9.42-8.31,6.08-6.9-9.41Z" style="fill:#fff"></path><path d="M128.34,223.57a46.93,46.93,0,0,1-24-6.65c-10.15-6-17.32-15.42-19.76-25.79a29.06,29.06,0,0,1-27-27.46A24.6,24.6,0,0,1,52,158.32,25,25,0,0,1,54.2,125a42.76,42.76,0,0,1,51.66-51.36,22.26,22.26,0,0,1,38-4.69,22.5,22.5,0,0,1,2.75,4.6,33.16,33.16,0,0,1,37,42.7,25.16,25.16,0,0,1-12.36,44,38.05,38.05,0,0,1-13.54,20.4,38.47,38.47,0,0,1-29.79,7.58c-.1,9.71,2.15,22.88,13,32.3a.8.8,0,0,1,.25.76.77.77,0,0,1-.55.58A44.1,44.1,0,0,1,128.34,223.57ZM95.73,74a41.22,41.22,0,0,0-39.9,51.07.77.77,0,0,1-.23.76,23.44,23.44,0,0,0-2.41,31.55,23.68,23.68,0,0,0,5.66,5.23.79.79,0,0,1,.36.62A27.49,27.49,0,0,0,85.3,189.6a.78.78,0,0,1,.72.62c2.21,10.17,9.2,19.41,19.16,25.35a44.63,44.63,0,0,0,33.63,5.14c-10.73-10-12.73-23.66-12.47-33.46a.8.8,0,0,1,.93-.76,36.84,36.84,0,0,0,42.56-27.16.77.77,0,0,1,.65-.59,23.59,23.59,0,0,0,11.69-41.64.78.78,0,0,1-.25-.85,31.59,31.59,0,0,0-35.69-41.07.78.78,0,0,1-.87-.47,20.69,20.69,0,0,0-38.31.13.8.8,0,0,1-.92.47A41.73,41.73,0,0,0,95.73,74Z" style="fill:#e6e6e6"></path><path d="M100.59,140l-13.81,3.25-.32-1.38a17.34,17.34,0,0,1-.55-5.92,13,13,0,0,1,1.43-4.57,76.09,76.09,0,0,1,5.6-8.07c1.59-2.07,2.23-3.76,1.91-5.09a4.13,4.13,0,0,0-1.91-2.83,5.15,5.15,0,0,0-3.84-.27,5.91,5.91,0,0,0-3.87,2.71c-.86,1.41-1.11,3.56-.76,6.47L70,125.84A19.75,19.75,0,0,1,72.66,112q3.81-5.91,14-8.3,7.92-1.87,13.57.29,7.66,2.91,9.42,10.37a11.74,11.74,0,0,1-.3,6.36q-1,3.27-5.33,8.66-3,3.78-3.53,5.76A9.83,9.83,0,0,0,100.59,140Zm-13.42,7,14.8-3.48L105,156.56,90.25,160Z" style="fill:#ebebeb"></path><path d="M135.75,110.79l-9.58-2.92.29-1a12.46,12.46,0,0,1,1.76-3.81,9.1,9.1,0,0,1,2.5-2.28A52.81,52.81,0,0,1,137,97.89q2.55-1,3-2.43a2.92,2.92,0,0,0-.16-2.41,3.68,3.68,0,0,0-2.25-1.53,4.19,4.19,0,0,0-3.32.29,7.18,7.18,0,0,0-2.76,3.68l-9.42-4.19a13.94,13.94,0,0,1,6.56-7.49q4.42-2.27,11.48-.11a16.11,16.11,0,0,1,8.18,5,9.94,9.94,0,0,1,2.08,9.66,8.35,8.35,0,0,1-2.44,3.78,21.52,21.52,0,0,1-6.33,3.4,13.78,13.78,0,0,0-4.2,2.26A7,7,0,0,0,135.75,110.79Zm-10.68-.47,10.26,3.12-2.75,9.06-10.27-3.12Z" style="fill:#ebebeb"></path></g><g id="freepik--Shadow--inject-70"><ellipse id="freepik--path--inject-70" cx="250" cy="416.24" rx="193.89" ry="11.32" style="fill:#f5f5f5"></ellipse></g><g id="freepik--question-marks--inject-70"><path d="M157.61,247.44l-.92-.39a18,18,0,0,0,1.45-5l1,.11A18.94,18.94,0,0,1,157.61,247.44ZM157.22,236a13.33,13.33,0,0,0-10.43-7.77l.16-1a14.31,14.31,0,0,1,11.18,8.35Z" style="fill:#03716E"></path><path d="M152,257.5,142.14,262l-.44-1a13.27,13.27,0,0,1-1.29-4.33,10,10,0,0,1,.39-3.64,58.94,58.94,0,0,1,3-6.86q1.32-2.67.67-4.09a3.16,3.16,0,0,0-1.85-1.83,4,4,0,0,0-2.91.37,4.56,4.56,0,0,0-2.49,2.61q-.65,1.75.4,4.94L127,251.49a15,15,0,0,1,0-10.75q2-5,9.22-8.27c3.76-1.72,7.16-2.31,10.19-1.8a10.78,10.78,0,0,1,8.57,6.35,9,9,0,0,1,.72,4.8,23,23,0,0,1-2.7,7.26,14.49,14.49,0,0,0-1.78,4.83A7.49,7.49,0,0,0,152,257.5Zm-9,7.24L153.54,260l4.23,9.29L147.23,274Z" style="fill:#03716E"></path><path d="M127.64,279.73l-5,6.8L122,286a10.64,10.64,0,0,1-2.53-2.47,7.67,7.67,0,0,1-1.11-2.63,42.47,42.47,0,0,1-.57-5.81c-.08-1.55-.45-2.56-1.1-3a2.46,2.46,0,0,0-2-.55,3.08,3.08,0,0,0-1.84,1.36,3.54,3.54,0,0,0-.71,2.72,6.09,6.09,0,0,0,2.15,3.22l-6,6.31a11.79,11.79,0,0,1-4.11-7.32q-.55-4.14,3.14-9.15a13.64,13.64,0,0,1,6.26-5.09,8.39,8.39,0,0,1,8.26,1.06,7,7,0,0,1,2.32,3,18.12,18.12,0,0,1,.92,6,11.36,11.36,0,0,0,.62,4A5.76,5.76,0,0,0,127.64,279.73Zm-3.37,8.36,5.36-7.28,6.42,4.73-5.36,7.28Z" style="fill:#03716E"></path></g><g id="freepik--Character--inject-70"><path d="M234.09,412.64a4.5,4.5,0,0,1-4-2.43c-4-7.76-9.07-16.87-18.15-26.73a4.45,4.45,0,0,1-1-4.28c3.37-11.71,8.67-27.72,8.72-27.88a4.49,4.49,0,1,1,8.52,2.82c-.05.15-4.62,13.94-7.93,25.15a126.54,126.54,0,0,1,17.82,26.8,4.5,4.5,0,0,1-4,6.55Z" style="fill:#03716E"></path><polygon points="241.56 416.24 206.77 416.24 225.21 405.78 240.66 406.38 241.56 416.24" style="fill:#263238"></polygon><ellipse cx="230.8" cy="350.34" rx="30.04" ry="24.9" transform="translate(-94.01 84.81) rotate(-17.36)" style="fill:#263238"></ellipse><path d="M151.65,334a4.49,4.49,0,0,1-1.72-8.63,5,5,0,0,0,3-3.77,4.48,4.48,0,0,1,3.67-4,33.55,33.55,0,0,0,3.3-.85c6.08-1.77,13.61-4,37.31,2.66,23.38-13.07,23.65-37.59,23.65-38.65a4.5,4.5,0,0,1,4.47-4.5h0a4.49,4.49,0,0,1,4.49,4.45c0,1.31-.14,32.09-30,47.5a4.45,4.45,0,0,1-3.3.32c-22.6-6.52-29-4.66-34.07-3.17l-1.38.4a13.83,13.83,0,0,1-7.64,7.89A4.51,4.51,0,0,1,151.65,334Z" style="fill:#263238"></path><path d="M204.08,301.89c-8.51-33.82-31.18-121.06,41.47-126.39,65.18-4.79,83.06,82,87.41,112a351.65,351.65,0,0,1,3.54,45.82,33.29,33.29,0,0,1-26.76,33c-35.51,7.22-69.11,8.24-91.75-.69a14.86,14.86,0,0,1-9.23-15.21C209.63,340.74,209.65,324,204.08,301.89Z" style="fill:#03716E"></path><path d="M333,287.52c-4.1-28.32-20.22-107-76.66-112a16.39,16.39,0,0,0-16.07,8.51c-2.52,4.88-2.44,10.79,1.33,16.64C254,220,283.67,286.67,279.19,323c-2,16.53-12.41,29.73-3.39,48.31a291.16,291.16,0,0,0,33.94-5,33.29,33.29,0,0,0,26.76-33A351.65,351.65,0,0,0,333,287.52Z" style="opacity:0.1"></path><path d="M323.24,333.79a.45.45,0,0,1-.45-.44,348.57,348.57,0,0,0-3.53-45.76c-10.8-74.66-39.87-112.41-84.1-109.15a.45.45,0,0,1-.48-.42.46.46,0,0,1,.42-.48c44.75-3.3,74.17,34.72,85,109.92a352.14,352.14,0,0,1,3.54,45.88.45.45,0,0,1-.45.45Z" style="fill:#263238"></path><ellipse cx="315.12" cy="352.73" rx="30.04" ry="24.9" transform="translate(-90.88 110.07) rotate(-17.36)" style="fill:#263238"></ellipse><path d="M325.3,412.64a4.49,4.49,0,0,1-4-2.43c-4-7.76-9.07-16.87-18.16-26.73a4.5,4.5,0,0,1-1-4.28c3.38-11.71,8.67-27.72,8.73-27.88a4.48,4.48,0,1,1,8.51,2.82c-.05.15-4.61,13.94-7.92,25.15a126.07,126.07,0,0,1,17.81,26.8,4.5,4.5,0,0,1-4,6.55Z" style="fill:#03716E"></path><path d="M315.88,275.91a4.49,4.49,0,0,1-2.1-8.46h0c.86-.46,20.39-11.13,25.87-36.77-13-5.44-36.42-17.73-41.54-23.91a4.62,4.62,0,0,1-1-2.08,22.37,22.37,0,0,1,1-11l-2.36-4.56a4.49,4.49,0,0,1,8-4.12l3.39,6.56A4.46,4.46,0,0,1,307,196a11,11,0,0,0-1.12,5.91c5.77,5.21,29,17.54,40.43,21.77a4.48,4.48,0,0,1,2.87,4.89c-5.07,32.77-30.14,46.27-31.2,46.83A4.48,4.48,0,0,1,315.88,275.91Z" style="fill:#263238"></path><path d="M301.57,206.15a2.25,2.25,0,0,1-1.88-3.47c.16-.24,3.86-5.83,9.5-7.34a2.24,2.24,0,1,1,1.16,4.33c-3.93,1.06-6.88,5.42-6.9,5.46A2.24,2.24,0,0,1,301.57,206.15Z" style="fill:#263238"></path><polygon points="332.77 416.24 297.98 416.24 316.42 405.78 331.87 406.38 332.77 416.24" style="fill:#263238"></polygon><ellipse cx="258.01" cy="260.82" rx="23.92" ry="21.53" transform="translate(-21.99 23.76) rotate(-5.06)" style="fill:#fff"></ellipse><ellipse cx="252.18" cy="262.92" rx="6.57" ry="11.96" transform="translate(-62.39 79.17) rotate(-15.9)" style="fill:#263238"></ellipse><path d="M230.8,264.86c15.1-1.94,45-10.47,49.93-13.91-3.88-11.36-22-21.08-38.12-15.6C228,240.28,230.8,264.86,230.8,264.86Z" style="fill:#263238"></path><path d="M233.73,272.16c18.75-3.56,43.12-9.54,50.09-13.37-.43,12.22-4,24.61-23.12,28.8C245.06,291,233.73,272.16,233.73,272.16Z" style="fill:#263238"></path><ellipse cx="208.01" cy="268.36" rx="14.72" ry="18.63" transform="translate(-113.55 159.34) rotate(-33.49)" style="fill:#fff"></ellipse><path d="M208.34,268.68c1.13,5.36.15,9.83-2.2,10s-5.17-4.06-6.31-9.42-.15-9.82,2.19-10S207.2,263.32,208.34,268.68Z" style="fill:#263238"></path><path d="M189.75,266.63c10.13,1.19,30.25-.14,33.59-2C220.87,255,208.89,244,198,245.4,188.18,246.66,189.75,266.63,189.75,266.63Z" style="fill:#263238"></path><path d="M191.63,272.94c12.59.57,29,.25,33.68-1.52-.43,9.61-2.95,18.77-15.81,18.62C199,289.92,191.63,272.94,191.63,272.94Z" style="fill:#263238"></path><path d="M264.09,229.3A56.43,56.43,0,0,1,232,219.5a4.48,4.48,0,0,1,5.41-7.15,49,49,0,0,0,35.84,7.11,4.48,4.48,0,1,1,1.67,8.81A58.41,58.41,0,0,1,264.09,229.3Z" style="fill:#263238"></path><path d="M183.88,221.57a4.5,4.5,0,0,1-4.22-6c2.37-6.62,6.32-10.91,11.72-12.77,9.78-3.37,20.32,3.18,20.77,3.46a4.49,4.49,0,0,1-4.78,7.6c-2-1.27-8.37-4.21-13.1-2.57-2.72.95-4.74,3.34-6.17,7.32A4.49,4.49,0,0,1,183.88,221.57Z" style="fill:#263238"></path><path d="M219.23,297.25a1.19,1.19,0,0,1-.37-.06,1.33,1.33,0,0,1-.92-1.64,8.74,8.74,0,0,1,4.56-4.93c5.14-2.65,13-2.1,23.31,1.63a1.34,1.34,0,0,1,.8,1.73,1.33,1.33,0,0,1-1.72.8c-11.83-4.28-18-3.36-21-1.82a6.25,6.25,0,0,0-3.32,3.33A1.35,1.35,0,0,1,219.23,297.25Z" style="fill:#263238"></path><path d="M176.88,292.32a119.22,119.22,0,0,0-44.78,13.15c7.72-1.46,35.35,32.73,42.45,59.09,13.11-4.85,28.39-8.16,44.68-10.75C209.36,326.64,191.31,295.85,176.88,292.32Z" style="fill:#03716E"></path><path d="M176.88,292.32a119.22,119.22,0,0,0-44.78,13.15c7.72-1.46,35.35,32.73,42.45,59.09,13.11-4.85,28.39-8.16,44.68-10.75C209.36,326.64,191.31,295.85,176.88,292.32Z" style="fill:#fff;opacity:0.6000000000000001"></path><path d="M176.88,292.32c-17.08-1.93-44.81,12.37-44.81,12.37-4.91,3.13-3.58,9-.9,11.49,2.57-3.69,31.23-13.29,42-14.58C167.82,296.64,172.8,293,176.88,292.32Z" style="fill:#03716E"></path><path d="M176.88,292.32c-17.08-1.93-44.81,12.37-44.81,12.37-4.91,3.13-3.58,9-.9,11.49,2.57-3.69,31.23-13.29,42-14.58C167.82,296.64,172.8,293,176.88,292.32Z" style="fill:#fff;opacity:0.2"></path><path d="M151.66,334a4.52,4.52,0,0,1-3.77-2c-3.25-5-1.22-12.59-.78-14.07a4.49,4.49,0,0,1,8.6,2.56c-.73,2.51-.88,5.72-.3,6.6a4.49,4.49,0,0,1-1.31,6.21A4.38,4.38,0,0,1,151.66,334Z" style="fill:#263238"></path></g></svg>