<svg xmlns="http://www.w3.org/2000/svg" viewBox="0 0 750 500"><g id="freepik--background-complete--inject-7"><rect x="556.18" y="374.75" width="126.99" height="84.86" style="fill:#ebebeb"></rect><rect x="631.48" y="374.75" width="51.69" height="84.86" style="fill:#e0e0e0"></rect><rect x="570.3" y="391.55" width="44.5" height="51.25" style="fill:#fafafa"></rect><path d="M591.43,408.57v-7.63a.9.9,0,0,1,.91-.91h.34a.91.91,0,0,1,.91.91v.35h5.66v1.94h-5.59v5.34Z" style="fill:#ebebeb"></path><rect x="585.05" y="410.1" width="14.98" height="24.22" rx="2.29" style="fill:#ebebeb"></rect><path d="M590.08,407h5.26a1.05,1.05,0,0,1,1.05,1.05v2a0,0,0,0,1,0,0H589a0,0,0,0,1,0,0v-2A1.05,1.05,0,0,1,590.08,407Z" style="fill:#ebebeb"></path><rect x="592.09" y="415.06" width="6.49" height="13.56" style="fill:#fafafa"></rect><path d="M586,426a96,96,0,0,1,0-14.12A96,96,0,0,1,586,426Z" style="fill:#fafafa"></path><rect x="572.66" y="388.2" width="3.3" height="6.09" style="fill:#e0e0e0"></rect><rect x="572.66" y="439.75" width="3.3" height="6.09" transform="translate(-85.81 142.56) rotate(-13.17)" style="fill:#e0e0e0"></rect><rect x="608.46" y="439.95" width="3.3" height="6.09" transform="translate(68.5 -81.54) rotate(8.1)" style="fill:#e0e0e0"></rect><rect x="608.6" y="388.2" width="3.3" height="6.09" style="fill:#e0e0e0"></rect><path d="M169.09,105.68c1-7.2-9.17-13.13-16.81-13.74-3.65-.3-7.43.26-10.88-.94-7.48-2.61-10.47-12.27-17.77-15.35-5.45-2.3-11.73-.25-17,2.41s-10.52,6-16.43,6.39c-5.14.33-10.72-1.58-15.21.93-3.35,1.87-5.11,5.73-8.2,8s-7,2.7-10.71,2.91-7.63.24-11,1.8-6.24,5.17-5.53,8.86Z" style="fill:#ebebeb"></path><path d="M311.13,159.45c-.22,0-1.89.05-2.11,0-1.85-.2-4-.3-5-1.84-1.18-1.78,0-4.43-1.23-6.19a10,10,0,0,0-2.64-2c-.9-.64-1.67-1.84-1.12-2.81.45-.82,1.62-1,2.2-1.73a1.71,1.71,0,0,0,0-2.09c-1.9-2.25-4,2.34-5.07,3.42a8.59,8.59,0,0,1-.85.8v0a5.65,5.65,0,0,0,0,.58c0,.63,0,1.27,0,1.91s0,1.26,0,1.9,0,1,0,1.54,0,2,0,2.54a15.33,15.33,0,0,1,3.18,1.28c2.06,1.18,4.45,2.08,4.58,4.45a2,2,0,0,0,.22,1.12c.22.3.56,1.42.93,1.5a42.64,42.64,0,0,0,6.48,1.35" style="fill:#ebebeb"></path><path d="M473.21,118.45s.14-.12.43-.33l1.3-.93c.57-.41,1.31-.87,2.1-1.52l2.78-2.2c1-.9,2.11-1.86,3.29-3s2.44-2.35,3.65-3.8a68.93,68.93,0,0,0,7.7-10.27A70.51,70.51,0,0,0,504.89,65a52.45,52.45,0,0,0-2-19.48C501,39,497.42,32.57,491.81,28a27.7,27.7,0,0,0-9.36-5,35.37,35.37,0,0,0-10.26-1.4A69.42,69.42,0,0,0,452.82,25a137.51,137.51,0,0,0-30.65,13.24,141.49,141.49,0,0,0-18.52,12.87c-2,1.72-3.62,3.06-4.66,4l-1.2,1c-.27.24-.42.35-.42.35s.12-.14.38-.39l1.17-1.1c1-1,2.57-2.34,4.59-4.09a137.71,137.71,0,0,1,49.16-26.44,69.69,69.69,0,0,1,19.52-3.4,35.52,35.52,0,0,1,10.42,1.41,28.27,28.27,0,0,1,9.55,5.09c5.72,4.68,9.34,11.25,11.28,17.84a52.66,52.66,0,0,1,2,19.68,70.33,70.33,0,0,1-10.61,31.57A68,68,0,0,1,487,106.91c-1.24,1.45-2.57,2.62-3.71,3.78s-2.33,2.06-3.33,3l-2.82,2.17c-.8.63-1.56,1.07-2.13,1.48l-1.34.88A4.87,4.87,0,0,1,473.21,118.45Z" style="fill:#e0e0e0"></path><path d="M332,203.36a56.51,56.51,0,0,1-8.52,1.95,66.17,66.17,0,0,1-23.75-.59,57.41,57.41,0,0,1-15.46-5.64,54.83,54.83,0,0,1-14.74-11.79,49.74,49.74,0,0,1-10.33-18.09,39.73,39.73,0,0,1-1.29-5.35,46.08,46.08,0,0,1-.7-5.54c-.09-.94,0-1.89-.06-2.83a24.66,24.66,0,0,1,.07-2.85l.21-2.86c.15-.94.3-1.9.44-2.85a54.41,54.41,0,0,1,3.08-11c.63-1.77,1.48-3.43,2.25-5.11.4-.84.88-1.63,1.31-2.44s.86-1.61,1.37-2.37a66.26,66.26,0,0,1,13.56-15.86,79.14,79.14,0,0,1,15.82-10.33,98.65,98.65,0,0,1,15.35-6A129.51,129.51,0,0,1,334,89.33c2.81-.27,5-.44,6.47-.51l1.68-.08h.57a5,5,0,0,1-.57.07l-1.68.14c-1.47.1-3.65.3-6.44.6a135.11,135.11,0,0,0-23.3,4.68,99.36,99.36,0,0,0-15.26,6,79.35,79.35,0,0,0-15.69,10.32,65.86,65.86,0,0,0-13.43,15.75c-.51.75-.92,1.56-1.36,2.35s-.9,1.59-1.29,2.41c-.77,1.67-1.61,3.32-2.23,5.07a53.58,53.58,0,0,0-3,10.88c-.15.94-.29,1.88-.44,2.82l-.21,2.82a24.14,24.14,0,0,0-.07,2.82c0,.93,0,1.87.06,2.79a43.19,43.19,0,0,0,.69,5.48,37.4,37.4,0,0,0,1.27,5.29A49.16,49.16,0,0,0,269.87,187a54.6,54.6,0,0,0,14.57,11.72,63.8,63.8,0,0,0,7.77,3.5,62.12,62.12,0,0,0,7.56,2.17,67.21,67.21,0,0,0,23.63.76c2.77-.43,4.91-.88,6.35-1.22l1.64-.4C331.76,203.39,332,203.36,332,203.36Z" style="fill:#e0e0e0"></path><path d="M501,156.11c-1.06-2.4-1.3-5.05-2-7.57a5,5,0,0,0-2.28-3.39,20.25,20.25,0,0,0-2.72-.61c-3.2-1-4.07-5.43-7.1-6.82a10.56,10.56,0,0,0-3-.63c-4.06-.48-8.25-1.88-10.8-5.07a20.15,20.15,0,0,0-2.5-3.08c-1-.84-2.65-1.19-3.66-.34q1.28,2.57,2.53,5.12a13.53,13.53,0,0,0,2.84,4.26,4.58,4.58,0,0,0,4.78,1,3.11,3.11,0,0,1,1.61-.57,1.7,1.7,0,0,1,1,.67c2.21,2.45,1.49,6.5-.67,9s-5.32,3.79-8.38,5a6.56,6.56,0,0,1-3.43.67c-2.12-.4-3.25-2.71-3.86-4.78-1.39-4.58-2.06-9.56-4.9-13.43a16.59,16.59,0,0,1-2.58-3.75c-.59-1.54-.45-3.34-1.37-4.69s-3-2.24-3.14-3.95a3.15,3.15,0,0,1,2-2.78c1.09-.53,2.33-.68,3.45-1.14.45-.19.95-.52,1-1,0-.72-1-1-1.25-1.67s.5-1.46.83-2.19c.7-1.68-1.05-3.38-2.74-4.06s-3.72-1.18-4.5-2.82a9.68,9.68,0,0,1-.55-2.45c-.4-2.07-1.92-4.08-4-4.42s-4.43,1.53-4.09,3.61c.21,1.15,1.06,2,1.53,3.1s.34,2.64-.76,3c-1.79.55-3.52-2.74-5-1.61.62,2.11,1.22,4.21,1.83,6.33-2.36,1.2-5.18-1-6.19-3.44s-1.05-5.25-2.25-7.61-4.43-4.15-6.48-2.47c-.11,3,3.92,4.28,5.7,6.75,1.28,1.78,1.09,4.67-.81,5.8s-4.88-.84-4.16-2.91c.26-.72.86-1.32.93-2.09.07-1-.74-1.73-1.47-2.35l-3.44-2.89a7.51,7.51,0,0,0-2.45-1.54c-2.36-.68-4.73,1.23-6,3.34s-1.95,4.6-3.68,6.37c-2.48,2.56-7.18,2.72-9.51,0s-1.15-7.72,2.29-8.69c1.3-.36,2.95-.33,3.63-1.48,1.2-2-2.22-4.63-1-6.69.9-1.57,3.3-.85,5.05-1.38s2.7-2.28,3.73-3.79,2.6-3,4.38-2.6a5.38,5.38,0,0,1,.19-3.11,1.9,1.9,0,0,1,2.62-1c-.88,1.44.17,3.44,1.69,4.16a9.21,9.21,0,0,0,5,.36c1.68-.21,3.78-.82,3.92-2.5a6,6,0,0,1,.05-1.65c.74-2,4.43.76,5.85-.85.83-.84-.08-2.33-1.23-2.6s-2.31.13-3.47.17-2.59-.57-2.64-1.73,1.23-2,1.37-3.1c.22-1.91-3-2.41-4.18-.85s-.73,3.69-.39,5.59.53,4.14-.87,5.48c-.6.91-2.16.43-2.67-.53a7.8,7.8,0,0,1-.5-3.2c-.08-1.1-.56-2.33-1.62-2.62a5.6,5.6,0,0,0-2.28.26c-3,.36-5.05-3.49-4.11-6.34s3.63-4.69,6.25-6.14c1.92-1.06,4.29-2.05,6.19-1,.89.5,1.51,1.36,2.38,1.87,1.51.89,3.38.56,5.1.6a11.89,11.89,0,0,1,7.45,2.89c.77.7,1.49,1.87.89,2.71s-2.52,1.07-2.19,2.12a3.7,3.7,0,0,0,4.65-3,3.11,3.11,0,0,1,1.8,2.54,5.54,5.54,0,0,1,8.13.66,6.89,6.89,0,0,0,1.51,1.94c.68.44,1.88.22,2-.58a1.8,1.8,0,0,0-.14-.76c-.41-1.16-.84-2.31-1.25-3.45,1.59-.86,3.47.47,4.55,1.91,4,5.36,6.87,2.14,12.51,3,3.82.59,5.5,3,7.65,6,6.61,9.11,15.34,16.57,21.35,26.09.63,1,1.21,2,1.76,3-.1-.26-.19-.52-.29-.77a105.18,105.18,0,0,0-8.73-17.75c-.74-1.2-1.49-2.38-2.26-3.54-.48-.72-1-1.46-1.47-2.16-.63-.92-1.3-1.81-2-2.7-.53-.72-1.06-1.43-1.61-2.11l-1.16-1.44c-.41-.55-.86-1.08-1.34-1.61l-1.44-1.66a5.29,5.29,0,0,0-.46-.51c-.49-.58-1-1.15-1.55-1.71a.52.52,0,0,0-.16-.17c-.14-.16-.29-.31-.44-.46-.43-.48-.89-1-1.34-1.41-.73-.75-1.49-1.5-2.26-2.22s-1.28-1.24-1.95-1.83-1.16-1.07-1.76-1.58-1.17-1-1.76-1.51-1.46-1.21-2.21-1.81h0c-2.07-1.66-4.21-3.23-6.4-4.71l-1.63-1.09c-.54-.38-1.11-.72-1.66-1.06s-1.11-.7-1.67-1-1.13-.68-1.7-1-.91-.53-1.37-.77c-.24-.15-.46-.27-.7-.39-1-.55-2-1.08-3-1.58-.5-.25-1-.51-1.51-.75s-1.28-.63-1.93-.93a1.51,1.51,0,0,0-.29-.13q-.87-.42-1.77-.81c-.83-.36-1.67-.72-2.51-1.06s-1.92-.78-2.89-1.14-2.16-.81-3.26-1.17-2.2-.73-3.32-1.08-2.22-.65-3.35-1c-2.22-.59-4.48-1.12-6.76-1.59a.42.42,0,0,1-.12,0c-.87-.17-1.75-.34-2.62-.48l-.17,0c-.38-.07-.77-.14-1.16-.19-1.63-.28-3.27-.5-4.93-.69l-.6-.07c-.48-.06-1-.1-1.46-.15-1.09-.1-2.19-.19-3.3-.26s-2.31-.13-3.47-.17-2.44-.07-3.65-.07q-4.83,0-9.55.43c-.75,0-1.49.12-2.23.21l-2.31.27c-.77.1-1.54.21-2.29.33l-2.29.37c-.65.11-1.32.23-2,.36-1.61.31-3.2.65-4.78,1-.73.17-1.47.36-2.2.56s-1.48.4-2.2.6c-1.21.35-2.39.72-3.57,1.1h0l-2.87,1a.1.1,0,0,0-.07,0c-1,.34-1.92.7-2.88,1.08l-.15,0c-.88.34-1.75.7-2.6,1.06-1.08.44-2.14.92-3.19,1.4-.89.41-1.76.82-2.62,1.25s-1.84.93-2.75,1.41l-.1,0c-.88.46-1.75.94-2.61,1.43s-1.76,1-2.63,1.56h0c-.82.5-1.63,1-2.43,1.51-.31.19-.6.39-.91.6-.85.54-1.67,1.11-2.51,1.69-1,.7-2,1.44-3,2.17s-1.73,1.32-2.57,2a107.48,107.48,0,0,0-13.45,12.75c-1.46,1.61-2.83,3.25-4.16,4.93-1.13,1.44-2.23,2.89-3.27,4.4q-1.41,2-2.73,4,1.32-2,2.73-4c.27,0,.54-.07.82-.09a12.59,12.59,0,0,0,4.55-.73,28.73,28.73,0,0,0,3.36-2.6c3-2.13,7.85-2.52,8.66-6.08.27-1.2-.06-2.5.39-3.65.84-2.13,3.7-2.44,6-2.41,1,0,2.12.14,2.57,1a2.48,2.48,0,0,1-.11,2,18.59,18.59,0,0,1-7.85,9.65c-3,1.82-6.86,3.22-7.69,6.61.42,1.15,2.5,1.06,2.67,2.26.12,1-1.11,1.45-1.55,2.31-.65,1.25.84,2.77,2.26,2.7s2.6-1.09,3.64-2c3.12-2.89,6.39-6,7.52-10.12.47-1.69.65-3.68,2-4.81a3.35,3.35,0,0,1,5.09,1.63c1.35-.75,3.46-1.32,4.16.09a7.06,7.06,0,0,1,.29,1.6c.44,2.2,3.44,3.19,3.75,5.4.36,2.55-2.91,3.86-5.46,4.26l-6.94,1.09a6.45,6.45,0,0,0-2.87.93,2.24,2.24,0,0,0-.86,2.68,7,7,0,0,0,1.2,1.24c1.92,1.91.34,5.87-2.36,6-.92,0-1.83-.3-2.76-.34-2.73-.12-4.91,2.29-6.21,4.71s-2.27,5.17-4.47,6.81c-3.52,2.65-9.6,2-11.31,6.11-.68,1.64-.32,3.49-.05,5.25s.39,3.7-.63,5.16-3.65,1.74-4.4.13a3.89,3.89,0,0,1-.1-2.27c.41-2.54.8-5.07,1.19-7.6.29-1.89.55-4-.56-5.53-1.56-2.16-5.05-2-7.07-.22s-2.84,4.43-3.41,7a30.64,30.64,0,0,1-2,6.82h0q-.54,3.18-.87,6.45c-.22,2.22-.38,4.43-.46,6.69a10.48,10.48,0,0,0,.87-.82c1.08-1.11,3.25-5.82,5.2-3.51a1.74,1.74,0,0,1,0,2.14c-.6.77-1.8.94-2.26,1.78s.22,2.22,1.15,2.87,2.05,1.08,2.7,2c1.25,1.8.05,4.52,1.27,6.35,1,1.58,3.27,1.68,5.16,1.89l.66.1c.53-3.77,2.29-6.83,7.42-8,7.09-1.61,16.4,4.26,20.39,9.6,4.45,6,6.55,14.43,13.36,17.42,4.88,2.14,11.81,1.37,14.19,6.15,2.13,4.28-1.57,9.08-2.14,13.83-.36,3.13.67,6.24.91,9.37s-.7,6.82-3.56,8.13c-1.59.72-3.59.64-4.88,1.84-2.27,2.15-.41,6.6-2.68,8.76a11.61,11.61,0,0,1-2.9,1.52c-5.11,2.59-5,10.12-2.6,15.34l.26.54a107.92,107.92,0,0,0,55.47,15.32A107.66,107.66,0,0,0,454,247.14h0a108.06,108.06,0,0,0,31.22-25c1.82-2.09,3.53-4.26,5.17-6.49.84-1.14,1.66-2.29,2.43-3.47a106.3,106.3,0,0,0,13.45-27.68,105.09,105.09,0,0,0,4.13-18.33c.32-2.43.58-4.89.75-7.37a6.26,6.26,0,0,1-4.35,1.93C504.18,160.68,502,158.5,501,156.11Z" style="fill:#f5f5f5"></path><path d="M377.4,71.81c-2.15,1.28-3.29,3.69-4.94,5.57s-4.62,3.2-6.57,1.64a4.52,4.52,0,0,1-1.47-3.18,8.17,8.17,0,0,1,1.17-5c.93-1.51,2.35-2.71,3.14-4.3s.63-3.94-1-4.69c-.87-.4-2-.25-2.75-.82-1.39-1-.4-3.45,1.22-4.06s3.42-.14,5.15,0c6.27.4,10.88-3.71,15.59-7.12,3.67-2.65,11.47-5.78,15.72-3.07,1.69,1.08,2.35,3.86.76,5.08-.72.54-1.7.67-2.37,1.27s-.91,1.92-1.36,2.9c-1.19,2.53-4.61,3.45-5.71,6-.67,1.55-.37,3.48-1.39,4.82a5.93,5.93,0,0,1-3.52,1.75l-8.17,1.94A12.21,12.21,0,0,0,377.4,71.81Z" style="fill:#ebebeb"></path><path d="M450.48,204.93c-2.71,4.09-3.21,9.19-4,14s-2,10-5.77,13.19-10.56,3-12.61-1.45c-1.11-2.42-.54-5.28-1.15-7.87-.79-3.37-3.48-6-4.76-9.21-1.08-2.75-1.09-5.79-1.18-8.75-.48-16.16-4.42-33-15.42-44.87a10.71,10.71,0,0,0-4.81-3.39,6.15,6.15,0,0,0-6.31,2.18c-.89,1.17-1.34,2.66-2.43,3.65-2.35,2.15-6.45.61-8-2.16S382.7,154.13,383,151q.48-5.89,1-11.8c.17-2.06.41-4.27,1.76-5.83,1.92-2.22,5.36-2.33,7.71-4.09,3.08-2.3,3.49-6.71,5.44-10s8-4.73,8.92-1c6.43-13.76,20.65,6.69,29.1,5.15,2.45-.45,4.85-1.62,7.32-1.28,4.37.61,6.62,5.42,8.1,9.57q3.7,10.32,7.4,20.65c.94,2.63,2.15,5.54,4.75,6.55,2,.77,4.3.18,6.31.91,5.3,1.93,3.57,10.28-.69,14s-10.26,6-12.29,11.29c-1.53,4-.31,8.62-2,12.54C454.64,200.37,452.16,202.39,450.48,204.93Z" style="fill:#ebebeb"></path><path d="M470.61,209.42c-1.74.24-3.8-.62-5.12.54a5.68,5.68,0,0,0-1.25,2.77,6,6,0,0,1-2.47,3.37,3.7,3.7,0,0,1-4-.07,2.73,2.73,0,0,1-.56-3.78c.43-.49,1-.78,1.51-1.23,2.31-2.19.73-6.24,2.49-8.84,1-1.53,2.67-3.09,3.81-4.64.87-1.19,1.19-2.14,2.8-2.46C474.84,193.69,478,208.38,470.61,209.42Z" style="fill:#ebebeb"></path><path d="M309.2,180.07c-.34-3.1.69-6.2.74-9.33,0-2.16-.12-4.43-.15-6.61a29.15,29.15,0,0,1-5.5-.77,1.64,1.64,0,0,1-1-.51,2,2,0,0,1-.22-1.15c-.14-2.43-2.48-4-4.59-5.25a18.1,18.1,0,0,0-3.33-1.65c0,.26,0,.5,0,.76A108,108,0,0,0,302,189.87a103.88,103.88,0,0,0,6.61,14.18c1.06,2,2.23,3.9,3.44,5.8,1.51,2.34,3.08,4.64,4.78,6.84s3.25,4.2,5,6.18a105.32,105.32,0,0,0,7.65,7.88q3.57,3.33,7.45,6.33c-5.91-15.85-11.47-32-21.57-45.51C312.75,188,309.7,184.45,309.2,180.07Z" style="fill:#ebebeb"></path><g style="opacity:0.6000000000000001"><path d="M343,241.46c.91.62,1.83,1.21,2.76,1.8.65.41,1.3.8,2,1.19-.67-.39-1.32-.78-2-1.19C344.85,242.67,343.93,242.08,343,241.46Z" style="fill:#263238"></path></g><path d="M309.79,164.13c0,2.18.19,4.45.15,6.61-.05,3.13-1.08,6.23-.73,9.33.49,4.38,3.54,8,6.19,11.5,10.1,13.49,15.66,29.66,21.57,45.51h0c1.1.87,2.21,1.69,3.34,2.5.89.64,1.79,1.27,2.7,1.88s1.83,1.21,2.76,1.8c.65.41,1.3.8,2,1.19l-.26-.54c-2.38-5.22-2.51-12.75,2.6-15.34a11.61,11.61,0,0,0,2.9-1.52c2.27-2.16.41-6.61,2.68-8.76,1.29-1.2,3.29-1.12,4.88-1.84,2.86-1.31,3.78-5,3.56-8.13s-1.27-6.24-.91-9.37c.57-4.75,4.27-9.55,2.14-13.83-2.38-4.78-9.31-4-14.19-6.15-6.81-3-8.91-11.45-13.36-17.42-4-5.34-13.3-11.21-20.39-9.6-5.13,1.16-6.89,4.22-7.42,8" style="fill:#ebebeb"></path><path d="M301.88,120.15c2-1.73,5.51-1.94,7.07.22,1.11,1.54.85,3.64.56,5.53-.39,2.53-.78,5.06-1.19,7.6a3.89,3.89,0,0,0,.1,2.27c.75,1.61,3.39,1.3,4.4-.13s.9-3.41.63-5.16-.63-3.61.05-5.25c1.71-4.07,7.79-3.46,11.31-6.11,2.2-1.64,3.17-4.4,4.47-6.81s3.48-4.83,6.21-4.71c.93,0,1.84.38,2.76.34,2.7-.08,4.28-4,2.36-6a7,7,0,0,1-1.2-1.24,2.24,2.24,0,0,1,.86-2.68,6.45,6.45,0,0,1,2.87-.93l6.94-1.09c2.55-.4,5.82-1.71,5.46-4.26-.31-2.21-3.31-3.2-3.75-5.4a7.06,7.06,0,0,0-.29-1.6c-.7-1.41-2.81-.84-4.16-.09a3.35,3.35,0,0,0-5.09-1.63c-1.36,1.13-1.54,3.12-2,4.81-1.13,4.11-4.4,7.23-7.52,10.12-1,1-2.22,2-3.64,2s-2.91-1.45-2.26-2.7c.44-.86,1.67-1.35,1.55-2.31-.17-1.2-2.25-1.11-2.67-2.26.83-3.39,4.71-4.79,7.69-6.61a18.59,18.59,0,0,0,7.85-9.65,2.48,2.48,0,0,0,.11-2c-.45-.85-1.59-1-2.57-1-2.29,0-5.15.28-6,2.41-.45,1.15-.12,2.45-.39,3.65-.81,3.56-5.69,4-8.66,6.08a28.73,28.73,0,0,1-3.36,2.6,12.59,12.59,0,0,1-4.55.73c-.28,0-.55,0-.82.09q-1.41,2-2.73,4c-.87,1.36-1.71,2.73-2.53,4.13a107.3,107.3,0,0,0-9.38,20.91q-1.26,3.84-2.22,7.8t-1.63,8a30.64,30.64,0,0,0,2-6.82C299,124.58,299.88,121.87,301.88,120.15Z" style="fill:#ebebeb"></path><g style="opacity:0.6000000000000001"><path d="M504.56,113.86c.51,1.37,1,2.75,1.45,4.14-.45-1.39-.94-2.77-1.45-4.14,0,0,0,0,0,0h0Z" style="fill:#263238"></path></g><path d="M511.32,150.15c0-1.56-.06-3.1-.14-4.64s-.2-3.06-.36-4.59c-.12-1.23-.25-2.44-.42-3.66s-.36-2.56-.57-3.83a107.49,107.49,0,0,0-2.53-11.23q-.6-2.11-1.29-4.2c-.45-1.39-.94-2.77-1.45-4.14h0c-.55-1-1.13-2-1.76-3-6-9.52-14.74-17-21.35-26.09-2.15-3-3.83-5.4-7.65-6-5.64-.87-8.5,2.35-12.51-3-1.08-1.44-3-2.77-4.55-1.91.41,1.14.84,2.29,1.25,3.45a1.8,1.8,0,0,1,.14.76c-.09.8-1.29,1-2,.58a6.89,6.89,0,0,1-1.51-1.94,5.54,5.54,0,0,0-8.13-.66,3.11,3.11,0,0,0-1.8-2.54,3.7,3.7,0,0,1-4.65,3c-.33-1,1.54-1.23,2.19-2.12s-.12-2-.89-2.71a11.89,11.89,0,0,0-7.45-2.89c-1.72,0-3.59.29-5.1-.6-.87-.51-1.49-1.37-2.38-1.87-1.9-1.07-4.27-.08-6.19,1-2.62,1.45-5.32,3.29-6.25,6.14s1.13,6.7,4.11,6.34a5.6,5.6,0,0,1,2.28-.26c1.06.29,1.54,1.52,1.62,2.62a7.8,7.8,0,0,0,.5,3.2c.51,1,2.07,1.44,2.67.53,1.4-1.34,1.23-3.58.87-5.48s-.73-4,.39-5.59,4.4-1.06,4.18.85c-.14,1.13-1.42,2-1.37,3.1s1.47,1.78,2.64,1.73,2.34-.46,3.47-.17,2.06,1.76,1.23,2.6c-1.42,1.61-5.11-1.15-5.85.85a6,6,0,0,0-.05,1.65c-.14,1.68-2.24,2.29-3.92,2.5a9.21,9.21,0,0,1-5-.36c-1.52-.72-2.57-2.72-1.69-4.16a1.9,1.9,0,0,0-2.62,1,5.38,5.38,0,0,0-.19,3.11c-1.78-.39-3.37,1.11-4.38,2.6s-2,3.26-3.73,3.79-4.15-.19-5.05,1.38c-1.18,2.06,2.24,4.66,1,6.69-.68,1.15-2.33,1.12-3.63,1.48-3.44,1-4.64,6-2.29,8.69s7,2.53,9.51,0c1.73-1.77,2.44-4.25,3.68-6.37s3.62-4,6-3.34a7.51,7.51,0,0,1,2.45,1.54l3.44,2.89c.73.62,1.54,1.39,1.47,2.35-.07.77-.67,1.37-.93,2.09-.72,2.07,2.28,4,4.16,2.91s2.09-4,.81-5.8c-1.78-2.47-5.81-3.7-5.7-6.75,2.05-1.68,5.29.09,6.48,2.47s1.24,5.17,2.25,7.61,3.83,4.64,6.19,3.44c-.61-2.12-1.21-4.22-1.83-6.33,1.51-1.13,3.24,2.16,5,1.61,1.1-.34,1.23-1.92.76-3s-1.32-2-1.53-3.1c-.34-2.08,2-4,4.09-3.61s3.61,2.35,4,4.42a9.68,9.68,0,0,0,.55,2.45c.78,1.64,2.82,2.13,4.5,2.82s3.44,2.38,2.74,4.06c-.33.73-1.1,1.43-.83,2.19s1.25,1,1.25,1.67c0,.48-.51.81-1,1-1.12.46-2.36.61-3.45,1.14a3.15,3.15,0,0,0-2,2.78c.14,1.71,2.18,2.53,3.14,3.95s.78,3.15,1.37,4.69a16.59,16.59,0,0,0,2.58,3.75c2.84,3.87,3.51,8.85,4.9,13.43.61,2.07,1.74,4.38,3.86,4.78a6.56,6.56,0,0,0,3.43-.67c3.06-1.21,6.24-2.52,8.38-5s2.88-6.55.67-9a1.7,1.7,0,0,0-1-.67A3.11,3.11,0,0,0,477,139a4.58,4.58,0,0,1-4.78-1,13.53,13.53,0,0,1-2.84-4.26q-1.26-2.55-2.53-5.12c1-.85,2.62-.5,3.66.34a20.15,20.15,0,0,1,2.5,3.08c2.55,3.19,6.74,4.59,10.8,5.07a10.56,10.56,0,0,1,3,.63c3,1.39,3.9,5.86,7.1,6.82a20.25,20.25,0,0,1,2.72.61,5,5,0,0,1,2.28,3.39c.7,2.52.94,5.17,2,7.57s3.18,4.57,5.78,4.6a6.26,6.26,0,0,0,4.35-1.93v0c.14-2.36.22-4.73.22-7.12C511.35,151.14,511.35,150.65,511.32,150.15Z" style="fill:#ebebeb"></path><path d="M331,71.12s.85-.62,2.57-1.65a58.17,58.17,0,0,1,7.86-3.89,65.16,65.16,0,0,1,13.35-3.77,73.08,73.08,0,0,1,8.62-1c1.53-.12,3.11-.17,4.73-.19s3.29,0,5,0a96,96,0,0,1,22,3.27A81.53,81.53,0,0,1,418.5,74.31a69,69,0,0,1,20,19.82,64.73,64.73,0,0,1,10.46,28.29,56.3,56.3,0,0,1-.23,14.59l-.45-.26a43.64,43.64,0,0,1,12.34-6.91A46,46,0,0,1,474,127.29a41.64,41.64,0,0,1,24.51,6.78,44.24,44.24,0,0,1,15.15,17.25A41.35,41.35,0,0,1,518,170.78a43.93,43.93,0,0,1-10.09,26.52,41.78,41.78,0,0,1-5.51,5.51L500.8,204l-.56.4s.17-.16.53-.45l1.57-1.26a42.48,42.48,0,0,0,5.42-5.55,43.9,43.9,0,0,0,9.87-26.4,41,41,0,0,0-4.33-19.25,43.89,43.89,0,0,0-15-17,41,41,0,0,0-24.21-6.66,45.22,45.22,0,0,0-13.27,2.53,43,43,0,0,0-12.18,6.83l-.55.44.1-.7a56.57,56.57,0,0,0,.22-14.45,64.31,64.31,0,0,0-10.36-28,68.59,68.59,0,0,0-19.8-19.69,81.71,81.71,0,0,0-23.16-10.35,95.83,95.83,0,0,0-21.91-3.32c-1.7,0-3.36-.11-5,0s-3.19.06-4.72.17a72.72,72.72,0,0,0-8.58.93,66.3,66.3,0,0,0-13.33,3.66,62.7,62.7,0,0,0-7.88,3.79c-.87.49-1.52.9-2,1.16S331,71.12,331,71.12Z" style="fill:#e0e0e0"></path><path d="M450.93,134.72a5,5,0,0,0-1.58-1.85c-1.68-1.51-3.84-1.31-4.71-.19a4.55,4.55,0,0,0-.34,4.52,5,5,0,0,0,3,2.9,3.46,3.46,0,0,0,3.83-1.29A4,4,0,0,0,450.93,134.72Z" style="fill:#e0e0e0"></path><path d="M424,68.71c.4-2-2.54-4.16-5-5.25,0,0-1.63-.81-2.33-1l0,0-2.92-4.83a2.33,2.33,0,0,0-1-.89l-.47-.22a.3.3,0,0,0-.42.36L413,61.15l0,0-4.62-1.53-.07,0a3.64,3.64,0,0,1-2-1.71l-1.05-2a.59.59,0,0,0-.23-.24.55.55,0,0,0-.82.47l-.09,3.29a1.32,1.32,0,0,0,.73,1.22l1.16.59,5.94,2.94-3.1,1.57a.23.23,0,0,0-.06.34l.18.22a1.15,1.15,0,0,0,1,.38l5.11-1,7,3.46C423,69.7,423.81,69.46,424,68.71Z" style="fill:#e0e0e0"></path><path d="M334.33,61a4.19,4.19,0,0,0-3.46-1.76s-3.24,0-4.2,2.9a4.7,4.7,0,0,0,.16,3.26,5.66,5.66,0,0,0,.6,1.13c.84,1.2,3.44,4.5,3.44,4.5h.56c.73-1,2.56-4.36,3.1-5.43A4.5,4.5,0,0,0,334.33,61Zm-2.92,5.36a2.77,2.77,0,1,1,2.76-2.77A2.77,2.77,0,0,1,331.41,66.38Z" style="fill:#e0e0e0"></path><path d="M334.89,61a4.16,4.16,0,0,0-3.45-1.76s-3.24,0-4.2,2.9a4.72,4.72,0,0,0,.16,3.27,5.34,5.34,0,0,0,.6,1.12c.84,1.21,3.44,4.5,3.44,4.5s3-4.13,3.66-5.43A4.5,4.5,0,0,0,334.89,61Zm-3.48,5.36a2.77,2.77,0,1,1,2.76-2.77A2.74,2.74,0,0,1,331.41,66.4Z" style="fill:#ebebeb"></path><path d="M331.41,60.85a2.77,2.77,0,0,0-2.61,1.84,2.36,2.36,0,1,1,.29,2.43,2.76,2.76,0,1,0,2.32-4.27Z" style="fill:#e0e0e0"></path><path d="M331.18,140.21a4.06,4.06,0,0,0-3.37-1.71s-3.15,0-4.09,2.82a4.61,4.61,0,0,0,.15,3.19,6.16,6.16,0,0,0,.59,1.09c.81,1.18,3.35,4.39,3.35,4.39h.55c.71-1,2.49-4.24,3-5.29A4.4,4.4,0,0,0,331.18,140.21Zm-2.84,5.23a2.7,2.7,0,1,1,2.69-2.7A2.7,2.7,0,0,1,328.34,145.44Z" style="fill:#e0e0e0"></path><path d="M331.74,140.23a4.1,4.1,0,0,0-3.37-1.71s-3.16,0-4.09,2.83a4.53,4.53,0,0,0,.15,3.18,5.4,5.4,0,0,0,.59,1.1c.81,1.17,3.35,4.39,3.35,4.39s2.92-4,3.57-5.3A4.42,4.42,0,0,0,331.74,140.23Zm-3.4,5.23a2.7,2.7,0,1,1,2.7-2.7A2.71,2.71,0,0,1,328.34,145.46Z" style="fill:#ebebeb"></path><path d="M328.34,140.05a2.69,2.69,0,0,0-2.54,1.79,2.31,2.31,0,1,1,.28,2.37,2.69,2.69,0,1,0,2.26-4.16Z" style="fill:#e0e0e0"></path><path d="M472.51,179.16a4.06,4.06,0,0,0-3.37-1.72s-3.15,0-4.09,2.83a4.64,4.64,0,0,0,.15,3.18,6.61,6.61,0,0,0,.59,1.1c.82,1.18,3.35,4.39,3.35,4.39h.55c.71-1,2.49-4.25,3-5.3A4.38,4.38,0,0,0,472.51,179.16Zm-2.84,5.22a2.7,2.7,0,1,1,2.69-2.69A2.7,2.7,0,0,1,469.67,184.38Z" style="fill:#e0e0e0"></path><path d="M473.07,179.18a4.06,4.06,0,0,0-3.37-1.71s-3.16,0-4.09,2.82a4.53,4.53,0,0,0,.15,3.18,4.93,4.93,0,0,0,.59,1.1c.81,1.18,3.35,4.39,3.35,4.39s2.93-4,3.57-5.29A4.42,4.42,0,0,0,473.07,179.18Zm-3.4,5.22a2.67,2.67,0,0,1-2.69-2.69,2.7,2.7,0,1,1,2.69,2.69Z" style="fill:#ebebeb"></path><path d="M469.67,179a2.7,2.7,0,0,0-2.54,1.79,2.31,2.31,0,1,1,.28,2.38,2.69,2.69,0,1,0,2.26-4.17Z" style="fill:#e0e0e0"></path><path d="M473,61.76A4.08,4.08,0,0,0,470.39,59s-2.95-1.1-4.81,1.22a4.61,4.61,0,0,0-1,3,6.35,6.35,0,0,0,.17,1.23c.35,1.39,1.61,5.28,1.61,5.28l.51.19c1-.67,3.82-3.1,4.69-3.9A4.43,4.43,0,0,0,473,61.76Zm-4.5,3.9a2.7,2.7,0,1,1,3.47-1.59A2.7,2.7,0,0,1,468.46,65.66Z" style="fill:#e0e0e0"></path><path d="M473.47,62a4.09,4.09,0,0,0-2.56-2.78s-3-1.11-4.82,1.21a4.56,4.56,0,0,0-1,3,5.54,5.54,0,0,0,.16,1.23c.36,1.39,1.61,5.29,1.61,5.29s4.15-2.75,5.2-3.71A4.42,4.42,0,0,0,473.47,62Zm-5,3.71a2.69,2.69,0,1,1,3.47-1.59A2.71,2.71,0,0,1,468.46,65.68Z" style="fill:#ebebeb"></path><path d="M470.35,60.61a2.7,2.7,0,0,0-3,.79,2.31,2.31,0,1,1-.56,2.32,2.69,2.69,0,1,0,3.57-3.11Z" style="fill:#e0e0e0"></path><rect x="57.84" y="265.42" width="126.99" height="84.86" style="fill:#ebebeb"></rect><rect x="133.15" y="265.42" width="51.69" height="84.86" style="fill:#e0e0e0"></rect><rect x="71.96" y="282.23" width="44.5" height="51.25" style="fill:#fafafa"></rect><path d="M93.09,299.24v-7.63a.91.91,0,0,1,.91-.91h.34a.91.91,0,0,1,.91.91V292h5.66v1.93H95.33v5.34Z" style="fill:#ebebeb"></path><rect x="86.72" y="300.78" width="14.98" height="24.22" rx="2.29" style="fill:#ebebeb"></rect><path d="M91.75,297.7H97a1.05,1.05,0,0,1,1.05,1.05v2a0,0,0,0,1,0,0H90.69a0,0,0,0,1,0,0v-2A1.05,1.05,0,0,1,91.75,297.7Z" style="fill:#ebebeb"></path><rect x="93.76" y="305.73" width="6.49" height="13.56" style="fill:#fafafa"></rect><path d="M87.64,316.71a48.75,48.75,0,0,1-.26-7.06,48.75,48.75,0,0,1,.26-7.06,48.75,48.75,0,0,1,.26,7.06A48.75,48.75,0,0,1,87.64,316.71Z" style="fill:#fafafa"></path><rect x="74.33" y="278.87" width="3.3" height="6.09" style="fill:#e0e0e0"></rect><rect x="74.33" y="330.43" width="3.3" height="6.09" transform="translate(-74.01 26.1) rotate(-13.18)" style="fill:#e0e0e0"></rect><rect x="110.13" y="330.62" width="3.3" height="6.09" transform="translate(48.12 -12.42) rotate(8.1)" style="fill:#e0e0e0"></rect><rect x="110.26" y="278.87" width="3.3" height="6.09" style="fill:#e0e0e0"></rect><rect x="46.42" y="350.44" width="164.45" height="109.89" style="fill:#ebebeb"></rect><rect x="143.94" y="350.44" width="66.94" height="109.89" style="fill:#e0e0e0"></rect><rect x="64.79" y="369.7" width="59.53" height="68.81" transform="translate(-50.08 15.1) rotate(-7.23)" style="fill:#fafafa"></rect><path d="M114.84,394.37a2.23,2.23,0,0,0-.21-1.64c-.18-.32-.42-.53-.71-.27a56.78,56.78,0,0,0-2.54,5.55l-.66-8.62a1.87,1.87,0,0,0-.66-1.45c-.2-.16-.85-.32-1.27,1.18-.11.4-.66,7.61-.66,7.61l-.9-9.74a1.26,1.26,0,0,0-1.4-1.1.73.73,0,0,0-.2.05c-.62.25-1.08,11.11-1.08,11.11L102.14,388a1.42,1.42,0,0,0-2.34-.57c-.84.85,2.93,14.26,1.46,14.89s-2.76-3-5.25-3.71a2.63,2.63,0,0,0-1.22-.07,1.35,1.35,0,0,0-.46,2.39,25.26,25.26,0,0,1,4.28,5.14l4.58,13.53L115.55,418s-3.79-7.14-3.32-11C112.64,403.73,114.31,396.57,114.84,394.37Z" style="fill:#e0e0e0"></path><path d="M70.85,400a2.29,2.29,0,0,1-.21-1.64c.1-.35.28-.62.62-.44a54.47,54.47,0,0,1,3.85,4.74l-1.52-8.51a1.89,1.89,0,0,1,.28-1.57c.15-.21.75-.52,1.53.82.2.36,2.54,7.21,2.54,7.21l-1.56-9.66a1.27,1.27,0,0,1,1.08-1.42h.2c.66.08,3.83,10.48,3.83,10.48l.06-9.38a1.42,1.42,0,0,1,2.13-1.13c1,.6.72,14.53,2.3,14.78s1.92-3.63,4.16-4.9A2.48,2.48,0,0,1,91.3,399a1.36,1.36,0,0,1,1,2.2,25.22,25.22,0,0,0-2.87,6l-1,14.25L76.06,423s1.89-7.87.46-11.5C75.32,408.46,71.91,401.94,70.85,400Z" style="fill:#e0e0e0"></path><rect x="112.89" y="363.04" width="2.66" height="6.59" style="fill:#e0e0e0"></rect><rect x="63.97" y="369.48" width="2.66" height="6.59" transform="translate(-112.02 38.44) rotate(-18)" style="fill:#e0e0e0"></rect><rect x="123.53" y="431.83" width="2.66" height="6.59" transform="translate(-128.4 59.91) rotate(-18.01)" style="fill:#e0e0e0"></rect><rect x="71.78" y="439.16" width="2.66" height="6.59" style="fill:#e0e0e0"></rect><rect x="311.48" y="284.69" width="122.65" height="81.96" style="fill:#ebebeb"></rect><rect x="384.21" y="284.69" width="49.92" height="81.96" style="fill:#e0e0e0"></rect><rect x="325.17" y="299.06" width="44.4" height="51.32" transform="translate(-38.08 46.27) rotate(-7.23)" style="fill:#fafafa"></rect><path d="M362.5,317.46a1.69,1.69,0,0,0-.15-1.23c-.13-.23-.31-.39-.53-.2a41.74,41.74,0,0,0-1.89,4.14l-.49-6.43a1.44,1.44,0,0,0-.5-1.08c-.15-.12-.63-.23-.94.88-.09.3-.5,5.68-.5,5.68l-.67-7.27a.94.94,0,0,0-1.05-.82l-.14,0c-.46.18-.81,8.28-.81,8.28l-1.8-6.76a1.05,1.05,0,0,0-1.74-.42c-.62.63,2.18,10.63,1.09,11.1s-2.06-2.26-3.92-2.76a1.84,1.84,0,0,0-.91-.06,1,1,0,0,0-.34,1.78,19,19,0,0,1,3.19,3.83l3.42,10.1,9.22-1.17s-2.83-5.33-2.48-8.22C360.86,324.44,362.11,319.09,362.5,317.46Z" style="fill:#e0e0e0"></path><path d="M329.7,321.61a1.67,1.67,0,0,1-.16-1.22c.07-.26.21-.45.47-.33a43.26,43.26,0,0,1,2.86,3.54l-1.13-6.35a1.39,1.39,0,0,1,.21-1.17c.11-.15.56-.38,1.14.62.15.26,1.89,5.37,1.89,5.37l-1.16-7.2a1,1,0,0,1,.81-1.06h.15c.49.07,2.85,7.82,2.85,7.82l.05-7a1.06,1.06,0,0,1,1.58-.85c.77.45.54,10.84,1.72,11s1.43-2.71,3.1-3.66a1.94,1.94,0,0,1,.87-.28,1,1,0,0,1,.78,1.64,18.71,18.71,0,0,0-2.14,4.51l-.78,10.62-9.23,1.17s1.42-5.86.35-8.57C333,328,330.49,323.1,329.7,321.61Z" style="fill:#e0e0e0"></path><rect x="361.05" y="294.09" width="1.98" height="4.91" style="fill:#e0e0e0"></rect><rect x="324.56" y="298.89" width="1.98" height="4.91" transform="translate(-77.2 115.38) rotate(-18)" style="fill:#e0e0e0"></rect><rect x="368.99" y="345.4" width="1.98" height="4.91" transform="translate(-89.4 131.39) rotate(-18)" style="fill:#e0e0e0"></rect><rect x="330.39" y="350.86" width="1.98" height="4.91" style="fill:#e0e0e0"></rect><path d="M708.5,225.93c.58-4.28-5.45-7.8-10-8.16-2.16-.18-4.41.15-6.46-.56-4.44-1.55-6.21-7.28-10.54-9.11-3.24-1.37-7-.15-10.11,1.43s-6.25,3.57-9.75,3.79c-3.06.2-6.37-.93-9,.56-2,1.11-3,3.4-4.86,4.75s-4.14,1.61-6.36,1.73-4.53.14-6.56,1.07-3.7,3.07-3.28,5.26Z" style="fill:#fafafa"></path><path d="M263.88,65.63c.59-4.28-5.44-7.8-10-8.16-2.16-.18-4.41.15-6.46-.56-4.44-1.55-6.21-7.28-10.55-9.11-3.23-1.37-7-.15-10.1,1.43S220.54,52.8,217,53c-3.05.2-6.36-.93-9,.56-2,1.11-3,3.4-4.87,4.75s-4.13,1.61-6.36,1.73-4.53.14-6.55,1.07-3.71,3.07-3.29,5.26Z" style="fill:#fafafa"></path><path d="M710.46,88.54c.59-4.28-5.45-7.8-10-8.16-2.16-.18-4.41.15-6.46-.56-4.44-1.55-6.21-7.28-10.54-9.11-3.24-1.37-7-.15-10.11,1.43s-6.24,3.57-9.75,3.79c-3.05.2-6.37-.93-9,.56-2,1.11-3,3.4-4.86,4.75s-4.14,1.61-6.36,1.73-4.53.14-6.56,1.07-3.7,3.07-3.28,5.26Z" style="fill:#fafafa"></path><path d="M648.72,150c.75-5.44-6.93-9.92-12.7-10.39-2.75-.22-5.61.2-8.22-.71-5.65-2-7.9-9.26-13.41-11.59-4.12-1.73-8.87-.19-12.86,1.82s-7.95,4.54-12.41,4.83c-3.88.25-8.1-1.19-11.49.71-2.53,1.41-3.86,4.32-6.19,6s-5.26,2-8.09,2.2-5.77.18-8.34,1.36-4.72,3.91-4.18,6.69Z" style="fill:#f5f5f5"></path></g><g id="freepik--Floor--inject-7"><path d="M718,460.22c0,.14-156.66.26-349.86.26s-349.89-.12-349.89-.26S174.85,460,368.12,460,718,460.07,718,460.22Z" style="fill:#263238"></path></g><g id="freepik--character-2--inject-7"><path d="M592.91,325.4,585,357.22l-38.25-5.64L545.54,367l34.64,9.34a17.39,17.39,0,0,0,17.93-2.43h0a17.37,17.37,0,0,0,6-9.5l8.16-34.66Z" style="fill:#eb996e"></path><path d="M553.9,351.83l9.18-1.29,5.39,18.06-11.25.42s-14.63,1.83-25.46-.1c-2-.85-4.17-5.57-4.32-5.77-2-.76-2.91-3.85-3-5.16-1.93-1.69-2.63-3.49-.69-4.11-1.52-1.37.27-3.58,2-3,3.61,2,6.93,3.88,7.09,3.64,1-.51,12.07.83,9.29-4.67-2-.66-9.16-1.81-7.07-5.64,5.58,1.2,13.74,1.08,18.82,7.58" style="fill:#e0e0e0"></path><path d="M553.9,351.83l9.18-1.29,5.39,18.06-11.25.42s-14.63,1.83-25.46-.1c-2-.85-4.17-5.57-4.32-5.77-2-.76-2.91-3.85-3-5.16-1.93-1.69-2.63-3.49-.69-4.11-1.52-1.37.27-3.58,2-3,3.61,2,6.93,3.88,7.09,3.64,1-.51,12.07.83,9.29-4.67-2-.66-9.16-1.81-7.07-5.64,5.58,1.2,13.74,1.08,18.82,7.58" style="fill:none"></path><path d="M553.88,351.83a17.67,17.67,0,0,0-4.2-3.57,21,21,0,0,0-6.07-2.32c-2.48-.61-5.39-.89-8.59-1.51l.2-.09a2.19,2.19,0,0,0-.09,2.13A4.27,4.27,0,0,0,537,348a30.07,30.07,0,0,0,5.19,1.68l.09,0,0,.08a4.57,4.57,0,0,1,.46,1.48,2.08,2.08,0,0,1-.47,1.56,5,5,0,0,1-2.89,1.4,21.84,21.84,0,0,1-3.25.36l-1.66.05-.83,0a3.36,3.36,0,0,0-.73.09l.09-.08a.35.35,0,0,1-.15.12h-.2l-.15,0-.25-.09-.45-.19-.88-.44-1.76-.93-3.57-2,0,0a1.69,1.69,0,0,0-1.88.6,1.34,1.34,0,0,0,.14,1.93l.32.29-.41.14a1.45,1.45,0,0,0-.87.61,1.24,1.24,0,0,0,0,1.06,6.08,6.08,0,0,0,1.61,2l.08.07V358a8.18,8.18,0,0,0,.82,2.82,4.16,4.16,0,0,0,2,2.12l.09,0,0,.06c.31.58.56,1.09.88,1.64a19.33,19.33,0,0,0,1.46,2.29,5.61,5.61,0,0,0,1.86,1.75l-.05,0a72.52,72.52,0,0,0,13.18.88c4.26-.05,8.36-.32,12.2-.75h0l11.25-.4-.19.27c-2.18-7.42-4-13.58-5.31-18.09l.14.09-6.83.9-1.77.22-.6.05s.19-.05.59-.12l1.76-.28,6.81-1h.11l0,.1c1.36,4.49,3.23,10.64,5.47,18l.08.25h-.27l-11.25.46h0c-3.87.45-8,.73-12.25.8a72.88,72.88,0,0,1-13.28-.88h-.06a6,6,0,0,1-2.08-1.92,22.7,22.7,0,0,1-1.5-2.34l-.45-.83-.21-.41-.1-.19-.05-.1,0,0h0l.13-.09v.18a4.61,4.61,0,0,1-2.28-2.37,8.57,8.57,0,0,1-.87-3l.08.18a6.52,6.52,0,0,1-1.75-2.2,1.73,1.73,0,0,1,0-1.49,2,2,0,0,1,1.16-.86l-.09.44a2,2,0,0,1-.65-1.29,2,2,0,0,1,.45-1.34,2.22,2.22,0,0,1,2.45-.76h0l3.56,2,1.74.93.86.43.43.18.21.08.08,0s0,0,0,.05a.25.25,0,0,0,0,.12s0,0,0,0l-.09-.19a2.89,2.89,0,0,1,.94-.15l.84,0,1.65-.06a20.51,20.51,0,0,0,3.18-.33,4.69,4.69,0,0,0,2.63-1.23,1.62,1.62,0,0,0,.38-1.25,3.92,3.92,0,0,0-.41-1.31l.13.11a31,31,0,0,1-5.24-1.74,4.55,4.55,0,0,1-2-1.7,2.58,2.58,0,0,1,.11-2.5L535,344l.14,0c3.15.64,6.09.94,8.58,1.58a21.26,21.26,0,0,1,6.1,2.43,15.44,15.44,0,0,1,3.2,2.63l.68.83Z" style="fill:#263238"></path><path d="M539.76,359.26s-.22.12-.66.26a10.35,10.35,0,0,1-1.91.36,14.85,14.85,0,0,1-6.35-.72,15.2,15.2,0,0,1-5.48-3.31,10.07,10.07,0,0,1-1.28-1.45c-.27-.38-.4-.59-.37-.61s.69.74,1.9,1.79a16.47,16.47,0,0,0,11.55,3.94C538.76,359.43,539.74,359.17,539.76,359.26Z" style="fill:#263238"></path><path d="M539,363.59a6.37,6.37,0,0,1-2.39.44,13.75,13.75,0,0,1-5.78-1,13.92,13.92,0,0,1-4.85-3.32,6.54,6.54,0,0,1-1.4-2c.08-.05.61.71,1.67,1.73a15.19,15.19,0,0,0,10.35,4.21C538.06,363.68,539,363.5,539,363.59Z" style="fill:#263238"></path><path d="M540.61,366.78a7.57,7.57,0,0,1-2.07.33,17.75,17.75,0,0,1-5.08-.2,10.8,10.8,0,0,1-4.59-2.2,4.44,4.44,0,0,1-1.43-1.56c.07,0,.6.54,1.65,1.26a12,12,0,0,0,4.48,2,22.83,22.83,0,0,0,4.95.34A9.33,9.33,0,0,1,540.61,366.78Z" style="fill:#263238"></path><path d="M549.55,363.37a4.86,4.86,0,0,1-2.17-1,8.8,8.8,0,0,1-3.27-4.77,10.06,10.06,0,0,1-.27-3.21,8.36,8.36,0,0,0-.19-2.5,4,4,0,0,0-1.21-1.92s.25,0,.58.31a3.33,3.33,0,0,1,1,1.5,8.11,8.11,0,0,1,.32,2.62,10.19,10.19,0,0,0,.3,3.06,9.1,9.1,0,0,0,3,4.62C548.73,363,549.59,363.29,549.55,363.37Z" style="fill:#263238"></path><path d="M610.77,247.39l17.73,39.89a14.11,14.11,0,0,1-2.53,15.3h0a14.11,14.11,0,0,1-23-3.22l-4-8s-10.26,3.15-15-6.34c-2.22-4.44-6-13.8-9.41-22.5a20.71,20.71,0,0,1,10-26l.35-.17A19.63,19.63,0,0,1,610.77,247.39Z" style="fill:#ffbe9d"></path><path d="M599,291.36a24.59,24.59,0,0,0,10.72-9.57s.47,8.27-9.47,12Z" style="fill:#eb996e"></path><path d="M580.34,267.15a1.51,1.51,0,0,0,2,.73,1.45,1.45,0,0,0,.81-1.91,1.51,1.51,0,0,0-2-.73A1.44,1.44,0,0,0,580.34,267.15Z" style="fill:#263238"></path><path d="M578.61,265.51c.26.1.92-1.16,2.39-1.87s2.89-.5,3-.76-.29-.35-.93-.46a4.09,4.09,0,0,0-2.48.38,4,4,0,0,0-1.79,1.71C578.49,265.08,578.49,265.48,578.61,265.51Z" style="fill:#263238"></path><path d="M594.5,261a1.51,1.51,0,0,0,2,.73,1.44,1.44,0,0,0,.8-1.91,1.52,1.52,0,0,0-2-.74A1.45,1.45,0,0,0,594.5,261Z" style="fill:#263238"></path><path d="M593.15,258.79c.26.1.92-1.17,2.39-1.88s2.9-.49,3-.75-.29-.36-.92-.47a4.27,4.27,0,0,0-2.49.38,4,4,0,0,0-1.79,1.72C593,258.36,593,258.75,593.15,258.79Z" style="fill:#263238"></path><path d="M593.11,272.25a10.32,10.32,0,0,0-2.59.72c-.39.15-.78.24-1,0a2.12,2.12,0,0,1-.29-1.23c-.08-1.08-.18-2.21-.27-3.39-.44-4.81-.94-8.68-1.14-8.66s0,3.93.44,8.73c.11,1.18.22,2.31.33,3.38a2.36,2.36,0,0,0,.52,1.57,1,1,0,0,0,.88.24,2.59,2.59,0,0,0,.68-.22A11,11,0,0,0,593.11,272.25Z" style="fill:#263238"></path><path d="M597.92,271.16c-.24.11.52,1.7-.29,3.49s-2.59,2.44-2.5,2.67.53.12,1.26-.21a4.41,4.41,0,0,0,2.13-2.13,3.86,3.86,0,0,0,.14-2.87C598.39,271.41,598,271.1,597.92,271.16Z" style="fill:#263238"></path><path d="M590,253.23c.33.33,1.71-.57,3.53-1.2s3.44-.83,3.49-1.3c0-.22-.4-.48-1.15-.59a6.44,6.44,0,0,0-5.35,1.9C590,252.6,589.83,253.07,590,253.23Z" style="fill:#263238"></path><path d="M577.09,261c.42.21,1.26-.63,2.47-1.23s2.35-.87,2.42-1.33c0-.22-.3-.48-.91-.57a3.8,3.8,0,0,0-2.28.43,3.74,3.74,0,0,0-1.65,1.63C576.87,260.49,576.9,260.9,577.09,261Z" style="fill:#263238"></path><path d="M595.41,242.12h.08a8.3,8.3,0,0,1,5.14,3.5.94.94,0,0,1,.12.18c1.7,2.54,3,5.34,4.69,7.86s4,4.83,6.92,5.73c1.2.37,2.92.19,3.16-1a2.54,2.54,0,0,0-.26-1.42c-2.68-6.81-3.72-13.51-7.07-20.38A6.41,6.41,0,0,0,603.5,233c-1.94-.34-4.21-.55-5.45,1s-1.84,5.53-2.47,7.4" style="fill:#263238"></path><path d="M609.73,253.42c.13-.15,5.62-5.12,8.57,1.51s-4.3,8.22-4.39,8S609.73,253.42,609.73,253.42Z" style="fill:#ffbe9d"></path><path d="M614.81,259.55s.15,0,.39,0a1.31,1.31,0,0,0,.87-.37,3.14,3.14,0,0,0,.17-3.15,4.11,4.11,0,0,0-1.06-1.51,1.48,1.48,0,0,0-1.26-.5.65.65,0,0,0-.54.62c0,.23.09.34.06.37s-.19-.05-.26-.35a.81.81,0,0,1,.08-.53.92.92,0,0,1,.56-.45,1.74,1.74,0,0,1,1.66.49,4.2,4.2,0,0,1,1.23,1.66c.55,1.36.43,2.91-.41,3.62a1.33,1.33,0,0,1-1.13.29C614.89,259.71,614.79,259.58,614.81,259.55Z" style="fill:#eb996e"></path><path d="M599.93,235.61c.87-3.29-5-5.85-8.78-5.88s-7.75,3-10.81,5.17c-1.93,1.37-3.77,3-6.06,3.62a16,16,0,0,1-4.74.22,11.61,11.61,0,0,0-4.7.48,4.36,4.36,0,0,0-3,3.42c-.14,1.58,1.27,3.26,2.83,3a3.56,3.56,0,1,0,1,6.59c-1.21-.45-2.35,1.25-1.85,2.44a3.76,3.76,0,0,0,3.17,1.9c3.28.39,6.53-1,9.22-3s5-4.33,7.62-6.32,7-5.44,10.31-5.3c2.43.1,4.76,2.28,5.82,1.32a4.45,4.45,0,0,0,1.25-3.79,13,13,0,0,0-1.35-3.91" style="fill:#263238"></path><path d="M565.29,246s-.1.11-.25.35a2.15,2.15,0,0,0-.31,1.16,3,3,0,0,0,.59,1.78,3.13,3.13,0,0,0,2.12,1.24,5.93,5.93,0,0,0,3-.41,11.92,11.92,0,0,0,3-1.86,35.94,35.94,0,0,0,5.37-6.22,21.33,21.33,0,0,1,5.91-5.79,9.49,9.49,0,0,1,3.42-1.23,9,9,0,0,1,3.17.12,9.15,9.15,0,0,1,4.08,2,6.43,6.43,0,0,1,1.14,1.23s-.39-.46-1.21-1.14a9.38,9.38,0,0,0-4-1.88,8.8,8.8,0,0,0-3.09-.08,9.38,9.38,0,0,0-3.32,1.22,21.31,21.31,0,0,0-5.81,5.73,34.69,34.69,0,0,1-5.44,6.25,12,12,0,0,1-3.11,1.88,6,6,0,0,1-3.15.39,3.73,3.73,0,0,1-1.31-.48,3.12,3.12,0,0,1-.9-.87,3.16,3.16,0,0,1-.58-1.89,2.12,2.12,0,0,1,.38-1.18A1.48,1.48,0,0,1,565.29,246Z" style="fill:#455a64"></path><path d="M587.4,232.52s.14-.09.43-.2a6.74,6.74,0,0,1,1.24-.29,7.08,7.08,0,0,1,7.15,3.64,6.53,6.53,0,0,1,.5,1.18,1.73,1.73,0,0,1,.09.46c-.06,0-.23-.63-.78-1.53a7.28,7.28,0,0,0-6.93-3.53C588,232.33,587.42,232.57,587.4,232.52Z" style="fill:#455a64"></path><path d="M610.68,242.76s-.12.19-.47.38a2.9,2.9,0,0,1-1.65.32,4.2,4.2,0,0,1-2.29-1,12.62,12.62,0,0,1-2-2.23,12.15,12.15,0,0,0-2-2.19,4,4,0,0,0-2.16-.91,3,3,0,0,0-1.56.25c-.34.17-.5.32-.52.3a1.34,1.34,0,0,1,.46-.4,2.89,2.89,0,0,1,1.64-.36,4.11,4.11,0,0,1,2.31.9,11.87,11.87,0,0,1,2.05,2.22,12.26,12.26,0,0,0,2,2.2,4,4,0,0,0,2.13,1,3,3,0,0,0,1.57-.21C610.5,242.88,610.67,242.74,610.68,242.76Z" style="fill:#455a64"></path><path d="M612.22,247.31s0,.05-.14.12a3.5,3.5,0,0,1-.45.27,6.71,6.71,0,0,1-1.84.62,8.72,8.72,0,0,1-6.17-1.24,12.89,12.89,0,0,1-4.31-4.65,6.57,6.57,0,0,0-.57-.91,1.34,1.34,0,0,0-.64-.43,1.11,1.11,0,0,0-.67,0s.21-.24.69-.14a1.33,1.33,0,0,1,.74.43,5,5,0,0,1,.63.91,13.38,13.38,0,0,0,4.29,4.5,8.74,8.74,0,0,0,6,1.29A9.45,9.45,0,0,0,612.22,247.31Z" style="fill:#455a64"></path><path d="M581.44,280a120.41,120.41,0,0,1,10.47-6.2c3.65-1.73,8.58-3.63,10.75-5.83a42.36,42.36,0,0,0,4.58-6.12l7.13,3.63s2,13.69-6.31,20.06c-7.38,5.64-12.87,9.54-21.53,4.25C582.07,287.1,581.44,280,581.44,280Z" style="fill:#e0e0e0"></path><path d="M613.4,251.55a3.23,3.23,0,0,0-1.85.28A4.88,4.88,0,0,0,610,253.1a5.89,5.89,0,0,0-1.06,2.27,51.24,51.24,0,0,1-1.54,6.58,7.85,7.85,0,0,1,.19-2c.2-1.21.42-2.87.85-4.72a5.93,5.93,0,0,1,1.2-2.45,4.77,4.77,0,0,1,1.8-1.3,2.74,2.74,0,0,1,1.5-.18C613.25,251.4,613.41,251.52,613.4,251.55Z" style="fill:#e0e0e0"></path><path d="M617.59,261a8.9,8.9,0,0,1-1.42,2.59,8.56,8.56,0,0,1-1.86,2.31,16.8,16.8,0,0,1,3.28-4.9Z" style="fill:#e0e0e0"></path><path d="M609,268.82a4.18,4.18,0,0,1-.56.94,24.42,24.42,0,0,1-1.8,2.37,33.47,33.47,0,0,1-16.36,10.45,24.06,24.06,0,0,1-2.91.65,5.15,5.15,0,0,1-1.09.11c0-.1,1.52-.36,3.89-1.11a36.94,36.94,0,0,0,16.19-10.34C608,270,608.87,268.77,609,268.82Z" style="fill:#263238"></path><path d="M605.8,277.1a8.67,8.67,0,0,1-1.6,1.58,43.05,43.05,0,0,1-4.33,3.26,42.19,42.19,0,0,1-4.69,2.71,8.59,8.59,0,0,1-2.07.86c-.07-.14,3-1.68,6.47-4S605.69,277,605.8,277.1Z" style="fill:#263238"></path><path d="M596.32,306.32s-1.44.61-6.09,21.11l-2.39,12,22.51,4.15.58-4.53Z" style="fill:#455a64"></path><path d="M683.32,322.74c-13.27-35.63-26.31-42.62-32.84-45.18s-20.65,1.17-25.77,1.65c-4.61,11.54-11.42,19-21.16,21.15-2.68.35-5,2.9-7.23,6l30.12,67.43s35.22,1.63,46.17,2.32,17.7,9.09,24.69,11.88,9.08,0,9.08,0S696.6,358.37,683.32,322.74Z" style="fill:#03716E"></path><path d="M648.39,323.87c.56,5.69,1.45,13.94,9.59,17.17,4.95,2,11.95,4.68,16,1.21,3.33-2.87,3.77-7.9,3-12.23-1.22-7.1-4.7-14.12-7.55-20.74-4.08-9.48-10.9-23.42-20.15-28.29" style="fill:#455a64"></path><path d="M603.55,300.36h0c1.08,6.09,4.61,10.55,10,13.76l11.17-34.91C619.44,290.53,612.88,298.76,603.55,300.36Z" style="fill:#455a64"></path><path d="M624.42,369.23s37.87-7,69.26-18l-3.57-10c-17.22,7-43.5,16-69.46,19.54Z" style="fill:#e0e0e0"></path><path d="M685.3,367.62l12.32-5.25,3,8.59-3.29,1.21S690.73,368.15,685.3,367.62Z" style="fill:#e0e0e0"></path><path d="M692.28,369.67l-5.39,2.55L674,371.81s1.83-4.76,8-4.66A23.36,23.36,0,0,1,692.28,369.67Z" style="fill:#e0e0e0"></path><path d="M695,370.81c0,.09-1.61-.74-4.32-1.63A34.69,34.69,0,0,0,685.8,368a39.12,39.12,0,0,0-6.08-.55,39.55,39.55,0,0,0-6.09.51,35.15,35.15,0,0,0-4.85,1.19c-2.71.88-4.29,1.7-4.33,1.61a4.67,4.67,0,0,1,1.08-.62c.36-.19.8-.41,1.33-.63s1.12-.49,1.8-.71a31.88,31.88,0,0,1,4.89-1.31,36.73,36.73,0,0,1,6.17-.56,35.66,35.66,0,0,1,6.17.6,31.06,31.06,0,0,1,4.87,1.34c.69.22,1.28.5,1.8.72s1,.44,1.33.63A4.62,4.62,0,0,1,695,370.81Z" style="fill:#263238"></path><polygon points="681.71 372.17 673.89 373.75 661.48 372.62 664.17 371.72 681.71 372.17" style="fill:#e0e0e0"></polygon><path d="M699,378.69s-.42-.6-1.33-1.55a14.75,14.75,0,0,0-4.57-3.09,23.93,23.93,0,0,0-8-1.77c-3.11-.21-6.56-.14-10.17-.2-7.23-.07-13.77-.16-18.51-.25l-5.61-.14-1.52-.06a1.84,1.84,0,0,1-.53-.06,2.72,2.72,0,0,1,.53,0l1.52,0,5.61,0c4.74,0,11.28,0,18.51.1,3.62.06,7.06,0,10.2.24a23.53,23.53,0,0,1,8.13,1.92,14,14,0,0,1,4.57,3.28,10.65,10.65,0,0,1,.93,1.23A1.85,1.85,0,0,1,699,378.69Z" style="fill:#263238"></path><path d="M683.69,339.15a4.65,4.65,0,0,1-.84.88,13.31,13.31,0,0,1-2.76,1.83,25,25,0,0,1-10.65,2.22,24.3,24.3,0,0,1-10.58-2.5c-1.26-.6-2.25-1.14-2.92-1.53a5.16,5.16,0,0,1-1-.67c0-.08,1.54.76,4.08,1.86a25.58,25.58,0,0,0,10.42,2.32,26.5,26.5,0,0,0,10.5-2A21.48,21.48,0,0,0,683.69,339.15Z" style="fill:#263238"></path><path d="M625.42,341.25a4.81,4.81,0,0,1-.53-1c-.35-.79-.78-1.75-1.3-2.89l-4.27-9.53c-1.67-3.72-3.14-7.12-4.14-9.6-.51-1.24-.89-2.25-1.15-2.95a5.26,5.26,0,0,1-.34-1.12,5.52,5.52,0,0,1,.53,1c.35.78.78,1.75,1.3,2.89l4.27,9.53c1.67,3.72,3.14,7.11,4.14,9.59.51,1.24.89,2.26,1.15,3A5.49,5.49,0,0,1,625.42,341.25Z" style="fill:#263238"></path><path d="M666.82,412.82l31.57-5.21,6.68,39.24c-3.79.41-14.77-18.61-14.77-18.61l-20.09,4.16Z" style="fill:#03716E"></path><g style="opacity:0.6000000000000001"><path d="M686.54,416.39a1.61,1.61,0,0,1,1.64-1.41,1.56,1.56,0,0,1,1.42,1.61,1.72,1.72,0,0,1-1.75,1.49,1.62,1.62,0,0,1-1.29-1.84" style="fill:#fff"></path></g><g style="opacity:0.6000000000000001"><path d="M698.39,407.61l-3.16.65,7.58,37.38s1.06,1.62,2.26,1.21Z" style="fill:#fff"></path></g><path d="M690.21,428.91c.19,0,.11-1,.57-2.06s1.18-1.69,1.07-1.85-1.16.31-1.69,1.59S690,429,690.21,428.91Z" style="fill:#263238"></path><path d="M692.61,432.74c.2,0,.38-.88,1.08-1.67s1.52-1.12,1.48-1.31-1.14-.13-2,.87S692.43,432.76,692.61,432.74Z" style="fill:#263238"></path><path d="M697.94,434.23c0-.18-1-.28-2,.39s-1.23,1.64-1.06,1.69.64-.59,1.44-1.13S698,434.43,697.94,434.23Z" style="fill:#263238"></path><path d="M685.53,429.35c.16-.11-.26-.94-.37-2s.09-2-.09-2.07-.73.86-.58,2.15S685.39,429.47,685.53,429.35Z" style="fill:#263238"></path><path d="M680.71,429.21a3.77,3.77,0,0,0-.34-2,9,9,0,0,0-1.78-3,2.38,2.38,0,0,0-.56-.52.85.85,0,0,0-1,.09,1.06,1.06,0,0,0-.3.91,2.54,2.54,0,0,0,.23.72,6.31,6.31,0,0,0,.63,1.15,6.71,6.71,0,0,0,1.49,1.61c1,.77,1.77,1,1.8.89s-.63-.44-1.48-1.25a7.65,7.65,0,0,1-1.29-1.58,8.23,8.23,0,0,1-.54-1.07c-.18-.4-.24-.75-.08-.89s.09-.06.23,0a1.93,1.93,0,0,1,.41.37,10.71,10.71,0,0,1,1.82,2.72A15,15,0,0,0,680.71,429.21Z" style="fill:#263238"></path><path d="M680.94,428.91a3.21,3.21,0,0,0-2-.19,6.47,6.47,0,0,0-2.11.63,7.06,7.06,0,0,0-1.11.7,1.66,1.66,0,0,0-.78,1.43.93.93,0,0,0,.69.72,2.32,2.32,0,0,0,.76.08,4.29,4.29,0,0,0,1.32-.22,4.69,4.69,0,0,0,1.89-1.19c.88-.94,1-1.77.91-1.78s-.36.68-1.24,1.44a4.64,4.64,0,0,1-1.74.93,4.3,4.3,0,0,1-1.14.16c-.43,0-.79-.09-.78-.25s.22-.58.53-.8a7.42,7.42,0,0,1,1-.67,7.23,7.23,0,0,1,1.9-.71C680.18,428.94,680.93,429,680.94,428.91Z" style="fill:#263238"></path><path d="M638.92,398.71S596.53,421,588,430.89c-4.32,5-2.24,21.7,7.11,26.94s19.5,0,25.66-1.5,54.42-19.08,54.42-19.08l-6.73-38.54Z" style="fill:#263238"></path><path d="M633.26,427.49a6.91,6.91,0,0,1-1.08.88c-.37.26-.84.54-1.39.88s-1.19.67-1.93,1c-1.45.69-3.24,1.37-5.23,2.09a54.15,54.15,0,0,0-6.32,2.59,17.68,17.68,0,0,0-4.47,3.14,14.08,14.08,0,0,0-2.73,3.87,46.78,46.78,0,0,0-2.21,5.83l-.13.35,0-.36a4.43,4.43,0,0,1-.05-1,4.26,4.26,0,0,1,.22,1h-.16a32.72,32.72,0,0,1,2-6,14,14,0,0,1,2.76-4,17.44,17.44,0,0,1,4.58-3.26,52.72,52.72,0,0,1,6.4-2.59c2-.69,3.79-1.33,5.24-2A38.39,38.39,0,0,0,633.26,427.49Z" style="fill:#455a64"></path><path d="M613,437.63a24,24,0,0,0-4.54,2.84,23.76,23.76,0,0,0-3.42,4.11,9.11,9.11,0,0,1,3.08-4.51A9.24,9.24,0,0,1,613,437.63Z" style="fill:#455a64"></path><path d="M665.1,419.41l23.81,21.37-26.44,29.76c-2.68-2.7,5.29-23.16,5.29-23.16l-15.82-13.07Z" style="fill:#03716E"></path><g style="opacity:0.6000000000000001"><path d="M674.64,437a1.63,1.63,0,0,1,2.14.39,1.57,1.57,0,0,1-.37,2.12,1.71,1.71,0,0,1-2.26-.43,1.62,1.62,0,0,1,.63-2.16" style="fill:#fff"></path></g><g style="opacity:0.6000000000000001"><path d="M688.91,440.78l-2.48-2.06L662,468s-.6,1.84.46,2.52Z" style="fill:#fff"></path></g><path d="M667.18,447.72c.15.13.86-.54,2-.84s2.05-.14,2.11-.32-1-.72-2.3-.33S667,447.64,667.18,447.72Z" style="fill:#263238"></path><path d="M665.69,452c.12.16.92-.25,2-.2s1.82.49,2,.34-.62-1-1.93-1S665.56,451.87,665.69,452Z" style="fill:#263238"></path><path d="M667.86,457.08c.14-.1-.4-.95-1.53-1.28s-2.05.06-2,.23.86.13,1.79.42S667.71,457.21,667.86,457.08Z" style="fill:#263238"></path><path d="M663.9,444.35c.19,0,.58-.79,1.37-1.56s1.61-1.19,1.55-1.37-1.12,0-2,.89S663.72,444.32,663.9,444.35Z" style="fill:#263238"></path><path d="M661,440.5c.06.06.66-.44,1.32-1.5a9,9,0,0,0,.9-2,9.28,9.28,0,0,0,.31-1.26,2.57,2.57,0,0,0,.05-.76.85.85,0,0,0-.71-.76,1.07,1.07,0,0,0-.9.35,2.61,2.61,0,0,0-.42.62,7,7,0,0,0-.83,3.39,3.26,3.26,0,0,0,.44,1.95c.1,0,0-.76,0-1.93a8.29,8.29,0,0,1,.43-2,7.54,7.54,0,0,1,.5-1.09c.2-.39.43-.66.65-.61s.1,0,.13.18a1.8,1.8,0,0,1,0,.55c-.07.42-.15.82-.25,1.19a11.36,11.36,0,0,1-.73,1.93A14.34,14.34,0,0,0,661,440.5Z" style="fill:#263238"></path><path d="M661.38,440.5c.07,0-.2-.79-1.09-1.68a6.73,6.73,0,0,0-1.82-1.24,6.46,6.46,0,0,0-1.24-.43,1.64,1.64,0,0,0-1.59.29.92.92,0,0,0-.14,1,2.61,2.61,0,0,0,.41.64,4.38,4.38,0,0,0,1,.89,4.57,4.57,0,0,0,2.11.73,2.64,2.64,0,0,0,2-.4c0-.12-.76.14-1.9-.07a4.64,4.64,0,0,1-1.82-.78,3.87,3.87,0,0,1-.83-.79c-.28-.33-.43-.67-.29-.76a1.15,1.15,0,0,1,1-.09,8,8,0,0,1,1.14.35,7.27,7.27,0,0,1,1.74,1C660.88,439.92,661.29,440.56,661.38,440.5Z" style="fill:#263238"></path><path d="M616.34,368.5a25.61,25.61,0,0,0-14.23,2.67c-2.42,1.28-4.87,2.94-6,5.39-3.64,7.84-4.71,19.75,1.76,26.42,5.46,5.64,55.74,38.71,55.74,38.71L674.18,425l-12.92-12s19.54,2.89,27-.1,18.89-12.84,15.06-24.76l-2.82-3.4a28.94,28.94,0,0,0-19.62-10.33Z" style="fill:#263238"></path><path d="M674.12,425a2.07,2.07,0,0,1-.36.35l-1.11.94-4.2,3.48-14.77,12-.14.11-.15-.1-12.89-8.75L616,416.26l-7.4-5.14-2-1.42a4.41,4.41,0,0,1-.67-.53,6.59,6.59,0,0,1,.73.44l2,1.34,7.5,5,24.62,16.68,12.87,8.78h-.29l14.88-11.88,4.3-3.37,1.15-.89A3.35,3.35,0,0,1,674.12,425Z" style="fill:#455a64"></path><path d="M609.77,386a6.08,6.08,0,0,1,.76-.26c.5-.15,1.25-.35,2.23-.56a31.75,31.75,0,0,1,8.43-.73,23,23,0,0,1,11.83,4c4,2.61,7.6,6.42,11.46,10.23s7.84,7.15,11.37,10.27l9.44,8.23c2.66,2.31,4.83,4.19,6.37,5.54l1.73,1.51a5.67,5.67,0,0,1,.58.55,4.59,4.59,0,0,1-.65-.47l-1.79-1.44c-1.54-1.26-3.76-3.11-6.48-5.41s-6-5.06-9.52-8.15S648,402.83,644.11,399s-7.44-7.61-11.36-10.2a22.73,22.73,0,0,0-11.59-4,33.16,33.16,0,0,0-8.36.56c-1,.18-1.73.35-2.25.47A3.85,3.85,0,0,1,609.77,386Z" style="fill:#455a64"></path><path d="M632.45,388.63a31.55,31.55,0,0,0-11.61-8.06,6.37,6.37,0,0,1,2,.55,21.28,21.28,0,0,1,8.34,5.79A6.3,6.3,0,0,1,632.45,388.63Z" style="fill:#455a64"></path><rect x="528.77" y="350.85" width="34.61" height="55.49" style="fill:#fafafa"></rect><path d="M563.38,406.36H528.77a0,0,0,0,1,0,0V350.85s0,0,0,0h34.61a0,0,0,0,1,0,0v55.49S563.4,406.36,563.38,406.36Zm-34.58-.05h34.56V350.87H528.8Z" style="fill:#263238"></path><ellipse cx="546.08" cy="350.85" rx="17.31" ry="2.78" style="fill:#e0e0e0"></ellipse><path d="M552.45,350.56c0,.56-2.85,1-6.37,1s-6.37-.46-6.37-1,2.85-1,6.37-1S552.45,350,552.45,350.56Z" style="fill:#263238"></path><path d="M553,406.19c-.14,0-.26-11.76-.26-26.28s.12-26.28.26-26.28.26,11.77.26,26.28S553.14,406.19,553,406.19Z" style="fill:#263238"></path><path d="M581.86,354.26l50.61-15.11-.05-27.38s5.76-7.25,12.32-7.14S656.25,311,656.25,311L655,338.72c-.39,8.37-2.61,19.42-13.1,21.24l-56,9.27Z" style="fill:#ffbe9d"></path><path d="M657.1,289.71c-2.55-9.82-17.22-13.84-23.54-5.9-2.47,3.11-3.84,10.11-3.84,13.33,0,8,1,19.93,1,19.93l23.13,1.79a4.89,4.89,0,0,0,5.27-4.82C659.18,307.7,659,296.94,657.1,289.71Z" style="fill:#455a64"></path><path d="M655.29,290.53a2.46,2.46,0,0,1,.24.54c.15.35.36.88.58,1.57a40,40,0,0,1,1.41,6c.44,2.57.73,5.66,1.07,9.07.17,1.71.36,3.5.63,5.34.12.93.32,1.82.52,2.79a6.34,6.34,0,0,1,.11,1.52,1.89,1.89,0,0,1-.75,1.46,2.9,2.9,0,0,1-1.57.34c-.5,0-1,0-1.48-.05-1-.06-1.91-.17-2.84-.22l-5.38-.34-9.1-.62-6.13-.45-1.67-.16a3.93,3.93,0,0,1-.58-.08,2,2,0,0,1,.59,0l1.67,0,6.14.3,9.11.5,5.38.31c.93.05,1.89.16,2.84.22.48,0,1,0,1.44,0a2.43,2.43,0,0,0,1.28-.25c.69-.47.58-1.57.43-2.46s-.4-1.88-.51-2.81c-.27-1.85-.45-3.65-.61-5.36-.31-3.42-.57-6.5-1-9.06a45.86,45.86,0,0,0-1.25-6C655.53,291.31,655.24,290.55,655.29,290.53Z" style="fill:#263238"></path><path d="M641.77,347a31.28,31.28,0,0,0-4.19-4.68,32.68,32.68,0,0,0-5.33-3.31,5.23,5.23,0,0,1,1.8.53,15.86,15.86,0,0,1,3.86,2.38,15.58,15.58,0,0,1,3,3.4A5.11,5.11,0,0,1,641.77,347Z" style="fill:#eb996e"></path><path d="M584.31,353.53l8.88-2.65,8,17L590.17,370S576,374,565,373.74c-2.1-.54-5-4.88-5.14-5.05-2.08-.46-3.45-3.38-3.73-4.66-2.16-1.38-3.13-3-1.3-4-1.7-1.13-.27-3.58,1.53-3.22,3.87,1.47,7.43,2.8,7.55,2.53.88-.65,12.06-1,8.48-6-2.08-.34-9.32-.41-7.83-4.51,5.7.35,13.74-1,19.74,4.67" style="fill:#e0e0e0"></path><path d="M584.31,353.53l8.88-2.65,8,17L590.17,370S576,374,565,373.74c-2.1-.54-5-4.88-5.14-5.05-2.08-.46-3.45-3.38-3.73-4.66-2.16-1.38-3.13-3-1.3-4-1.7-1.13-.27-3.58,1.53-3.22,3.87,1.47,7.43,2.8,7.55,2.53.88-.65,12.06-1,8.48-6-2.08-.34-9.32-.41-7.83-4.51,5.7.35,13.74-1,19.74,4.67" style="fill:none"></path><path d="M584.29,353.53a17.52,17.52,0,0,0-4.68-2.9,21.32,21.32,0,0,0-6.35-1.39c-2.55-.23-5.46-.06-8.72-.2l.18-.12A2.2,2.2,0,0,0,565,351a4.25,4.25,0,0,0,2.08,1.24,31.12,31.12,0,0,0,5.39.88h.09l0,.08a4.39,4.39,0,0,1,.68,1.39,2.15,2.15,0,0,1-.23,1.62,5.12,5.12,0,0,1-2.65,1.81,22.25,22.25,0,0,1-3.16.84l-1.63.31-.82.15a3.6,3.6,0,0,0-.71.21l.08-.1a.32.32,0,0,1-.14.14l-.08,0h-.26l-.26,0-.48-.13-.93-.3-1.88-.66-3.83-1.43h0a1.71,1.71,0,0,0-1.77.88,1.45,1.45,0,0,0-.19,1,1.43,1.43,0,0,0,.62.85l.36.24-.38.21a1.42,1.42,0,0,0-.77.73,1.22,1.22,0,0,0,.19,1,6.13,6.13,0,0,0,1.9,1.74l.09.06,0,.11a8.12,8.12,0,0,0,1.23,2.66,4.1,4.1,0,0,0,2.3,1.79l.09,0,0,.06c.4.52.72,1,1.12,1.49a21.85,21.85,0,0,0,1.78,2,5.72,5.72,0,0,0,2.11,1.45h0a73.19,73.19,0,0,0,13.16-1.1c4.2-.7,8.21-1.57,12-2.58h0l11.06-2.08-.14.29-8-17.08.15.07-6.62,1.91-1.71.48-.59.14.57-.21,1.7-.54,6.58-2,.1,0,0,.1,8.11,17,.12.24-.27.06-11,2.13h0a121.8,121.8,0,0,1-12,2.62A74,74,0,0,1,565,374h-.06a6,6,0,0,1-2.34-1.58,21.39,21.39,0,0,1-1.83-2.09l-.57-.75-.27-.37-.13-.18-.07-.09,0,0v0h0l.11-.11,0,.18a4.61,4.61,0,0,1-2.61-2,8.54,8.54,0,0,1-1.32-2.86l.12.17a6.65,6.65,0,0,1-2.07-1.92,1.71,1.71,0,0,1-.23-1.47,1.92,1.92,0,0,1,1-1l0,.44a2,2,0,0,1-.84-1.17,2,2,0,0,1,.25-1.39,2.2,2.2,0,0,1,2.31-1.12h0l3.82,1.44,1.86.66.92.29.45.13.21,0h.09s0-.06,0,.05a.23.23,0,0,0,0,.11s0,0,0,0l-.11-.18a3.06,3.06,0,0,1,.89-.29l.83-.15,1.63-.3a21.52,21.52,0,0,0,3.09-.81,4.66,4.66,0,0,0,2.42-1.61,1.67,1.67,0,0,0,.19-1.29,4.31,4.31,0,0,0-.6-1.24l.14.09a30.86,30.86,0,0,1-5.45-.93,4.55,4.55,0,0,1-2.25-1.38,2.57,2.57,0,0,1-.27-2.49l0-.13h.14c3.22.16,6.16,0,8.72.28a21,21,0,0,1,6.4,1.49,15.63,15.63,0,0,1,3.56,2.12l.79.72A2,2,0,0,1,584.29,353.53Z" style="fill:#263238"></path><path d="M571.45,363s-.2.16-.62.36A11.39,11.39,0,0,1,569,364a15,15,0,0,1-12.3-2.22,11.33,11.33,0,0,1-1.49-1.24c-.32-.33-.48-.52-.45-.55s.79.63,2.15,1.49a16.47,16.47,0,0,0,5.79,2.23,16.74,16.74,0,0,0,6.22-.07C570.49,363.31,571.41,362.91,571.45,363Z" style="fill:#263238"></path><path d="M571.34,367.39a6.36,6.36,0,0,1-2.3.8,13.82,13.82,0,0,1-5.87-.13,13.68,13.68,0,0,1-5.28-2.56,6.55,6.55,0,0,1-1.69-1.75c.07-.06.71.61,1.91,1.46A15.19,15.19,0,0,0,569,367.82C570.43,367.61,571.3,367.31,571.34,367.39Z" style="fill:#263238"></path><path d="M573.41,370.3a7.65,7.65,0,0,1-2,.64,17.85,17.85,0,0,1-5.06.56A10.65,10.65,0,0,1,561.5,370a4.69,4.69,0,0,1-1.65-1.32c.06-.06.67.44,1.82,1a12.07,12.07,0,0,0,4.72,1.29,21.84,21.84,0,0,0,5-.41A10,10,0,0,1,573.41,370.3Z" style="fill:#263238"></path></g><g id="freepik--character-1--inject-7"><path d="M192.31,212.57s1.14,32.7,4.64,35.26S230.72,259,230.72,259l18.3-2.93L214.61,237l-3-31.58Z" style="fill:#b78876"></path><path d="M258.26,258.44s4.53,2.51,5.75,3.08,2.27-1.91,1-3c-.91-.79-4.12-3.09-5.94-4.39a3.53,3.53,0,0,0-2.84-.55L249,254l-9.42-5.2-10.73,12.67,10.21,4.63s1.18,1.92,2.35,2.2,5.36-1,5.36-1,5.24,5.48,7.13,3.9-2-5.45-2-5.45,5.3,5.31,6.85,3.77-2.61-6.4-2.61-6.4,2.83,2.3,4.54,3.55,3.43-1.39,2.92-2Z" style="fill:#e0e0e0"></path><path d="M258.26,258.44l3.32,3.72,1.73,2a5.28,5.28,0,0,1,.49.59,1.2,1.2,0,0,1-.08.86,2.92,2.92,0,0,1-1.1,1.3,1.71,1.71,0,0,1-1.82,0c-.53-.35-1-.75-1.51-1.14l-3.23-2.51.25-.26a20.34,20.34,0,0,1,2.06,2.88,8,8,0,0,1,.79,1.73,2.08,2.08,0,0,1-.21,2,1.25,1.25,0,0,1-1.07.36,3.2,3.2,0,0,1-1-.27,10.26,10.26,0,0,1-1.81-1.05,28,28,0,0,1-3.28-2.77l.33-.33a12.29,12.29,0,0,1,2.15,2.89,3.35,3.35,0,0,1,.41,1.9,1.59,1.59,0,0,1-1.49,1.36,4,4,0,0,1-1.92-.55,12.94,12.94,0,0,1-1.65-1.07,26.43,26.43,0,0,1-3-2.63l.26.06a29.66,29.66,0,0,1-4.23,1,4.2,4.2,0,0,1-1.18,0,2.37,2.37,0,0,1-1.09-.56,8,8,0,0,1-1.5-1.77l.11.1-4.15-1.88-6.06-2.74-.31-.15.22-.26,10.75-12.65.12-.15.18.09,9.41,5.22-.12,0,7.19-.41h0a3.73,3.73,0,0,1,2.45.28,5.56,5.56,0,0,1,1,.65l.9.67,3.34,2.49.77.57a3.49,3.49,0,0,1,.72.62,2.15,2.15,0,0,1,.35,1.77,1.6,1.6,0,0,1-1,1.28,1.07,1.07,0,0,1-.78-.13l-.61-.34-5-2.79,5.05,2.59c.42.17.85.57,1.28.43a1.36,1.36,0,0,0,.83-1.1,1.87,1.87,0,0,0-.32-1.54,3.57,3.57,0,0,0-.68-.56l-.78-.56-3.35-2.45-.9-.66a5.94,5.94,0,0,0-.93-.61,3.38,3.38,0,0,0-2.2-.23h0l-7.19.45H249l-.05,0L239.48,249l.31-.06-10.72,12.68-.09-.41L235,264l4.16,1.88.06,0,.05.07c.81,1.17,1.8,2.51,3.27,2.07a31.16,31.16,0,0,0,4.14-1l.15-.05.11.11a27.11,27.11,0,0,0,2.91,2.59,13,13,0,0,0,1.59,1,3.57,3.57,0,0,0,1.67.5,1.09,1.09,0,0,0,1-.95,2.87,2.87,0,0,0-.36-1.61,11.51,11.51,0,0,0-2.05-2.77l.33-.33a27.11,27.11,0,0,0,3.21,2.74,9.78,9.78,0,0,0,1.72,1c.57.25,1.27.41,1.63,0a1.72,1.72,0,0,0,.12-1.62,7.64,7.64,0,0,0-.74-1.65,21.07,21.07,0,0,0-2-2.84L255,261.92l1.34,1.05,3.2,2.54c.5.38,1,.81,1.47,1.13a1.4,1.4,0,0,0,1.51,0,2.6,2.6,0,0,0,1-1.16,1,1,0,0,0,.09-.64,6.49,6.49,0,0,0-.45-.56l-1.73-2.06Z" style="fill:#263238"></path><path d="M247.88,255.53a9.56,9.56,0,0,0,1,.54,7.39,7.39,0,0,0,3.15.34,16.78,16.78,0,0,1,2.26,0,4.67,4.67,0,0,1,2.51.89,2.83,2.83,0,0,1,.94,1.16,2.31,2.31,0,0,1-.95,2.9,1.87,1.87,0,0,1-1.71,0,7.16,7.16,0,0,0-1.37-.6,3.06,3.06,0,0,0-1.38,0,8.4,8.4,0,0,0-2.53,1.09,10.16,10.16,0,0,1-2.38,1.09,5.19,5.19,0,0,1-2.31.06,5.3,5.3,0,0,1-2.88-1.57,4.73,4.73,0,0,1-.54-.71.86.86,0,0,1-.13-.29s.26.34.81.86a5.46,5.46,0,0,0,2.81,1.35,4.83,4.83,0,0,0,2.12-.12,9.92,9.92,0,0,0,2.26-1.09,8.7,8.7,0,0,1,2.66-1.17,3.75,3.75,0,0,1,1.6,0,7.65,7.65,0,0,1,1.47.63,1.35,1.35,0,0,0,1.26.05,1.68,1.68,0,0,0,.78-1,2,2,0,0,0-.82-2.22c-1.39-1.07-3.13-.88-4.47-.88a7.13,7.13,0,0,1-3.24-.52,3.12,3.12,0,0,1-.75-.49C247.93,255.63,247.87,255.54,247.88,255.53Z" style="fill:#263238"></path><path d="M252.21,266.18c-.13.06-.62-.74-1.54-1.36s-1.83-.81-1.82-1,1.07-.2,2.11.53S252.34,266.14,252.21,266.18Z" style="fill:#263238"></path><path d="M256.64,263.86c-.14.06-.63-1-1.79-1.74a12.35,12.35,0,0,0-2.32-.92c0-.06.29-.16.79-.13a3.72,3.72,0,0,1,1.81.62,3.85,3.85,0,0,1,1.31,1.4C256.66,263.53,256.7,263.84,256.64,263.86Z" style="fill:#263238"></path><path d="M127.43,428.42l0,32,39.8.26c-.21-3.8-20.75-11.57-20.75-11.57l.87-20.5Z" style="fill:#03716E"></path><g style="opacity:0.6000000000000001"><path d="M134.14,447.29a1.63,1.63,0,0,0-1.13,1.85,1.55,1.55,0,0,0,1.82,1.14,1.7,1.7,0,0,0,1.19-2,1.62,1.62,0,0,0-2-1" style="fill:#fff"></path></g><g style="opacity:0.6000000000000001"><path d="M127.39,460.41l.13-3.22,38.11,1.45s1.77.78,1.56,2Z" style="fill:#fff"></path></g><path d="M147.09,448.9c0,.19-1,.28-1.94.89s-1.48,1.44-1.66,1.36.12-1.2,1.3-1.93S147.13,448.72,147.09,448.9Z" style="fill:#263238"></path><path d="M151.25,450.65c.05.19-.8.52-1.46,1.33s-.87,1.69-1.06,1.68-.31-1.11.54-2.11S151.25,450.47,151.25,450.65Z" style="fill:#263238"></path><path d="M153.59,455.67c-.18,0-.44-.94.07-2s1.41-1.48,1.49-1.31-.48.72-.88,1.6S153.78,455.65,153.59,455.67Z" style="fill:#263238"></path><path d="M146.77,444.21c-.08.17-1-.1-2.07,0s-2,.4-2.06.24.73-.86,2-.92S146.86,444.05,146.77,444.21Z" style="fill:#263238"></path><path d="M145.85,439.48a3.77,3.77,0,0,1-2,0,8.9,8.9,0,0,1-2.08-.65,8,8,0,0,1-1.14-.62,2,2,0,0,1-.6-.47.83.83,0,0,1-.09-1,1.05,1.05,0,0,1,.86-.44,2.42,2.42,0,0,1,.75.11,7.41,7.41,0,0,1,1.23.43,6.77,6.77,0,0,1,1.83,1.22c.92.86,1.23,1.59,1.16,1.63s-.53-.55-1.46-1.26a7.79,7.79,0,0,0-1.78-1,7.25,7.25,0,0,0-1.14-.36c-.42-.11-.78-.12-.89.07s0,.1,0,.22a2.2,2.2,0,0,0,.45.35c.35.23.7.43,1,.61A11,11,0,0,0,144,439,12,12,0,0,1,145.85,439.48Z" style="fill:#263238"></path><path d="M145.6,439.75a3.18,3.18,0,0,1-.52-1.92,6.52,6.52,0,0,1,.8-3.39,1.67,1.67,0,0,1,1.28-1,.93.93,0,0,1,.83.56,2.51,2.51,0,0,1,.2.73,4.35,4.35,0,0,1,0,1.35,4.64,4.64,0,0,1-.86,2.05c-.79,1-1.6,1.25-1.61,1.19s.61-.47,1.21-1.46a4.54,4.54,0,0,0,.65-1.87,4.45,4.45,0,0,0,0-1.15c-.06-.42-.22-.77-.38-.72s-.53.31-.7.64a6.51,6.51,0,0,0-.5,1.08,7.3,7.3,0,0,0-.4,2C145.5,439,145.7,439.73,145.6,439.75Z" style="fill:#263238"></path><path d="M58.73,415.18,46.42,444.72l36.66,15.5c1.27-3.6-14.73-18.65-14.73-18.65L77,423Z" style="fill:#03716E"></path><g style="opacity:0.6000000000000001"><path d="M57.69,435.19a1.64,1.64,0,0,0-1.76,1.27,1.57,1.57,0,0,0,1.25,1.76A1.71,1.71,0,0,0,59,436.86a1.62,1.62,0,0,0-1.5-1.68" style="fill:#fff"></path></g><g style="opacity:0.6000000000000001"><path d="M46.42,444.72l1.36-2.93,34.64,15.95s1.33,1.41.66,2.48Z" style="fill:#fff"></path></g><path d="M69,441.64c-.08.17-1-.12-2.14.08s-1.91.76-2,.62.56-1.07,1.93-1.29S69.14,441.49,69,441.64Z" style="fill:#263238"></path><path d="M72.2,444.85c0,.19-.94.17-1.86.67s-1.45,1.23-1.62,1.15.14-1.15,1.3-1.75S72.27,444.68,72.2,444.85Z" style="fill:#263238"></path><path d="M72.44,450.38c-.18,0,0-1,.82-1.82s1.88-.82,1.89-.64-.73.49-1.43,1.14S72.62,450.44,72.44,450.38Z" style="fill:#263238"></path><path d="M70.53,437.18c-.14.13-.86-.46-1.9-.82s-2-.38-2-.57,1-.51,2.22-.07S70.68,437.08,70.53,437.18Z" style="fill:#263238"></path><path d="M71.5,432.46c0,.08-.79-.11-1.83-.78A8.85,8.85,0,0,1,68,430.27a9.27,9.27,0,0,1-.81-1,2.46,2.46,0,0,1-.38-.67.86.86,0,0,1,.32-1,1.06,1.06,0,0,1,1-.07,2.48,2.48,0,0,1,.65.38,7,7,0,0,1,1,.88,7.23,7.23,0,0,1,1.22,1.82,3.37,3.37,0,0,1,.45,1.95c-.11,0-.28-.71-.87-1.72a8.13,8.13,0,0,0-1.25-1.62,7.07,7.07,0,0,0-.92-.77c-.34-.27-.67-.41-.85-.28s-.08.08,0,.22a2,2,0,0,0,.27.49c.24.35.49.67.74,1a11.43,11.43,0,0,0,1.48,1.43A14.52,14.52,0,0,1,71.5,432.46Z" style="fill:#263238"></path><path d="M71.16,432.62a3.15,3.15,0,0,1,.26-2,6.4,6.4,0,0,1,1.1-1.9,6.31,6.31,0,0,1,.94-.92,1.64,1.64,0,0,1,1.56-.43.93.93,0,0,1,.55.83,2.52,2.52,0,0,1-.09.76,4.7,4.7,0,0,1-.52,1.23,4.55,4.55,0,0,1-1.59,1.57,2.59,2.59,0,0,1-1.94.48c0-.12.74-.2,1.68-.88a4.68,4.68,0,0,0,1.31-1.48,4.1,4.1,0,0,0,.41-1.08c.11-.41.1-.79-.07-.81a1.12,1.12,0,0,0-.89.33,6.22,6.22,0,0,0-.88.81,6.88,6.88,0,0,0-1.13,1.68C71.36,431.88,71.26,432.63,71.16,432.62Z" style="fill:#263238"></path><path d="M115.37,233.79a53.88,53.88,0,0,0-17.73,30.74c-3.55,19.7-7.88,65.41-7.88,65.41L52.88,422.48l24.19,9.38s39.92-77.61,43.08-86.68S137,286.76,137,286.76l0,66.82L126.2,437.32,154,435.59s17.3-102.1,17.3-137.18l1.58-25.22Z" style="fill:#263238"></path><path d="M141.35,153.75c2.51-.6,5.35.39,7.64-.8,2.54-1.31,3.31-4.71,5.66-6.33,1.92-1.32,4.48-1.19,6.67-2,3.14-1.17,5.19-4.15,6.94-7,4.33-7,8.22-14.44,13.87-20.46s13.49-10.63,21.73-10.12l24.44,13c2.07,4.67,1.6,10.13,0,15s-4.21,9.29-6.47,13.88-4.2,9.48-4.24,14.59c0,3.61.88,7.17.93,10.78a17,17,0,0,1-2.79,10,11.43,11.43,0,0,1-8.86,5c-3.75.06-7.21-2.06-9.9-4.66-2.83-2.75-11.13-4.05-12.13-7.87-.57-2.19-1.91-6-2.58-9.52l-44.68,32.12c-4,2.66-9.92-.2-11.81-4.65s-.73-9.61,1.23-14,4.71-8.48,6.17-13.08c.85-2.7,1.25-5.54,2.33-8.16S138.59,154.39,141.35,153.75Z" style="fill:#263238"></path><path d="M190.84,221.88l22.73-9.25s-1.13-29.79-5.39-29.47S190.84,221.88,190.84,221.88Z" style="fill:#455a64"></path><path d="M97.64,264.53c3.63-22,15.21-32.63,28.53-48.74l38.48-62.19,15.74,5.52,20.86,9.78,6.93,14.26a183.62,183.62,0,0,1-9.47,30s-10.69,15.4-24.06,35.62l-1.74,34.7Z" style="fill:#03716E"></path><polygon points="179.84 158.86 201.25 168.9 204.43 174.77 177.25 206.65 179.84 158.86" style="fill:#455a64"></polygon><path d="M164.65,153.6s-6.42-3-15.18.29-20.74,23.52-20.74,23.52L148.51,194S166.17,158,164.65,153.6Z" style="fill:#455a64"></path><path d="M173.44,272.92,101,251.86c1.24-3.07,4.41-9.26,5.61-11.32l67.27,23.68Z" style="fill:#e0e0e0"></path><polygon points="112.89 231.67 174.3 255.73 174.65 248.77 177.14 245.02 121.03 221.88 112.89 231.67" style="fill:#e0e0e0"></polygon><path d="M177.88,206.17a3.74,3.74,0,0,1-.16.58c-.14.42-.32,1-.55,1.63-.48,1.42-1.21,3.45-2.15,6-1.88,5-4.64,11.87-8,19.31s-6.66,14.05-9.16,18.78c-1.25,2.36-2.29,4.26-3,5.56l-.86,1.49a2.15,2.15,0,0,1-.33.5,2.66,2.66,0,0,1,.24-.55c.2-.4.46-.91.77-1.54l2.88-5.63c2.42-4.76,5.67-11.39,9-18.82s6.15-14.26,8.12-19.23l2.3-5.89.64-1.6A2.12,2.12,0,0,1,177.88,206.17Z" style="fill:#263238"></path><path d="M228.63,120a18,18,0,0,0-8.94-11.45c-6-3.62-13.57-5.34-20.33-3.49-6.2,1.69-11.18,6.55-14.25,12.19-1.09,2-1.25,4.25-1.46,6.51a11.92,11.92,0,0,0,2.55,7.45c1.48,1.72,2.51,1.4,4.64.62a9.9,9.9,0,0,0,3.33-2.43c4.22-4.06,8.75-8,14.11-10.34s11.67-3.12,17.06-.8" style="fill:#03716E"></path><path d="M226.58,132.62a13.94,13.94,0,0,0,2-12.64,18.34,18.34,0,0,0-5.85-8,19.73,19.73,0,0,0-12.27-4.9c-4.49,0-9.1,2.22-11.27,6.15-1,1.79-1.47,3.88-2.83,5.4-.59.67-1.36,1.28-1.48,2.16a2.13,2.13,0,0,0,1.14,2,4.78,4.78,0,0,0,2.36.49,25.35,25.35,0,0,0,8-1.81" style="fill:#263238"></path><path d="M221,118l-20.07-3.1a3.71,3.71,0,0,0-4.52,2.17l-15,40.28a13.35,13.35,0,0,0-.26,8.58l.91,2.95a9.8,9.8,0,0,0,15.74,4.66,4.85,4.85,0,0,0,.82-.89,8.44,8.44,0,0,0,.52-.84,31.22,31.22,0,0,0,2.63-6c1.54-3.51,2.15-5,2.14-4.92s8,1.92,13.62-7.14c2.81-4.5,5.93-12.52,8.26-19.17C227.9,128.66,227.07,119.88,221,118Z" style="fill:#b78876"></path><path d="M220.19,139.93a1.37,1.37,0,0,1-1.74.75,1.3,1.3,0,0,1-.81-1.67,1.37,1.37,0,0,1,1.74-.75A1.3,1.3,0,0,1,220.19,139.93Z" style="fill:#263238"></path><path d="M222.34,138c-.22.1-.87-1-2.21-1.56s-2.61-.31-2.69-.54.24-.33.8-.46a3.72,3.72,0,0,1,2.24.23,3.55,3.55,0,0,1,1.67,1.45C222.43,137.64,222.45,138,222.34,138Z" style="fill:#263238"></path><path d="M206.77,134.84a1.35,1.35,0,0,1-1.73.75,1.3,1.3,0,0,1-.81-1.67,1.35,1.35,0,0,1,1.73-.75A1.29,1.29,0,0,1,206.77,134.84Z" style="fill:#263238"></path><path d="M209.06,132.7c-.22.1-.87-1-2.21-1.57s-2.61-.31-2.68-.53.23-.33.8-.46a3.7,3.7,0,0,1,2.23.23,3.53,3.53,0,0,1,1.67,1.44C209.15,132.31,209.17,132.66,209.06,132.7Z" style="fill:#263238"></path><path d="M209.71,144.7a9.59,9.59,0,0,1,2.35.53c.35.11.71.18.86,0a1.84,1.84,0,0,0,.2-1.11c0-1,.06-2,.1-3,.16-4.3.44-7.78.61-7.78s.18,3.51,0,7.81c-.05,1.06-.09,2.07-.14,3a2.1,2.1,0,0,1-.39,1.41.94.94,0,0,1-.77.27,2.74,2.74,0,0,1-.62-.17A9.53,9.53,0,0,1,209.71,144.7Z" style="fill:#263238"></path><path d="M203.92,161a26.9,26.9,0,0,1-11.54-9s.42,8.11,10.53,11.32Z" style="fill:#aa6550"></path><path d="M207.78,147.69a2.64,2.64,0,0,0-1.79-1.82,2.43,2.43,0,0,0-1.87.17,1.53,1.53,0,0,0-.78,1.56,1.77,1.77,0,0,0,1.57,1.19,5.5,5.5,0,0,0,2.15-.3,1.78,1.78,0,0,0,.55-.23.53.53,0,0,0,.21-.5" style="fill:#eb996e"></path><path d="M205.38,144c.22.08-.39,1.54.41,3.1s2.43,2.06,2.35,2.26-.46.14-1.13-.12a3.89,3.89,0,0,1-2-1.81,3.44,3.44,0,0,1-.26-2.55C205,144.19,205.28,143.9,205.38,144Z" style="fill:#263238"></path><path d="M211,128.74c-.28.31-1.55-.43-3.2-.91s-3.11-.58-3.18-1c0-.19.34-.44,1-.58a5.44,5.44,0,0,1,2.6.17,5.58,5.58,0,0,1,2.27,1.29C211,128.18,211.13,128.59,211,128.74Z" style="fill:#263238"></path><path d="M224.43,132c-.36.2-1.15-.51-2.25-1s-2.14-.67-2.22-1.08c0-.19.25-.43.78-.55a3.45,3.45,0,0,1,2.06.29,3.39,3.39,0,0,1,1.55,1.38C224.61,131.53,224.6,131.9,224.43,132Z" style="fill:#263238"></path><path d="M192.28,134.53c.3-.72.19-2.78-.48-3.19-1.78-1.11-5.28-2.41-7.37,2.42-2.85,6.6,4.37,8.1,4.46,7.91S191.22,137,192.28,134.53Z" style="fill:#b78876"></path><path d="M188,138.3s-.14,0-.38,0a1.26,1.26,0,0,1-.86-.36,3.09,3.09,0,0,1-.22-3.12,4.26,4.26,0,0,1,1-1.51,1.46,1.46,0,0,1,1.25-.5.63.63,0,0,1,.54.6c0,.23-.09.34-.06.37s.19,0,.26-.35a.73.73,0,0,0-.09-.52.92.92,0,0,0-.56-.45,1.77,1.77,0,0,0-1.64.51,4.16,4.16,0,0,0-1.19,1.67c-.54,1.34-.39,2.88.44,3.57a1.35,1.35,0,0,0,1.13.28C187.87,138.46,188,138.32,188,138.3Z" style="fill:#aa6550"></path><path d="M222.41,117.27a9.83,9.83,0,0,1-9,4.49c-1.87-.16-3.94-.83-5.51.21s-1.87,3.43-3.42,4.57c-2.15,1.57-5.68,0-7.58,1.9-.82.82-1.07,2.1-1.92,2.9a3.32,3.32,0,0,1-4.25-.05,5.35,5.35,0,0,1-1.71-4.16,14.43,14.43,0,0,1,1-4.52,25.61,25.61,0,0,1,4.07-8.14c4.07-4.92,15.4-9.44,21.15-6.66" style="fill:#263238"></path><path d="M212.54,110a19.94,19.94,0,0,1,5.1,4,19.74,19.74,0,0,1,3.08,5.71,4.72,4.72,0,0,0-.37-1.92,12.37,12.37,0,0,0-2.31-4.12,12.5,12.5,0,0,0-3.67-3A5.22,5.22,0,0,0,212.54,110Z" style="fill:#455a64"></path><path d="M220.1,112.69a11.87,11.87,0,0,1,1.33,3.39,11.64,11.64,0,0,1-.26,3.62c.06,0,.32-.31.55-1a5.93,5.93,0,0,0-.8-5.25C220.5,112.9,220.14,112.65,220.1,112.69Z" style="fill:#455a64"></path><path d="M218.83,150.89s-6.15-2.73-9.19-4.16-7-3.16-8.83-5a73.5,73.5,0,0,1-5-6.34l-5.45,5s-1.7,11.41,5.26,16.72c6.15,4.7,10.56,7.4,17.77,3C217.08,157.88,218.83,150.89,218.83,150.89Z" style="fill:#e0e0e0"></path><path d="M194.85,143.2c.07-.06.82,1,2.22,2.53a32,32,0,0,0,6.17,5.19,32.47,32.47,0,0,0,7.3,3.42c2,.63,3.25.86,3.24.95a3.12,3.12,0,0,1-.91-.08,18.78,18.78,0,0,1-2.43-.52A27.66,27.66,0,0,1,196.79,146a18.74,18.74,0,0,1-1.49-2A3,3,0,0,1,194.85,143.2Z" style="fill:#263238"></path><path d="M197.47,150.1c.11-.12,2.29,1.7,5.2,3.63s5.44,3.23,5.38,3.37a22,22,0,0,1-5.66-2.94A22.28,22.28,0,0,1,197.47,150.1Z" style="fill:#263238"></path><path d="M190.43,140.48s0,.34-.39.72a3.43,3.43,0,0,1-3.68.8c-.47-.2-.68-.44-.65-.49a4.75,4.75,0,0,0,4.72-1Z" style="fill:#e0e0e0"></path><path d="M195.66,135.8a11.29,11.29,0,0,1-.46-1.24,5.64,5.64,0,0,0-1.86-2.39,5.71,5.71,0,0,0-2.85-1,10.07,10.07,0,0,1-1.31-.06,2.26,2.26,0,0,1,1.32-.31,5.13,5.13,0,0,1,5.05,3.67A2.16,2.16,0,0,1,195.66,135.8Z" style="fill:#e0e0e0"></path><path d="M130.85,179.19l-14.23,30.14a14.19,14.19,0,0,0,6,18.11L163.22,255l11.16-11.52-36.18-34L147,192.74Z" style="fill:#b78876"></path><path d="M189.47,255s4.05,4.12,5.17,5.11,3-1.31,2-2.91c-.72-1.13-3.42-4.61-5-6.58a4,4,0,0,0-2.86-1.5l-9.2-.56-12.07-11.92-12,14.71,9.59,5.91a20.09,20.09,0,0,0,3.17,2.92c1.15.67,6,.65,6,.65s3.87,7.52,6.4,6.44-.4-6.47-.4-6.47,4,7.37,6.13,6.21-.76-7.68-.76-7.68,2.29,3.37,3.72,5.25,4.12-.4,3.76-1.21C192.78,262.32,189.47,255,189.47,255Z" style="fill:#e0e0e0"></path><path d="M189.47,255l2.35,5,1.23,2.65a6.54,6.54,0,0,1,.33.78,1.23,1.23,0,0,1-.35.88,3.22,3.22,0,0,1-1.57,1.05,1.89,1.89,0,0,1-1.94-.53c-.46-.54-.82-1.11-1.26-1.7-.84-1.17-1.72-2.41-2.66-3.71l.32-.18A22.7,22.7,0,0,1,187.2,263a9.49,9.49,0,0,1,.3,2.09,3.51,3.51,0,0,1,0,.56,1.94,1.94,0,0,1-.12.56,1.66,1.66,0,0,1-.71,1,1.4,1.4,0,0,1-1.23.05,3.71,3.71,0,0,1-1-.62,11.15,11.15,0,0,1-1.6-1.69,32.52,32.52,0,0,1-2.63-4l.41-.22a13.71,13.71,0,0,1,1.37,3.76,3.68,3.68,0,0,1-.15,2.14,1.76,1.76,0,0,1-2,1,4.52,4.52,0,0,1-1.87-1.19,15.07,15.07,0,0,1-1.43-1.66,30.62,30.62,0,0,1-2.35-3.77l.23.14a31.38,31.38,0,0,1-5.16-.35,6.08,6.08,0,0,1-.67-.18,2.17,2.17,0,0,1-.64-.34,8.74,8.74,0,0,1-1-.86c-.66-.61-1.28-1.25-1.89-1.92l.05.05-6.33-3.9-3.26-2-.25-.15.18-.23,12-14.71.17-.21.19.19,12.05,11.95-.14-.06,7.08.45,1.67.1a4.93,4.93,0,0,1,1.64.29,3.94,3.94,0,0,1,1.39.87,9.62,9.62,0,0,1,1,1.2l3.37,4.5.76,1a2.24,2.24,0,0,1,.54,1.14,2.48,2.48,0,0,1-.79,2.16,1.4,1.4,0,0,1-1,.41,1.36,1.36,0,0,1-.89-.51l-1.24-1.25c-.76-.79-1.42-1.46-2-2L189.47,255l1.66,1.59,2.05,2,1.31,1.26a1.12,1.12,0,0,0,.77.44,1.18,1.18,0,0,0,.85-.36,2.24,2.24,0,0,0,.68-1.93,2.14,2.14,0,0,0-.51-1c-.26-.33-.51-.67-.77-1l-3.4-4.45a10.8,10.8,0,0,0-.94-1.16,3.6,3.6,0,0,0-1.27-.78,4.52,4.52,0,0,0-1.54-.25l-1.66-.1-7.08-.41h-.08l-.06-.06-12.09-11.91.36,0-12,14.73-.07-.39,3.26,2,6.34,3.91,0,0,0,0c.6.66,1.22,1.3,1.86,1.89a9.35,9.35,0,0,0,1,.82,2.69,2.69,0,0,0,1.12.44,30.77,30.77,0,0,0,5,.34h.16l.07.14a29.45,29.45,0,0,0,2.3,3.7,14.22,14.22,0,0,0,1.37,1.6,4,4,0,0,0,1.65,1.08,1.24,1.24,0,0,0,1.43-.71,3.15,3.15,0,0,0,.12-1.86,12.77,12.77,0,0,0-1.31-3.61l.41-.22a31.51,31.51,0,0,0,2.56,3.95,10.83,10.83,0,0,0,1.53,1.63c.53.45,1.24.85,1.76.54a1.93,1.93,0,0,0,.66-1.72,9,9,0,0,0-.27-2,23.58,23.58,0,0,0-1.23-3.67l-.65-1.55,1,1.37,2.63,3.73c.42.58.8,1.19,1.21,1.68a1.59,1.59,0,0,0,1.65.46,2.91,2.91,0,0,0,1.44-.94,1,1,0,0,0,.3-.67c-.06-.21-.21-.5-.31-.74-.44-1-.84-1.92-1.19-2.75C190.34,257,189.73,255.55,189.47,255Z" style="fill:#263238"></path><path d="M181,262c-.14.05-.82-1.89-2-4.11a2.36,2.36,0,0,0-2.32-1.58,6,6,0,0,1-1.34,0,2.64,2.64,0,0,1,1.34-.32,2.91,2.91,0,0,1,1.53.28,3.07,3.07,0,0,1,1.25,1.43A11.44,11.44,0,0,1,181,262Z" style="fill:#263238"></path><path d="M179.28,253.9c-.05,0,.45-.46,1.4-.35a3.1,3.1,0,0,1,1.49.62,6.35,6.35,0,0,1,1.34,1.39,20.76,20.76,0,0,1,2.44,4.16,23.55,23.55,0,0,1-2.86-3.85,4.5,4.5,0,0,0-2.47-2A4.7,4.7,0,0,0,179.28,253.9Z" style="fill:#263238"></path><path d="M189.72,255.76a5.49,5.49,0,0,1-.72-1.22,5.3,5.3,0,0,0-2.15-2.36,8.18,8.18,0,0,0-3.24-.37c-.89,0-1.43-.12-1.42-.19a6.42,6.42,0,0,1,1.4-.17,6.68,6.68,0,0,1,3.48.26,4.92,4.92,0,0,1,2.26,2.67A3.44,3.44,0,0,1,189.72,255.76Z" style="fill:#263238"></path></g><g id="freepik--Boxes--inject-7"><rect x="290.64" y="366.11" width="140.82" height="94.1" style="fill:#03716E"></rect><g style="opacity:0.30000000000000004"><rect x="374.15" y="366.11" width="57.32" height="94.1"></rect></g><rect x="306.37" y="382.61" width="50.97" height="58.92" transform="translate(-49.19 45.01) rotate(-7.23)" style="fill:#fafafa"></rect><path d="M360.85,438.09c-.26-2-3.06-23.81-7.51-58.44l.11.08-50.57,6.42h0L303,386c2.73,21.56,5.27,41.66,7.39,58.45l-.09-.07,50.58-6.33-50.56,6.5a.09.09,0,0,1-.1-.07h0c-2.13-16.8-4.69-36.9-7.43-58.46,0-.05,0-.11.09-.11h0l50.56-6.4a.1.1,0,0,1,.11.08h0C357.86,414.27,360.6,436.12,360.85,438.09Z" style="fill:#263238"></path><path d="M349.23,403.73a1.9,1.9,0,0,0-.18-1.4c-.15-.27-.36-.45-.61-.23a48,48,0,0,0-2.17,4.75l-.56-7.38a1.62,1.62,0,0,0-.57-1.24c-.17-.14-.73-.27-1.09,1-.09.34-.56,6.52-.56,6.52l-.78-8.35a1.08,1.08,0,0,0-1.2-.94l-.16,0c-.53.22-.93,9.52-.93,9.52l-2.06-7.77a1.22,1.22,0,0,0-2-.48c-.71.72,2.51,12.2,1.25,12.74s-2.36-2.59-4.49-3.17a2.16,2.16,0,0,0-1.05-.06,1.16,1.16,0,0,0-.4,2,21.52,21.52,0,0,1,3.67,4.4l3.92,11.59L349.84,424s-3.25-6.12-2.84-9.44C347.34,411.75,348.78,405.61,349.23,403.73Z" style="fill:#fafafa"></path><path d="M349.23,403.73a1.63,1.63,0,0,1-.06.37c-.06.27-.13.62-.22,1.07-.21,1-.49,2.34-.86,4.09-.18.89-.37,1.88-.58,3a14.64,14.64,0,0,0-.36,3.52,25.18,25.18,0,0,0,2.86,8.15.2.2,0,0,1-.08.26l-.07,0-10.58,1.38a.23.23,0,0,1-.24-.16c-1.22-3.57-2.55-7.47-3.94-11.58l0,.05a24.08,24.08,0,0,0-2.82-3.61,9.65,9.65,0,0,0-.87-.79,1.42,1.42,0,0,1-.45-1.32,1.33,1.33,0,0,1,.92-1.07,2.29,2.29,0,0,1,1.35.06c1.76.53,2.57,2.38,3.81,3.13a.52.52,0,0,0,.42,0s.1-.14.12-.33a6,6,0,0,0,0-1.2c-.06-.83-.19-1.67-.33-2.52-.27-1.63-.59-3.25-.88-4.85-.14-.81-.28-1.61-.36-2.43,0-.2,0-.41,0-.62a1.08,1.08,0,0,1,.2-.76,1.46,1.46,0,0,1,1.35-.37,1.48,1.48,0,0,1,1,.92c.12.4.21.77.31,1.15.2.76.4,1.52.6,2.26.39,1.5.78,3,1.17,4.42l-.49.06c.08-1.83.19-3.62.32-5.36.07-.88.15-1.74.25-2.59a9.56,9.56,0,0,1,.23-1.28,1.1,1.1,0,0,1,.15-.38.5.5,0,0,1,.26-.15.69.69,0,0,1,.2,0,1.16,1.16,0,0,1,.73.18,1.47,1.47,0,0,1,.65,1.22c0,.41.07.81.11,1.21.07.81.14,1.6.22,2.38.13,1.56.27,3.06.4,4.52h-.41c.15-1.77.3-3.47.43-5.08.05-.41.09-.81.13-1.2a2.34,2.34,0,0,1,.45-1.16.76.76,0,0,1,.62-.33.52.52,0,0,1,.36.14,2.28,2.28,0,0,1,.22.22,1.83,1.83,0,0,1,.38,1.12c.2,2.85.38,5.33.52,7.39l-.23,0c.47-1.12.9-2.11,1.29-2.95.19-.42.37-.81.55-1.16.09-.17.18-.34.28-.49a.42.42,0,0,1,.47-.26,1.06,1.06,0,0,1,.5.7,2.4,2.4,0,0,1,.07.6,1.45,1.45,0,0,1-.09.48s0-.16,0-.48a1.67,1.67,0,0,0-.1-.57,1,1,0,0,0-.43-.61c-.27-.06-.4.38-.58.7s-.34.74-.52,1.17c-.37.84-.78,1.84-1.24,3a.13.13,0,0,1-.16.07.12.12,0,0,1-.07-.11c-.17-2.06-.38-4.55-.61-7.4a1.5,1.5,0,0,0-.32-.91l-.17-.17a.19.19,0,0,0-.15-.06.4.4,0,0,0-.33.2,4.2,4.2,0,0,0-.48,2.17c-.13,1.61-.26,3.31-.4,5.08a.2.2,0,0,1-.22.19.21.21,0,0,1-.19-.18c-.14-1.45-.28-3-.43-4.51-.07-.78-.15-1.57-.23-2.37,0-.4-.07-.81-.11-1.22a1,1,0,0,0-.44-.88.83.83,0,0,0-.46-.11l-.11,0-.05,0h0c.05.15-.09-.2-.07-.16l0,.06a.2.2,0,0,0,.09.07s-.05.12-.08.21a11.09,11.09,0,0,0-.2,1.22c-.1.84-.17,1.69-.24,2.56-.13,1.74-.23,3.53-.31,5.35a.24.24,0,0,1-.48,0c-.39-1.44-.78-2.92-1.18-4.41l-.6-2.26-.31-1.12a.93.93,0,0,0-.67-.59,1,1,0,0,0-.87.24,1.1,1.1,0,0,0,0,.39,5.59,5.59,0,0,0,0,.57c.08.79.22,1.59.36,2.39.29,1.6.61,3.21.89,4.86.14.85.27,1.7.33,2.56a5.93,5.93,0,0,1,0,1.33,1.72,1.72,0,0,1-.09.36,2.25,2.25,0,0,1-.12.21.67.67,0,0,1-.24.16,1.1,1.1,0,0,1-.8,0,3.24,3.24,0,0,1-1.05-.86L335,409a4.46,4.46,0,0,0-1.87-1.34,1.82,1.82,0,0,0-1.05-.06.81.81,0,0,0-.57.67.89.89,0,0,0,.29.85c.28.24.62.53.89.81a24.35,24.35,0,0,1,2.88,3.71l0,0c1.38,4.11,2.69,8,3.9,11.6l-.25-.15,10.6-1.31-.15.28a25.21,25.21,0,0,1-2.83-8.31,14.76,14.76,0,0,1,.41-3.59c.22-1.09.43-2.07.63-3,.39-1.77.73-3.14,1-4.07l.28-1.05A1.62,1.62,0,0,1,349.23,403.73Z" style="fill:#263238"></path><path d="M311.56,408.51a2,2,0,0,1-.18-1.41c.08-.3.24-.52.54-.37a49.11,49.11,0,0,1,3.29,4.06l-1.3-7.29a1.63,1.63,0,0,1,.24-1.34c.13-.18.64-.45,1.3.7.18.31,2.18,6.18,2.18,6.18l-1.33-8.28a1.08,1.08,0,0,1,.92-1.21h.17c.57.07,3.28,9,3.28,9l.06-8a1.21,1.21,0,0,1,1.82-1c.87.52.62,12.44,2,12.65s1.64-3.1,3.56-4.19a2.17,2.17,0,0,1,1-.33,1.17,1.17,0,0,1,.89,1.89,21.43,21.43,0,0,0-2.45,5.17l-.91,12.2L316,428.27s1.62-6.74.4-9.85C315.39,415.8,312.47,410.22,311.56,408.51Z" style="fill:#fafafa"></path><path d="M311.56,408.51a1.28,1.28,0,0,1,.2.31c.14.24.31.56.53.95.46.84,1.12,2.09,1.95,3.7.41.81.87,1.72,1.34,2.71a14.43,14.43,0,0,1,1.3,3.38,25.2,25.2,0,0,1-.67,8.75l-.21-.23,10.58-1.38-.19.21c.27-3.76.57-7.88.88-12.21,0,0,0,0,0-.05a24.93,24.93,0,0,1,1.86-4.31,9.31,9.31,0,0,1,.67-1,.93.93,0,0,0,.06-.9.83.83,0,0,0-.71-.51,1.92,1.92,0,0,0-1,.33,4.44,4.44,0,0,0-1.48,1.76l-.58,1.1a3.36,3.36,0,0,1-.8,1.1,1.07,1.07,0,0,1-.77.23.71.71,0,0,1-.27-.09,1.29,1.29,0,0,1-.16-.17,1.4,1.4,0,0,1-.19-.33,6.32,6.32,0,0,1-.34-1.29c-.15-.85-.23-1.7-.31-2.56-.15-1.66-.24-3.31-.36-4.93-.06-.81-.13-1.61-.24-2.39,0-.2-.07-.39-.12-.57a1.29,1.29,0,0,0-.13-.37,1,1,0,0,0-1.41.73v1.16c0,.79,0,1.57,0,2.34,0,1.54,0,3.07,0,4.56a.25.25,0,0,1-.25.25.26.26,0,0,1-.24-.18c-.53-1.74-1.07-3.45-1.63-5.1-.28-.82-.56-1.63-.87-2.42-.16-.39-.32-.79-.5-1.13l-.13-.19c.09,0,0,0,0,0h-.11a.67.67,0,0,0-.41.22,1,1,0,0,0-.21,1c.07.41.13.81.19,1.21.13.79.25,1.58.37,2.35.25,1.54.48,3,.71,4.47a.2.2,0,0,1-.39.1l-1.66-4.82a4.27,4.27,0,0,0-1-2,.46.46,0,0,0-.37-.12.22.22,0,0,0-.13.1,1.07,1.07,0,0,0-.13.21,1.58,1.58,0,0,0-.08,1c.48,2.82.91,5.28,1.26,7.32a.12.12,0,0,1-.1.14.11.11,0,0,1-.12-.05c-.72-1-1.37-1.83-1.94-2.56-.28-.36-.54-.7-.79-1s-.49-.66-.73-.54a1.05,1.05,0,0,0-.28.7,2,2,0,0,0,.05.58c.07.31.16.45.14.46a1.28,1.28,0,0,1-.2-.44,1.77,1.77,0,0,1-.08-.61,1.06,1.06,0,0,1,.3-.8.45.45,0,0,1,.53.13c.13.13.25.27.38.41.26.3.54.63.83,1,.59.72,1.25,1.56,2,2.53l-.21.09c-.38-2-.83-4.48-1.35-7.29a1.82,1.82,0,0,1,.1-1.17,1.17,1.17,0,0,1,.15-.27.54.54,0,0,1,.32-.23.79.79,0,0,1,.68.16,2.47,2.47,0,0,1,.73,1l.42,1.12q.8,2.3,1.68,4.82l-.39.1c-.24-1.44-.48-2.94-.74-4.48-.12-.77-.25-1.56-.38-2.35l-.2-1.21a1.48,1.48,0,0,1,.32-1.34,1.23,1.23,0,0,1,.67-.36.67.67,0,0,1,.2,0,.42.42,0,0,1,.29.08,1,1,0,0,1,.24.32,9.06,9.06,0,0,1,.54,1.19c.31.79.6,1.61.89,2.44q.84,2.49,1.65,5.11l-.49.07c0-1.5,0-3,0-4.57,0-.78,0-1.56,0-2.34,0-.4,0-.78,0-1.2a1.46,1.46,0,0,1,.78-1.15,1.49,1.49,0,0,1,1.39,0c.35.27.3.48.39.69s.08.41.12.62c.12.81.18,1.62.25,2.43.12,1.63.21,3.28.36,4.92.07.86.16,1.7.3,2.52a5.89,5.89,0,0,0,.31,1.17c.06.17.18.32.2.29a.62.62,0,0,0,.4-.13c1-1.05,1.33-3,2.91-4a2.42,2.42,0,0,1,1.29-.39,1.36,1.36,0,0,1,1.16.81,1.46,1.46,0,0,1-.11,1.4,9.12,9.12,0,0,0-.65,1,24.73,24.73,0,0,0-1.83,4.21v-.06c-.32,4.32-.64,8.44-.92,12.2a.24.24,0,0,1-.2.21l-10.59,1.31a.2.2,0,0,1-.22-.17.17.17,0,0,1,0-.07,25.08,25.08,0,0,0,.73-8.6,14,14,0,0,0-1.23-3.32l-1.29-2.73-1.86-3.74-.48-1Z" style="fill:#263238"></path><path d="M347.56,422.63a2.88,2.88,0,0,1-1.44.2,9.06,9.06,0,0,1-6.34-2.76c-.62-.66-.88-1.16-.83-1.19a17.14,17.14,0,0,0,3.94,2.72A16.68,16.68,0,0,0,347.56,422.63Z" style="fill:#263238"></path><path d="M325.53,417.7a4.78,4.78,0,0,1-.58,1.51,19.45,19.45,0,0,1-2,3.38,10.6,10.6,0,0,1-2.87,2.71,3.25,3.25,0,0,1-1.51.64,11.21,11.21,0,0,1,1.3-.94,13.54,13.54,0,0,0,2.67-2.72,37.47,37.47,0,0,0,2.08-3.24A5.2,5.2,0,0,1,325.53,417.7Z" style="fill:#263238"></path><path d="M319.86,422.81a11.41,11.41,0,0,1-1.33-2.63,12.41,12.41,0,0,1-1.11-2.74A6.77,6.77,0,0,1,319,420,6.85,6.85,0,0,1,319.86,422.81Z" style="fill:#263238"></path><rect x="347.56" y="376.9" width="2.28" height="5.64" style="fill:#e0e0e0"></rect><rect x="305.67" y="382.42" width="2.28" height="5.64" transform="translate(-104.06 113.71) rotate(-18.01)" style="fill:#e0e0e0"></rect><rect x="356.67" y="435.82" width="2.28" height="5.64" transform="translate(-118.06 132.08) rotate(-18)" style="fill:#e0e0e0"></rect><rect x="312.36" y="442.09" width="2.28" height="5.64" style="fill:#e0e0e0"></rect><path d="M374.15,460.22c-.15,0-.26-21.07-.26-47.05s.11-47.06.26-47.06.26,21.07.26,47.06S374.29,460.22,374.15,460.22Z" style="fill:#263238"></path><rect x="135.25" y="360.1" width="150.13" height="100.32" style="fill:#03716E"></rect><g style="opacity:0.30000000000000004"><rect x="224.28" y="360.1" width="61.11" height="100.32"></rect></g><rect x="151.94" y="379.96" width="52.61" height="60.59" style="fill:#fafafa"></rect><path d="M204.54,440.55s0-.1,0-.3,0-.48,0-.85c0-.76,0-1.86,0-3.28,0-2.88,0-7.07-.06-12.38,0-10.63-.07-25.75-.12-43.78l.23.24-52.6,0h0l.26-.27c0,22.35,0,43.18,0,60.59l-.22-.22,38.11.11,10.69.06,2.82,0c.64,0,1,0,1,0s-.31,0-.93,0l-2.79,0-10.63.06-38.25.11h-.22v-.22c0-17.41,0-38.24,0-60.59v-.26h.26l52.6,0h.23V380c0,18.09-.08,33.26-.11,43.93,0,5.28,0,9.45-.06,12.32,0,1.41,0,2.49,0,3.25,0,.35,0,.62,0,.82A1.39,1.39,0,0,1,204.54,440.55Z" style="fill:#263238"></path><path d="M176.92,400.08v-9A1.08,1.08,0,0,1,178,390h.4a1.07,1.07,0,0,1,1.07,1.08v.42h6.7v2.29h-6.61v6.31Z" style="fill:#263238"></path><rect x="169.38" y="401.9" width="17.71" height="28.64" rx="2.29" style="fill:#455a64"></rect><path d="M175.14,398.26h6.6a1.05,1.05,0,0,1,1.05,1.05v2.58a0,0,0,0,1,0,0h-8.71a0,0,0,0,1,0,0v-2.58A1.05,1.05,0,0,1,175.14,398.26Z" style="fill:#455a64"></path><rect x="177.71" y="407.76" width="7.67" height="16.03" style="fill:#fafafa"></rect><path d="M182.8,401.8a19.67,19.67,0,0,1-4.47.26,19.62,19.62,0,0,1-4.46-.26,19.62,19.62,0,0,1,4.46-.26A19.67,19.67,0,0,1,182.8,401.8Z" style="fill:#263238"></path><path d="M170.47,420.73a134.05,134.05,0,0,1,0-16.69,65.83,65.83,0,0,1,.26,8.35A65.6,65.6,0,0,1,170.47,420.73Z" style="fill:#fafafa"></path><rect x="154.74" y="376" width="3.91" height="7.2" style="fill:#e0e0e0"></rect><rect x="154.74" y="436.95" width="3.91" height="7.2" transform="translate(-96.28 47.31) rotate(-13.17)" style="fill:#e0e0e0"></rect><rect x="197.06" y="437.18" width="3.91" height="7.2" transform="translate(64.08 -23.64) rotate(8.1)" style="fill:#e0e0e0"></rect><rect x="197.22" y="376" width="3.91" height="7.2" style="fill:#e0e0e0"></rect><path d="M224.28,461.12c-.15,0-.26-22.57-.26-50.4s.11-50.4.26-50.4.26,22.56.26,50.4S224.42,461.12,224.28,461.12Z" style="fill:#263238"></path><path d="M121.34,431.46V423a1,1,0,0,1,1-1h.38a1,1,0,0,1,1,1v.4H130v2.15h-6.2v5.92Z" style="fill:#263238"></path><rect x="114.27" y="433.16" width="16.61" height="26.86" rx="2.29" style="fill:#455a64"></rect><path d="M119.74,429.75h6.06a1.05,1.05,0,0,1,1.05,1.05v2.35a0,0,0,0,1,0,0h-8.17a0,0,0,0,1,0,0v-2.35A1.05,1.05,0,0,1,119.74,429.75Z" style="fill:#455a64"></path><rect x="123.69" y="437.34" width="7.2" height="17.77" style="fill:#fafafa"></rect><path d="M126.85,433.07a17.23,17.23,0,0,1-4.18.26,17.28,17.28,0,0,1-4.19-.26,17.28,17.28,0,0,1,4.19-.26A17.23,17.23,0,0,1,126.85,433.07Z" style="fill:#263238"></path><path d="M115.29,450.83a118,118,0,0,1,0-15.66,118,118,0,0,1,0,15.66Z" style="fill:#fafafa"></path><path d="M99.93,431.46V423a1,1,0,0,1,1-1h.38a1,1,0,0,1,1,1v.4h6.28v2.15h-6.2v5.92Z" style="fill:#263238"></path><rect x="92.86" y="433.16" width="16.61" height="26.86" rx="2.29" style="fill:#455a64"></rect><path d="M98.33,429.75h6.06a1.05,1.05,0,0,1,1.05,1.05v2.35a0,0,0,0,1,0,0H97.27a0,0,0,0,1,0,0v-2.35A1.05,1.05,0,0,1,98.33,429.75Z" style="fill:#455a64"></path><rect x="102.28" y="437.34" width="7.2" height="17.77" style="fill:#fafafa"></rect><path d="M105.45,433.07a17.35,17.35,0,0,1-4.19.26,17.28,17.28,0,0,1-4.19-.26,17.28,17.28,0,0,1,4.19-.26A17.35,17.35,0,0,1,105.45,433.07Z" style="fill:#263238"></path><path d="M93.88,450.83a118,118,0,0,1,0-15.66,118,118,0,0,1,0,15.66Z" style="fill:#fafafa"></path><rect x="151.94" y="259.77" width="150.13" height="100.32" style="fill:#03716E"></rect><g style="opacity:0.30000000000000004"><rect x="240.96" y="259.77" width="61.11" height="100.32"></rect></g><rect x="162.82" y="294.21" width="66.25" height="42.29" style="fill:#fff"></rect><path d="M229.07,336.49s0-.27,0-.77,0-1.27,0-2.24c0-2,0-4.84-.06-8.5,0-7.35-.06-17.89-.11-30.77l.21.2-66.25.06h0l.26-.26c0,15,0,29.29,0,42.28l-.24-.24,47.65.12,13.67.07,3.65,0h1.28a1.57,1.57,0,0,1-.3,0h-.92l-3.6,0-13.62.07-47.81.11h-.24v-.24c0-13,0-27.28,0-42.28V294h.27l66.25.05h.21v.21c-.05,12.93-.09,23.52-.11,30.9,0,3.64,0,6.49,0,8.45,0,.95,0,1.68,0,2.2S229.07,336.49,229.07,336.49Z" style="fill:#263238"></path><path d="M179,309.64h32.86l1,7s-8.19,9.6-17.69,9.6c-9.89,0-17.7-9.91-17.7-9.91Z" style="fill:#e0e0e0"></path><path d="M179,309.64a3.11,3.11,0,0,1-.08.48l-.26,1.32c-.25,1.19-.61,2.86-1.05,5l0-.11a34.38,34.38,0,0,0,4.94,4.72,25.63,25.63,0,0,0,7.58,4.18,17.13,17.13,0,0,0,4.81.83,16.45,16.45,0,0,0,5.13-.81,28.61,28.61,0,0,0,9.62-5.75,35,35,0,0,0,3-2.95l-.06.2c-.35-2.42-.68-4.78-1-7l.25.21-23.46-.11-6.88-.07-1.86,0-.66,0a4.43,4.43,0,0,1,.61,0l1.81,0,6.83-.07,23.61-.11H212l0,.22c.33,2.25.66,4.61,1,7l0,.12-.08.09a33.38,33.38,0,0,1-3.06,3,28.71,28.71,0,0,1-9.8,5.84,16.86,16.86,0,0,1-5.3.81,17.77,17.77,0,0,1-4.95-.88,25.34,25.34,0,0,1-7.66-4.32,32.47,32.47,0,0,1-4.93-4.84l0,0,0-.07c.51-2.12.92-3.8,1.21-5,.13-.54.24-1,.33-1.29A1.88,1.88,0,0,1,179,309.64Z" style="fill:#263238"></path><path d="M209.87,312a5.28,5.28,0,0,1-1.06.55,27,27,0,0,1-3,1.18,35.49,35.49,0,0,1-4.67,1.22,37.7,37.7,0,0,1-11.8.39,35.64,35.64,0,0,1-4.75-.91,26.66,26.66,0,0,1-3.1-1,6,6,0,0,1-1.09-.48c0-.09,1.62.5,4.28,1.1a41.41,41.41,0,0,0,4.71.79,43.73,43.73,0,0,0,5.85.23,45.47,45.47,0,0,0,5.81-.61,40.75,40.75,0,0,0,4.65-1.1C208.28,312.61,209.83,311.92,209.87,312Z" style="fill:#263238"></path><path d="M207.87,315.09a4.21,4.21,0,0,1-.81.68,7.7,7.7,0,0,1-1,.7,13.7,13.7,0,0,1-1.43.82,21.15,21.15,0,0,1-4,1.57,22.62,22.62,0,0,1-10.43.46,21.39,21.39,0,0,1-4.1-1.22,13.48,13.48,0,0,1-1.5-.68,10.69,10.69,0,0,1-1.08-.61,4.07,4.07,0,0,1-.86-.61c.05-.09,1.32.72,3.57,1.56a23.56,23.56,0,0,0,4.06,1.09,26.19,26.19,0,0,0,5.13.33,25.77,25.77,0,0,0,5.08-.78,23.68,23.68,0,0,0,3.95-1.44C206.62,315.93,207.81,315,207.87,315.09Z" style="fill:#263238"></path><path d="M212.81,316.68c0-.09,1-.18,2.46-.71a6.84,6.84,0,0,0,2.32-1.33,3.31,3.31,0,0,0,1.09-2.86,3.14,3.14,0,0,0-1.79-2.44,4.78,4.78,0,0,0-2.61-.31c-1.53.24-2.43.7-2.47.61s.2-.17.6-.37a7.82,7.82,0,0,1,1.81-.61,5,5,0,0,1,2.87.24,3.58,3.58,0,0,1,2.11,2.82,3.77,3.77,0,0,1-1.28,3.27,6.71,6.71,0,0,1-2.54,1.33A6.17,6.17,0,0,1,212.81,316.68Z" style="fill:#263238"></path><path d="M177.42,316.37s-.22,0-.6-.09a8,8,0,0,1-1.59-.51,4.47,4.47,0,0,1-1.9-1.65,4.16,4.16,0,0,1-.59-3,3.31,3.31,0,0,1,1.8-2.51,4,4,0,0,1,2.53-.19c1.45.35,1.94,1.26,1.88,1.26a5,5,0,0,0-2-.9,3.9,3.9,0,0,0-2.24.26,2.94,2.94,0,0,0-1.5,2.18,3.83,3.83,0,0,0,.49,2.69,4.43,4.43,0,0,0,1.66,1.58,13.17,13.17,0,0,0,1.48.64C177.24,316.23,177.44,316.34,177.42,316.37Z" style="fill:#263238"></path><rect x="166.38" y="290.91" width="2.77" height="6.46" style="fill:#e0e0e0"></rect><rect x="223.49" y="333.27" width="2.77" height="6.46" style="fill:#e0e0e0"></rect><rect x="224.01" y="290.05" width="2.77" height="6.46" transform="translate(108.68 -57.71) rotate(19.15)" style="fill:#e0e0e0"></rect><rect x="165.61" y="333.54" width="2.77" height="6.46" transform="translate(119.72 -36.15) rotate(19.15)" style="fill:#e0e0e0"></rect><polygon points="240.96 259.77 218.96 276.77 135.25 276.77 151.94 259.77 240.96 259.77" style="fill:#03716E"></polygon><g style="opacity:0.30000000000000004"><polygon points="240.96 259.77 218.96 276.77 135.25 276.77 151.94 259.77 240.96 259.77"></polygon></g><polygon points="240.96 259.77 262.93 276.77 318.67 276.77 301.88 259.97 240.96 259.77" style="fill:#03716E"></polygon><path d="M241,259.77a2.13,2.13,0,0,1-.38.34l-1.15.94-4.44,3.5c-3.86,3-9.33,7.28-15.89,12.39L219,277H219L191,276.92l-39.43-.24-11.94-.13-3.25-.06-.85,0-.28,0a1,1,0,0,1,.28,0l.85,0,3.25,0,11.94,0,39.43.08,27.94.14-.13,0,16-12.25,4.51-3.4,1.2-.88A3.36,3.36,0,0,1,241,259.77Z" style="fill:#263238"></path><path d="M151.67,360.1a3.42,3.42,0,0,1,.43,0l1.26,0,4.92,0,18.46-.07,64.22-.1-.24.25c0-14.59,0-30.58,0-47.27,0-18.84,0-36.8,0-53.06v-.49l.39.3,21.95,17-.13,0,40.59.09,11.21.05,2.94,0,1,0-1,0-2.94,0-11.21.06-40.59.09h-.07l-.06-.05-22-17,.38-.19c0,16.26,0,34.22,0,53.06,0,16.69,0,32.68,0,47.27v.24H241l-64.22-.09-18.46-.07-4.92,0-1.26,0Z" style="fill:#263238"></path><path d="M302.2,359.89c0,.14-13.69.26-30.57.26s-30.57-.12-30.57-.26,13.69-.26,30.57-.26S302.2,359.74,302.2,359.89Z" style="fill:#263238"></path><rect x="450.1" y="365.3" width="34.61" height="55.49" style="fill:#fafafa"></rect><path d="M484.72,420.82H450.11a0,0,0,0,1,0,0V365.3s0,0,0,0h34.61l0,0v55.49S484.73,420.82,484.72,420.82Zm-34.59-.05h34.56V365.33H450.13Z" style="fill:#263238"></path><ellipse cx="467.41" cy="365.3" rx="17.31" ry="2.78" style="fill:#e0e0e0"></ellipse><path d="M473.78,365c0,.57-2.85,1-6.37,1s-6.37-.46-6.37-1,2.85-1,6.37-1S473.78,364.45,473.78,365Z" style="fill:#263238"></path><path d="M474.32,420.65c-.14,0-.26-11.77-.26-26.28s.12-26.29.26-26.29.26,11.77.26,26.29S474.47,420.65,474.32,420.65Z" style="fill:#263238"></path><rect x="489.67" y="365.3" width="34.61" height="55.49" style="fill:#fafafa"></rect><path d="M524.28,420.82H489.67s0,0,0,0V365.3l0,0h34.61s0,0,0,0v55.49A0,0,0,0,1,524.28,420.82Zm-34.58-.05h34.56V365.33H489.7Z" style="fill:#263238"></path><ellipse cx="506.98" cy="365.3" rx="17.31" ry="2.78" style="fill:#e0e0e0"></ellipse><path d="M513.35,365c0,.57-2.86,1-6.37,1s-6.38-.46-6.38-1,2.86-1,6.38-1S513.35,364.45,513.35,365Z" style="fill:#263238"></path><path d="M513.89,420.65c-.15,0-.26-11.77-.26-26.28s.11-26.29.26-26.29.26,11.77.26,26.29S514,420.65,513.89,420.65Z" style="fill:#263238"></path><rect x="409.91" y="365.3" width="34.61" height="55.49" style="fill:#fafafa"></rect><path d="M444.52,420.82H409.91s0,0,0,0V365.3a0,0,0,0,1,0,0h34.61s0,0,0,0v55.49A0,0,0,0,1,444.52,420.82Zm-34.58-.05H444.5V365.33H409.94Z" style="fill:#263238"></path><ellipse cx="427.22" cy="365.3" rx="17.31" ry="2.78" style="fill:#e0e0e0"></ellipse><path d="M433.59,365c0,.57-2.85,1-6.37,1s-6.37-.46-6.37-1,2.85-1,6.37-1S433.59,364.45,433.59,365Z" style="fill:#263238"></path><path d="M434.13,420.65c-.14,0-.26-11.77-.26-26.28s.12-26.29.26-26.29.26,11.77.26,26.29S434.27,420.65,434.13,420.65Z" style="fill:#263238"></path><rect x="407.11" y="374.57" width="162.67" height="86.04" style="fill:#03716E"></rect><g style="opacity:0.30000000000000004"><rect x="517.38" y="374.57" width="52.41" height="86.04"></rect></g><polygon points="407.11 374.57 382.64 399.05 495.15 399.05 517.38 374.57 407.11 374.57" style="fill:#03716E"></polygon><g style="opacity:0.30000000000000004"><polygon points="407.11 374.57 382.64 399.05 495.15 399.05 517.38 374.57 407.11 374.57"></polygon></g><polygon points="517.38 374.57 542.96 397.67 594.7 397.67 569.78 374.57 517.38 374.57" style="fill:#03716E"></polygon><rect x="431.22" y="413.04" width="52.59" height="30.58" style="fill:#fafafa"></rect><path d="M483.81,443.62s0-.2,0-.57,0-.92,0-1.61c0-1.43,0-3.5-.05-6.13,0-5.31-.06-12.93-.1-22.27l.2.2-52.59.06.26-.25h0v15.81c0,5.11,0,10.05,0,14.76l-.24-.24,37.78.11,10.87.07,2.91,0h.76l.27,0h-.24l-.73,0-2.86,0-10.82.06-37.94.12a.24.24,0,0,1-.24-.24h0c0-4.71,0-9.65,0-14.76V413.05h0c-.06.05.49-.5.26-.27l52.59.06a.2.2,0,0,1,.2.2h0c-.05,9.39-.08,17-.11,22.39,0,2.62,0,4.67,0,6.09,0,.67,0,1.2,0,1.57S483.81,443.62,483.81,443.62Z" style="fill:#263238"></path><path d="M475.39,424.64c0,.14-8,.26-17.83.26s-17.82-.12-17.82-.26,8-.26,17.82-.26S475.39,424.49,475.39,424.64Z" style="fill:#263238"></path><path d="M475.39,431.37c0,.14-8,.26-17.83.26s-17.82-.12-17.82-.26,8-.26,17.82-.26S475.39,431.23,475.39,431.37Z" style="fill:#263238"></path><path d="M517.32,461.33c-.14,0-.26-19.3-.26-43.1s.12-43.1.26-43.1.26,19.29.26,43.1S517.47,461.33,517.32,461.33Z" style="fill:#263238"></path><path d="M594.7,397.67s-.32,0-.94,0l-2.75,0-10.47.06-37.58.09a.2.2,0,0,1-.15-.06l-25.6-23.07.35,0-19.94,22-2.27,2.51a.3.3,0,0,1-.2.08l-79.69-.08-24-.08-6.52,0-1.7,0-.57,0s.19,0,.57,0l1.7,0,6.52-.05,24-.08,79.69-.08-.19.09,2.28-2.51,20-22a.25.25,0,0,1,.36,0l25.55,23.12-.14-.05,37.58.09,10.47.06,2.75,0Z" style="fill:#263238"></path></g><g id="freepik--speech-buuble--inject-7"><path d="M565.42,279.85l-14.78-8.06a39.2,39.2,0,1,0-2.47,13.84v0Z" style="fill:#fff"></path><path d="M565.42,279.85l-17.21,5.92-.19.07,0-.2v0l.25.06a40.57,40.57,0,0,1-4.28,8.38,39.37,39.37,0,0,1-7.51,8.27,35.29,35.29,0,0,1-5.11,3.54c-.94.51-1.87,1.06-2.85,1.56l-3.08,1.33a39.64,39.64,0,0,1-29.09-.44,39.11,39.11,0,0,1-13.62-9.37,40.1,40.1,0,0,1-8.8-15.06,38.7,38.7,0,0,1-1.36-18.12l.43-2.34c.14-.78.41-1.53.61-2.29s.39-1.53.69-2.25l.86-2.19a17.67,17.67,0,0,1,1-2.12l1.06-2.08,1.23-2a19.35,19.35,0,0,1,1.29-1.91,40,40,0,0,1,13.51-11.55,38.53,38.53,0,0,1,16.21-4.45,39.67,39.67,0,0,1,27.87,9.64,42.1,42.1,0,0,1,8.17,9.93,39,39,0,0,1,5.27,19.59l-.06-.11,14.72,8.17-14.84-8-.07,0v-.08a38.9,38.9,0,0,0-5.33-19.41,42.08,42.08,0,0,0-8.13-9.81,39.41,39.41,0,0,0-27.58-9.47,38.17,38.17,0,0,0-16,4.42,39.48,39.48,0,0,0-13.32,11.42,16.29,16.29,0,0,0-1.27,1.88c-.41.64-.82,1.28-1.22,1.93l-1,2.05a15.8,15.8,0,0,0-1,2.09l-.85,2.16c-.3.71-.45,1.48-.68,2.22s-.47,1.49-.6,2.26l-.43,2.31a38.34,38.34,0,0,0,1.34,17.88,39.43,39.43,0,0,0,8.68,14.87,38.48,38.48,0,0,0,13.43,9.27,39.06,39.06,0,0,0,28.76.5l3.05-1.3c1-.49,1.9-1,2.84-1.53a34.53,34.53,0,0,0,5.06-3.49,39.13,39.13,0,0,0,7.49-8.17,40.16,40.16,0,0,0,4.3-8.29l.35-.92-.1,1v0l-.17-.13Z" style="fill:#263238"></path><path d="M503.74,267l2.6,0,5.62-8,0-5.19s4-.28,3.6,6.53.08,5.06.08,5.06,8.54,0,9.25.71c.52.53.82,9,.94,13.61a5,5,0,0,1-3.49,5.05,3.58,3.58,0,0,1-.92.13c-2.13,0-13-1.63-13-1.63l-4.5,0Z" style="fill:#03716E"></path><polygon points="496.28 265.65 498.02 283.43 502.47 283.4 502.34 265.96 496.28 265.65" style="fill:#03716E"></polygon></g></svg>