<svg xmlns="http://www.w3.org/2000/svg" viewBox="0 0 500 500"><g id="freepik--background-simple--inject-64"><path d="M168.51,90.52c34.68-28.77,73-10.61,100.37,16.55,34.18,34,52.29,58.93,104.23,61.28,44.13,2,64.54-2.17,73.16,49.12,7.17,42.63.1,90.19-40.66,112.12-36.92,19.86-96.38,15.44-128.48-12.11C237,283,259.51,234.36,234.73,194.81c-23.49-37.49-44.44-11.48-70.82-26.71C135.46,151.68,141.21,113.17,168.51,90.52Z" style="fill:#03716E;opacity:0.2"></path></g><g id="freepik--Shadow--inject-64"><g id="freepik--shadow--inject-64"><ellipse cx="250" cy="416.24" rx="193.89" ry="11.32" style="fill:#f5f5f5"></ellipse></g></g><g id="freepik--Images--inject-64"><g id="freepik--photo-3--inject-64"><rect x="109.67" y="126.37" width="215.91" height="211.41" style="fill:#03716E"></rect><rect x="109.67" y="126.37" width="215.91" height="211.41" style="opacity:0.699999988079071;isolation:isolate"></rect><rect x="115.23" y="133.13" width="204.81" height="204.65" style="fill:#fff"></rect><polygon points="325.58 334.8 325.58 337.78 216.77 337.78 240.29 314.28 272.67 281.88 325.58 334.8" style="fill:#03716E"></polygon><polygon points="325.58 334.8 325.58 337.78 216.77 337.78 240.29 314.28 272.67 281.88 325.58 334.8" style="opacity:0.699999988079071;isolation:isolate"></polygon><polygon points="109.67 337.78 109.67 317.46 176.57 250.56 263.79 337.78 109.67 337.78" style="fill:#03716E"></polygon><polygon points="109.67 337.78 109.67 317.46 176.57 250.56 263.79 337.78 109.67 337.78" style="opacity:0.699999988079071;isolation:isolate"></polygon><circle cx="253.23" cy="194.22" r="33.06" transform="translate(20.95 413.07) rotate(-80.78)" style="fill:#03716E"></circle><circle cx="253.23" cy="194.22" r="33.06" transform="translate(20.95 413.07) rotate(-80.78)" style="opacity:0.699999988079071;isolation:isolate"></circle></g><g id="freepik--photo-2--inject-64"><rect x="165.16" y="129.96" width="211.41" height="215.91" transform="translate(7.74 484.36) rotate(-84.42)" style="fill:#03716E"></rect><rect x="165.16" y="129.89" width="211.41" height="215.91" transform="translate(7.81 484.3) rotate(-84.42)" style="opacity:0.10000000149011612;isolation:isolate"></rect><rect x="168.22" y="138.87" width="204.65" height="204.81" transform="translate(4.11 487.08) rotate(-84.42)" style="fill:#fff"></rect><rect x="367.64" y="134.6" width="1" height="7.18" transform="translate(194.81 491.15) rotate(-84.42)" style="fill:#03716E"></rect><rect x="350.09" y="126.2" width="1" height="17.66" transform="translate(181.35 470.45) rotate(-84.29)" style="fill:#03716E"></rect><rect x="367.64" y="134.6" width="1" height="7.18" transform="translate(194.81 491.15) rotate(-84.42)" style="opacity:0.10000000149011612;isolation:isolate"></rect><rect x="350.09" y="126.2" width="1" height="17.66" transform="translate(181.35 470.45) rotate(-84.29)" style="opacity:0.10000000149011612;isolation:isolate"></rect><polygon points="368.31 350.63 368.02 353.6 259.73 343.02 285.42 321.92 320.8 292.82 368.31 350.63" style="opacity:0.10000000149011612;isolation:isolate"></polygon><polygon points="368.31 350.63 368.02 353.6 259.73 343.02 285.42 321.92 320.8 292.82 368.31 350.63" style="fill:#03716E"></polygon><polygon points="368.31 350.63 368.02 353.6 259.73 343.02 285.42 321.92 320.8 292.82 368.31 350.63" style="opacity:0.10000000149011612;isolation:isolate"></polygon><circle cx="309.98" cy="203.7" r="33.06" style="opacity:0.10000000149011612;isolation:isolate"></circle><circle cx="309.98" cy="203.7" r="33.06" style="fill:#03716E"></circle><circle cx="309.98" cy="203.7" r="33.06" style="opacity:0.10000000149011612;isolation:isolate"></circle></g><g id="freepik--photo-1--inject-64"><rect x="83.97" y="156.95" width="215.91" height="211.41" transform="translate(-16.72 13.08) rotate(-3.74)" style="fill:#03716E"></rect><rect x="89.74" y="163.7" width="204.81" height="204.65" transform="translate(-16.94 13.1) rotate(-3.74)" style="fill:#fff"></rect><rect x="83.97" y="156.95" width="215.91" height="211.41" transform="translate(-16.72 13.08) rotate(-3.74)" style="fill:#fff;opacity:0.5;isolation:isolate"></rect><polygon points="306.33 358.14 306.52 361.11 197.95 368.2 219.88 343.22 250.08 308.78 306.33 358.14" style="fill:#03716E"></polygon><polygon points="306.33 358.14 306.52 361.11 197.95 368.2 219.88 343.22 250.08 308.78 306.33 358.14" style="fill:#fff;opacity:0.5;isolation:isolate"></polygon><polygon points="91.07 375.18 89.75 354.91 152.15 283.79 244.86 365.14 91.07 375.18" style="fill:#03716E"></polygon><polygon points="91.07 375.18 89.75 354.91 152.15 283.79 244.86 365.14 91.07 375.18" style="fill:#fff;opacity:0.5;isolation:isolate"></polygon><circle cx="224.98" cy="222.58" r="33.06" style="fill:#03716E"></circle><circle cx="224.98" cy="222.58" r="33.06" style="fill:#fff;opacity:0.5;isolation:isolate"></circle></g></g></svg>