<?xml version="1.0" standalone="no"?>
<!DOCTYPE svg PUBLIC "-//W3C//DTD SVG 20010904//EN"
 "http://www.w3.org/TR/2001/REC-SVG-20010904/DTD/svg10.dtd">
<svg version="1.0" xmlns="http://www.w3.org/2000/svg"
 width="612.000000pt" height="140.000000pt" viewBox="0 0 612.000000 140.000000"
 preserveAspectRatio="xMidYMid meet">

<g transform="translate(0.000000,140.000000) scale(0.100000,-0.100000)"
fill="#000000" stroke="none">
<path d="M695 1004 c-92 -113 -172 -220 -177 -238 -8 -26 -6 -41 11 -78 24
-53 24 -52 -49 -218 -89 -201 -111 -254 -97 -240 8 8 110 141 227 295 l211
280 -70 3 c-39 2 -71 6 -71 10 0 4 43 94 95 200 51 105 93 192 91 192 -2 0
-79 -93 -171 -206z"/>
<path d="M1180 907 c0 -2 34 -60 75 -128 l75 -123 0 -73 0 -73 30 0 30 0 0 72
c0 71 0 71 75 193 41 68 75 125 75 129 0 3 -11 6 -24 6 -18 0 -31 -12 -52 -47
-15 -27 -44 -74 -65 -107 l-37 -58 -63 106 c-56 94 -67 106 -91 106 -16 0 -28
-2 -28 -3z"/>
<path d="M1682 762 c5 -173 15 -203 88 -239 56 -29 114 -29 170 -1 70 37 80
66 80 240 l0 148 -25 0 -25 0 0 -136 c0 -150 -11 -192 -56 -213 -63 -28 -144
-3 -163 50 -6 18 -11 92 -11 165 l0 134 -31 0 -31 0 4 -148z"/>
<path d="M2230 711 l0 -201 30 0 c30 0 30 0 30 59 l0 59 78 4 c124 6 177 47
177 138 0 34 -6 57 -21 77 -34 46 -69 58 -186 61 l-108 4 0 -201z m241 120
c19 -23 25 -74 13 -106 -11 -28 -60 -45 -129 -45 l-65 0 0 91 0 91 81 -4 c70
-3 83 -6 100 -27z"/>
<path d="M2836 895 c-88 -31 -131 -93 -131 -185 1 -101 69 -179 171 -196 66
-10 190 34 165 59 -7 7 -16 6 -28 -5 -10 -9 -37 -21 -59 -27 -132 -35 -246 75
-220 213 8 42 46 90 90 113 41 22 132 21 174 -1 38 -20 58 -12 27 10 -46 34
-125 42 -189 19z"/>
<path d="M3240 710 c0 -171 2 -200 15 -200 12 0 15 17 15 95 l0 95 130 0 130
0 0 -95 c0 -78 3 -95 15 -95 13 0 15 29 15 200 0 171 -2 200 -15 200 -12 0
-15 -17 -15 -95 l0 -95 -130 0 -130 0 0 95 c0 78 -3 95 -15 95 -13 0 -15 -29
-15 -200z"/>
<path d="M3896 858 c-13 -29 -54 -118 -90 -197 -36 -79 -66 -145 -66 -147 0
-2 6 -4 14 -4 7 0 24 25 36 55 l22 55 119 0 119 0 25 -55 c13 -31 30 -55 39
-55 10 0 -13 59 -77 200 -52 113 -97 200 -105 200 -7 0 -24 -24 -36 -52z m88
-92 c25 -57 46 -108 46 -115 0 -7 -33 -11 -101 -11 -92 0 -101 2 -95 18 20 54
92 212 97 212 4 0 27 -47 53 -104z"/>
<path d="M4290 710 c0 -171 2 -200 15 -200 12 0 15 14 15 65 l0 65 78 0 77 0
44 -65 c24 -36 51 -65 59 -65 16 0 8 13 -50 95 l-29 39 23 18 c13 10 26 18 29
18 4 0 14 16 24 36 35 75 -5 162 -84 184 -20 5 -73 10 -118 10 l-83 0 0 -200z
m185 170 c55 -12 85 -50 85 -104 0 -82 -52 -116 -177 -116 l-63 0 0 115 0 115
58 0 c31 0 75 -5 97 -10z"/>
<path d="M4886 896 c-88 -33 -131 -94 -131 -186 1 -73 36 -136 97 -170 57 -33
156 -35 208 -4 35 20 35 21 38 97 2 64 0 77 -13 77 -12 0 -15 -14 -15 -74 0
-73 0 -74 -32 -87 -18 -7 -57 -13 -86 -13 -182 3 -239 247 -77 332 45 23 135
20 179 -6 28 -17 36 -18 36 -7 0 40 -135 66 -204 41z"/>
<path d="M5330 710 l0 -200 135 0 c83 0 135 4 135 10 0 6 -47 10 -120 10
l-120 0 0 85 0 85 105 0 c63 0 105 4 105 10 0 6 -42 10 -105 10 l-105 0 0 85
0 85 120 0 c73 0 120 4 120 10 0 6 -52 10 -135 10 l-135 0 0 -200z"/>
</g>
</svg>
