<svg xmlns="http://www.w3.org/2000/svg" viewBox="0 0 1200 900"><g data-name="helping handicaped"><path fill="#fff3f7" d="M266.25,725.69c-24.45-18.8-132.32-106.36-143.46-233.06C107.16,314.87,294.59,203.85,346,173.39,463.88,103.57,747.23-1.74,926.87,155.57c143.88,126,132.58,357.75,43.62,490.33C823.89,864.37,460.27,874.87,266.25,725.69Z"/><rect width="64.89" height="28.93" x="901.58" y="456.08" fill="none" stroke="#fc7e85" stroke-linecap="round" stroke-linejoin="round" stroke-width="2" rx="2"/><rect width="64.89" height="28.93" x="901.58" y="513.84" fill="none" stroke="#fc7e85" stroke-linecap="round" stroke-linejoin="round" stroke-width="2" rx="2"/><rect width="64.89" height="28.93" x="934.03" y="485.01" fill="none" stroke="#fc7e85" stroke-linecap="round" stroke-linejoin="round" stroke-width="2" rx="2"/><rect width="64.89" height="28.93" x="869.14" y="485.01" fill="none" stroke="#fc7e85" stroke-linecap="round" stroke-linejoin="round" stroke-width="2" rx="2"/><rect width="64.89" height="28.93" x="189.8" y="599.08" fill="none" stroke="#fc7e85" stroke-linecap="round" stroke-linejoin="round" stroke-width="2" rx="2"/><rect width="64.89" height="28.93" x="222.25" y="656.83" fill="none" stroke="#fc7e85" stroke-linecap="round" stroke-linejoin="round" stroke-width="2" rx="2"/><rect width="64.89" height="28.93" x="235.73" y="628.01" fill="none" stroke="#fc7e85" stroke-linecap="round" stroke-linejoin="round" stroke-width="2" rx="2"/><rect width="64.89" height="28.93" x="170.84" y="628.01" fill="none" stroke="#fc7e85" stroke-linecap="round" stroke-linejoin="round" stroke-width="2" rx="2"/><rect width="64.89" height="28.93" x="567.2" y="213.64" fill="none" stroke="#fc7e85" stroke-linecap="round" stroke-linejoin="round" stroke-width="2" rx="2"/><rect width="64.89" height="28.93" x="589.12" y="271.5" fill="none" stroke="#fc7e85" stroke-linecap="round" stroke-linejoin="round" stroke-width="2" rx="2"/><rect width="64.89" height="28.93" x="613.13" y="242.57" fill="none" stroke="#fc7e85" stroke-linecap="round" stroke-linejoin="round" stroke-width="2" rx="2"/><rect width="64.89" height="28.93" x="548.24" y="242.57" fill="none" stroke="#fc7e85" stroke-linecap="round" stroke-linejoin="round" stroke-width="2" rx="2"/><g><path fill="#feaa40" d="M285.46 358.8h-113a3.06 3.06 0 01-3.06-3.07V233.44a3.07 3.07 0 013.06-3.07H306.38a3.07 3.07 0 013.07 3.07V335.71zM306.38 358.8a3.06 3.06 0 003.07-3.07v-20l-24 23.09z"/><path fill="#ea8826" d="M193.42 244.76a2.3 2.3 0 01-2.3-2.3V220.37a2.3 2.3 0 014.6 0v22.09A2.3 2.3 0 01193.42 244.76zM178.08 244.76a2.3 2.3 0 01-2.3-2.3V220.37a2.3 2.3 0 114.6 0v22.09A2.3 2.3 0 01178.08 244.76zM208.76 244.76a2.3 2.3 0 01-2.3-2.3V220.37a2.3 2.3 0 114.6 0v22.09A2.3 2.3 0 01208.76 244.76zM224.1 244.76a2.3 2.3 0 01-2.3-2.3V220.37a2.3 2.3 0 014.6 0v22.09A2.3 2.3 0 01224.1 244.76zM239.44 244.76a2.3 2.3 0 01-2.3-2.3V220.37a2.3 2.3 0 014.6 0v22.09A2.3 2.3 0 01239.44 244.76zM254.78 244.76a2.3 2.3 0 01-2.3-2.3V220.37a2.3 2.3 0 114.6 0v22.09A2.3 2.3 0 01254.78 244.76zM270.12 244.76a2.3 2.3 0 01-2.3-2.3V220.37a2.3 2.3 0 014.6 0v22.09A2.3 2.3 0 01270.12 244.76zM285.46 244.76a2.3 2.3 0 01-2.31-2.3V220.37a2.31 2.31 0 014.61 0v22.09A2.3 2.3 0 01285.46 244.76zM300.79 244.76a2.3 2.3 0 01-2.3-2.3V220.37a2.3 2.3 0 114.6 0v22.09A2.29 2.29 0 01300.79 244.76z"/><polygon fill="#ea8826" points="309.35 335.6 285.35 335.82 285.56 358.91 309.35 335.6"/><circle cx="252.48" cy="268.54" r="9.94" fill="#ea8826"/><circle cx="280.06" cy="268.54" r="9.94" fill="#ea8826"/><circle cx="195.09" cy="293.08" r="9.94" fill="#ea8826"/><circle cx="224.1" cy="293.08" r="9.94" fill="#ea8826"/><circle cx="252.48" cy="293.08" r="9.94" fill="#ea8826"/><circle cx="280.06" cy="293.08" r="9.94" fill="#ea8826"/><circle cx="195.09" cy="317.62" r="9.94" fill="#ea8826"/><circle cx="224.1" cy="317.62" r="9.94" fill="#ea8826"/><circle cx="252.48" cy="317.62" r="9.94" fill="#ea8826"/><circle cx="280.06" cy="317.62" r="9.94" fill="#ea8826"/><circle cx="195.09" cy="340.63" r="9.94" fill="#ea8826"/><path fill="#e22d2d" d="M225.25,317.62c.85-1.46,1.66-2.94,2.41-4.46a43,43,0,0,0,2.22-5.26,41.66,41.66,0,0,0-3.56,4.46c-.78,1.1-1.51,2.23-2.22,3.37-.71-1.14-1.45-2.27-2.22-3.37a41.66,41.66,0,0,0-3.56-4.46,43,43,0,0,0,2.22,5.26c.75,1.52,1.56,3,2.41,4.46-.85,1.46-1.66,2.95-2.41,4.46a41.45,41.45,0,0,0-2.22,5.26,39.76,39.76,0,0,0,3.56-4.46c.78-1.1,1.51-2.22,2.22-3.36.71,1.14,1.44,2.26,2.22,3.36a39.76,39.76,0,0,0,3.56,4.46,41.45,41.45,0,0,0-2.22-5.26C226.91,320.57,226.1,319.08,225.25,317.62Z"/></g><g><path fill="#dfe7ed" d="M930.67,815.82h0l-3.63,9.95H891.48l-2.2-9.23h.17A183.9,183.9,0,0,0,930.67,815.82Z"/><polygon fill="#abbcca" points="889.28 479.45 525.43 481.13 166.61 479.45 168.54 807.38 527.32 807.38 527.32 807.38 887.3 807.38 889.28 479.45"/><path fill="#d5dce0" d="M499.37 476.45c-137.36-20.77-274.53-8.56-320.59-3.33a23.25 23.25 0 00-20.07 18.3c-9.25 43-9.65 78.95-7 106.16 15.16 0 29.73.92 39.56 3.52l.74 54.12 306 .31a23.22 23.22 0 0023.21-22.44c1.87-52.89-.55-107.37-2.16-135A23.2 23.2 0 00499.37 476.45zM550.09 476.23c140.44-20.85 281.17-8.34 327.86-3.08A23.26 23.26 0 01898 491.36c9.43 43 9.83 79 7.17 106.22-15.44 0-24.78 5.2-34.79 7.79l-6.26 49.85L552 655.53a23.22 23.22 0 01-23.2-22.39c-2-52.84.12-107.36 1.55-135.16A23.22 23.22 0 01550.09 476.23z"/><path fill="#bed5e6" d="M715.15,511.18a14.25,14.25,0,0,0-7.11-3.46c-3.14-.63-6.07,2.52-6.3,6.62l-6.58,117.14a19.31,19.31,0,0,1-4.75,11.82,44.57,44.57,0,0,0-4.61,6.06c-1.6,2.53-.28,6.27,2.23,6.41,28,1.5,153.31-1.41,176.48-.09,2,.11,2.55-2.67,1.73-5.06-.71-2.08-1.54-4.31-3.28-5.77-2.37-2-3.63-5.55-3.43-9.24,1.16-22.26,4.91-76.35,10.49-95.89,1.77-6.18-2.89-12.16-7.63-9.67a18.85,18.85,0,0,0-2.85,1.87,12,12,0,0,1-13.58,1c-18.17-10.27-66.43-32.77-120.52-19A10.85,10.85,0,0,1,715.15,511.18Z"/><path fill="#dfe7ed" d="M126.76,815.82h0l3.55,9.95h34.8l2.14-9.23h-.16A175.81,175.81,0,0,1,126.76,815.82Z"/><rect width="326.18" height="48.69" x="195.73" y="655.55" fill="#e3eaf3" rx="14.07"/><rect width="325.4" height="99.9" x="196.52" y="707.48" fill="#e3eaf3" rx="11.86"/><path fill="#e3eaf3" d="M969.85,624.47a23.18,23.18,0,0,0-21.49-25.32c-17.88-1.2-42.67-2.29-62.68-1A23.15,23.15,0,0,0,864.09,621l-2.52,186.08a11.23,11.23,0,0,0,11.23,11.38h69.09a11.23,11.23,0,0,0,11.19-10.21Z"/><rect width="333.35" height="48.69" x="526.55" y="655.55" fill="#e3eaf3" rx="14.23" transform="rotate(-180 693.225 679.895)"/><rect width="329.57" height="99.9" x="526.55" y="707.48" fill="#e3eaf3" rx="11.93" transform="rotate(-180 691.335 757.43)"/><path fill="#bed5e6" d="M316.33,532a14.62,14.62,0,0,1,7-2.59c3.05-.38,5.69,2.43,5.69,5.9v99.38A15.15,15.15,0,0,0,333,644.89a38,38,0,0,1,4.1,5.34c1.4,2.22-.07,5.32-2.48,5.31-27,0-147.72,0-170,0-2,0-2.31-2.37-1.4-4.35a10.55,10.55,0,0,1,3.47-4.73,9.18,9.18,0,0,0,3.8-7.65c.08-18.88-.07-73.28-4.37-90.07-1.36-5.3,3.43-10.14,7.86-7.81a18.82,18.82,0,0,1,2.63,1.72,12.74,12.74,0,0,0,13,1.47c18-7.81,65.58-24.56,116.79-10.34A11.51,11.51,0,0,0,316.33,532Z"/><path fill="#e3eaf3" d="M116,818.44a11.23,11.23,0,0,1-11.19-10.23L88.44,624.39a23.17,23.17,0,0,1,21.46-25.27c17.32-1.18,41.08-2.23,60.4-1A23.15,23.15,0,0,1,191.86,621l2.46,186.12a11.23,11.23,0,0,1-11.23,11.37Z"/><path fill="#a7c5d8" d="M574.39,547.91a16,16,0,0,0-7-2.28,5.19,5.19,0,0,0-5.69,5.21v87.74a12.55,12.55,0,0,1-3.93,9,34.32,34.32,0,0,0-4.1,4.71,3,3,0,0,0,2.48,4.69c27,0,147.72,0,170,0,2,0,2.31-2.09,1.4-3.84a9.5,9.5,0,0,0-3.47-4.18,7.83,7.83,0,0,1-3.8-6.75c-.08-16.67.07-64.7,4.37-79.52a5.77,5.77,0,0,0-7.86-6.9,19.63,19.63,0,0,0-2.63,1.51,14.19,14.19,0,0,1-13,1.31c-18-6.91-65.58-21.69-116.79-9.13A12.77,12.77,0,0,1,574.39,547.91Z"/></g><g data-name="Doctor/Head/Female"><path fill="#ea9d7d" d="M425.19,285.22c-12.4,2.42-20,18.21-18.25,36.54h-.1c-3.39.66-5.38,5-4.46,9.77s4.42,8,7.81,7.38a4.86,4.86,0,0,0,1.29-.47c6.88,13.87,20.25,21.6,31.26,19.45,13.65-2.66,18.48-19.51,14.46-40.14S438.85,282.56,425.19,285.22Z"/><path fill="#ea9d7d" d="M438.38,368.73c-.62-2.22,2-7.61,3.61-10.72-10.86,1.66-23.78-6-30.51-19.56a4.74,4.74,0,0,1-1.29.47s-1.06,28.21-7.17,28.55c-7.15,6.14-30.51,26.9-25.75,36.53,4,8.08,25.56,3.92,57.71-2.3a16.14,16.14,0,0,0,8.39-4c6.75-6.44,4.9-18,3.95-20.61C446.1,373.69,439.29,371.92,438.38,368.73Z"/><path fill="#d18165" d="M409.28 350.15c.71-6 .91-11.23.91-11.23a4.86 4.86 0 001.29-.47C418.21 352 431.13 359.67 442 358a46.92 46.92 0 00-3.14 7.06l-.82.19C428.24 367.17 416.58 361.25 409.28 350.15zM406.73 326a13.76 13.76 0 00-.08 5 10 10 0 00.76 2.24c.14.39.38.75.56 1.17s.45.78.65 1.26a5.31 5.31 0 01-2.51-1.54 5.62 5.62 0 01-1.19-5.8A4.81 4.81 0 01406.73 326z"/><path fill="#d18165" d="M403,367.47c3.73-.21,5.57-10.77,6.44-19l5.48,2.46,4.68,9.8s-8.95,2-4.68,11.2c3.82,8.29,14,27.11,28.69,25.5-2.13,1.18-5.06,2.7-8.65,4.26-23.55,10.24-55.67,13.48-60.35,4.22S393.33,375.7,403,367.47Z"/><path d="M407.91,269.79l-.17.1a11.71,11.71,0,0,0-.79-2c-2.61-5.15-8.55-7.38-13.26-5a9.52,9.52,0,0,0-5,9.06c-3-2.35-6.83-3-10-1.46-4.69,2.37-6.13,8.95-3.22,14.68a13.45,13.45,0,0,0,4.51,5.14c-3.92,3.66-5.38,9-3.19,13.31,2,4,6.57,6,11.39,5.46a9.15,9.15,0,0,0-1.12,9.49c2.34,4.61,8.67,6.09,14.15,3.31s8-8.77,5.69-13.38c-1.59-3.11,4.35-20.39,9.06-22.78s6.72-7.9,4.48-12.3S412.62,267.4,407.91,269.79Z"/><path d="M404,310.52a20.28,20.28,0,0,0-.16,5.76c.45,3.92.65,4.32,1.67,6,2.05-.09,8.73,5.9,8,11.86a24.35,24.35,0,0,0,7.23-11.82c1.68-6.45,2.42-8,2.28-12.07,0,0,8.33,4.25,18.87-10.14,1.23,1.67,6.43,6.93,12.08,8.68a20.8,20.8,0,0,0,13.15-.54c5.46-2,6.12-4.76,11.52-6.48,3.84-1.23,7.33-.22,9.54.09-3.1-6.2-7.17-5.92-14.16-4.14-3.06.78-3.46-1-4-2-.79-1.54,1.42-10.74-5.73-14.15a10.4,10.4,0,0,0-13.44,3.21s-14.13-11.24-24.11-5.53C426.76,279.18,387.5,279.66,404,310.52Z"/><path d="M415,328a3,3,0,0,1,.09,1.08,9.48,9.48,0,0,1-.12.95,17.62,17.62,0,0,1-.4,1.81,28,28,0,0,1-1.2,3.48,17.26,17.26,0,0,1-1.74,3.22,5.73,5.73,0,0,1-1.27,1.33,1.74,1.74,0,0,1-1.73.3,1.68,1.68,0,0,0,1.65-.4,5.59,5.59,0,0,0,1.14-1.37,16.23,16.23,0,0,0,1.48-3.26,26.58,26.58,0,0,0,.94-3.47c.11-.58.21-1.17.27-1.75a8.51,8.51,0,0,0,0-.86,2.19,2.19,0,0,0-.09-.71Z"/><path fill="#be3e5f" d="M450.62,340.92a84.08,84.08,0,0,1-10.79-3.68s-.66,5.33,3.6,6.84S450.62,340.92,450.62,340.92Z"/><path fill="#d18165" d="M448.16,316.4c.45,2,.85,4,1.4,5.93a11.77,11.77,0,0,0,1.05,2.6c.2.34.54.81.82,1.23s.57.89.83,1.37a6.42,6.42,0,0,1,.93,3.45,3,3,0,0,1-.94,1.92,3.88,3.88,0,0,1-1.68.87,12.37,12.37,0,0,1-6.34-.44,24.59,24.59,0,0,0,5.84-1,3.08,3.08,0,0,0,.94-.64,1.11,1.11,0,0,0,.29-.82,5.42,5.42,0,0,0-.8-2.36c-.22-.42-.47-.84-.73-1.26s-.53-.8-.81-1.38a10.34,10.34,0,0,1-.92-3.18A19.6,19.6,0,0,1,448.16,316.4Z"/><path d="M441.91 312.3a43.82 43.82 0 00-5.89 1.37 18 18 0 00-2.7 1.1c-.91.41-1.72 1-2.67 1.51a7 7 0 012-2.52 9 9 0 012.88-1.55 10.6 10.6 0 013.21-.5A8.09 8.09 0 01441.91 312.3zM452.14 310.36a8.82 8.82 0 012.76-.65q.27.74.51 1.5h0a17.81 17.81 0 00-2.9.29c-1 .15-1.93.46-3 .72A6.83 6.83 0 01452.14 310.36zM454.49 324a1.54 1.54 0 01-1.8-1.21l-.86-4.4a1.53 1.53 0 113-.59l.86 4.4A1.54 1.54 0 01454.49 324zM439.07 324.91a1.54 1.54 0 01-1.8-1.21l-.85-4.4a1.53 1.53 0 113-.59l.86 4.4A1.54 1.54 0 01439.07 324.91z"/><path fill="#d18165" d="M440.31,335.63a2.49,2.49,0,0,1,.22,1.48,3.2,3.2,0,0,1-.53,1.38,2.79,2.79,0,0,1-1.16,1,2.08,2.08,0,0,1-1.51.15c.31-.45.58-.75.8-1.07l.63-.92A17.21,17.21,0,0,1,440.31,335.63Z"/><path fill="#e3eaf3" d="M383.66,299.11l17.1,6.63s10.74-29.12,37.79-27.55c0,0-12.78-20.88-23.56-19.43S385,279,383.66,299.11Z"/><path fill="#abbcca" d="M421.73,279.09a1.52,1.52,0,0,1-1.23-.63l-6.28-8.86a1.5,1.5,0,0,1,2.45-1.74l6.28,8.86a1.5,1.5,0,0,1-1.22,2.37Z"/><path fill="#abbcca" d="M414.16 277.8a1.5 1.5 0 01-.87-2.72l8.86-6.28a1.5 1.5 0 111.73 2.44L415 277.53A1.56 1.56 0 01414.16 277.8zM397.66 292.88c-7.91 2.64-12.18-2.92-12.19-2.94a38.51 38.51 0 00-1.81 9.17l19.65 10s8.19-32.52 35.24-30.95C417.63 274.9 405.58 290.24 397.66 292.88z"/><path fill="#abbcca" d="M386.13,300.07a75.18,75.18,0,0,1,5.3-13.15,73.13,73.13,0,0,1,7.6-12.05,59.07,59.07,0,0,1,4.79-5.34,38.65,38.65,0,0,1,5.63-4.49,22.48,22.48,0,0,1,13.57-4,26.3,26.3,0,0,0-12.68,5.26,52.45,52.45,0,0,0-9.74,9.78,105.09,105.09,0,0,0-7.81,11.57Q389.24,293.71,386.13,300.07Z"/></g><g data-name="Doctor/Torso"><path fill="#ea9d7d" d="M484.69,422.83l15.8,34.44a6.92,6.92,0,0,0,5.81,4L556,464.62a13,13,0,0,0,10.15-3.83c5.09-5.14,13.27-13.13,15.1-13.27,2.71-.2,7.65,1.11-2.74,11.65,0,0,1.78,1.28,7.11.88s25.74-2.57,26.32-.95,6,4.69-21.82,7.41c0,0-1,2.65,1.4,2.47s25.25-2.08,23.22,1.1-5.38,2.83-23.55,4.52c0,0-1.21,2.06-.28,2.29s22.63-.82,22.77,1,4.22,3.77-26.88,4.63c0,0-.37,1.09,2.86,1.75s17.32,3.06,13.84,5-4,1.21-20.42-1.92l-14.2-1.19a24.47,24.47,0,0,0-7.24.47c-14.52,3.19-69.12,12.08-83.86-1.06-13.8-12.3-24.31-59.27-24.31-59.27Z"/><path fill="#d18165" d="M613.7,477.87c-.14-1.8-21.85-.75-22.77-1s.28-2.29.28-2.29c13.87-1.29,19.1-1.4,21.71-2.78-6.77-1.55-19,1.82-40.35,5.72-38.79,7.09-50.42,5.47-55,4.68-12.63-2.17-24.71-4.61-32.87-14.33-9.93-11.84-7.28-26.73-8.28-44.15l-22.92,2.53s10.51,47,24.31,59.27c14.72,13.13,69.23,4.27,83.82,1.07a24.72,24.72,0,0,1,7.28-.48l14.2,1.19c16.43,3.13,16.94,3.85,20.42,1.92s-10.62-4.33-13.84-5-2.86-1.75-2.86-1.75C617.92,481.64,613.83,479.68,613.7,477.87Z"/><path fill="none" stroke="#2f170b" stroke-miterlimit="10" stroke-width="2" d="M578.53,459.17s.6,16.73-14.83,16.77"/><line x1="554.64" x2="556.33" y1="464.53" y2="486.65" fill="none" stroke="#2f170b" stroke-linecap="round" stroke-linejoin="round" stroke-width="6"/><path fill="#ef3e3b" d="M490.22,424.69l-17.74-43.82a1.1,1.1,0,0,0-.15-.26c-.91-1.12-8.29-10-16.56-13.2a1,1,0,0,0-1.36,1l6.38,58.49Z"/><path fill="#e3eaf3" d="M490.22,424.69l-17.74-43.82a1.1,1.1,0,0,0-.15-.26c-.91-1.12-8.29-10-16.56-13.2a1,1,0,0,0-1.36,1l6.38,58.49Z"/><path fill="#abbcca" d="M455.76,380.85l5,46.09,15.72-1.2c-.49-11.25-2.27-23.58-9.88-36.87-5.19-9.05-7.81-9.32-8.89-9.19A3.29,3.29,0,0,0,455.76,380.85Z"/><polygon fill="#25beef" points="487.72 418.52 461.28 420.54 461.59 424.53 489.3 422.41 487.72 418.52"/><path fill="#1a87c4" d="M476.08,419.41l-14.8,1.13.31,4,14.8-1.13C476.31,422.08,476.21,420.75,476.08,419.41Z"/><polygon fill="#25beef" points="484.1 409.57 461.06 411.33 461.37 415.32 485.67 413.46 484.1 409.57"/><path fill="#1a87c4" d="M474.73,410.28l-13.67,1.05.31,4,14.06-1.08C475.23,412.93,475,411.62,474.73,410.28Z"/><path fill="#e3eaf3" d="M464.35,495l-88.5,3.77c-5.14.39,3.78-28.61,4.16-33.75l7.06-94.9,18.47-5.6c7.8,13.72,28.51,12.79,34-2l14.68,4.34a10.88,10.88,0,0,1,9.12,10.49l.2,4.5q2.35,54.36,4.73,108.71C468.3,490.88,468.33,492.34,464.35,495Z"/><path fill="#abbcca" d="M468.29,490.58c-6-1.62-21.26-.53-44.9-6-22.19-5.17-27-10.37-29.25-14.19-5.35-9-3.22-21-2.35-26,1.57-8.91,1.95-12.29,5.59-23.71,1.22-3.84,1-12.88-1-13.46-2.38-.68-8.19,9.85-13.84,24.29l-2.68,36.07c-.39,5.14-9.12,31.64-4,31.25l88.5-3.77a4.27,4.27,0,0,0,3.94-4.44Z"/><path fill="#ea9d7d" d="M379.51,433.77,369.34,458.9a6.88,6.88,0,0,0,4.7,5.26l47.51,15a13,13,0,0,0,10.76-1.31c6.16-3.79,16-9.61,17.82-9.31,2.68.44,7.17,2.89-5.42,10.66,0,0,1.42,1.67,6.7,2.54s17.74-1.7,22.23,3.13c1.17,1.26.14,8.36-22.06,14.49,0,0-27.34,2.55-29.77,2.5-14.86-.35-70-4.66-81.22-20.92-10.49-15.23,7.79-51.26,7.79-51.26Z"/><path fill="#e3eaf3" d="M343.68,437a4,4,0,0,1-2-5.41l20.65-43.61s5.33-13.63,24.7-17.8l10.12,35.92-19.1,45.15a1.36,1.36,0,0,1-1.81.71Z"/><path fill="#abbcca" d="M378.09,451.21l18.56-43.88c-1.08-3.1-4.8-5.27-7-2.84-4.32,4.74-9.53,12.5-14.31,19.62-5,7.42-10.32,15.39-12.32,21.71l13.27,6.1A1.36,1.36,0,0,0,378.09,451.21Z"/><rect width="4" height="41.07" x="359.49" y="417.24" fill="#25beef" transform="rotate(-65.2 361.504 437.784)"/><path fill="#1a87c4" d="M366.59,437.93c-.68,1.21-1.29,2.4-1.84,3.56l14.54,6.71.84-1.81.78-1.84Z"/><rect width="4" height="40.65" x="363.63" y="408.17" fill="#25beef" transform="rotate(-67.21 365.595 428.481)"/><path fill="#1a87c4" d="M369.86,432.44l13.73,5.77.75-1.77.8-1.92L372.06,429C371.31,430.16,370.57,431.3,369.86,432.44Z"/></g><g data-name="Doctor/Bottom"><path fill="#7c2f13" d="M517,813.67c-10.81-7.91-35.5-16.73-42.39-31.5-3.72,4.53-24.08,3.33-32,3.07h0s-5.88,13.22-5.22,21.93,1.38,18.38,1.38,18.38l14.66.42-.24-9.75s8.12-1.61,13.12,2.49,18.63,8.8,32.63,6.78S527.85,821.57,517,813.67Z"/><path fill="#7c2f13" d="M437.4,805c0-.64.07-1.3.14-2,0,0,0-.08,0-.12.07-.69.17-1.4.29-2.11a.5.5,0,0,0,0-.12c.12-.69.26-1.38.4-2.06l0-.16c.31-1.43.69-2.85,1.09-4.19l0-.1c.4-1.36.82-2.64,1.22-3.79h0c1.09-3.08,2-5.18,2-5.18h0c1.91.06,4.54.18,7.48.26a13.22,13.22,0,0,1,1.46,1.78c5.15,8.63,13.25,19,25.93,26.06,13.79,7.66,28.67,9,35.68,9.73-4,1-9.17,1.69-14.22,2.42q-1.33.19-2.67.3h-.21c-.75.07-1.5.11-2.25.14h-1.2c-.43,0-.86,0-1.28,0s-.82,0-1.23,0l-1.22,0-1.21-.1-1.18-.11-1.18-.14-1.15-.16-1.14-.19L482,825l-1.08-.23-1.09-.24-1-.26L477.7,824l-1-.29-1-.32-.89-.3c-.33-.11-.65-.23-1-.35l-.82-.32-.91-.38-.74-.32c-.3-.13-.58-.27-.86-.41l-.64-.32c-.29-.14-.55-.3-.82-.45l-.53-.29-.8-.51-.38-.24c-.37-.25-.7-.51-1-.75-2.81-2.31-6.61-2.81-9.4-2.8h0a21.61,21.61,0,0,0-3.67.31h0l.24,9.75-3.81-.11-10.85-.31s1.38-3.6-.3-4c0-.56-.09-1.17-.14-1.81-.2-2.75-.46-6.18-.72-9.65-.08-1-.15-2-.22-2.91a18.1,18.1,0,0,1,0-2Z"/><path fill="#37d6ba" d="M374.84,562.38a90.78,90.78,0,0,1-5.86-43,89.19,89.19,0,0,1,7.32-26.85s69.82,10.36,89.34.6c0,0,15.62,138.53,16.1,150.73S475.15,783,475.15,783s-18.95,7.64-32.62,2.44c0,0-10.74-97.31-9.11-122l-.9-16.82c-.53,12.2-18.23,138.08-18.23,138.08s-19.53,6-32.72-.3c0,0-2.54-97.87,1.16-122.38l.36-47Z"/><path fill="#0aa68b" d="M431,601.43c2.6-30,8-58.76,9.76-58.58,1.35.14-.05,15.07-.49,49.31-.36,27.93.19,46.68,1,73.22,1.53,51.81,3.6,60.69,5.82,67.85a139.32,139.32,0,0,0,28.1,49.8c-6.4,2.88-16.77,6.19-28.36,3.64a38.76,38.76,0,0,1-4.26-1.2s-10.74-97.31-9.11-122L430,618.07C430.09,613.51,430.36,608.51,431,601.43Z"/><path fill="#0aa68b" d="M369,519.42a89.19,89.19,0,0,1,7.32-26.85s69.81,10.36,89.34.6h0c.75,5.69-53.65,6.82-72.12,40.9-4.59,8.46-3.48,104-4.59,130.5-2.16,51.79-.72,60.79,1,68.1a139.25,139.25,0,0,0,24.44,51.6l0,.09c-1.34.49-2.85,1-4.5,1.44-5.25,1.1-14.29,2.39-22.46.55-.51-.12-1-.25-1.53-.4a40.28,40.28,0,0,1-3.89-1.39l-.27-.13c0-.1-.12-3.17-.3-8.28-.51-24.09-1.69-94,1.35-114.14l.36-47-1-6.7v0l0-.08-7.18-45.8h0A90.78,90.78,0,0,1,369,519.42Z"/><path fill="#ea9d7d" d="M374.84,562.38a90.93,90.93,0,0,1-5.85-43,89.19,89.19,0,0,1,7.32-26.85s69.81,10.36,89.34.6c0,0,15.61,138.53,16.1,150.73S475.16,783,475.16,783s-19,7.64-32.62,2.44c0,0-10.74-97.31-9.12-122l-.89-16.82c-.54,12.2-18.24,138.08-18.24,138.08s-19.53,6-32.71-.3c0,0-2.54-97.87,1.16-122.38l.36-47Z"/><path fill="#d18165" d="M431,601.43c2.61-30,8-58.76,9.77-58.58,1.34.14-.05,15.07-.49,49.31-.36,27.93.19,46.68,1,73.22,1.53,51.81,3.61,60.69,5.83,67.85a139.32,139.32,0,0,0,28.1,49.8c-6.4,2.88-16.77,6.19-28.37,3.64a39.21,39.21,0,0,1-4.25-1.2s-10.74-97.31-9.12-122L430,618.07C430.09,613.51,430.37,608.51,431,601.43Z"/><path fill="#d18165" d="M369,519.42a89.19,89.19,0,0,1,7.32-26.85s69.81,10.36,89.34.6h0c.75,5.69-53.66,6.82-72.12,40.9-4.59,8.46-3.48,104-4.59,130.5-2.16,51.79-.72,60.79,1,68.1a139.26,139.26,0,0,0,24.43,51.6v.09c-1.34.49-2.86,1-4.5,1.44-5.25,1.1-14.29,2.39-22.46.55-.51-.12-1-.25-1.53-.4a37.77,37.77,0,0,1-3.89-1.4c-.09,0-.18-.07-.27-.12s-.13-3.17-.3-8.28c-.51-24.09-1.7-94,1.35-114.14l.36-47-1.05-6.7v0l0-.08-7.19-45.8h0A90.93,90.93,0,0,1,369,519.42Z"/><path fill="#25beef" d="M374.84,562.38a90.93,90.93,0,0,1-5.85-43,89.19,89.19,0,0,1,7.32-26.85s69.81,10.36,89.34.6c0,0,15.61,138.53,16.1,150.73s-113.51,24-109.81-.55l2.15-34.18Z"/><path fill="#1a87c4" d="M481.69,642.87a38.46,38.46,0,0,1-6.8,1.82c-7.93,1.31-20.62.45-27.84-6.72a17.26,17.26,0,0,1-3.28-5.44,45.71,45.71,0,0,1-3.61-17.8c0-7,0-14.4.1-22.57.44-34.24,1.83-49.17.49-49.31-1.8-.18-7.16,28.54-9.77,58.58,0,.21,0,.4-.05.61-.89,4.46-1.85,14.3-3.8,33.77-1.17,11.64-1.75,17.26-1.55,20.56-1.54-.67-3.57-1.15-5.77-1.84a56.8,56.8,0,0,1-22.32-13.32c-7.82-8-8.28-12.12-7.86-22.79.34-36.28.91-78.83,3.9-84.35C412,500,466.4,498.86,465.65,493.17h0c-19.53,9.76-89.34-.6-89.34-.6A89.19,89.19,0,0,0,369,519.42a90.93,90.93,0,0,0,5.85,43h0l-.75,46.79-2.15,34.18a7.75,7.75,0,0,0-.09,1.16c0,.12,0,.24,0,.35a6.32,6.32,0,0,0,.06.76c0,.13.07.26.1.39s.1.44.17.66.11.25.16.38.17.42.27.62.15.24.23.36.23.39.37.58.19.23.28.34a6.19,6.19,0,0,0,.47.55l.34.32c.18.18.37.36.57.53l.38.29c.21.17.43.34.67.5l.41.26c.26.16.51.33.79.48l.44.24c.29.15.58.31.88.45l.47.22,1,.43.49.19c.35.14.71.27,1.08.4l.52.18,1.17.37.55.16,1.25.35.57.14,1.33.32.6.13,1.39.28.31.06h0c10,1.88,23.2,2.25,36.48,1.58h0l.47,0,1.08-.05,0,0c1.92-.11,3.83-.22,5.73-.37h0c1.3-.1,2.6-.21,3.89-.33l.34,0c1.25-.12,2.49-.24,3.73-.38h0c22.14-2.4,41-7.3,40.79-12.28C481.74,643.63,481.72,643.27,481.69,642.87Z"/><path fill="#1a87c4" d="M481.69,642.87a38.46,38.46,0,0,1-6.8,1.82c-7.93,1.31-20.62.45-27.84-6.72a17.26,17.26,0,0,1-3.28-5.44,45.71,45.71,0,0,1-3.61-17.8c0-7,0-14.4.1-22.57.44-34.24,1.83-49.17.49-49.31-1.8-.18-7.16,28.54-9.77,58.58,0,.21,0,.4-.05.61-.89,4.46-1.85,14.3-3.8,33.77-1.17,11.64-1.75,17.26-1.55,20.56-1.54-.67-3.57-1.15-5.77-1.84a56.8,56.8,0,0,1-22.32-13.32c-7.82-8-8.28-12.12-7.86-22.79.34-36.28.91-78.83,3.9-84.35C412,500,466.4,498.86,465.65,493.17h0c-19.53,9.76-89.34-.6-89.34-.6A89.19,89.19,0,0,0,369,519.42a90.93,90.93,0,0,0,5.85,43h0l-.75,46.79-2.15,34.18a7.75,7.75,0,0,0-.09,1.16c0,.12,0,.24,0,.35a6.32,6.32,0,0,0,.06.76c0,.13.07.26.1.39s.1.44.17.66.11.25.16.38.17.42.27.62.15.24.23.36.23.39.37.58.19.23.28.34a6.19,6.19,0,0,0,.47.55l.34.32c.18.18.37.36.57.53l.38.29c.21.17.43.34.67.5l.41.26c.26.16.51.33.79.48l.44.24c.29.15.58.31.88.45l.47.22,1,.43.49.19c.35.14.71.27,1.08.4l.52.18,1.17.37.55.16,1.25.35.57.14,1.33.32.6.13,1.39.28.31.06h0c10,1.88,23.2,2.25,36.48,1.58h0l.47,0,1.08-.05,0,0c1.92-.11,3.83-.22,5.73-.37h0c1.3-.1,2.6-.21,3.89-.33l.34,0c1.25-.12,2.49-.24,3.73-.38h0c22.14-2.4,41-7.3,40.79-12.28C481.74,643.63,481.72,643.27,481.69,642.87Z"/><path fill="#e3eaf3" d="M372.3,637.59a24.59,24.59,0,0,0,5.79,3.94,36.49,36.49,0,0,0,6.46,2.56c1.09.38,2.24.6,3.34.91s2.27.47,3.41.63a66.13,66.13,0,0,0,6.89.68c4.59.17,9.35.09,14,0s9.4-.28,14.09-.55,9.39-.53,14.07-.92,9.35-.84,14-1.41A139.84,139.84,0,0,0,468.22,641a54.27,54.27,0,0,0,6.72-1.94,21.3,21.3,0,0,0,6.15-3.31,18.82,18.82,0,0,1-5.7,4.32,47.08,47.08,0,0,1-6.63,2.81,101.74,101.74,0,0,1-13.88,3.58c-4.68.94-9.41,1.53-14.14,2.1s-9.48.86-14.22,1.13a211.49,211.49,0,0,1-28.58-.3,49.89,49.89,0,0,1-14.06-3.48,35.11,35.11,0,0,1-6.35-3.45A21.57,21.57,0,0,1,372.3,637.59Z"/><path fill="#abbcca" d="M454.88 646.48q3.8-.74 7.55-1.69a35.47 35.47 0 01-6.64-1.59l-1.41.19c-4.65.57-9.32 1.07-14 1.41s-9.37.72-14.07.92h-.16c-.14 1.49-.26 2.82-.35 4l.72 0c4.74-.27 9.49-.63 14.22-1.13S450.2 647.42 454.88 646.48zM377.53 642.48a35.11 35.11 0 006.35 3.45 49.89 49.89 0 0014.06 3.48c3.83.36 7.64.54 11.44.6a60 60 0 01-5.71-3.61c-1.84 0-3.68 0-5.48-.09a66.13 66.13 0 01-6.89-.68c-1.14-.16-2.27-.42-3.41-.63s-2.25-.53-3.34-.91a36.49 36.49 0 01-6.46-2.56 24.59 24.59 0 01-5.79-3.94h0A21.57 21.57 0 00377.53 642.48z"/><path fill="#e3eaf3" d="M372.4,503a56.11,56.11,0,0,0,11.49,3,97.81,97.81,0,0,0,11.78,1c4,.14,7.94.33,11.92.39l6,.15,6,.05q6,.09,11.91,0c4,0,7.93-.16,11.89-.32,7.92-.41,15.83-.89,23.58-3a50.84,50.84,0,0,1-11.39,4.07,114.73,114.73,0,0,1-11.93,2l-3,.35-3,.25c-2,.18-4,.27-6,.39-4,.19-8,.22-12.06.23s-8-.18-12-.42-8-.56-12-1.07c-1-.11-2-.26-3-.39s-2-.26-3-.44a61,61,0,0,1-6-1.37A41,41,0,0,1,372.4,503Z"/><path fill="#abbcca" d="M372.4,503a41,41,0,0,0,11.06,4.92,61,61,0,0,0,6,1.37c1,.18,2,.32,3,.44s2,.28,3,.39c4,.51,8,.78,12,1.07,3.18.19,6.37.28,9.56.36,2.55-1.44,5.15-2.73,7.77-3.9-1.75,0-3.5,0-5.25,0l-6-.05-6-.15c-4-.06-7.95-.25-11.92-.39a97.81,97.81,0,0,1-11.78-1,56.11,56.11,0,0,1-11.49-3Z"/><path fill="#d18165" d="M499,825.27c-14,2-27.63-2.68-32.63-6.78S453.25,816,453.25,816l.25,9.74-14.67-.42s-.72-9.67-1.38-18.37c-.32-4.36,1.1-6.79,1.65-11s3.59-11,3.59-11c7.89.26,26.31.56,32.47-2.14a22.71,22.71,0,0,0,5.18,6.9c.76.78,1.56,1.54,2.38,2.27s1.41,1.17,2.13,1.74c.92.73,1.86,1.45,2.86,2.15,10,7.07,22.45,12.48,29.34,17.5C527.86,821.36,513,823.25,499,825.27Z"/><path fill="#7c2f13" d="M442.68 785h0s-5.88 13.23-5.22 21.93c.16 2 .3 3.73.43 5.13 5.16.09 11.2-.35 8.82-3.15-3.94-4.66-.76-23.82-.76-23.82zM519.27 815.35a16.92 16.92 0 00-2.21-1.9c-4.55-3.33-11.56-6.82-18.67-10.85A29.36 29.36 0 00484 811.81c-3.26 4-3.53 10.46-4.41 11.56 3.62 3.64 40.44-1 41.14-4.64 0 0 0-.08 0-.13A5 5 0 00519.27 815.35z"/><path fill="#7c2f13" d="M499 825.27c11.24-1.62 23-3.16 21.63-7.8-34.46 12-49.82-.47-52.8-4.35s-9.25-3.67-9.25-3.67c-11.45 1-17.93-2-21.23-4.51 0 .69 0 1.36.09 2 .66 8.71 1.38 18.38 1.38 18.38l14.66.42-.24-9.74s7.67-1.23 12.38 5.2C469.14 826 485 827.29 499 825.27zM465.64 785a26.81 26.81 0 005.09 7.37 49.4 49.4 0 006.61 6 59.84 59.84 0 007.42 4.9c1.3.72 2.63 1.38 4 2s2.73 1.18 4.15 1.65c-1.08-1.05-2.23-2-3.37-2.9s-2.28-1.85-3.44-2.73c-2.28-1.83-4.62-3.55-6.9-5.32s-4.57-3.53-6.84-5.33S467.82 787.05 465.64 785z"/><path fill="#7c2f13" d="M442.68,785c2.74-.29,5.47-.44,8.18-.56l8.13-.32c2.71-.07,5.41-.21,8.1-.34a55.23,55.23,0,0,0,8.07-.91,24.33,24.33,0,0,1-7.89,2.46,66.69,66.69,0,0,1-8.21.79c-2.74.07-5.48.06-8.21-.12A62.84,62.84,0,0,1,442.68,785Z"/><path fill="#d18165" d="M436.6,825.77c-14.05,1.62-27.54-3.46-32.43-7.7s-13.05-2.85-13.05-2.85l0,9.76-14.64-.84s-.45-9.68-.87-18.41c-.2-4.36,1.28-6.74,2-10.91S381.43,784,381.43,784c7.88.48,27.86,1.28,33.22-1.79,1.24,2.86,2,5.12,4.28,7.61.74.8,1.52,1.58,2.32,2.33s1.37,1.21,2.07,1.8c.91.75,1.83,1.5,2.8,2.23,9.76,7.35,22.1,13.1,28.85,18.32C465.55,822.66,450.66,824.14,436.6,825.77Z"/><path fill="#7c2f13" d="M381.43 784h0s-6.24 13.06-5.83 21.78c.1 2 .19 3.73.28 5.14 5.16.24 11.21 0 8.91-2.91-3.8-4.76-.1-23.83-.1-23.83C383.43 784.07 382.32 784 381.43 784zM457.13 816.41a16.81 16.81 0 00-2.16-1.95c-4.45-3.46-11.36-7.14-18.35-11.37a29.32 29.32 0 00-14.67 8.8c-3.38 3.89-3.82 10.36-4.74 11.43 3.52 3.74 40.45.15 41.26-3.49 0 0 0-.08 0-.12A5 5 0 00457.13 816.41z"/><path fill="#7c2f13" d="M436.61 825.77c11.28-1.31 23.1-2.52 21.84-7.2-34.78 11-49.78-1.86-52.65-5.82s-9.15-3.93-9.15-3.93c-11.47.69-17.86-2.52-21.09-5.1q0 1 0 2c.41 8.73.87 18.41.87 18.41l14.64.83 0-9.75s7.7-1 12.23 5.55C406.73 825.64 422.56 827.39 436.61 825.77zM404.38 784.6a26.79 26.79 0 004.87 7.51 49.47 49.47 0 006.44 6.18 60.28 60.28 0 007.29 5.1c1.27.76 2.58 1.46 3.89 2.14s2.7 1.26 4.11 1.77c-1.06-1.08-2.18-2-3.29-3s-2.23-1.91-3.37-2.82c-2.22-1.89-4.51-3.67-6.74-5.51s-4.47-3.65-6.69-5.52S406.5 786.69 404.38 784.6z"/><path fill="#7c2f13" d="M381.42,784c2.82-.2,5.6-.29,8.39-.34l8.33-.16c2.77,0,5.53-.13,8.28-.25a42.6,42.6,0,0,0,8.23-1,22,22,0,0,1-8.06,2.58,61,61,0,0,1-8.42.7c-2.81,0-5.62,0-8.41-.29A62.31,62.31,0,0,1,381.42,784Z"/></g><g data-name="Patient/Head/Male"><path fill="#b6b7b7" d="M589,369.49s2.5,30.29,14.48,43.43.22-44.44.22-44.44Z"/><path fill="#ea9d7d" d="M627.51,427.64c-.63-2.22,2-7.61,3.6-10.72-10.86,1.66-23.78-6-30.51-19.56a4.74,4.74,0,0,1-1.29.47s-1.06,28.21-7.17,28.56c-7.15,6.13-30.51,26.89-25.75,36.53,4,8.07,25.56,3.91,57.71-2.31a16.14,16.14,0,0,0,8.39-4c6.75-6.43,4.91-18,4-20.61C635.22,432.6,628.41,430.83,627.51,427.64Z"/><path fill="#d18165" d="M604.06,430.85c-4.27-9.24,4.69-11.2,4.69-11.2l-.06-.13c5.91,4,12.53,5.73,18.46,4.58l.83-.2a46.78,46.78,0,0,1,3.13-7c-10.86,1.66-23.16-6.72-29.89-20.29a2,2,0,0,1-1.91,1.19s-.2,5.25-.91,11.24h0c-.94,7.92-2.78,17.19-6.27,17.39-9.69,8.22-33.09,29.16-28.39,38.45s36.81,6,60.35-4.23c3.59-1.56,6.53-3.08,8.66-4.26C618.05,458,607.89,439.14,604.06,430.85Z"/><path fill="#ea9d7d" d="M614.31,344.14c-12.39,2.41-20,18.2-18.25,36.53H596c-3.39.66-5.39,5-4.47,9.77s4.42,8,7.81,7.38a2.76,2.76,0,0,0,2-1c6.88,13.88,19.53,22.11,30.53,20,13.65-2.66,18.49-19.51,14.46-40.14S628,341.47,614.31,344.14Z"/><path fill="#be3e5f" d="M641.54,397.9a83.25,83.25,0,0,1-11.38-.54s.85,5.31,5.36,5.57S641.54,397.9,641.54,397.9Z"/><path fill="#000001" d="M619.27 372.65a43.59 43.59 0 006-.58 17.3 17.3 0 002.83-.73c1-.29 1.83-.74 2.85-1.15a6.85 6.85 0 01-2.34 2.23 8.82 8.82 0 01-3.06 1.16 10.37 10.37 0 01-3.24.07A8.11 8.11 0 01619.27 372.65zM644.46 369.56c.16.49.32 1 .46 1.47l-.14 0a10.37 10.37 0 01-3.24.07 7.94 7.94 0 01-3.06-1A44.78 44.78 0 00644.46 369.56zM643.72 382.91a1.54 1.54 0 01-1.8-1.22l-.85-4.39a1.53 1.53 0 113-.59l.86 4.4A1.54 1.54 0 01643.72 382.91zM628.31 383.85a1.54 1.54 0 01-1.8-1.21l-.86-4.4a1.53 1.53 0 113-.59l.86 4.4A1.54 1.54 0 01628.31 383.85z"/><path fill="#d18165" d="M595.85,384.89a13.69,13.69,0,0,0-.07,5,9.84,9.84,0,0,0,.75,2.24c.14.39.38.75.56,1.17a12.3,12.3,0,0,1,.65,1.26,6.29,6.29,0,0,1-1.36-.59,6.05,6.05,0,0,1-1.15-1,5.64,5.64,0,0,1-1.41-2.73,5.43,5.43,0,0,1,.23-3.07A4.67,4.67,0,0,1,595.85,384.89Z"/><path fill="#abbcca" d="M596,380.61s-.07,4.22,4.75,11.06c4.46,6.32-1.63-7.36,2.24-16.4s8.33-5.3,3.6-15.6c0,0,6.77-2.48,18.6.12a10.33,10.33,0,0,0,7.2-.94c1.77-1,3.38-2.42,3.23-4.45a64.62,64.62,0,0,1,8,12.78s5.73-8.71-2.27-15.94c-6.81-6.15-8.94-9.82-11.22-10.69-4.52-1.7-6.41,1-10.87,1.78s-5.29-2.05-10.47.72-7.39,6.92-9.16,10.87c0,0-5.09-.7-9.73,8.43C587.85,366.4,587.12,387,596,380.61Z"/><circle cx="627.11" cy="380.14" r="7.1" fill="none" stroke="#000001" stroke-miterlimit="10"/><circle cx="644.79" cy="378.32" r="7.1" fill="none" stroke="#000001" stroke-miterlimit="10"/><path fill="#d18165" d="M637.4,375.34c.45,2,.84,4,1.39,5.93a11.78,11.78,0,0,0,1.06,2.6c.19.34.54.81.82,1.23s.56.89.83,1.37a6.41,6.41,0,0,1,.93,3.44,3,3,0,0,1-.94,1.92,3.78,3.78,0,0,1-1.69.88,12.39,12.39,0,0,1-6.34-.44,24,24,0,0,0,5.84-1,2.82,2.82,0,0,0,1-.64,1.12,1.12,0,0,0,.29-.81,5.55,5.55,0,0,0-.8-2.36c-.22-.42-.48-.84-.74-1.26s-.53-.8-.81-1.38a10.71,10.71,0,0,1-.92-3.18A19.6,19.6,0,0,1,637.4,375.34Z"/><path fill="none" stroke="#000001" stroke-miterlimit="10" d="M633.46 377a7.46 7.46 0 014.78 0M596 380.61s15.31-2.81 24.78-3.61"/><path fill="#d18165" d="M622.43 368.65a2.77 2.77 0 011.49-2.17 4.4 4.4 0 011.38-.15c.43 0 .85 0 1.26 0a29.34 29.34 0 004.82-.12c1.38-.17 2.63-1.28 4-2.22a10.17 10.17 0 011.12-.7 3.1 3.1 0 01.71-.26 1.58 1.58 0 01.44 0l.32.05a8.81 8.81 0 012.41.9 17.55 17.55 0 00-2.46-.17l-.31 0a.58.58 0 00-.17.06 2.14 2.14 0 00-.43.27c-.29.23-.6.49-.9.77a21.49 21.49 0 01-2 1.66 5.93 5.93 0 01-2.55 1.13 17.67 17.67 0 01-5.16-.19l-1.24-.2a4.71 4.71 0 00-1.11-.11C623.47 367.26 622.86 368 622.43 368.65zM627.57 393.54a8.8 8.8 0 00-4.06 2.17 16 16 0 00-1.6 1.69l-.75.93c-.24.32-.48.65-.77 1a10.37 10.37 0 01.34-1.21c.17-.38.33-.77.53-1.13a8.2 8.2 0 011.58-2 6.61 6.61 0 012.21-1.31A4.18 4.18 0 01627.57 393.54zM623.66 384.33a8.78 8.78 0 004.6.11 15.31 15.31 0 002.23-.66l1.11-.44a12 12 0 011.15-.46c-.28.31-.59.59-.89.88s-.67.5-1 .72a8.1 8.1 0 01-2.36.94 6.49 6.49 0 01-2.56.05A4.25 4.25 0 01623.66 384.33zM647.21 382.31a16.71 16.71 0 01-2.2.66 8.82 8.82 0 01-4.61-.12 4.18 4.18 0 002.25 1.14 6.36 6.36 0 002.57 0 7.94 7.94 0 002.08-.8z"/></g><g data-name="Patient/Torso"><path fill="#ea9d7d" d="M709.71,609.29a23.65,23.65,0,0,0-3.32-4.45c-10.7-11.31-42.43-45.44-54.9-71.08-4-8.17-15.85-57.91-15.85-57.91L668,455.39l14.62,62.25a27.41,27.41,0,0,0,3.19,7.83l36.71,65.94a8.09,8.09,0,0,0,5.83,3.84c6.82.94,20.52,3,21.84,4.54,1.76,2.06,3.61,6.83-11,4.64,0,0,0,2.2,3.47,6.26s17.24,19.29,16.27,20.72S758.59,639,740,618.13c0,0-2.73.75-1.16,2.58s16.55,19.19,12.78,19.43-5.45-2.68-17.52-16.38c0,0-2.37.24-2,1.12s14,17.81,12.61,19-.55,5.63-19.56-19c0,0-1.1.34.27,3.34s7.72,15.81,4.11,14.13-3.33-2.51-10.47-17.63l-9.36-15.41Z"/><path fill="#d18165" d="M668,455.39l3.76,16-6.92,3.81s8.86,50.37,12.34,58.77c10.9,26.34,39.93,62.82,49.93,74.75a24.16,24.16,0,0,1,3,4.65L737.85,628c-1.12-1.29-2.35-2.7-3.72-4.25,0,0-2.37.24-2,1.12.24.6,6.54,8.52,10.18,14,1,2.44,1.63,4.08,2.22,5.25-1.13,1.36-1.38,4.07-19.35-19.22,0,0-1.1.34.27,3.34s7.72,15.81,4.11,14.13-3.33-2.51-10.47-17.63l-9.36-15.41a23.65,23.65,0,0,0-3.32-4.45c-10.7-11.31-42.43-45.44-54.9-71.08-4-8.17-15.85-57.91-15.85-57.91Z"/><path fill="#ef3e3b" d="M680.4,483.64l-18.87-43.35a.72.72,0,0,0-.16-.25c-.94-1.1-8.54-9.76-16.89-12.78a1,1,0,0,0-1.34,1.09l7.89,58.3Z"/><path fill="#25beef" d="M680.4,483.64l-18.87-43.35a.72.72,0,0,0-.16-.25c-.94-1.1-8.54-9.76-16.89-12.78a1,1,0,0,0-1.34,1.09l7.89,58.3Z"/><path fill="#1a87c4" d="M644.82,440.7,651,486.65,666.72,485c-.78-11.23-2.88-23.52-10.83-36.6-5.42-8.91-8-9.12-9.12-9A3.27,3.27,0,0,0,644.82,440.7Z"/><path fill="#ea9d7d" d="M519.52,635.16a23.5,23.5,0,0,0,.17-5.56c-1.36-15.5-5.94-74.73.22-102.57,2-8.87,23.56-55.22,23.56-55.22l38,4.06L554.3,533.73a27.68,27.68,0,0,0-2.37,8.12L540.66,629.1a8.08,8.08,0,0,0,2.18,6.63c4.76,5,14.22,15.09,14.29,17.12.09,2.71-1.42,7.59-11.52-3.22,0,0-1.36,1.73-1.17,7.07s1.51,25.82-.13,26.33-4.93,5.76-6.52-22.1c0,0-2.6-1.12-2.52,1.29s1.05,25.32-2,23.17-2.6-5.5-3.55-23.72c0,0-2-1.29-2.28-.38s-.1,22.65-1.91,22.71-3.93,4.06-3.52-27c0,0-1.08-.42-1.87,2.78s-3.77,17.19-5.55,13.63-1-4,2.75-20.32l2.23-17.89Z"/><path fill="#d18165" d="M581.52,475.87l-9-1c-5.71,9-13.25,15.89-22.28,32.54-7,13-11.14,25.85-13,31.31-5.06,15-3,22.11-3.73,57.8-.44,21.44-.66,32.15-1.47,37.83,0,0-5.77,40.66,0,50a2.77,2.77,0,0,0,1.1,1c3.1,2.15,2.14-20.76,2-23.17s2.52-1.29,2.52-1.29c1.59,27.86,4.88,22.61,6.52,22.1s.32-20.9.13-26.29h0v0c-.19-5.34,1.17-7.07,1.17-7.07,10.1,10.81,11.61,5.93,11.52,3.22-.07-2-9.53-12.15-14.29-17.12a8.08,8.08,0,0,1-2.18-6.63l11.27-87.25a27.68,27.68,0,0,1,2.37-8.12Z"/><polygon fill="#fff" points="677.74 477.53 651.37 480.24 651.77 484.21 679.42 481.38 677.74 477.53"/><path fill="#e3eaf3" d="M666.13,478.72l-14.76,1.52.4,4,14.77-1.51C666.43,481.39,666.29,480.06,666.13,478.72Z"/><polygon fill="#fff" points="673.89 468.68 650.91 471.03 651.32 475.01 675.56 472.53 673.89 468.68"/><path fill="#e3eaf3" d="M664.54,469.64,650.91,471l.41,4,14-1.44C665.11,472.27,664.85,471,664.54,469.64Z"/><path fill="#25beef" d="M656.36,554.61l-77.1,7.9a8.42,8.42,0,0,1-9.28-8.79l5.89-122,18.32-6.07c8.15,13.51,28.84,12.05,34-2.88l14.78,4a10.89,10.89,0,0,1,9.4,10.25l.31,4.49q3.76,54.28,7.54,108.55C660.2,550.37,660.27,551.83,656.36,554.61Z"/><path fill="#25beef" d="M531.7,497.07a4.05,4.05,0,0,1-1.53-5.55l24.07-41.83s8.6-13.83,21.63-17.92l11.63,38.76L564.86,514a1.35,1.35,0,0,1-1.86.56Z"/><path fill="#1a87c4" d="M564.86,514l22.49-43.19-.1-.39a4.34,4.34,0,0,0-7.15-2.08c-4.69,4.39-10.5,11.71-15.82,18.42-5.56,7-11.52,14.52-14,20.67L563,514.58A1.35,1.35,0,0,0,564.86,514Z"/><rect width="4" height="41.07" x="547.39" y="478.77" fill="#fff" transform="rotate(-60.63 549.397 499.313)"/><path fill="#e3eaf3" d="M554.46,499.86c-.77,1.16-1.48,2.29-2.11,3.41l13.95,7.85,1-1.74.92-1.78Z"/><rect width="4" height="40.65" x="552.26" y="470.05" fill="#fff" transform="rotate(-62.64 554.201 490.366)"/><path fill="#e3eaf3" d="M558.16,494.65l13.22,6.84.89-1.7,1-1.85-12.61-6.52C559.79,492.5,559,493.57,558.16,494.65Z"/><path fill="#1a87c4" d="M660.18,550.07c-6.06-1.46-21.27,0-45-4.87-22.31-4.59-27.23-9.68-29.6-13.43-5.58-8.84-3.77-20.95-3-25.93,1.34-8.95,1.63-12.34,5-23.85,1.12-3.87.7-12.9-1.38-13.43-2.4-.62-7.93,10.06-13.21,24.64L570,553.72a8.42,8.42,0,0,0,9.28,8.79l77.1-7.9a4.26,4.26,0,0,0,3.82-4.54Z"/></g><g><path fill="#000001" d="M670.89,823c-46.72,0-84.73-49.56-84.73-110.48S624.17,602,670.89,602s84.73,49.57,84.73,110.49S717.61,823,670.89,823Zm0-212c-41.76,0-75.73,45.53-75.73,101.49S629.13,814,670.89,814s75.73-45.53,75.73-101.48S712.65,611,670.89,611Z"/><polygon fill="#454851" points="776.16 652.67 650.78 652.67 650.78 600.42 739.99 619.35 776.16 652.67"/><rect width="125.39" height="12" x="619.28" y="640.83" fill="#9d9f9f"/><path fill="#9d9f9f" d="M782.16,788.63h-12V574.43a29.11,29.11,0,0,0-29.08-29.08h-90.3v-12h90.3a41.12,41.12,0,0,1,41.08,41.08Z"/><ellipse cx="776.16" cy="802.07" fill="#454851" rx="16.95" ry="22.39"/><path fill="#ef3e3b" d="M573.7,561.86s-17.9,44.83,23.44,62.42S663.8,647.41,665.63,656s-4.74,20.64,1.43,54.89S682.2,785.5,682.2,785.5s30.86,2.2,35.1-2.77-6.06-62.31-5-114.66c0,0,7.82-25.68-6.35-40.19l-15.19-14.25s103,11.93,87.31-2.77C760,593.93,709,579.94,665.81,562.39L663,554.83Z"/><path fill="#ef3e3b" d="M573.7,561.86s-17.9,44.83,23.44,62.42S663.8,647.41,665.63,656s-4.74,20.64,1.43,54.89S682.2,785.5,682.2,785.5s30.86,2.2,35.1-2.77-6.06-62.31-5-114.66c0,0,7.82-25.68-6.35-40.19l-11.75-9.5L663,554.83Z"/><path fill="#c87e59" d="M755.89,812.68c-9.85-7.52-32.54-16.16-38.64-30-3.52,4.13-25.41,3.3-32.72,2.91h0s-2.63,11.45-2.18,19.52.81,10.36.81,10.36l13.56.67-.27-3.45s7.9-.24,12.45,3.65,17.07,8.5,30.07,6.9S765.75,820.21,755.89,812.68Z"/><path fill="#25beef" d="M739,823.28c-13,1.6-25.52-3-30.07-6.9s-12.45-3.65-12.45-3.65l.28,3.45-13.57-.67s-.37-2.28-.81-10.35a66.82,66.82,0,0,1,.92-12.78c.61-3.88,1.27-6.75,1.27-6.75,7.3.39,29.19,1.21,32.71-2.91a26.47,26.47,0,0,0,5.12,7.37c.68.73,1.41,1.45,2.16,2.14s1.28,1.11,1.93,1.65c.84.69,1.7,1.38,2.61,2,9.08,6.73,20.55,12,26.82,16.75C765.74,820.21,752,821.68,739,823.28Z"/><path fill="#7c2f13" d="M739 823.28c10.43-1.29 21.36-2.49 20.17-6.81-32.13 10.43-46.1-1.38-48.78-5s-8.5-3.58-8.5-3.58c-10.61.72-16.55-2.2-19.56-4.57 0 .64 0 1.26.05 1.86.44 8.08.81 10.36.81 10.36l13.56.67-.27-3.45s7.9-.24 12.45 3.65S726 824.88 739 823.28zM724.52 792.23c-.59.47-1.21.92-1.84 1.34a18.21 18.21 0 01-2.66 1.56 12 12 0 01-3.19 1.13 8.54 8.54 0 011.61-3.08 10.36 10.36 0 013.92-3.09C723 790.82 723.77 791.54 724.52 792.23zM729.06 795.93c-.43.31-.85.61-1.3.91a24.45 24.45 0 01-2.66 1.56 12 12 0 01-3.19 1.13 8.39 8.39 0 011.61-3.08 10.76 10.76 0 012.44-2.27c.15-.11.32-.2.49-.3C727.29 794.57 728.15 795.26 729.06 795.93z"/><path fill="#c82833" d="M682.2,785.5l2.37.14h0c1.22.07,2.44.12,3.65.17h.07l3.61.12,1.15,0h0c1.65,0,3.29,0,4.92,0l2.1,0h.38l2-.06h0l2.16-.11h0l2.09-.16h0a38.2,38.2,0,0,0,7.21-1.17h0c-14.9-11.57-22-23.26-25.7-31.56-12.33-27.62-9.66-68-9-77.74.7-10.62,1.87-17.57-2.35-25.46-5.51-10.32-15.07-13.31-33.1-20.39-16.4-6.43-31.08-12.19-42.13-19.53a19.94,19.94,0,0,1-8-23.28c2-5.56,6.59-10.35,15.84-11.77a96.35,96.35,0,0,0,43.52-19.1l-79.37,6.25v0l0,0,0,.09,0,.08c0,.06,0,.12-.07.19l0,.06q-.06.15-.12.33l0,.11c0,.1-.07.2-.11.31a1.42,1.42,0,0,1,0,.16c0,.12-.09.26-.13.4l0,.12-.19.59s0,.11-.05.16l-.15.5a2.17,2.17,0,0,0-.07.24c-.06.18-.11.37-.17.56a1.46,1.46,0,0,1,0,.2c-.08.26-.15.53-.23.82,0,0,0,.11,0,.17l-.18.71c0,.1-.06.2-.08.3s-.11.46-.17.69,0,.19-.07.29c-.07.33-.15.66-.22,1l0,.14c-.07.3-.13.61-.19.93,0,.11,0,.23-.07.35s-.11.54-.16.81l-.06.35c-.07.39-.14.78-.2,1.18h0c-.06.4-.12.8-.18,1.22,0,.12,0,.25-.05.38l-.12.92c0,.13,0,.27,0,.41,0,.37-.08.74-.11,1.12l0,.2c0,.44-.07.89-.1,1.34l0,.39c0,.34,0,.67-.06,1,0,.15,0,.3,0,.45l0,1.12c0,.1,0,.21,0,.32,0,.47,0,.95,0,1.43v.38l0,1.1c0,.16,0,.33,0,.49l.06,1.12,0,.39c0,.5.08,1,.13,1.5,0,.11,0,.22,0,.33,0,.4.09.8.14,1.2,0,.17.05.33.07.5.06.37.11.75.18,1.12,0,.15.05.3.07.45q.14.76.3,1.53a1.89,1.89,0,0,1,.05.23c.1.44.21.88.32,1.32,0,.17.08.33.13.49.09.38.2.75.31,1.12,0,.16.09.32.14.48.16.51.32,1,.5,1.52a38.43,38.43,0,0,0,4,8.29c.3.47.61.94.94,1.4.12.17.23.34.36.51.39.54.82,1.07,1.25,1.6l.33.4a38.23,38.23,0,0,0,2.91,3.1l.39.38c.54.5,1.09,1,1.67,1.48a49.47,49.47,0,0,0,11,6.89c.62.29,1.25.57,1.9.84,3.87,1.65,7.61,3.2,11.19,4.65,2.39,1,4.72,1.89,7,2.77l3.34,1.31c2.19.85,4.32,1.66,6.37,2.44l6,2.25c11.48,4.32,20.37,7.61,26.29,10.66a39.69,39.69,0,0,1,3.88,2.26,17.88,17.88,0,0,1,1.94,1.49,7.24,7.24,0,0,1,2.55,3.84,16.75,16.75,0,0,1,.34,3.4c0,2.69-.41,5.83-.83,9.81,0,.52-.11,1.05-.16,1.6s-.09,1-.14,1.46-.08,1-.12,1.53a129.49,129.49,0,0,0,.57,25.18c.11.93.22,1.87.35,2.85q.55,4.25,1.42,9.06c.23,1.28.46,2.57.7,3.87l.07.36c.48,2.59,1,5.21,1.46,7.84l.07.31.75,3.95c.32,1.64.64,3.28.95,4.91h0c.31,1.59.62,3.16.93,4.73l0,.24q.63,3.18,1.25,6.27c.21,1,.41,2,.61,3l.06.28c.18.92.37,1.83.55,2.73l.08.36q.58,2.85,1.15,5.57l.07.34c.38,1.86.76,3.66,1.12,5.4,1.51,7.19,2.82,13.32,3.76,17.64.06.27.12.53.17.79s.11.5.16.74c.52,2.39.89,4.05,1.06,4.82C682.16,785.33,682.2,785.5,682.2,785.5Z"/><path fill="#ef3e3b" d="M669.25,607.27c41.34,17.59,66.67,23.12,68.5,31.67s-4.74,20.63,1.43,54.89,15.14,74.65,15.14,74.65,30.86,2.21,35.1-2.76-6.07-62.31-5-114.67c0,0,7.83-25.67-6.34-40.19l-14.76-10"/><path fill="#c87e59" d="M828,795.67c-9.86-7.52-32.54-16.16-38.64-30-3.53,4.12-25.42,3.3-32.72,2.91h0s-2.63,11.45-2.19,19.52.82,10.36.82,10.36l13.56.67-.27-3.45s7.89-.24,12.45,3.65,17.07,8.5,30.07,6.9S837.86,803.19,828,795.67Z"/><path fill="#25beef" d="M811.08,806.27c-13,1.6-25.52-3-30.07-6.9s-12.45-3.65-12.45-3.65l.27,3.45-13.56-.67s-.37-2.29-.81-10.36a66.08,66.08,0,0,1,.92-12.78c.61-3.87,1.27-6.74,1.27-6.74,7.3.39,29.19,1.21,32.71-2.91a26.08,26.08,0,0,0,5.12,7.36c.68.74,1.41,1.45,2.16,2.15s1.28,1.11,1.93,1.65c.84.69,1.7,1.38,2.61,2,9.08,6.73,20.54,12,26.82,16.75C837.86,803.19,824.08,804.66,811.08,806.27Z"/><path fill="#7c2f13" d="M811.09 806.27c10.43-1.29 21.36-2.5 20.17-6.81-32.13 10.43-46.1-1.38-48.78-5s-8.5-3.58-8.5-3.58c-10.62.72-16.55-2.21-19.56-4.57 0 .63 0 1.26 0 1.86.45 8.07.82 10.36.82 10.36l13.56.67-.27-3.45s7.89-.24 12.45 3.65S798.09 807.87 811.09 806.27zM796.64 775.22c-.59.46-1.22.92-1.84 1.34a20.87 20.87 0 01-2.66 1.56 12.11 12.11 0 01-3.19 1.13 8.68 8.68 0 011.6-3.08A10.8 10.8 0 01793 773.9a11.24 11.24 0 011.48-.83C795.16 773.81 795.89 774.52 796.64 775.22zM801.18 778.92c-.43.3-.86.61-1.3.9a22.93 22.93 0 01-2.66 1.56 12.48 12.48 0 01-3.19 1.14 8.21 8.21 0 011.61-3.09 10.72 10.72 0 012.44-2.26 4 4 0 01.49-.3C799.41 777.56 800.27 778.25 801.18 778.92z"/><path fill="#c82833" d="M669.25,607.27q5.82,2.47,11.2,4.64c2.39,1,4.72,1.89,7,2.78l3.34,1.3q3.29,1.28,6.37,2.45l6,2.25c11.47,4.32,20.37,7.61,26.29,10.66a38.36,38.36,0,0,1,3.87,2.25,19.79,19.79,0,0,1,2,1.49,7.42,7.42,0,0,1,2.55,3.85,16,16,0,0,1,.33,3.4,96.27,96.27,0,0,1-.82,9.8c0,.52-.11,1.05-.16,1.6s-.09,1-.14,1.47-.08,1-.12,1.53a128.59,128.59,0,0,0,.57,25.17c.11.93.22,1.88.35,2.85q.56,4.26,1.42,9.07c.23,1.28.46,2.57.7,3.86l.07.36c.47,2.6,1,5.22,1.46,7.84l.06.32c.25,1.32.5,2.63.76,3.95.31,1.64.63,3.27.95,4.9v0c.31,1.58.62,3.16.93,4.72l0,.25c.43,2.11.84,4.21,1.26,6.27.2,1,.41,2,.61,3l.05.28c.19.92.38,1.84.56,2.74l.07.35c.39,1.91.78,3.77,1.15,5.58l.07.34c.39,1.85.76,3.66,1.13,5.4,1.51,7.19,2.82,13.31,3.76,17.64.06.27.11.53.17.78s.11.51.16.75c.52,2.38.89,4.05,1.06,4.82l.11.49,2.37.15h0c1.23.07,2.45.12,3.66.17h.07c1.2.05,2.41.08,3.6.11l1.16,0h0c1.65,0,3.29,0,4.92,0q1.05,0,2.1,0h.38c.67,0,1.34,0,2-.06h0l2.15-.1h0c.71,0,1.41-.09,2.09-.15h0a39.05,39.05,0,0,0,7.2-1.17h0c-14.89-11.57-22-23.26-25.7-31.56-12.32-27.62-9.65-68-9-77.75.7-10.61,1.87-17.56-2.35-25.45-3.44-6.45-8.47-10-16.16-13.55A99.72,99.72,0,0,0,702,610.78Z"/><rect width="125.39" height="12" x="551.51" y="640.83" fill="#9d9f9f"/><rect width="125.39" height="52.24" x="551.51" y="590.58" fill="#454851"/><path fill="#9d9f9f" d="M682.9,788.63h-12V574.43a29.12,29.12,0,0,0-29.08-29.08H551.51v-12h90.31a41.13,41.13,0,0,1,41.08,41.08Z"/><ellipse cx="676.9" cy="802.07" fill="#454851" rx="16.95" ry="22.39"/><path fill="#9d9f9f" d="M676.9,746.87H599.28a53.83,53.83,0,0,1-53.77-53.77V525.92a41.81,41.81,0,0,0-41.76-41.77H475.38v-12h28.37a53.83,53.83,0,0,1,53.76,53.77V693.1a41.82,41.82,0,0,0,41.77,41.77H676.9Z"/><rect width="54.48" height="19.41" x="468.67" y="468.45" fill="#454851"/><ellipse cx="560.84" cy="712.5" fill="#454851" rx="16.95" ry="22.39"/><path fill="#000001" d="M560.84,823c-46.72,0-84.73-49.56-84.73-110.48S514.12,602,560.84,602s84.73,49.57,84.73,110.49S607.56,823,560.84,823Zm0-212c-41.76,0-75.73,45.53-75.73,101.49S519.08,814,560.84,814s75.73-45.53,75.73-101.48S602.6,611,560.84,611Z"/></g><g><path fill="#2e6821" d="M1038.31 759c-8.44-56.75 4.65-126.23 4.78-126.93l3.93.75c-.13.69-13.09 69.52-4.75 125.6zM1032.62 758.87l-4-.24c2.86-46.38-5.83-49.67-5.92-49.7a1.4 1.4 0 00.21 0l.31-4C1025.34 705.14 1035.73 708.5 1032.62 758.87zM1047.05 750.77l-4-.4c5.13-51.35 10-52.51 12.11-53a3 3 0 013.21 1.33l-3.38 2.14a.91.91 0 00.63.43.88.88 0 00.66-.09C1055.53 701.73 1051.46 706.69 1047.05 750.77z"/><path fill="#abbcca" d="M1060.77,825.75H1004a14.79,14.79,0,0,1-14.63-12.59l-10-66.64c-.7-4.62,33.27-1,54.07-1.16,19.59-.2,51.61-2,51.26.28l-9.31,67.52A14.79,14.79,0,0,1,1060.77,825.75Z"/><path fill="#91a6b5" d="M1032,745.37c-20.79.21-53.36-3.47-52.66,1.15l10,66.64A14.79,14.79,0,0,0,1004,825.75h22.45a35.8,35.8,0,0,1-9.24-23.73c0-1.82.22-13.51,8.71-22.84,5.07-5.57,13.3-8.42,29.75-14.12,7.9-2.74,14.22-4.13,21-9.92a48.76,48.76,0,0,0,7.78-7.83l.22-1.67C1085.05,743.33,1051.63,745.18,1032,745.37Z"/><path fill="#3c8f2d" d="M1011.26,768.33s.76-3,2.48-9.18a50.86,50.86,0,0,1,6.69-14.31c4.26-6.33,6.76-6.66,7.33-10.86a19.88,19.88,0,0,0-.89-8.35c-1-3.1-2.09-3.76-2.13-6.14,0-2.55,1.14-4.53,2.37-6.59,2.37-3.95,3.69-3.52,4.57-6,1.11-3.14-.09-6.3-1.23-9.34-1.44-3.79-3-3.55-3.53-6.32-.91-4.38,1.7-8.37,1.89-8.65,1.85-2.75,3.67-2.78,4.45-5.09s-.53-5-1-6.09c-1-2.28-2-2.85-2-4.62a5.57,5.57,0,0,1,1.29-3.33c1.56-2,3.2-1.49,4.54-2.9,2.16-2.29.89-6.77.5-8.17-1-3.54-2.42-3.54-4.68-8.37-1.35-2.89-2.27-4.84-2.41-7.59-.2-3.86,1.33-5.21.37-7.9-.61-1.7-2.29-4.16-4.17-4.33-6.39-.58-16.81,25.14-16.81,25.14a23,23,0,0,1-3.19-6c-3.22-8.56-2.94-11.81-6-17.24-1.14-2-3.68-6.56-5.91-6.16-1.94.35-2.83,4.27-3.58,7.57-1.43,6.31-.05,8-1.9,11.2-.69,1.17-2.66,2.59-6.57,5.38-6.85,4.9-7.78,4.91-8.94,6.88-2.75,4.7-.68,10.23-.53,10.61a15.3,15.3,0,0,0,5.58,6.5,10.57,10.57,0,0,0-5.21,2.26c-2.15,1.87-3,5.62-1.64,7.44.92,1.26,2.18.68,3.68,2.28a6.35,6.35,0,0,1,1.64,4.09c-.06,2.66-2.26,3.16-2.39,5.93a6,6,0,0,0,1.41,4.07c1.49,1.57,2.95.76,4.61,2.39a6.23,6.23,0,0,1,1.7,4c0,1.82-1,2.18-.81,3.73a5.38,5.38,0,0,0,2.36,3.29c1.57,1.1,2.43.62,3.3,1.51s.85,2.64.52,5c-.68,5.07-1.17,6-1.39,8.14a19.15,19.15,0,0,0,1.85,10.46c1.52,2.92,2.55,2.56,5.12,6.77a42.25,42.25,0,0,1,3,6.16,73.17,73.17,0,0,1,2.75,7.93C1000.89,761.43,1011.26,768.33,1011.26,768.33Z"/><path fill="#91dc4f" d="M1029.89,639.14a13.51,13.51,0,0,1-3.76,4.47c-5,3.95-15,11.86-17.93,14.2.47-4.59.94-7.93,1.24-9.93l-.6,1.43s-.15-.19-.41-.56c-.42,2.87-1,7.61-1.58,14-10.52.57-15.82-19-17.55-27.14a7.51,7.51,0,0,1-.49,2c2.08,9.06,7.46,26.5,18,26.06-.11,1.41-.23,2.89-.34,4.45-13.95,7.38-26.18,1.2-30.59-1.62a15.54,15.54,0,0,0,2,1.54s-.33,0-.84.16c4.84,2.72,14.32,6.48,25.33,2.67a31,31,0,0,0,4-1.74q-.33,4.93-.56,10.82c-4.85,8.58-19.28,14.93-25.29,17.27a4.89,4.89,0,0,1,.47.77c5.88-2.28,19.15-8.12,24.76-16.3q-.16,4.93-.22,10.49c-13.07,16.69-18.13,26.68-20,32.35a21.4,21.4,0,0,0,.21,2.56c1.1-4.76,5.24-14.74,19.79-33.47q0,3.3,0,6.83h0l0,.1q.09,8.28.51,17.63h0c0,.08.36,7.93-6.07,16.77a21.17,21.17,0,0,0-4,11.44c.32.8.6,1.54.85,2.22a20.75,20.75,0,0,1,3.86-13.15,33.1,33.1,0,0,0,5.66-12.16c.77,13.46,2.17,28.43,4.49,44.7l.46.32.3-1.16a519,519,0,0,1-5.11-63.4c2.21,7.05,8.51,23.57,21,31.64a6.81,6.81,0,0,0,.22-.89c-14.84-9.79-20.7-31.84-21.27-34.07,0-4.08,0-8,0-11.63a32,32,0,0,0,25.36,12.85c-.07-.29-.14-.59-.23-.88-16.66-.6-24.22-12-25.1-13.49.1-5.38.3-10.29.55-14.69,2.23,1,10.06,3.73,21-.07a40,40,0,0,0,4-1.63c-.14-.28-.27-.54-.41-.77-13.39,6.25-22.86,2.34-24.54,1.53.29-4.86.64-9.09,1-12.65,1.54-1.22,13.06-10.38,18.6-14.72a14.79,14.79,0,0,0,3.59-4C1030.12,639.92,1030,639.53,1029.89,639.14Z"/><path fill="#3c8f2d" d="M1108.82,755.15s-.54-2.38-1.53-7.26a39.58,39.58,0,0,1-.41-12.31c.72-5.9,2.34-7,1.25-10.14a15.61,15.61,0,0,0-3.57-5.48c-1.8-1.81-2.78-1.88-3.66-3.52s-.81-3.55-.68-5.42c.24-3.58,1.32-3.75,1-5.81-.34-2.56-2.29-4.34-4.16-6-2.34-2.14-3.31-1.43-4.69-3.15a9.77,9.77,0,0,1-1.75-6.68c.31-2.57,1.57-3.24,1.29-5.11s-2.14-3.29-2.85-3.88c-1.51-1.22-2.44-1.25-3.06-2.48a4.38,4.38,0,0,1-.28-2.77c.38-1.94,1.7-2.17,2.13-3.63.69-2.35-1.78-5-2.55-5.85-1.95-2.11-2.93-1.6-6.21-4.16-2-1.53-3.29-2.56-4.36-4.42-1.51-2.62-.92-4.1-2.54-5.62-1-1-3.06-2.08-4.43-1.54-4.65,1.87-2.78,23.42-2.78,23.42a17.9,17.9,0,0,1-4.34-3c-5.27-4.81-6.22-7.17-10.25-9.86-1.5-1-4.88-3.26-6.29-2.19-1.22.93-.46,4,.19,6.52,1.24,4.89,2.82,5.61,2.64,8.46-.06,1.06-.93,2.74-2.65,6.06-3,5.83-3.68,6.17-3.78,7.94-.25,4.25,3.14,7.36,3.38,7.57a12,12,0,0,0,6.18,2.54,8.27,8.27,0,0,0-2.82,3.41c-.83,2.07-.07,5,1.5,5.75,1.08.56,1.75-.3,3.36.29a4.83,4.83,0,0,1,2.58,2.26c.91,1.86-.45,3,.45,5a4.62,4.62,0,0,0,2.41,2.33c1.59.56,2.32-.52,4.05,0a4.77,4.77,0,0,1,2.59,2.14c.65,1.26,0,1.88.75,2.88a4.22,4.22,0,0,0,2.8,1.45c1.48.21,1.91-.43,2.83-.11s1.53,1.53,2.15,3.31c1.32,3.77,1.32,4.61,1.91,6.15a15,15,0,0,0,5,6.61c2.09,1.49,2.68.88,5.95,2.89a32.78,32.78,0,0,1,4.29,3.22,58.78,58.78,0,0,1,4.71,4.53C1099.17,754,1108.82,755.15,1108.82,755.15Z"/><path fill="#91dc4f" d="M1076.05,658.79a10.54,10.54,0,0,1-1,4.43c-2.09,4.52-6.22,13.55-7.43,16.21-1.3-3.35-2.15-5.84-2.65-7.34,0,.77.09,1.21.09,1.21l-.49-.24c.73,2.14,2,5.65,3.88,10.32-7.11,4.12-17.73-7.63-21.8-12.64a5.35,5.35,0,0,1,.35,1.53c4.65,5.55,14.56,15.77,21.71,11.75.41,1,.86,2.09,1.33,3.21-7.08,10.06-17.76,10.1-21.82,9.7a12.18,12.18,0,0,0,1.92.37,6.59,6.59,0,0,0-.53.41,24.09,24.09,0,0,0,18.55-7.12,24.47,24.47,0,0,0,2.2-2.63c1,2.36,2.15,4.94,3.43,7.71-.34,7.69-8.11,17.2-11.46,21a6.16,6.16,0,0,1,.6.37c3.28-3.66,10.43-12.41,11.44-20.09,1.09,2.33,2.27,4.79,3.56,7.37-3.18,16.23-3.16,25-2.46,29.56a15,15,0,0,0,1,1.71c-.92-3.69-1.58-12.1,1.91-30.27q1.15,2.31,2.43,4.74h0l.06.06q3,5.73,6.59,12.08h0c0,.05,3.06,5.38,1.72,13.8a16.55,16.55,0,0,0,1.26,9.36c.51.44,1,.86,1.38,1.25a16.18,16.18,0,0,1-2-10.51,25.61,25.61,0,0,0-.38-10.45c5.31,9.08,11.58,19,19,29.47l.43.06-.2-.91a403.43,403.43,0,0,1-26-42.25c4,4.12,14.25,13.36,25.79,14.56a4.68,4.68,0,0,0-.16-.7c-13.78-1.55-25.66-14.8-26.84-16.15-1.47-2.82-2.83-5.53-4.09-8.09a25,25,0,0,0,22.17-.05c-.15-.18-.31-.36-.47-.53a24,24,0,0,1-22.22-.49c-1.83-3.77-3.43-7.26-4.81-10.41,1.9-.1,8.31-1,14.58-7.48.74-.77,1.47-1.62,2.2-2.55-.2-.14-.38-.27-.56-.38-7.1,9.08-15.06,9.71-16.51,9.75-1.52-3.49-2.77-6.55-3.79-9.15.64-1.39,5.4-11.83,7.71-16.81a11.56,11.56,0,0,0,1.09-4C1076.48,659.25,1076.26,659,1076.05,658.79Z"/><path fill="#7bce34" d="M1111.66,699.77s-.73-3-2.06-9.28a50.32,50.32,0,0,1-.72-15.78c.83-7.58,2.9-9,1.45-13a20,20,0,0,0-4.66-7c-2.34-2.28-3.6-2.36-4.74-4.45s-1.1-4.53-1-6.94c.26-4.59,1.64-4.82,1.25-7.46-.48-3.29-3-5.54-5.43-7.69-3-2.7-4.26-1.78-6.06-4-2.83-3.45-2.38-8.2-2.34-8.53.36-3.3,2-4.18,1.58-6.58s-2.79-4.19-3.72-4.93c-1.94-1.55-3.14-1.57-4-3.14a5.56,5.56,0,0,1-.41-3.55c.47-2.48,2.15-2.8,2.68-4.68.85-3-2.35-6.41-3.35-7.46-2.53-2.68-3.78-2-8-5.24-2.54-1.93-4.26-3.24-5.66-5.61-2-3.33-1.24-5.24-3.34-7.17-1.33-1.22-4-2.62-5.7-1.9-5.93,2.46-3.22,30.07-3.22,30.07a23,23,0,0,1-5.61-3.83c-6.82-6.09-8.09-9.1-13.29-12.5-1.94-1.26-6.3-4.1-8.1-2.71-1.55,1.21-.52,5.09.35,8.36,1.66,6.25,3.69,7.15,3.51,10.81-.07,1.35-1.15,3.53-3.32,7.81-3.79,7.52-4.62,8-4.72,10.24-.26,5.45,4.14,9.38,4.45,9.65a15.35,15.35,0,0,0,8,3.17,10.59,10.59,0,0,0-3.57,4.41c-1,2.66,0,6.36,2,7.36,1.4.69,2.24-.42,4.31.31a6.26,6.26,0,0,1,3.35,2.86c1.19,2.38-.53,3.85.65,6.36a5.91,5.91,0,0,0,3.13,3c2,.7,3-.7,5.19,0a6.16,6.16,0,0,1,3.35,2.72c.85,1.6.09,2.41,1,3.68a5.38,5.38,0,0,0,3.62,1.81c1.9.25,2.44-.57,3.63-.18,1.35.44,2,1.94,2.8,4.21,1.75,4.81,1.77,5.89,2.55,7.86a19.15,19.15,0,0,0,6.49,8.4c2.71,1.88,3.45,1.09,7.68,3.62a43.09,43.09,0,0,1,5.54,4.06,75.45,75.45,0,0,1,6.11,5.74C1099.27,698.47,1111.66,699.77,1111.66,699.77Z"/><path fill="#91dc4f" d="M1068.2,576.7a13.56,13.56,0,0,1-1.26,5.7c-2.63,5.83-7.78,17.46-9.3,20.9-1.7-4.29-2.84-7.46-3.5-9.38.08,1,.13,1.55.13,1.55s-.23-.1-.62-.3c1,2.74,2.62,7.22,5.12,13.18-9,5.38-22.84-9.52-28.15-15.9a7.41,7.41,0,0,1,.49,2c6,7.06,18.9,20,28,14.75.55,1.3,1.14,2.67,1.76,4.09-8.93,13-22.63,13.23-27.84,12.77a15.76,15.76,0,0,0,2.47.45,7.24,7.24,0,0,0-.67.53c5.55.16,15.69-.91,23.67-9.4a31.14,31.14,0,0,0,2.78-3.41c1.33,3,2.84,6.3,4.52,9.84-.31,9.85-10.15,22.17-14.38,27a7,7,0,0,1,.78.47c4.14-4.75,13.18-16.08,14.36-25.94q2.14,4.45,4.68,9.4c-3.84,20.85-3.68,32-2.71,37.94a19.34,19.34,0,0,0,1.37,2.18c-1.24-4.73-2.21-15.5,2-38.84,1,2,2.08,4,3.19,6h0l.07.08q3.91,7.29,8.63,15.38h0c0,.07,4,6.86,2.41,17.67a21.16,21.16,0,0,0,1.76,12c.66.56,1.25,1.09,1.78,1.58a20.7,20.7,0,0,1-2.68-13.44,32.87,32.87,0,0,0-.64-13.4c6.94,11.57,15.13,24.17,24.73,37.51l.56.07-.27-1.16a519.55,519.55,0,0,1-34-53.79c5.23,5.22,18.48,16.92,33.29,18.28a8.12,8.12,0,0,0-.21-.89c-17.69-1.79-33.13-18.59-34.66-20.31q-2.89-5.4-5.37-10.32a32,32,0,0,0,28.43-.39c-.2-.23-.4-.45-.61-.67-15,7.2-27,.57-28.5-.3-2.4-4.81-4.5-9.25-6.32-13.27,2.42-.16,10.64-1.36,18.58-9.82a41,41,0,0,0,2.78-3.29c-.26-.19-.49-.35-.72-.49-9,11.75-19.17,12.68-21,12.75-2-4.45-3.65-8.36-5-11.67.79-1.8,6.75-15.26,9.64-21.67a15.16,15.16,0,0,0,1.33-5.2C1068.76,577.28,1068.47,577,1068.2,576.7Z"/><path fill="#7bce34" d="M950.06,727.29s1.71-2.61,5.34-7.86a50.33,50.33,0,0,1,11-11.33c6.09-4.58,8.56-4.08,10.48-7.86a20,20,0,0,0,1.89-8.18c.06-3.27-.74-4.24,0-6.5.79-2.42,2.55-3.9,4.4-5.45,3.53-3,4.64-2.12,6.29-4.2,2.07-2.6,2-6,1.89-9.23-.11-4-1.62-4.32-1.26-7.13.58-4.43,4.35-7.35,4.62-7.55,2.65-2,4.38-1.43,5.87-3.35s1.14-4.9,1-6.08c-.21-2.48-1-3.37-.42-5a5.58,5.58,0,0,1,2.31-2.72c2.12-1.37,3.51-.36,5.24-1.26,2.79-1.45,3.06-6.1,3.14-7.55.22-3.68-1.12-4.13-1.67-9.44-.34-3.17-.56-5.32.21-8,1.07-3.71,3-4.49,2.93-7.34,0-1.8-.8-4.68-2.51-5.45C1005,593.16,986.76,614,986.76,614a22.85,22.85,0,0,1-1-6.71c-.24-9.14,1.09-12.13,0-18.24-.41-2.28-1.32-7.41-3.57-7.76-1.94-.31-4.07,3.1-5.85,6-3.43,5.5-2.69,7.6-5.47,10-1,.88-3.36,1.57-8,2.93-8.08,2.38-9,2.09-10.7,3.57-4.14,3.54-4,9.44-4,9.85a15.33,15.33,0,0,0,3.15,8,10.73,10.73,0,0,0-5.67.42c-2.64,1.08-4.64,4.35-4,6.5.45,1.5,1.84,1.36,2.72,3.36a6.25,6.25,0,0,1,.21,4.4c-.92,2.5-3.16,2.25-4.19,4.83a6,6,0,0,0,0,4.3c.89,2,2.54,1.68,3.57,3.77a6.23,6.23,0,0,1,.31,4.3c-.59,1.72-1.7,1.72-2,3.25a5.34,5.34,0,0,0,1.15,3.88c1.12,1.56,2.09,1.39,2.62,2.52.6,1.29-.06,2.77-1.15,4.93-2.31,4.56-3.09,5.32-4,7.23a19.23,19.23,0,0,0-1.67,10.49c.48,3.26,1.57,3.25,2.62,8.07a43.58,43.58,0,0,1,.84,6.82,76.63,76.63,0,0,1,0,8.39C942.51,717.37,950.06,727.29,950.06,727.29Z"/><path fill="#91dc4f" d="M1010,611.33a13.37,13.37,0,0,1-5,3c-6.05,2.08-18.05,6.3-21.6,7.54,2-4.18,3.49-7.18,4.44-9-.67.72-1,1.15-1,1.15s-.09-.23-.21-.66c-1.34,2.58-3.46,6.86-6.1,12.76-10.12-2.91-8.7-23.16-7.69-31.39a7.09,7.09,0,0,1-1.1,1.69c-1,9.23-1.64,27.48,8.43,30.5-.57,1.29-1.16,2.66-1.77,4.09-15.6,2.41-25.13-7.44-28.37-11.55a15.15,15.15,0,0,0,1.37,2.11s-.33-.07-.85-.13c3.68,4.16,11.4,10.82,23.06,10.82a32.14,32.14,0,0,0,4.39-.31c-1.28,3-2.65,6.38-4.07,10-7.4,6.52-23.12,7.79-29.56,8a5.77,5.77,0,0,1,.2.88c6.29-.23,20.74-1.4,28.73-7.29-1.18,3.07-2.4,6.36-3.64,9.84-17.82,11.49-25.87,19.27-29.51,24a20.79,20.79,0,0,0-.64,2.49c2.59-4.14,9.78-12.22,29.67-25.15q-1.11,3.13-2.22,6.46h0a.58.58,0,0,1,0,.1c-1.75,5.23-3.53,10.84-5.29,16.83h0c0,.08-2.25,7.61-11.22,13.85a21.19,21.19,0,0,0-7.53,9.5c0,.86.06,1.65.07,2.38a20.66,20.66,0,0,1,7.95-11.16,33,33,0,0,0,9.33-9.64c-3.68,13-7.26,27.57-10.4,43.71.21.29.34.45.34.45l.66-1a518.45,518.45,0,0,1,15.94-61.59c-.23,7.39.32,25.06,9.47,36.78a7.91,7.91,0,0,0,.51-.77c-10.82-14.11-9.14-36.86-8.94-39.16,1.3-3.87,2.59-7.53,3.84-11A32,32,0,0,0,991.3,671c0-.3.05-.61.07-.91-15.54-6-18.94-19.32-19.3-21,1.86-5,3.66-9.62,5.34-13.7,1.78,1.66,8.28,6.82,19.88,6.82,1.36,0,2.8-.08,4.3-.23,0-.32-.08-.6-.13-.86-14.71,1.51-22.37-5.28-23.69-6.59,1.86-4.51,3.58-8.39,5.08-11.63,1.86-.66,15.74-5.53,22.39-7.82a14.74,14.74,0,0,0,4.7-2.59C1009.94,612.14,1010,611.74,1010,611.33Z"/></g><g><rect width="333.13" height="106.6" x="695.01" y="99.2" fill="#c0d6f2" rx="5.29"/><path fill="#a2aee6" d="M1022.85,99.2H700.3a5.28,5.28,0,0,0-5.29,5.28v41.14h333.13V104.48A5.28,5.28,0,0,0,1022.85,99.2Z"/><rect width="307.74" height="19.04" x="707.7" y="181.64" fill="#a2aee6" rx="1.7"/><path fill="#dae8f7" d="M1013.07 188.23h-303a.86.86 0 010-1.71h303a.86.86 0 010 1.71zM1013.07 195.65h-303a.85.85 0 010-1.7h303a.85.85 0 110 1.7z"/><rect width="30.46" height="13.96" x="971.35" y="117.28" fill="#dae8f7" rx="1.7"/><circle cx="979.25" cy="124.26" r="3.93" fill="#a2aee6"/><circle cx="993.89" cy="124.26" r="3.93" fill="#c0d6f2"/></g></g></svg>