<svg width="24" height="24" viewBox="0 0 24 24" fill="none" xmlns="http://www.w3.org/2000/svg">
<path fill-rule="evenodd" clip-rule="evenodd" d="M9.40802 5C9.03939 5 8.71805 5.25089 8.62865 5.60852L7.34887 10.7276C7.015 12.0631 5.81505 13 4.43845 13H3C2.44772 13 2 12.5523 2 12C2 11.4477 2.44772 11 3 11H4.43845C4.89731 11 5.2973 10.6877 5.40859 10.2425L6.68836 5.12345C7.00035 3.87548 8.12165 3 9.40802 3C10.8218 3 12.0144 4.05276 12.1897 5.45565L13.7948 18.2963C13.8451 18.6983 14.1868 19 14.592 19C14.9606 19 15.2819 18.7491 15.3714 18.3915L16.6511 13.2724C16.985 11.9369 18.185 11 19.5616 11H21C21.5523 11 22 11.4477 22 12C22 12.5523 21.5523 13 21 13H19.5616C19.1027 13 18.7027 13.3123 18.5914 13.7575L17.3116 18.8766C16.9996 20.1245 15.8783 21 14.592 21C13.1782 21 11.9856 19.9472 11.8103 18.5444L10.2052 5.70372C10.1549 5.30169 9.81318 5 9.40802 5Z" fill="#6F767E"/>
</svg>
