<svg width="24" height="24" viewBox="0 0 24 24" fill="none" xmlns="http://www.w3.org/2000/svg">
<path fill-rule="evenodd" clip-rule="evenodd" d="M9.4889 5.05415C9.37598 4.52718 8.62402 4.52716 8.5111 5.05415L7.31658 10.6286C7.02017 12.0118 5.79778 13 4.38317 13H3C2.44772 13 2 12.5523 2 12C2 11.4477 2.44772 11 3 11H4.38317C4.85471 11 5.26217 10.6706 5.36097 10.2095L6.55549 4.63509C7.12011 2.0002 10.8799 2.00017 11.4445 4.63509L14.5111 18.9458C14.624 19.4728 15.376 19.4728 15.4889 18.9459L16.6834 13.3714C16.9798 11.9882 18.2022 11 19.6168 11H21C21.5523 11 22 11.4477 22 12C22 12.5523 21.5523 13 21 13H19.6168C19.1453 13 18.7378 13.3294 18.639 13.7905L17.4445 19.3649C16.8799 21.9998 13.1201 21.9998 12.5555 19.3649L9.4889 5.05415Z" fill="#6F767E"/>
</svg>
