<svg width="24" height="24" viewBox="0 0 24 24" fill="none" xmlns="http://www.w3.org/2000/svg">
<path fill-rule="evenodd" clip-rule="evenodd" d="M12 20C16.4183 20 20 16.4183 20 12C20 7.58172 16.4183 4 12 4C7.58172 4 4 7.58172 4 12C4 16.4183 7.58172 20 12 20ZM12 22C17.5228 22 22 17.5228 22 12C22 6.47715 17.5228 2 12 2C6.47715 2 2 6.47715 2 12C2 17.5228 6.47715 22 12 22Z" fill="#6F767E"/>
<path d="M13 8C13 7.44772 12.5523 7 12 7C11.4477 7 11 7.44772 11 8L11 11H8C7.44772 11 7 11.4477 7 12C7 12.5523 7.44772 13 8 13H11L11 16C11 16.5523 11.4477 17 12 17C12.5523 17 13 16.5523 13 16L13 13H16C16.5523 13 17 12.5523 17 12C17 11.4477 16.5523 11 16 11H13L13 8Z" fill="#6F767E"/>
</svg>
