<svg width="24" height="24" viewBox="0 0 24 24" fill="none" xmlns="http://www.w3.org/2000/svg">
<path fill-rule="evenodd" clip-rule="evenodd" d="M22 12C22 17.5228 17.5228 22 12 22C6.47715 22 2 17.5228 2 12C2 6.47715 6.47715 2 12 2C17.5228 2 22 6.47715 22 12ZM12 14C12.5523 14 13 13.5523 13 13V8.00001C13 7.44772 12.5523 7.00001 12 7.00001C11.4477 7.00001 11 7.44772 11 8.00001V13C11 13.5523 11.4477 14 12 14ZM12 18C12.5523 18 13 17.5523 13 17C13 16.4477 12.5523 16 12 16C11.4477 16 11 16.4477 11 17C11 17.5523 11.4477 18 12 18Z" fill="#6F767E"/>
</svg>
