<svg width="24" height="24" viewBox="0 0 24 24" fill="none" xmlns="http://www.w3.org/2000/svg">
<path fill-rule="evenodd" clip-rule="evenodd" d="M13 7.82929C14.1652 7.41746 15 6.30622 15 5C15 3.34315 13.6569 2 12 2C10.3431 2 9 3.34315 9 5C9 6.30622 9.83481 7.41746 11 7.82929V19.9381C7.38128 19.4869 4.51314 16.6187 4.06189 13H6C6.55228 13 7 12.5523 7 12C7 11.4477 6.55228 11 6 11H3C2.44772 11 2 11.4477 2 12C2 17.5228 6.47715 22 12 22C17.5228 22 22 17.5228 22 12C22 11.4477 21.5523 11 21 11H18C17.4477 11 17 11.4477 17 12C17 12.5523 17.4477 13 18 13H19.9381C19.4869 16.6187 16.6187 19.4869 13 19.9381V7.82929ZM13 5C13 5.55228 12.5523 6 12 6C11.4477 6 11 5.55228 11 5C11 4.44772 11.4477 4 12 4C12.5523 4 13 4.44772 13 5Z" fill="#6F767E"/>
</svg>
