<svg width="24" height="24" viewBox="0 0 24 24" fill="none" xmlns="http://www.w3.org/2000/svg">
<path d="M8 15C7.44772 15 7 14.5523 7 14C7 13.4477 7.44772 13 8 13C8.55228 13 9 13.4477 9 14C9 14.5523 8.55228 15 8 15Z" fill="#6F767E"/>
<path d="M16 15C15.4477 15 15 14.5523 15 14C15 13.4477 15.4477 13 16 13C16.5523 13 17 13.4477 17 14C17 14.5523 16.5523 15 16 15Z" fill="#6F767E"/>
<path fill-rule="evenodd" clip-rule="evenodd" d="M5.00391 5.63174C5.48343 5.35773 6.09428 5.52433 6.36829 6.00385L7.98755 8.83755C9.21576 8.29891 10.573 8 12 8C13.4271 8 14.7843 8.29892 16.0125 8.83756L17.6318 6.00385C17.9058 5.52433 18.5166 5.35773 18.9962 5.63174C19.4757 5.90575 19.6423 6.51661 19.3683 6.99613L17.7543 9.82048C20.0664 11.45 21.6567 14.0351 21.9508 17.0014C22.0053 17.551 21.5523 18 21 18H3.00002C2.44773 18 1.99476 17.551 2.04925 17.0014C2.34334 14.0351 3.93362 11.45 6.24572 9.82047L4.63181 6.99613C4.3578 6.51661 4.52439 5.90575 5.00391 5.63174ZM12 10C15.7273 10 18.8609 12.5502 19.7484 16H4.25166C5.13917 12.5502 8.27277 10 12 10Z" fill="#6F767E"/>
</svg>
