<svg width="24" height="24" viewBox="0 0 24 24" fill="none" xmlns="http://www.w3.org/2000/svg">
<path fill-rule="evenodd" clip-rule="evenodd" d="M5.00379 5.63174C5.48331 5.35773 6.09416 5.52433 6.36817 6.00385L7.98743 8.83755C9.21564 8.29891 10.5729 8 11.9999 8C13.427 8 14.7843 8.29894 16.0125 8.83762L17.6318 6.00385C17.9058 5.52433 18.5167 5.35773 18.9962 5.63174C19.4757 5.90575 19.6423 6.51661 19.3683 6.99613L17.7543 9.82058C20.0664 11.4501 21.6566 14.0352 21.9507 17.0014C22.0051 17.551 21.5522 18 20.9999 18H2.99989C2.44761 18 1.99464 17.551 2.04913 17.0014C2.34322 14.0351 3.93349 11.45 6.24559 9.82047L4.63168 6.99613C4.35767 6.51661 4.52427 5.90575 5.00379 5.63174ZM8 15C7.44772 15 7 14.5523 7 14C7 13.4477 7.44772 13 8 13C8.55228 13 9 13.4477 9 14C9 14.5523 8.55228 15 8 15ZM15 14C15 14.5523 15.4477 15 16 15C16.5523 15 17 14.5523 17 14C17 13.4477 16.5523 13 16 13C15.4477 13 15 13.4477 15 14Z" fill="#6F767E"/>
</svg>
