<svg width="24" height="24" viewBox="0 0 24 24" fill="none" xmlns="http://www.w3.org/2000/svg">
<path d="M17.6007 12.6254C17.6189 14.5792 18.72 15.6915 19.5062 16.238C19.9243 16.5286 20.1748 17.0414 19.98 17.5118C19.7585 18.0465 19.4081 18.7753 18.9009 19.5166C18.0673 20.735 17.2022 21.9488 15.8393 21.974C14.5001 21.9986 14.0695 21.1799 12.5385 21.1799C11.0079 21.1799 10.5294 21.9489 9.26177 21.9987C7.94625 22.0485 6.94445 20.6812 6.10397 19.4673C4.38647 16.9842 3.07394 12.4508 4.83633 9.39061C5.71185 7.87092 7.27647 6.90859 8.97472 6.88391C10.2665 6.85927 11.4858 7.753 12.2755 7.753C13.0648 7.753 14.5465 6.67821 16.1042 6.83606C16.6396 6.85834 17.9693 7.0216 19.0786 8.03149C19.4999 8.41501 19.3498 9.06681 18.9435 9.46617C18.3256 10.0736 17.5872 11.1156 17.6007 12.6254ZM15.0839 5.1933C15.5963 4.57312 15.9857 3.77455 16.1063 2.93078C16.1806 2.4105 15.7098 2.01136 15.2105 2.1755C14.4518 2.42494 13.6903 2.91638 13.178 3.5158C12.6822 4.089 12.2337 4.92592 12.1197 5.80214C12.0588 6.27028 12.4602 6.65053 12.9217 6.55129C13.763 6.37039 14.5529 5.83644 15.0839 5.1933Z" fill="#6F767E"/>
</svg>
