<svg width="25" height="24" viewBox="0 0 25 24" fill="none" xmlns="http://www.w3.org/2000/svg">
<path d="M19.4509 12.6722C19.4735 15.0331 20.8459 16.3771 21.8258 17.0375C22.3469 17.3886 22.6591 18.0083 22.4163 18.5767C22.1403 19.2228 21.7035 20.1035 21.0714 20.9992C20.0324 22.4714 18.9542 23.9382 17.2556 23.9685C15.5866 23.9984 15.0499 23.009 13.1417 23.009C11.2341 23.009 10.6378 23.9382 9.05788 23.9984C7.4183 24.0586 6.16974 22.4065 5.12223 20.9396C2.98167 17.9392 1.34583 12.4612 3.54234 8.7635C4.63352 6.92719 6.58354 5.76436 8.70011 5.73454C10.3101 5.70477 11.8298 6.7847 12.814 6.7847C13.7977 6.7847 15.6443 5.48598 17.5857 5.67672C18.253 5.70364 19.9103 5.90091 21.2928 7.12122C21.8179 7.58464 21.6309 8.37224 21.1245 8.8548C20.3543 9.58874 19.434 10.8478 19.4509 12.6722ZM16.3141 3.6917C16.9527 2.94231 17.4381 1.97736 17.5883 0.957796C17.681 0.329118 17.0942 -0.153176 16.4719 0.0451592C15.5263 0.346568 14.5772 0.940396 13.9388 1.6647C13.3209 2.35733 12.7618 3.36861 12.6197 4.42739C12.5438 4.99306 13.0442 5.45254 13.6194 5.33263C14.6679 5.11404 15.6523 4.46884 16.3141 3.6917Z" fill="#1A1D1F"/>
</svg>
