<svg width="24" height="24" viewBox="0 0 24 24" fill="none" xmlns="http://www.w3.org/2000/svg">
<path d="M13.0019 10.9996C13.0019 10.4473 12.5542 9.99957 12.0019 9.99957C11.4496 9.99957 11.0019 10.4473 11.0019 10.9996V15.0858L10.2071 14.291C9.81658 13.9005 9.18342 13.9005 8.79289 14.291C8.40237 14.6816 8.40237 15.3147 8.79289 15.7052L10.5877 17.5C11.3687 18.2811 12.635 18.2811 13.4161 17.5L15.2071 15.709C15.5976 15.3185 15.5976 14.6853 15.2071 14.2948C14.8166 13.9043 14.1834 13.9043 13.7929 14.2948L13.0019 15.0858V10.9996Z" fill="#6F767E"/>
<path fill-rule="evenodd" clip-rule="evenodd" d="M2.01465 6.82847C2.07842 6.22172 2.34825 5.65175 2.78361 5.21639L5.12132 2.87868C5.68393 2.31607 6.44699 2 7.24264 2H16.7574C17.553 2 18.3161 2.31607 18.8787 2.87868L21.2164 5.21639C21.6518 5.65176 21.9216 6.22172 21.9853 6.82847C21.995 6.88421 22 6.94152 22 7V19C22 20.6569 20.6569 22 19 22H5C3.34315 22 2 20.6569 2 19V7C2 6.94152 2.00502 6.8842 2.01465 6.82847ZM7.24264 4H16.7574C17.0226 4 17.2769 4.10536 17.4645 4.29289L19.1716 6H4.82843L6.53553 4.29289C6.72307 4.10536 6.97742 4 7.24264 4ZM4 8V19C4 19.5523 4.44772 20 5 20H19C19.5523 20 20 19.5523 20 19V8H4Z" fill="#6F767E"/>
</svg>
