<svg width="24" height="24" viewBox="0 0 24 24" fill="none" xmlns="http://www.w3.org/2000/svg">
<path fill-rule="evenodd" clip-rule="evenodd" d="M2 7.70156C2 7.24742 2.15456 6.8068 2.43826 6.45217L5.09927 3.12592C5.66858 2.41427 6.53052 2 7.44187 2H16.5581C17.4695 2 18.3314 2.41427 18.9007 3.12591L21.5617 6.45217C21.8454 6.8068 22 7.24742 22 7.70156V19C22 20.6569 20.6569 22 19 22H5C3.34315 22 2 20.6569 2 19V7.70156ZM7.44187 4H16.5581C16.8619 4 17.1492 4.13809 17.339 4.3753L19.1138 6.59383C19.2448 6.75752 19.1282 7 18.9186 7H5.08141C4.87178 7 4.75524 6.75752 4.88619 6.59383L6.66101 4.37531C6.85078 4.13809 7.13809 4 7.44187 4ZM13.002 10.9996C13.002 10.4473 12.5542 9.99959 12.002 9.99959C11.4497 9.99959 11.002 10.4473 11.002 10.9996V16.0859L10.2071 15.291C9.81658 14.9005 9.18342 14.9005 8.79289 15.291C8.40237 15.6816 8.40237 16.3147 8.79289 16.7053L10.5877 18.5C11.3687 19.2811 12.635 19.2811 13.4161 18.5L15.2071 16.7091C15.5976 16.3185 15.5976 15.6854 15.2071 15.2948C14.8166 14.9043 14.1834 14.9043 13.7929 15.2948L13.002 16.0858V10.9996Z" fill="#6F767E"/>
</svg>
