<svg width="24" height="24" viewBox="0 0 24 24" fill="none" xmlns="http://www.w3.org/2000/svg">
<path d="M3.70711 9.20711C3.31658 9.59763 2.68342 9.59763 2.29289 9.20711C1.90237 8.81658 1.90237 8.18342 2.29289 7.7929L5.58579 4.5C6.36684 3.71895 7.63317 3.71895 8.41421 4.5L11.7071 7.7929C12.0976 8.18342 12.0976 8.81658 11.7071 9.20711C11.3166 9.59763 10.6834 9.59763 10.2929 9.20711L8 6.91421V19C8 19.5523 7.55228 20 7 20C6.44772 20 6 19.5523 6 19V6.91422L3.70711 9.20711Z" fill="#6F767E"/>
<path d="M18 5C18 4.44772 17.5523 4 17 4C16.4477 4 16 4.44772 16 5V17.0858L13.7071 14.7929C13.3166 14.4024 12.6834 14.4024 12.2929 14.7929C11.9024 15.1834 11.9024 15.8166 12.2929 16.2071L15.5858 19.5C16.3668 20.281 17.6332 20.281 18.4142 19.5L21.7071 16.2071C22.0976 15.8166 22.0976 15.1834 21.7071 14.7929C21.3166 14.4024 20.6834 14.4024 20.2929 14.7929L18 17.0858V5Z" fill="#6F767E"/>
</svg>
