<svg width="24" height="24" viewBox="0 0 24 24" fill="none" xmlns="http://www.w3.org/2000/svg">
<path fill-rule="evenodd" clip-rule="evenodd" d="M18.6997 7.61397C17.5281 6.44239 15.6286 6.44239 14.4571 7.61397L8.80022 13.2708C8.40969 13.6613 8.40969 14.2945 8.80022 14.685C9.19074 15.0756 9.82391 15.0756 10.2144 14.685L15.8713 9.02818C16.2618 8.63765 16.895 8.63765 17.2855 9.02818C17.676 9.4187 17.676 10.0519 17.2855 10.4424L11.6286 16.0992C10.4571 17.2708 8.55758 17.2708 7.386 16.0992C6.21443 14.9277 6.21443 13.0282 7.386 11.8566L13.0429 6.19975C14.9955 4.24713 18.1613 4.24713 20.1139 6.19975C22.0665 8.15237 22.0665 11.3182 20.1139 13.2708L14.4571 18.9277C11.7234 21.6613 7.29125 21.6613 4.55758 18.9277C1.82391 16.194 1.82391 11.7618 4.55758 9.02818L10.2144 3.37132C10.605 2.9808 11.2381 2.9808 11.6286 3.37132C12.0192 3.76185 12.0192 4.39501 11.6286 4.78554L5.97179 10.4424C4.01917 12.395 4.01917 15.5608 5.97179 17.5135C7.92441 19.4661 11.0902 19.4661 13.0429 17.5135L18.6997 11.8566C19.8713 10.685 19.8713 8.78554 18.6997 7.61397Z" fill="#6F767E"/>
</svg>
