<svg width="24" height="24" viewBox="0 0 24 24" fill="none" xmlns="http://www.w3.org/2000/svg">
<path fill-rule="evenodd" clip-rule="evenodd" d="M12.8655 4.52465C12.3184 4.26205 11.6816 4.26205 11.1345 4.52465L3.89424 7.99999L3.02878 6.19695L10.2691 2.72161C11.3633 2.1964 12.6367 2.1964 13.7309 2.72161L20.9712 6.19695C22.8897 7.1178 22.2338 10 20.1058 10H3.89424C1.76624 10 1.11035 7.11779 3.02878 6.19695L3.89424 7.99999L20.1058 8L12.8655 4.52465Z" fill="#6F767E"/>
<path fill-rule="evenodd" clip-rule="evenodd" d="M12 11C12.5523 11 13 11.4477 13 12V18C13 18.5523 12.5523 19 12 19C11.4477 19 11 18.5523 11 18V12C11 11.4477 11.4477 11 12 11Z" fill="#6F767E"/>
<path fill-rule="evenodd" clip-rule="evenodd" d="M5 11C5.55228 11 6 11.4477 6 12V18C6 18.5523 5.55228 19 5 19C4.44772 19 4 18.5523 4 18V12C4 11.4477 4.44772 11 5 11Z" fill="#6F767E"/>
<path fill-rule="evenodd" clip-rule="evenodd" d="M19 11C19.5523 11 20 11.4477 20 12V18C20 18.5523 19.5523 19 19 19C18.4477 19 18 18.5523 18 18V12C18 11.4477 18.4477 11 19 11Z" fill="#6F767E"/>
<path fill-rule="evenodd" clip-rule="evenodd" d="M2 21C2 20.4477 2.44772 20 3 20H21C21.5523 20 22 20.4477 22 21C22 21.5523 21.5523 22 21 22H3C2.44772 22 2 21.5523 2 21Z" fill="#6F767E"/>
</svg>
