<svg width="24" height="24" viewBox="0 0 24 24" fill="none" xmlns="http://www.w3.org/2000/svg">
<path d="M10.9696 21.6446C10.9276 21.7972 11.029 21.9547 11.1867 21.9674C11.455 21.989 11.7262 22 12 22C14.302 22 16.4224 21.2222 18.1125 19.915C18.2295 19.8245 18.2379 19.6523 18.1333 19.5477L12.1768 13.5911C12.0792 13.4935 11.9209 13.4935 11.8232 13.5911L9.9818 15.4325C9.89384 15.5205 9.88435 15.6595 9.95584 15.7613C11.1764 17.4992 11.5143 19.6681 10.9696 21.6446Z" fill="#6F767E"/>
<path d="M8.68455 21.4373C8.81113 21.4818 8.94946 21.4148 8.98983 21.2869C9.40667 19.9656 9.26162 18.5053 8.55468 17.2807C8.47566 17.1438 8.28919 17.1252 8.17743 17.2369L5.86666 19.5477C5.76208 19.6523 5.7705 19.8245 5.88749 19.915C6.72442 20.5623 7.66684 21.0798 8.68455 21.4373Z" fill="#6F767E"/>
<path d="M4.08514 18.1127C4.17562 18.2297 4.34785 18.2381 4.45243 18.1335L6.76323 15.8227C6.87499 15.7109 6.85636 15.5245 6.71948 15.4454C5.49481 14.7385 4.0345 14.5934 2.71313 15.0103C2.58518 15.0506 2.51828 15.189 2.56275 15.3155C2.9203 16.3333 3.43782 17.2757 4.08514 18.1127Z" fill="#6F767E"/>
<path d="M2.0326 12.8134C2.0453 12.9711 2.20283 13.0725 2.35537 13.0305C4.33197 12.4857 6.50089 12.8237 8.23886 14.0443C8.34065 14.1158 8.47963 14.1063 8.5676 14.0183L10.409 12.1769C10.5067 12.0793 10.5067 11.921 10.409 11.8233L4.45232 5.86665C4.34775 5.76207 4.17552 5.77048 4.08504 5.88747C2.77784 7.57765 2 9.69799 2 12C2 12.0236 2.00008 12.0472 2.00025 12.0708C2.00198 12.3206 2.01287 12.5682 2.0326 12.8134Z" fill="#6F767E"/>
<path d="M5.86652 4.45242C5.76194 4.34784 5.77036 4.17562 5.88734 4.08514C7.46735 2.86311 9.42328 2.10368 11.5521 2.00985C11.7006 2.00331 11.8499 2 12 2C12.2738 2 12.545 2.011 12.8132 2.03259C12.971 2.04529 13.0724 2.20282 13.0303 2.35537C12.4855 4.33201 12.8235 6.501 14.0441 8.23902C14.1156 8.34082 14.1061 8.4798 14.0182 8.56776L12.1768 10.4091C12.0792 10.5068 11.9209 10.5068 11.8232 10.4091L5.86652 4.45242Z" fill="#6F767E"/>
<path d="M15.3154 2.56271C15.1889 2.51825 15.0505 2.58515 15.0102 2.71309C14.5932 4.03451 14.7383 5.49491 15.4453 6.71964C15.5243 6.85652 15.7108 6.87516 15.8225 6.76339L18.1335 4.45243C18.2381 4.34785 18.2297 4.17562 18.1127 4.08514C17.2757 3.4378 16.3332 2.92026 15.3154 2.56271Z" fill="#6F767E"/>
<path d="M19.915 5.88749C19.8245 5.7705 19.6523 5.76208 19.5477 5.86666L17.2368 8.17759C17.125 8.28936 17.1436 8.47582 17.2805 8.55484C18.5052 9.26182 19.9656 9.40685 21.2869 8.98993C21.4149 8.94956 21.4818 8.81123 21.4373 8.68466C21.0798 7.6669 20.5623 6.72445 19.915 5.88749Z" fill="#6F767E"/>
<path d="M21.9674 11.1869C21.9547 11.0291 21.7972 10.9277 21.6446 10.9698C19.668 11.5145 17.4991 11.1766 15.7611 9.95601C15.6593 9.88451 15.5203 9.894 15.4324 9.98196L13.591 11.8233C13.4934 11.921 13.4934 12.0793 13.591 12.1769L19.5476 18.1335C19.6522 18.2381 19.8244 18.2296 19.9149 18.1127C21.2221 16.4225 22 14.3021 22 12C22 11.7262 21.989 11.4551 21.9674 11.1869Z" fill="#6F767E"/>
</svg>
