<svg width="24" height="24" viewBox="0 0 24 24" fill="none" xmlns="http://www.w3.org/2000/svg">
<path fill-rule="evenodd" clip-rule="evenodd" d="M4.92893 4.92893C1.02369 8.83418 1.02369 15.1658 4.92893 19.0711C8.83418 22.9763 15.1658 22.9763 19.0711 19.0711C22.9763 15.1658 22.9763 8.83418 19.0711 4.92893C15.1658 1.02369 8.83418 1.02369 4.92893 4.92893ZM7.68665 14.8991L5.6798 16.906C5.01926 16.0572 4.55353 15.106 4.2826 14.1127C5.45281 13.9611 6.6664 14.2232 7.68665 14.8991ZM9.10086 16.3134L7.09402 18.3202C7.94275 18.9807 8.89397 19.4465 9.88722 19.7174C10.0389 18.5472 9.77679 17.3336 9.10086 16.3134ZM11.8675 19.9989C12.1034 18.2248 11.6595 16.3776 10.5357 14.8785L12 13.4142L16.906 18.3202C15.4304 19.4686 13.645 20.0282 11.8675 19.9989ZM9.12146 13.4643C7.62245 12.3405 5.77522 11.8965 4.00109 12.1324C3.97184 10.355 4.53141 8.56962 5.6798 7.09402L10.5858 12L9.12146 13.4643ZM12 10.5858L7.09402 5.6798C8.5696 4.53142 10.3549 3.97185 12.1324 4.00109C11.8965 5.77523 12.3404 7.62248 13.4643 9.1215L12 10.5858ZM14.8785 10.5357L13.4142 12L18.3202 16.906C19.4686 15.4304 20.0282 13.645 19.9989 11.8675C18.2248 12.1035 16.3775 11.6595 14.8785 10.5357ZM19.7174 9.88725C18.5472 10.0389 17.3336 9.77683 16.3133 9.10089L18.3202 7.09402C18.9807 7.94276 19.4465 8.89399 19.7174 9.88725ZM14.8991 7.68669C14.2231 6.66642 13.961 5.45281 14.1127 4.28259C15.106 4.55352 16.0572 5.01925 16.906 5.6798L14.8991 7.68669Z" fill="#6F767E"/>
</svg>
