<svg width="24" height="24" viewBox="0 0 24 24" fill="none" xmlns="http://www.w3.org/2000/svg">
<path fill-rule="evenodd" clip-rule="evenodd" d="M5.58582 7L9.87871 2.70711C11.0503 1.53554 12.9498 1.53554 14.1213 2.70711L18.4142 7H20.847C21.4555 7 21.923 7.53899 21.8369 8.14142L20.368 18.4243C20.1568 19.9022 18.8911 21 17.3981 21H6.6019C5.10895 21 3.84318 19.9022 3.63205 18.4243L2.16307 8.14142C2.07701 7.53899 2.54447 7 3.15302 7H5.58582ZM11.2929 4.12132C11.6834 3.7308 12.3166 3.7308 12.7071 4.12132L15.5858 7L8.41425 7L11.2929 4.12132ZM4.30603 9L5.61195 18.1414C5.68233 18.6341 6.10425 19 6.6019 19H17.3981C17.8958 19 18.3177 18.6341 18.3881 18.1414L19.694 9H4.30603Z" fill="#6F767E"/>
<path fill-rule="evenodd" clip-rule="evenodd" d="M8 11C8.55228 11 9 11.4477 9 12V16C9 16.5523 8.55228 17 8 17C7.44772 17 7 16.5523 7 16V12C7 11.4477 7.44772 11 8 11Z" fill="#6F767E"/>
<path fill-rule="evenodd" clip-rule="evenodd" d="M12 11C12.5523 11 13 11.4477 13 12V16C13 16.5523 12.5523 17 12 17C11.4477 17 11 16.5523 11 16V12C11 11.4477 11.4477 11 12 11Z" fill="#6F767E"/>
<path fill-rule="evenodd" clip-rule="evenodd" d="M16 11C16.5523 11 17 11.4477 17 12V16C17 16.5523 16.5523 17 16 17C15.4477 17 15 16.5523 15 16V12C15 11.4477 15.4477 11 16 11Z" fill="#6F767E"/>
</svg>
