<svg width="24" height="24" viewBox="0 0 24 24" fill="none" xmlns="http://www.w3.org/2000/svg">
<path fill-rule="evenodd" clip-rule="evenodd" d="M9.87859 2.70711L5.5857 7H3.15302C2.54447 7 2.07701 7.53899 2.16307 8.14142L3.63205 18.4243C3.84318 19.9022 5.10895 21 6.6019 21H17.3981C18.8911 21 20.1568 19.9022 20.368 18.4243L21.8369 8.14142C21.923 7.53899 21.4555 7 20.847 7H18.4141L14.1212 2.70711C12.9497 1.53554 11.0502 1.53554 9.87859 2.70711ZM12.707 4.12132C12.3165 3.7308 11.6833 3.7308 11.2928 4.12132L8.41412 7L15.5857 7L12.707 4.12132ZM9 12C9 11.4477 8.55228 11 8 11C7.44772 11 7 11.4477 7 12V16C7 16.5523 7.44772 17 8 17C8.55228 17 9 16.5523 9 16V12ZM12 11C12.5523 11 13 11.4477 13 12V16C13 16.5523 12.5523 17 12 17C11.4477 17 11 16.5523 11 16V12C11 11.4477 11.4477 11 12 11ZM17 12C17 11.4477 16.5523 11 16 11C15.4477 11 15 11.4477 15 12V16C15 16.5523 15.4477 17 16 17C16.5523 17 17 16.5523 17 16V12Z" fill="#6F767E"/>
</svg>
