<svg width="24" height="24" viewBox="0 0 24 24" fill="none" xmlns="http://www.w3.org/2000/svg">
<path fill-rule="evenodd" clip-rule="evenodd" d="M9 5C7.34315 5 6 6.34315 6 8V19C6 20.6569 7.34315 22 9 22H15C16.6569 22 18 20.6569 18 19V8C18 6.34315 16.6569 5 15 5H9ZM13.7071 11.2071C14.0977 10.8166 14.0977 10.1834 13.7071 9.79289C13.3166 9.40237 12.6834 9.40237 12.2929 9.79289L9.29292 12.7929C9.00692 13.0789 8.92137 13.509 9.07615 13.8827C9.23093 14.2564 9.59557 14.5 10 14.5H11.5858L10.2929 15.7929C9.9024 16.1834 9.9024 16.8166 10.2929 17.2071C10.6834 17.5976 11.3166 17.5976 11.7071 17.2071L14.7071 14.2071C14.9931 13.9211 15.0787 13.491 14.9239 13.1173C14.7691 12.7436 14.4045 12.5 14 12.5H12.4142L13.7071 11.2071Z" fill="#6F767E"/>
<path fill-rule="evenodd" clip-rule="evenodd" d="M10 3C10 2.44772 10.4477 2 11 2H13C13.5523 2 14 2.44772 14 3C14 3.55228 13.5523 4 13 4H11C10.4477 4 10 3.55228 10 3Z" fill="#6F767E"/>
</svg>
