<svg width="24" height="24" viewBox="0 0 24 24" fill="none" xmlns="http://www.w3.org/2000/svg">
<path fill-rule="evenodd" clip-rule="evenodd" d="M9 5C7.34315 5 6 6.34315 6 8V19C6 20.6569 7.34315 22 9 22H15C16.6569 22 18 20.6569 18 19V8C18 6.34315 16.6569 5 15 5H9ZM10 17C9.44772 17 9 17.4477 9 18C9 18.5523 9.44772 19 10 19H14C14.5523 19 15 18.5523 15 18C15 17.4477 14.5523 17 14 17H10Z" fill="#6F767E"/>
<path fill-rule="evenodd" clip-rule="evenodd" d="M10 3C10 2.44772 10.4477 2 11 2H13C13.5523 2 14 2.44772 14 3C14 3.55228 13.5523 4 13 4H11C10.4477 4 10 3.55228 10 3Z" fill="#6F767E"/>
</svg>
