<svg width="24" height="24" viewBox="0 0 24 24" fill="none" xmlns="http://www.w3.org/2000/svg">
<path fill-rule="evenodd" clip-rule="evenodd" d="M6 8C6 6.34315 7.34315 5 9 5H15C16.6569 5 18 6.34315 18 8V19C18 20.6569 16.6569 22 15 22H9C7.34315 22 6 20.6569 6 19V8ZM9 18C9 17.4477 9.44772 17 10 17H14C14.5523 17 15 17.4477 15 18C15 18.5523 14.5523 19 14 19H10C9.44772 19 9 18.5523 9 18ZM10 14C9.44772 14 9 14.4477 9 15C9 15.5523 9.44772 16 10 16H14C14.5523 16 15 15.5523 15 15C15 14.4477 14.5523 14 14 14H10ZM9 12C9 11.4477 9.44772 11 10 11H14C14.5523 11 15 11.4477 15 12C15 12.5523 14.5523 13 14 13H10C9.44772 13 9 12.5523 9 12ZM10 8C9.44772 8 9 8.44772 9 9C9 9.55228 9.44772 10 10 10H14C14.5523 10 15 9.55228 15 9C15 8.44772 14.5523 8 14 8H10Z" fill="#6F767E"/>
<path fill-rule="evenodd" clip-rule="evenodd" d="M10 3C10 2.44772 10.4477 2 11 2H13C13.5523 2 14 2.44772 14 3C14 3.55228 13.5523 4 13 4H11C10.4477 4 10 3.55228 10 3Z" fill="#6F767E"/>
</svg>
