<svg width="24" height="24" viewBox="0 0 24 24" fill="none" xmlns="http://www.w3.org/2000/svg">
<path fill-rule="evenodd" clip-rule="evenodd" d="M15 7H9C8.44772 7 8 7.44772 8 8V19C8 19.5523 8.44772 20 9 20H15C15.5523 20 16 19.5523 16 19V8C16 7.44772 15.5523 7 15 7ZM9 5C7.34315 5 6 6.34315 6 8V19C6 20.6569 7.34315 22 9 22H15C16.6569 22 18 20.6569 18 19V8C18 6.34315 16.6569 5 15 5H9Z" fill="#6F767E"/>
<path fill-rule="evenodd" clip-rule="evenodd" d="M10 3C10 2.44772 10.4477 2 11 2H13C13.5523 2 14 2.44772 14 3C14 3.55228 13.5523 4 13 4H11C10.4477 4 10 3.55228 10 3Z" fill="#6F767E"/>
<path fill-rule="evenodd" clip-rule="evenodd" d="M13.7071 9.79289C14.0977 10.1834 14.0977 10.8166 13.7071 11.2071L12.4142 12.5H14C14.4045 12.5 14.7691 12.7436 14.9239 13.1173C15.0787 13.491 14.9931 13.9211 14.7071 14.2071L11.7071 17.2071C11.3166 17.5976 10.6834 17.5976 10.2929 17.2071C9.9024 16.8166 9.9024 16.1834 10.2929 15.7929L11.5858 14.5H10C9.59557 14.5 9.23093 14.2564 9.07615 13.8827C8.92137 13.509 9.00692 13.0789 9.29292 12.7929L12.2929 9.79289C12.6834 9.40237 13.3166 9.40237 13.7071 9.79289Z" fill="#6F767E"/>
</svg>
