<svg width="24" height="24" viewBox="0 0 24 24" fill="none" xmlns="http://www.w3.org/2000/svg">
<path fill-rule="evenodd" clip-rule="evenodd" d="M15 7H9C8.44772 7 8 7.44772 8 8V19C8 19.5523 8.44772 20 9 20H15C15.5523 20 16 19.5523 16 19V8C16 7.44772 15.5523 7 15 7ZM9 5C7.34315 5 6 6.34315 6 8V19C6 20.6569 7.34315 22 9 22H15C16.6569 22 18 20.6569 18 19V8C18 6.34315 16.6569 5 15 5H9Z" fill="#6F767E"/>
<path fill-rule="evenodd" clip-rule="evenodd" d="M10 3C10 2.44772 10.4477 2 11 2H13C13.5523 2 14 2.44772 14 3C14 3.55228 13.5523 4 13 4H11C10.4477 4 10 3.55228 10 3Z" fill="#6F767E"/>
<path fill-rule="evenodd" clip-rule="evenodd" d="M9 18C9 17.4477 9.44772 17 10 17H14C14.5523 17 15 17.4477 15 18C15 18.5523 14.5523 19 14 19H10C9.44772 19 9 18.5523 9 18Z" fill="#6F767E"/>
<path fill-rule="evenodd" clip-rule="evenodd" d="M9 15C9 14.4477 9.44772 14 10 14H14C14.5523 14 15 14.4477 15 15C15 15.5523 14.5523 16 14 16H10C9.44772 16 9 15.5523 9 15Z" fill="#6F767E"/>
<path fill-rule="evenodd" clip-rule="evenodd" d="M9 12C9 11.4477 9.44772 11 10 11H14C14.5523 11 15 11.4477 15 12C15 12.5523 14.5523 13 14 13H10C9.44772 13 9 12.5523 9 12Z" fill="#6F767E"/>
<path fill-rule="evenodd" clip-rule="evenodd" d="M9 9C9 8.44772 9.44772 8 10 8H14C14.5523 8 15 8.44772 15 9C15 9.55228 14.5523 10 14 10H10C9.44772 10 9 9.55228 9 9Z" fill="#6F767E"/>
</svg>
