<svg width="24" height="24" viewBox="0 0 24 24" fill="none" xmlns="http://www.w3.org/2000/svg">
<path fill-rule="evenodd" clip-rule="evenodd" d="M10 8.58422L9.91703 12L5.422 15.184C4.97132 15.5032 4.86477 16.1274 5.184 16.578C5.50323 17.0287 6.12736 17.1353 6.57804 16.816L10 14.3921V20.0842C10 21.2709 11.3129 21.9877 12.3112 21.3459L17.2948 18.1422C17.8059 17.8136 18.1051 17.308 18.1888 16.773L13.5098 12.094L13.3771 12L13.3998 11.984L10 8.58422ZM12 19.1683V13.4755L16.2133 16.4598L12 19.1683Z" fill="#6F767E"/>
<path d="M15.0554 10.8112L17.3693 9.17223C18.5258 8.35307 18.4869 6.62419 17.2948 5.85783L12.3112 2.65408C11.3129 2.01233 10 2.7291 10 3.91584V5.75579L12 7.75579V4.83168L16.2133 7.54018L13.6208 9.37653L15.0554 10.8112Z" fill="#6F767E"/>
<path fill-rule="evenodd" clip-rule="evenodd" d="M2.29289 2.29289C2.68342 1.90237 3.31658 1.90237 3.70711 2.29289L21.7071 20.2929C22.0976 20.6834 22.0976 21.3166 21.7071 21.7071C21.3166 22.0976 20.6834 22.0976 20.2929 21.7071L2.29289 3.70711C1.90237 3.31658 1.90237 2.68342 2.29289 2.29289Z" fill="#6F767E"/>
</svg>
