<svg width="24" height="24" viewBox="0 0 24 24" fill="none" xmlns="http://www.w3.org/2000/svg">
<path fill-rule="evenodd" clip-rule="evenodd" d="M12 4.83166V10.5245L16.2133 7.54017L12 4.83166ZM10 9.60788V3.91583C10 2.72908 11.3129 2.01232 12.3112 2.65406L17.2948 5.85781C18.4869 6.62417 18.5258 8.35305 17.3693 9.17222L13.3771 12L17.3693 14.8278C18.5258 15.6469 18.4869 17.3758 17.2948 18.1422L12.3112 21.3459C11.3129 21.9877 10 21.2709 10 20.0842V14.3921L6.57804 16.816C6.12736 17.1353 5.50323 17.0287 5.184 16.578C4.86477 16.1273 4.97132 15.5032 5.422 15.184L9.91703 12L5.422 8.81602C4.97132 8.49679 4.86477 7.87266 5.184 7.42198C5.50323 6.9713 6.12736 6.86474 6.57804 7.18397L10 9.60788ZM12 13.4754V19.1683L16.2133 16.4598L12 13.4754Z" fill="#6F767E"/>
</svg>
