<svg width="24" height="24" viewBox="0 0 24 24" fill="none" xmlns="http://www.w3.org/2000/svg">
<path fill-rule="evenodd" clip-rule="evenodd" d="M5 4C3.34315 4 2 5.34315 2 7V17C2 18.6569 3.34315 20 5 20H8.02633C8.67123 20 9.3119 20.104 9.9237 20.3079L11.6838 20.8946C11.889 20.963 12.111 20.963 12.3162 20.8946L14.0763 20.3079C14.6881 20.104 15.3288 20 15.9737 20H19C20.6569 20 22 18.6569 22 17V7C22 5.34315 20.6569 4 19 4H15C13.9072 4 12.9167 4.43825 12.1948 5.14858C12.0876 5.25406 11.9124 5.25406 11.8052 5.14858C11.0833 4.43825 10.0928 4 9 4H5ZM13 18.5585L13.4438 18.4105C14.2596 18.1386 15.1138 18 15.9737 18H19C19.5523 18 20 17.5523 20 17V7C20 6.44772 19.5523 6 19 6H15C13.8954 6 13 6.89543 13 8V18.5585Z" fill="#6F767E"/>
</svg>
