<svg width="24" height="24" viewBox="0 0 24 24" fill="none" xmlns="http://www.w3.org/2000/svg">
<path fill-rule="evenodd" clip-rule="evenodd" d="M11.6071 4L10.6737 6H13.3263L12.3929 4H11.6071ZM9.4 4L8.46667 6H4.82843L6.53553 4.29289C6.72307 4.10536 6.97742 4 7.24264 4H9.4ZM2.01465 6.82847C2.07842 6.22172 2.34825 5.65175 2.78361 5.21639L5.12132 2.87868C5.68393 2.31607 6.44699 2 7.24264 2H16.7574C17.553 2 18.3161 2.31607 18.8787 2.87868L21.2164 5.21639C21.6518 5.65176 21.9216 6.22172 21.9853 6.82847C21.995 6.88421 22 6.94152 22 7V19C22 20.6569 20.6569 22 19 22H5C3.34315 22 2 20.6569 2 19V7C2 6.94152 2.00502 6.8842 2.01465 6.82847ZM4 8V19C4 19.5523 4.44772 20 5 20H19C19.5523 20 20 19.5523 20 19V8H16V11C16 12.6569 14.6569 14 13 14H11C9.34315 14 8 12.6569 8 11V8H4ZM10 8V11C10 11.5523 10.4477 12 11 12H13C13.5523 12 14 11.5523 14 11V8H10ZM19.1716 6L17.4645 4.29289C17.2769 4.10536 17.0226 4 16.7574 4H14.6L15.5333 6H19.1716Z" fill="#6F767E"/>
</svg>
