<svg width="24" height="24" viewBox="0 0 24 24" fill="none" xmlns="http://www.w3.org/2000/svg">
<path d="M7.24264 2H8.34118C8.70699 2 8.94896 2.37995 8.79427 2.71144L7.37527 5.75216C7.25433 6.01132 7.16189 6.2819 7.09903 6.55916C7.04271 6.80753 6.83207 7 6.57739 7H2.4459C2.19964 7 2 6.80036 2 6.5541C2 6.19931 2.14094 5.85906 2.39181 5.60819L5.12132 2.87868C5.68393 2.31607 6.44699 2 7.24264 2Z" fill="#6F767E"/>
<path d="M14.9502 7C14.9187 6.86187 14.8726 6.72706 14.8124 6.59793L12.8013 2.28856C12.7192 2.11252 12.5425 2 12.3482 2H11.6518C11.4575 2 11.2808 2.11252 11.1987 2.28856L9.18763 6.59793C9.12737 6.72706 9.08126 6.86187 9.04984 7C9.01681 7.14515 9 7.29396 9 7.4437V11C9 11.5523 9.44772 12 10 12H14C14.5523 12 15 11.5523 15 11V7.4437C15 7.29396 14.9832 7.14515 14.9502 7Z" fill="#6F767E"/>
<path d="M16.901 6.55916C16.9573 6.80753 17.1679 7 17.4226 7H21.5541C21.8004 7 22 6.80036 22 6.5541C22 6.19931 21.8591 5.85906 21.6082 5.60819L18.8787 2.87868C18.3161 2.31607 17.553 2 16.7574 2H15.6588C15.293 2 15.051 2.37995 15.2057 2.71144L16.6247 5.75216C16.7457 6.01132 16.8381 6.2819 16.901 6.55916Z" fill="#6F767E"/>
<path d="M3 9H6.5C6.77614 9 7 9.22386 7 9.5V11C7 12.6569 8.34315 14 10 14H14C15.6569 14 17 12.6569 17 11V9.5C17 9.22386 17.2239 9 17.5 9H21C21.5523 9 22 9.44772 22 10V19C22 20.6569 20.6569 22 19 22H5C3.34315 22 2 20.6569 2 19V10C2 9.44772 2.44772 9 3 9Z" fill="#6F767E"/>
</svg>
