<svg width="24" height="24" viewBox="0 0 24 24" fill="none" xmlns="http://www.w3.org/2000/svg">
<path fill-rule="evenodd" clip-rule="evenodd" d="M8.20064 3.25859L7.40909 5H5C3.55025 5 2.34069 6.02835 2.06095 7.3954C2.02099 7.59069 2 7.79289 2 8V9.5C2 10.8807 3.11929 12 4.5 12H8.17071C8.58254 10.8348 9.69378 10 11 10H13C14.3062 10 15.4175 10.8348 15.8293 12H19.5C20.8807 12 22 10.8807 22 9.5V8C22 6.34315 20.6569 5 19 5H16.5909L15.7994 3.25859C15.3125 2.18761 14.2447 1.5 13.0683 1.5H10.9317C9.75531 1.5 8.68745 2.18761 8.20064 3.25859ZM13.0683 3.5H10.9317C10.5396 3.5 10.1836 3.7292 10.0214 4.0862L9.60601 5H14.394L13.9786 4.0862C13.8164 3.7292 13.4604 3.5 13.0683 3.5Z" fill="#6F767E"/>
<path d="M8.17071 14H4.5C3.74231 14 3.02835 13.8127 2.40189 13.482C2.22513 13.3886 2 13.5105 2 13.7104V19C2 20.6569 3.34315 22 5 22H19C20.6569 22 22 20.6569 22 19V13.7104C22 13.5105 21.7749 13.3886 21.5981 13.482C20.9716 13.8127 20.2577 14 19.5 14H15.8293C15.4175 15.1652 14.3062 16 13 16H11C9.69378 16 8.58254 15.1652 8.17071 14Z" fill="#6F767E"/>
<path d="M11 12C10.4477 12 10 12.4477 10 13C10 13.5523 10.4477 14 11 14H13C13.5523 14 14 13.5523 14 13C14 12.4477 13.5523 12 13 12H11Z" fill="#6F767E"/>
</svg>
