<svg width="24" height="24" viewBox="0 0 24 24" fill="none" xmlns="http://www.w3.org/2000/svg">
<path fill-rule="evenodd" clip-rule="evenodd" d="M8.24567 3.88583L7.8 5H5C3.34315 5 2 6.34315 2 8V19C2 20.6569 3.34315 22 5 22H19C20.6569 22 22 20.6569 22 19V8C22 6.34315 20.6569 5 19 5H16.2L15.7543 3.88583C15.2987 2.74685 14.1956 2 12.9689 2H11.0311C9.80439 2 8.70126 2.74685 8.24567 3.88583ZM12.9689 4H11.0311C10.6222 4 10.2545 4.24895 10.1026 4.62861L9.95407 5H14.0459L13.8974 4.62861C13.7455 4.24895 13.3778 4 12.9689 4ZM19 7C19.5523 7 20 7.44771 20 8V11C20 11.5523 19.5523 12 19 12H14.7324C14.3866 11.4022 13.7403 11 13 11H11C10.2597 11 9.61337 11.4022 9.26756 12H5C4.44772 12 4 11.5523 4 11V8C4 7.44772 4.44772 7 5 7H19ZM9.26756 14H5C4.64936 14 4.31278 13.9398 4 13.8293V19C4 19.5523 4.44772 20 5 20H19C19.5523 20 20 19.5523 20 19V13.8293C19.6872 13.9398 19.3506 14 19 14H14.7324C14.3866 14.5978 13.7403 15 13 15H11C10.2597 15 9.61337 14.5978 9.26756 14Z" fill="#6F767E"/>
</svg>
