<svg width="24" height="24" viewBox="0 0 24 24" fill="none" xmlns="http://www.w3.org/2000/svg">
<path d="M4 5C4 3.34315 5.34315 2 7 2H17C18.6569 2 20 3.34315 20 5V9C20 9.55228 19.5523 10 19 10H5C4.44772 10 4 9.55228 4 9V5Z" fill="#6F767E"/>
<path fill-rule="evenodd" clip-rule="evenodd" d="M5.14532 15.3065C3.91434 15.1306 3 14.0764 3 12.8329C3 12.3729 3.3729 12 3.8329 12H20.1671C20.6271 12 21 12.3729 21 12.8329C21 14.0764 20.0857 15.1306 18.8547 15.3065L15.8669 15.7333C14.8185 15.8831 14.0687 16.824 14.1566 17.8793L14.2924 19.5086C14.4041 20.8498 13.3458 22 12 22C10.6542 22 9.59585 20.8498 9.70761 19.5086L9.84339 17.8793C9.93133 16.824 9.18145 15.8831 8.13314 15.7333L5.14532 15.3065Z" fill="#6F767E"/>
</svg>
