<svg width="24" height="24" viewBox="0 0 24 24" fill="none" xmlns="http://www.w3.org/2000/svg">
<path fill-rule="evenodd" clip-rule="evenodd" d="M7 4H17C17.5523 4 18 4.44772 18 5V10H6V5C6 4.44772 6.44772 4 7 4ZM4 10V5C4 3.34315 5.34315 2 7 2H17C18.6569 2 20 3.34315 20 5V10C20.5523 10 21 10.4477 21 11V12.4262C21 13.907 19.9197 15.1662 18.4562 15.3914L16.3439 15.7163C15.3055 15.8761 14.5677 16.8121 14.6549 17.8592L14.7509 19.0104C14.885 20.6197 13.6149 22 12 22C10.3851 22 9.11502 20.6197 9.24914 19.0104L9.34507 17.8592C9.43232 16.8121 8.69454 15.8761 7.65609 15.7163L5.54383 15.3914C4.08033 15.1662 3 13.907 3 12.4262V11C3 10.4477 3.44772 10 4 10ZM19 12H5V12.4262C5 12.9198 5.36011 13.3396 5.84794 13.4146L7.96021 13.7396C10.0371 14.0591 11.5127 15.9312 11.3382 18.0252L11.2422 19.1765C11.2053 19.6198 11.5551 20 12 20C12.4449 20 12.7947 19.6198 12.7578 19.1765L12.6618 18.0252C12.4873 15.9312 13.9629 14.0591 16.0398 13.7396L18.1521 13.4146C18.6399 13.3396 19 12.9198 19 12.4262V12Z" fill="#6F767E"/>
</svg>
