<svg width="24" height="24" viewBox="0 0 24 24" fill="none" xmlns="http://www.w3.org/2000/svg">
<path d="M6.28665 9.37243C6.39338 9.20035 6.50603 9.03315 6.62432 8.87122C6.80007 8.63065 7.08552 8.5 7.38344 8.5H16.6166C16.9145 8.5 17.1999 8.63065 17.3757 8.87122C17.494 9.03315 17.6066 9.20035 17.7134 9.37243L18.7929 8.29289C19.1834 7.90237 19.8166 7.90237 20.2071 8.29289C20.5976 8.68342 20.5976 9.31658 20.2071 9.70711L18.7071 11.2071C18.6711 11.2431 18.6331 11.2757 18.5934 11.3051C18.7626 11.8472 18.8819 12.4148 18.9458 13H21C21.5523 13 22 13.4477 22 14C22 14.5523 21.5523 15 21 15H18.9449C18.8804 15.5825 18.7604 16.1497 18.5902 16.6926C18.6311 16.7225 18.6702 16.756 18.7071 16.7929L20.2071 18.2929C20.5976 18.6834 20.5976 19.3166 20.2071 19.7071C19.8166 20.0976 19.1834 20.0976 18.7929 19.7071L17.711 18.6252C16.7467 20.1864 15.3002 21.3536 13.574 21.8007C13.2761 21.8779 13 21.6419 13 21.3342V12.0833C13 11.485 12.5523 11 12 11C11.4477 11 11 11.485 11 12.0833V21.3342C11 21.6419 10.7239 21.8779 10.426 21.8007C8.69981 21.3536 7.25328 20.1864 6.28903 18.6252L5.20711 19.7071C4.81658 20.0976 4.18342 20.0976 3.79289 19.7071C3.40237 19.3166 3.40237 18.6834 3.79289 18.2929L5.29289 16.7929C5.32983 16.756 5.36894 16.7225 5.4098 16.6926C5.23963 16.1497 5.11959 15.5825 5.0551 15H3C2.44772 15 2 14.5523 2 14C2 13.4477 2.44772 13 3 13H5.05421C5.11807 12.4148 5.23735 11.8472 5.40663 11.3051C5.36691 11.2757 5.32887 11.2431 5.29289 11.2071L3.79289 9.70711C3.40237 9.31658 3.40237 8.68342 3.79289 8.29289C4.18342 7.90237 4.81658 7.90237 5.20711 8.29289L6.28665 9.37243Z" fill="#6F767E"/>
<path d="M8.59718 6.5C8.29649 6.5 8.06149 6.23507 8.14061 5.94497C8.26765 5.47918 8.47676 5.04725 8.75143 4.66568L7.79289 3.70714C7.40237 3.31661 7.40237 2.68345 7.79289 2.29292C8.18342 1.9024 8.81658 1.9024 9.20711 2.29292L10.2948 3.38065C10.8121 3.13653 11.3901 3.00003 12 3.00003C12.6099 3.00003 13.1879 3.13653 13.7052 3.38065L14.7929 2.29289C15.1834 1.90237 15.8166 1.90237 16.2071 2.29289C16.5977 2.68342 16.5977 3.31658 16.2071 3.70711L15.2486 4.66568C15.5232 5.04725 15.7324 5.47918 15.8594 5.94497C15.9385 6.23506 15.7035 6.5 15.4028 6.5H8.59718Z" fill="#6F767E"/>
</svg>
