<svg width="24" height="24" viewBox="0 0 24 24" fill="none" xmlns="http://www.w3.org/2000/svg">
<path fill-rule="evenodd" clip-rule="evenodd" d="M6.27239 4.43187C4.93689 4.76575 4 5.9657 4 7.3423V20H3C2.44772 20 2 20.4477 2 21C2 21.5523 2.44772 22 3 22H21C21.5523 22 22 21.5523 22 21C22 20.4477 21.5523 20 21 20H20V11C20 9.34315 18.6569 8 17 8H16V5.8423C16 3.89058 14.1658 2.45851 12.2724 2.93187L6.27239 4.43187ZM18 11V20H16V10H17C17.5523 10 18 10.4477 18 11ZM9 16C8.44772 16 8 16.4477 8 17C8 17.5523 8.44772 18 9 18H11C11.5523 18 12 17.5523 12 17C12 16.4477 11.5523 16 11 16H9ZM8 13C8 12.4477 8.44772 12 9 12H11C11.5523 12 12 12.4477 12 13C12 13.5523 11.5523 14 11 14H9C8.44772 14 8 13.5523 8 13ZM9 8C8.44772 8 8 8.44772 8 9C8 9.55228 8.44772 10 9 10H11C11.5523 10 12 9.55228 12 9C12 8.44772 11.5523 8 11 8H9Z" fill="#6F767E"/>
</svg>
