<svg width="24" height="24" viewBox="0 0 24 24" fill="none" xmlns="http://www.w3.org/2000/svg">
<path fill-rule="evenodd" clip-rule="evenodd" d="M9 21C9 20.4477 9.44772 20 10 20H14C14.5523 20 15 20.4477 15 21C15 21.5523 14.5523 22 14 22H10C9.44772 22 9 21.5523 9 21Z" fill="#6F767E"/>
<path fill-rule="evenodd" clip-rule="evenodd" d="M14 14.7453C14 14.0915 14.3196 13.479 14.8558 13.1049C16.156 12.198 17 10.6974 17 9C17 6.23858 14.7614 4 12 4C9.23858 4 7 6.23858 7 9C7 10.6974 7.84396 12.198 9.1442 13.1049C9.68044 13.479 10 14.0915 10 14.7453V16C10 16.5523 10.4477 17 11 17H13C13.5523 17 14 16.5523 14 16V14.7453ZM8 14.7453C6.18652 13.4804 5 11.3787 5 9C5 5.13401 8.13401 2 12 2C15.866 2 19 5.13401 19 9C19 11.3787 17.8135 13.4804 16 14.7453V16C16 17.6569 14.6569 19 13 19H11C9.34315 19 8 17.6569 8 16V14.7453Z" fill="#6F767E"/>
</svg>
