<svg width="24" height="24" viewBox="0 0 24 24" fill="none" xmlns="http://www.w3.org/2000/svg">
<path fill-rule="evenodd" clip-rule="evenodd" d="M3 16.5002C2.39278 16.0441 2 15.3179 2 14.5C2 13.1193 3.11929 12 4.5 12H19.5C20.8807 12 22 13.1193 22 14.5C22 15.3179 21.6072 16.0441 21 16.5002V18C21 19.6569 19.6569 21 18 21H6C4.34315 21 3 19.6569 3 18V16.5002ZM4.5 14H19.5C19.7761 14 20 14.2239 20 14.5C20 14.7761 19.7761 15 19.5 15H4.5C4.22386 15 4 14.7761 4 14.5C4 14.2239 4.22386 14 4.5 14ZM5 17V18C5 18.5523 5.44772 19 6 19H18C18.5523 19 19 18.5523 19 18V17H5Z" fill="#6F767E"/>
<path fill-rule="evenodd" clip-rule="evenodd" d="M3.08178 8.00668C3.5551 5.16568 6.02461 3 8.99994 3H14.9999C17.9753 3 20.4448 5.16569 20.9181 8.0067C21.6112 8.08565 22.0254 8.85416 21.6746 9.4857L20.8797 10.9164C20.4229 11.7387 19.3308 11.9425 18.6082 11.3403L18.2964 11.0804C17.5621 10.4685 16.4825 10.5175 15.8066 11.1934L15.7499 11.2501C15.0596 11.9404 13.9403 11.9404 13.2499 11.2501C12.5596 10.5597 11.4403 10.5597 10.7499 11.2501C10.0596 11.9404 8.94028 11.9404 8.24992 11.2501L8.19322 11.1934C7.51739 10.5175 6.43773 10.4685 5.70349 11.0804L5.39164 11.3403C4.66904 11.9425 3.57692 11.7387 3.12013 10.9164L2.32528 9.4857C1.97442 8.85415 2.38871 8.08562 3.08178 8.00668ZM8.99994 5H14.9999C16.8638 5 18.4299 6.27477 18.8739 8H5.12596C5.57 6.27477 7.1361 5 8.99994 5Z" fill="#6F767E"/>
</svg>
