<svg width="24" height="24" viewBox="0 0 24 24" fill="none" xmlns="http://www.w3.org/2000/svg">
<path d="M2.5 14.5C2.5 13.6716 3.17157 13 4 13H20C20.8284 13 21.5 13.6716 21.5 14.5C21.5 15.3284 20.8284 16 20 16H4C3.17157 16 2.5 15.3284 2.5 14.5Z" fill="#6F767E"/>
<path d="M3 18.5C3 17.9477 3.44772 17.5 4 17.5H20C20.5523 17.5 21 17.9477 21 18.5C21 19.8807 19.8807 21 18.5 21H5.5C4.11929 21 3 19.8807 3 18.5Z" fill="#6F767E"/>
<path d="M3 7.28571C3 4.91878 4.91878 3 7.28571 3H16.7143C19.0812 3 21 4.91878 21 7.28571C21 7.6802 20.6802 8 20.2857 8H3.71429C3.3198 8 3 7.6802 3 7.28571Z" fill="#6F767E"/>
<path d="M8.25 11.75L8.1933 11.6933C7.51747 11.0175 6.43781 10.9685 5.70357 11.5804L5.24153 11.9654C4.57133 12.5239 3.56773 12.3948 3.06065 11.6849L2.62946 11.0812C2.15669 10.4194 2.62982 9.5 3.44319 9.5H20.5568C21.3702 9.5 21.8433 10.4194 21.3705 11.0812L20.9393 11.6849C20.4323 12.3948 19.4287 12.5239 18.7585 11.9654L18.2964 11.5804C17.5622 10.9685 16.4825 11.0175 15.8067 11.6933L15.75 11.75C15.0596 12.4404 13.9404 12.4404 13.25 11.75C12.5596 11.0596 11.4404 11.0596 10.75 11.75C10.0596 12.4404 8.94036 12.4404 8.25 11.75Z" fill="#6F767E"/>
</svg>
