<svg width="24" height="24" viewBox="0 0 24 24" fill="none" xmlns="http://www.w3.org/2000/svg">
<path d="M7 17C7.55228 17 8 16.5523 8 16C8 15.4477 7.55228 15 7 15C6.44772 15 6 15.4477 6 16C6 16.5523 6.44772 17 7 17Z" fill="#6F767E"/>
<path d="M18 16C18 16.5523 17.5523 17 17 17C16.4477 17 16 16.5523 16 16C16 15.4477 16.4477 15 17 15C17.5523 15 18 15.4477 18 16Z" fill="#6F767E"/>
<path fill-rule="evenodd" clip-rule="evenodd" d="M21 9V17C21 18.3062 20.1652 19.4175 19 19.8293V21C19 21.5523 18.5523 22 18 22C17.4477 22 17 21.5523 17 21V20H7V21C7 21.5523 6.55228 22 6 22C5.44772 22 5 21.5523 5 21V19.8293C3.83481 19.4175 3 18.3062 3 17V9C2.44772 9 2 8.55228 2 8V6C2 5.44772 2.44772 5 3 5C3 3.34315 4.34315 2 6 2H18C19.6569 2 21 3.34315 21 5C21.5523 5 22 5.44772 22 6V8C22 8.55228 21.5523 9 21 9ZM6 4H18C18.5523 4 19 4.44772 19 5V11H5V5C5 4.44772 5.44772 4 6 4ZM5 13V17C5 17.5523 5.44772 18 6 18H18C18.5523 18 19 17.5523 19 17V13H5Z" fill="#6F767E"/>
</svg>
