<svg width="24" height="24" viewBox="0 0 24 24" fill="none" xmlns="http://www.w3.org/2000/svg">
<path fill-rule="evenodd" clip-rule="evenodd" d="M18 12H6C4.89543 12 4 12.8954 4 14V20H20V14C20 12.8954 19.1046 12 18 12ZM6 10C3.79086 10 2 11.7909 2 14V20C2 21.1046 2.89543 22 4 22H20C21.1046 22 22 21.1046 22 20V14C22 11.7909 20.2091 10 18 10H6Z" fill="#6F767E"/>
<path fill-rule="evenodd" clip-rule="evenodd" d="M3.78118 15.7226C5.12478 16.6183 6.87519 16.6183 8.21878 15.7226L8.99998 15.2018L9.78118 15.7226C11.1248 16.6183 12.8752 16.6183 14.2188 15.7226L15 15.2018L15.7812 15.7226C17.1248 16.6183 18.8752 16.6183 20.2188 15.7226L21.5547 14.832C22.0142 14.5257 22.1384 13.9048 21.832 13.4453C21.5257 12.9857 20.9048 12.8616 20.4453 13.1679L19.1094 14.0585C18.4376 14.5064 17.5624 14.5064 16.8906 14.0585L16.1094 13.5377C15.4376 13.0898 14.5624 13.0898 13.8906 13.5377L13.1094 14.0585C12.4376 14.5064 11.5624 14.5064 10.8906 14.0585L10.1094 13.5377C9.43759 13.0898 8.56238 13.0898 7.89058 13.5377L7.10938 14.0585C6.43759 14.5064 5.56238 14.5064 4.89058 14.0585L3.55468 13.1679C3.09516 12.8616 2.47429 12.9857 2.16793 13.4453C1.86158 13.9048 1.98576 14.5257 2.44528 14.832L3.78118 15.7226Z" fill="#6F767E"/>
<path fill-rule="evenodd" clip-rule="evenodd" d="M12 7.00004C12.5523 7.00004 13 7.44775 13 8.00004V10C13 10.5523 12.5523 11 12 11C11.4477 11 11 10.5523 11 10V8.00004C11 7.44775 11.4477 7.00004 12 7.00004Z" fill="#6F767E"/>
<path fill-rule="evenodd" clip-rule="evenodd" d="M10.7372 3.60476C10.5683 3.8508 10.4695 4.14867 10.4695 4.4696C10.4695 5.31484 11.1547 6.00004 12 6.00004C12.4833 6.00004 12.9143 5.776 13.1947 5.42612L13.1956 5.42502C13.4051 5.16318 13.5304 4.83102 13.5304 4.4696C13.5304 4.14874 13.4317 3.85095 13.2629 3.60494C13.2418 3.57413 13.2189 3.54331 13.1956 3.51418L13.1947 3.51308V3.51189C13.1901 3.50565 13.1672 3.47503 13.1303 3.42612C12.9758 3.22105 12.5765 2.69462 12.2517 2.29731C12.1202 2.13652 11.8798 2.13658 11.7484 2.29744C11.6062 2.47152 11.4496 2.67057 11.3056 2.85643C11.1204 3.09546 10.956 3.31269 10.8699 3.427C10.8296 3.48057 10.8065 3.51154 10.8065 3.51154L10.8052 3.51308C10.7816 3.54251 10.7586 3.57361 10.7372 3.60476Z" fill="#6F767E"/>
</svg>
