<svg width="24" height="24" viewBox="0 0 24 24" fill="none" xmlns="http://www.w3.org/2000/svg">
<path d="M2.17383 12.83C2.11056 13.0372 2.21107 13.2546 2.39913 13.3621L4.00777 14.2813C4.62264 14.6326 5.37746 14.6326 5.99233 14.2813L7.50777 13.4153C8.12264 13.064 8.87746 13.064 9.49233 13.4153L11.0078 14.2813C11.6226 14.6326 12.3775 14.6326 12.9923 14.2813L14.5078 13.4153C15.1226 13.064 15.8775 13.064 16.4923 13.4153L18.0078 14.2813C18.6226 14.6326 19.3775 14.6326 19.9923 14.2813L21.6009 13.3621C21.7889 13.2546 21.8895 13.0372 21.8262 12.8301C21.3259 11.1917 19.8021 10 18 10H6C4.19792 10 2.67418 11.1917 2.17383 12.83Z" fill="#6F767E"/>
<path d="M22 16.2991C22 15.9152 21.5853 15.6745 21.2519 15.865L20.9846 16.0178C19.7549 16.7205 18.2452 16.7205 17.0155 16.0178L15.5 15.1518L13.9846 16.0178C12.7549 16.7205 11.2452 16.7205 10.0155 16.0178L8.50005 15.1518L6.98461 16.0178C5.75487 16.7205 4.24522 16.7205 3.01549 16.0178L2.74807 15.865C2.41474 15.6745 2 15.9152 2 16.2991V20C2 21.1046 2.89543 22 4 22H20C21.1046 22 22 21.1046 22 20V16.2991Z" fill="#6F767E"/>
<path fill-rule="evenodd" clip-rule="evenodd" d="M12 7C12.5523 7 13 7.44772 13 8V10C13 10.5523 12.5523 11 12 11C11.4477 11 11 10.5523 11 10V8C11 7.44772 11.4477 7 12 7Z" fill="#6F767E"/>
<path fill-rule="evenodd" clip-rule="evenodd" d="M10.7371 3.60473C10.5683 3.85077 10.4695 4.14863 10.4695 4.46957C10.4695 5.3148 11.1547 6 11.9999 6C12.4832 6 12.9142 5.77597 13.1947 5.42609C13.195 5.42572 13.1953 5.42535 13.1956 5.42498C13.4051 5.16314 13.5304 4.83098 13.5304 4.46957C13.5304 4.14871 13.4316 3.85091 13.2629 3.60491C13.2627 3.60463 13.2625 3.60436 13.2623 3.60408C13.2411 3.57327 13.2189 3.54328 13.1956 3.51415C13.1954 3.51392 13.1952 3.51369 13.195 3.51346C13.1949 3.51332 13.1948 3.51318 13.1947 3.51304H13.1956C13.1956 3.51304 13.1955 3.51289 13.1952 3.5126C13.1951 3.51241 13.1949 3.51216 13.1947 3.51186C13.19 3.50562 13.1671 3.47499 13.1303 3.42608C12.9758 3.22102 12.5765 2.69459 12.2516 2.29728C12.1202 2.13649 11.8797 2.13655 11.7483 2.2974C11.6062 2.47149 11.4495 2.67053 11.3055 2.8564C11.1203 3.09543 10.9559 3.31266 10.8698 3.42696C10.8295 3.48054 10.8064 3.5115 10.8064 3.5115L10.8052 3.51304C10.7816 3.54247 10.759 3.57279 10.7376 3.60394C10.7375 3.6042 10.7373 3.60446 10.7371 3.60473ZM12.0437 4.43568L12.0891 4.46957C12.0746 4.45877 12.0595 4.44748 12.0437 4.43568Z" fill="#6F767E"/>
</svg>
