<svg width="24" height="24" viewBox="0 0 24 24" fill="none" xmlns="http://www.w3.org/2000/svg">
<path fill-rule="evenodd" clip-rule="evenodd" d="M17 4H7C6.44771 4 6 4.44772 6 5V19C6 19.5523 6.44772 20 7 20H17C17.5523 20 18 19.5523 18 19V5C18 4.44772 17.5523 4 17 4ZM7 2C5.34315 2 4 3.34315 4 5V19C4 20.6569 5.34315 22 7 22H17C18.6569 22 20 20.6569 20 19V5C20 3.34315 18.6569 2 17 2H7Z" fill="#6F767E"/>
<path fill-rule="evenodd" clip-rule="evenodd" d="M8 5C7.44772 5 7 5.44772 7 6V8C7 8.55228 7.44772 9 8 9H16C16.5523 9 17 8.55228 17 8V6C17 5.44772 16.5523 5 16 5H8Z" fill="#6F767E"/>
<path fill-rule="evenodd" clip-rule="evenodd" d="M8.5 17C7.94772 17 7.5 17.4477 7.5 18C7.5 18.5523 7.94772 19 8.5 19H12C12.5523 19 13 18.5523 13 18C13 17.4477 12.5523 17 12 17H8.5Z" fill="#6F767E"/>
<path d="M9.5 11C9.5 11.5523 9.05228 12 8.5 12C7.94772 12 7.5 11.5523 7.5 11C7.5 10.4477 7.94772 10 8.5 10C9.05228 10 9.5 10.4477 9.5 11Z" fill="#6F767E"/>
<path d="M9.5 14.5C9.5 15.0523 9.05228 15.5 8.5 15.5C7.94772 15.5 7.5 15.0523 7.5 14.5C7.5 13.9477 7.94772 13.5 8.5 13.5C9.05228 13.5 9.5 13.9477 9.5 14.5Z" fill="#6F767E"/>
<path d="M13 11C13 11.5523 12.5523 12 12 12C11.4477 12 11 11.5523 11 11C11 10.4477 11.4477 10 12 10C12.5523 10 13 10.4477 13 11Z" fill="#6F767E"/>
<path d="M13 14.5C13 15.0523 12.5523 15.5 12 15.5C11.4477 15.5 11 15.0523 11 14.5C11 13.9477 11.4477 13.5 12 13.5C12.5523 13.5 13 13.9477 13 14.5Z" fill="#6F767E"/>
<path d="M16.5 11C16.5 11.5523 16.0523 12 15.5 12C14.9477 12 14.5 11.5523 14.5 11C14.5 10.4477 14.9477 10 15.5 10C16.0523 10 16.5 10.4477 16.5 11Z" fill="#6F767E"/>
<path d="M16.5 14.5C16.5 15.0523 16.0523 15.5 15.5 15.5C14.9477 15.5 14.5 15.0523 14.5 14.5C14.5 13.9477 14.9477 13.5 15.5 13.5C16.0523 13.5 16.5 13.9477 16.5 14.5Z" fill="#6F767E"/>
<path d="M16.5 18C16.5 18.5523 16.0523 19 15.5 19C14.9477 19 14.5 18.5523 14.5 18C14.5 17.4477 14.9477 17 15.5 17C16.0523 17 16.5 17.4477 16.5 18Z" fill="#6F767E"/>
</svg>
