<svg width="24" height="24" viewBox="0 0 24 24" fill="none" xmlns="http://www.w3.org/2000/svg">
<path d="M2 13C2 12.4477 2.44772 12 3 12H21C21.5523 12 22 12.4477 22 13V19C22 20.6569 20.6569 22 19 22H5C3.34315 22 2 20.6569 2 19V13Z" fill="#6F767E"/>
<path d="M7 2C7.55228 2 8 2.44772 8 3V4H16V3C16 2.44772 16.4477 2 17 2C17.5523 2 18 2.44772 18 3V4H19C20.6569 4 22 5.34315 22 7V9C22 9.55228 21.5523 10 21 10H3C2.44772 10 2 9.55228 2 9V7C2 5.34315 3.34315 4 5 4H6V3C6 2.44772 6.44772 2 7 2Z" fill="#6F767E"/>
</svg>
