<svg width="24" height="24" viewBox="0 0 24 24" fill="none" xmlns="http://www.w3.org/2000/svg">
<path fill-rule="evenodd" clip-rule="evenodd" d="M2 8C2 6.34315 3.34315 5 5 5H7.19098C7.38037 5 7.5535 4.893 7.6382 4.72361L7.80902 4.38197C8.2325 3.53501 9.09815 3 10.0451 3H13.9549C14.9018 3 15.7675 3.53501 16.191 4.38197L16.3618 4.72361C16.4465 4.893 16.6196 5 16.809 5H19C20.6569 5 22 6.34315 22 8V18C22 19.6569 20.6569 21 19 21H5C3.34315 21 2 19.6569 2 18V8ZM12 17C14.2091 17 16 15.2091 16 13C16 10.7909 14.2091 9 12 9C9.79086 9 8 10.7909 8 13C8 15.2091 9.79086 17 12 17ZM18 10C18.5523 10 19 9.55228 19 9C19 8.44772 18.5523 8 18 8C17.4477 8 17 8.44772 17 9C17 9.55228 17.4477 10 18 10Z" fill="#6F767E"/>
</svg>
