<svg width="24" height="24" viewBox="0 0 24 24" fill="none" xmlns="http://www.w3.org/2000/svg">
<path d="M5 4C3.34315 4 2 5.34315 2 7V8.67934C2 9.16463 2.51471 9.5 3 9.5C8.24671 9.5 12.5 13.7533 12.5 19C12.5 19.4853 12.8354 20 13.3207 20H19C20.6569 20 22 18.6569 22 17V7C22 5.34315 20.6569 4 19 4H5Z" fill="#6F767E"/>
<path fill-rule="evenodd" clip-rule="evenodd" d="M2 12C2 11.4477 2.44772 11 3 11C7.41828 11 11 14.5817 11 19C11 19.5523 10.5523 20 10 20C9.44771 20 9 19.5523 9 19C9 15.6863 6.31371 13 3 13C2.44772 13 2 12.5523 2 12Z" fill="#6F767E"/>
<path fill-rule="evenodd" clip-rule="evenodd" d="M2 15.5C2 14.9477 2.44772 14.5 3 14.5C5.48528 14.5 7.5 16.5147 7.5 19C7.5 19.5523 7.05228 20 6.5 20C5.94772 20 5.5 19.5523 5.5 19C5.5 17.6193 4.38071 16.5 3 16.5C2.44772 16.5 2 16.0523 2 15.5Z" fill="#6F767E"/>
<path d="M4 19C4 19.5523 3.55228 20 3 20C2.44772 20 2 19.5523 2 19C2 18.4477 2.44772 18 3 18C3.55228 18 4 18.4477 4 19Z" fill="#6F767E"/>
</svg>
