<svg width="24" height="24" viewBox="0 0 24 24" fill="none" xmlns="http://www.w3.org/2000/svg">
<path fill-rule="evenodd" clip-rule="evenodd" d="M18 5H6C5.44772 5 5 5.44772 5 6V18C5 18.5523 5.44772 19 6 19H18C18.5523 19 19 18.5523 19 18V6C19 5.44772 18.5523 5 18 5ZM6 3C4.34315 3 3 4.34315 3 6V18C3 19.6569 4.34315 21 6 21H18C19.6569 21 21 19.6569 21 18V6C21 4.34315 19.6569 3 18 3H6Z" fill="#6F767E"/>
<path fill-rule="evenodd" clip-rule="evenodd" d="M16.7071 8.29289C17.0976 8.68342 17.0976 9.31658 16.7071 9.70711L11.4142 15C10.6332 15.781 9.36684 15.7811 8.58579 15L6.79289 13.2071C6.40237 12.8166 6.40237 12.1834 6.79289 11.7929C7.18342 11.4024 7.81658 11.4024 8.20711 11.7929L10 13.5858L15.2929 8.29289C15.6834 7.90237 16.3166 7.90237 16.7071 8.29289Z" fill="#6F767E"/>
</svg>
