<svg width="24" height="24" viewBox="0 0 24 24" fill="none" xmlns="http://www.w3.org/2000/svg">
<path fill-rule="evenodd" clip-rule="evenodd" d="M11.5429 19.2071C11.1524 18.8166 11.1524 18.1834 11.5429 17.7929L17.3358 12L11.5429 6.20711C11.1524 5.81658 11.1524 5.18342 11.5429 4.79289C11.9334 4.40237 12.5666 4.40237 12.9571 4.79289L18.75 10.5858C19.531 11.3668 19.531 12.6332 18.75 13.4142L12.9571 19.2071C12.5666 19.5976 11.9334 19.5976 11.5429 19.2071Z" fill="#6F767E"/>
<path fill-rule="evenodd" clip-rule="evenodd" d="M5.29289 19.2071C4.90237 18.8166 4.90237 18.1834 5.29289 17.7929L11.0858 12L5.29289 6.20711C4.90237 5.81658 4.90237 5.18342 5.29289 4.79289C5.68342 4.40237 6.31658 4.40237 6.7071 4.79289L12.5 10.5858C13.281 11.3668 13.281 12.6332 12.5 13.4142L6.70711 19.2071C6.31658 19.5976 5.68342 19.5976 5.29289 19.2071Z" fill="#6F767E"/>
</svg>
