<svg width="24" height="24" viewBox="0 0 24 24" fill="none" xmlns="http://www.w3.org/2000/svg">
<path d="M6 9C6 7.34315 7.34315 6 9 6H15C16.6569 6 18 7.34315 18 9V15C18 16.6569 16.6569 18 15 18H9C7.34315 18 6 16.6569 6 15V9Z" fill="#6F767E"/>
<path fill-rule="evenodd" clip-rule="evenodd" d="M1.5 16C1.5 15.4477 1.94772 15 2.5 15H3.5C4.05228 15 4.5 15.4477 4.5 16C4.5 16.5523 4.05228 17 3.5 17H2.5C1.94772 17 1.5 16.5523 1.5 16Z" fill="#6F767E"/>
<path fill-rule="evenodd" clip-rule="evenodd" d="M19.5 16C19.5 15.4477 19.9477 15 20.5 15H21.5C22.0523 15 22.5 15.4477 22.5 16C22.5 16.5523 22.0523 17 21.5 17H20.5C19.9477 17 19.5 16.5523 19.5 16Z" fill="#6F767E"/>
<path fill-rule="evenodd" clip-rule="evenodd" d="M1.5 12C1.5 11.4477 1.94772 11 2.5 11H3.5C4.05228 11 4.5 11.4477 4.5 12C4.5 12.5523 4.05228 13 3.5 13H2.5C1.94772 13 1.5 12.5523 1.5 12Z" fill="#6F767E"/>
<path fill-rule="evenodd" clip-rule="evenodd" d="M19.5 12C19.5 11.4477 19.9477 11 20.5 11H21.5C22.0523 11 22.5 11.4477 22.5 12C22.5 12.5523 22.0523 13 21.5 13H20.5C19.9477 13 19.5 12.5523 19.5 12Z" fill="#6F767E"/>
<path fill-rule="evenodd" clip-rule="evenodd" d="M1.5 8C1.5 7.44772 1.94772 7 2.5 7H3.5C4.05228 7 4.5 7.44772 4.5 8C4.5 8.55228 4.05228 9 3.5 9H2.5C1.94772 9 1.5 8.55228 1.5 8Z" fill="#6F767E"/>
<path fill-rule="evenodd" clip-rule="evenodd" d="M19.5 8C19.5 7.44772 19.9477 7 20.5 7H21.5C22.0523 7 22.5 7.44772 22.5 8C22.5 8.55228 22.0523 9 21.5 9H20.5C19.9477 9 19.5 8.55228 19.5 8Z" fill="#6F767E"/>
<path fill-rule="evenodd" clip-rule="evenodd" d="M16 1.5C16.5523 1.5 17 1.94772 17 2.5V3.5C17 4.05228 16.5523 4.5 16 4.5C15.4477 4.5 15 4.05228 15 3.5V2.5C15 1.94772 15.4477 1.5 16 1.5Z" fill="#6F767E"/>
<path fill-rule="evenodd" clip-rule="evenodd" d="M16 19.5C16.5523 19.5 17 19.9477 17 20.5V21.5C17 22.0523 16.5523 22.5 16 22.5C15.4477 22.5 15 22.0523 15 21.5V20.5C15 19.9477 15.4477 19.5 16 19.5Z" fill="#6F767E"/>
<path fill-rule="evenodd" clip-rule="evenodd" d="M12 1.5C12.5523 1.5 13 1.94772 13 2.5V3.5C13 4.05228 12.5523 4.5 12 4.5C11.4477 4.5 11 4.05228 11 3.5V2.5C11 1.94772 11.4477 1.5 12 1.5Z" fill="#6F767E"/>
<path fill-rule="evenodd" clip-rule="evenodd" d="M12 19.5C12.5523 19.5 13 19.9477 13 20.5V21.5C13 22.0523 12.5523 22.5 12 22.5C11.4477 22.5 11 22.0523 11 21.5V20.5C11 19.9477 11.4477 19.5 12 19.5Z" fill="#6F767E"/>
<path fill-rule="evenodd" clip-rule="evenodd" d="M8 1.5C8.55228 1.5 9 1.94772 9 2.5V3.5C9 4.05228 8.55228 4.5 8 4.5C7.44772 4.5 7 4.05228 7 3.5V2.5C7 1.94772 7.44772 1.5 8 1.5Z" fill="#6F767E"/>
<path fill-rule="evenodd" clip-rule="evenodd" d="M8 19.5C8.55228 19.5 9 19.9477 9 20.5V21.5C9 22.0523 8.55228 22.5 8 22.5C7.44772 22.5 7 22.0523 7 21.5V20.5C7 19.9477 7.44772 19.5 8 19.5Z" fill="#6F767E"/>
</svg>
