<svg width="24" height="24" viewBox="0 0 24 24" fill="none" xmlns="http://www.w3.org/2000/svg">
<path d="M12.0828 7.00001L19.794 7C20.1789 7 20.4155 6.58451 20.1953 6.26883C17.2565 2.05631 11.5302 0.724168 6.99984 3.33977C6.31678 3.73414 5.69785 4.19691 5.14671 4.71445C4.82825 5.01349 4.77925 5.49367 4.99768 5.872L6.9011 9.16882C7.10719 9.52579 7.64936 9.49958 7.88319 9.16014C8.29154 8.56734 8.83491 8.05382 9.49979 7.66995C10.3144 7.19966 11.2062 6.98462 12.0828 7.00001Z" fill="#6F767E"/>
<path d="M10.1952 21.1258C9.97676 21.5041 9.53646 21.7017 9.11815 21.5759C6.76455 20.8681 4.66542 19.2964 3.33958 17C1.64408 14.0633 1.60741 10.6241 2.93884 7.76736C3.10151 7.41832 3.57949 7.41563 3.77204 7.74913L7.66263 14.4878L7.66967 14.5001C8.52323 15.9785 10.0178 16.8561 11.5997 16.9845C12.0102 17.0178 12.3034 17.4742 12.0975 17.8309L10.1952 21.1258Z" fill="#6F767E"/>
<path d="M12 8.99957C11.4901 8.99906 10.9732 9.1287 10.4998 9.402C9.06811 10.2286 8.57548 12.057 9.39621 13.4905L9.40184 13.5002C10.2303 14.935 12.065 15.4265 13.4998 14.5981C13.9553 14.3352 14.3157 13.9708 14.569 13.55L14.598 13.4998C15.1149 12.6023 15.153 11.4615 14.5979 10.5001C14.0513 9.55347 13.0668 9.01738 12.0481 9.00001L12 8.99957Z" fill="#6F767E"/>
<path d="M12.4313 21.2526C12.239 21.5857 12.4795 21.998 12.8628 21.9651C14.2776 21.8435 15.6888 21.4172 16.9998 20.6603C20.915 18.3999 22.7234 13.8917 21.7361 9.70694C21.6359 9.28221 21.2447 9 20.8083 9L16.5996 9.00001C16.3525 9.00001 16.2064 9.28606 16.3299 9.50007C17.2723 11.1324 17.1898 13.0752 16.2819 14.5833L12.4313 21.2526Z" fill="#6F767E"/>
</svg>
