<svg width="24" height="24" viewBox="0 0 24 24" fill="none" xmlns="http://www.w3.org/2000/svg">
<path fill-rule="evenodd" clip-rule="evenodd" d="M17 20.6602C12.2171 23.4216 6.10119 21.7828 3.33977 16.9999C0.578344 12.217 2.2171 6.10107 7.00002 3.33965C11.7829 0.578222 17.8989 2.21697 20.6603 6.9999C23.4217 11.7828 21.7829 17.8987 17 20.6602ZM12.589 19.98C13.7547 19.8948 14.9199 19.5517 16 18.9281C19.3409 16.9992 20.7642 13.0245 19.6011 9.5L15.742 9.5C15.796 9.58103 15.8478 9.66433 15.8972 9.74986C16.7442 11.217 16.6712 12.9628 15.8572 14.3193L12.589 19.98ZM12.0857 7.5L18.6149 7.5C16.2821 4.06297 11.6546 2.96171 8.00002 5.0717C7.24395 5.50822 6.58608 6.04952 6.03418 6.66666L7.96388 10.009C8.34381 9.23696 8.94892 8.56528 9.75007 8.10274C10.4865 7.67754 11.2932 7.48417 12.0857 7.5ZM9.835 13.2499C9.14465 12.0541 9.55433 10.5251 10.7501 9.83479C11.1444 9.60713 11.575 9.4991 11.9997 9.49944L12.0508 9.5C12.896 9.51795 13.7116 9.96426 14.1651 10.7499C14.6278 11.5512 14.5964 12.5021 14.1655 13.2501L14.1445 13.2859C13.9332 13.6389 13.6316 13.9446 13.2501 14.1649C12.0543 14.8553 10.5254 14.4456 9.835 13.2499ZM8.10295 14.2499C8.98811 15.783 10.6392 16.5982 12.2938 16.4913L10.3655 19.8312C8.21458 19.3815 6.257 18.0527 5.07182 15.9999C3.69697 13.6186 3.68552 10.8243 4.79527 8.52081L8.10295 14.2499Z" fill="#6F767E"/>
</svg>
