<svg width="24" height="24" viewBox="0 0 24 24" fill="none" xmlns="http://www.w3.org/2000/svg">
<path fill-rule="evenodd" clip-rule="evenodd" d="M12 1C13.1046 1 14 1.89543 14 3H18C19.6569 3 21 4.34315 21 6V19C21 20.6569 19.6569 22 18 22H6C4.34315 22 3 20.6569 3 19V6C3 4.34315 4.34315 3 6 3H10C10 1.89543 10.8954 1 12 1ZM7 11C7 10.4477 7.44772 10 8 10H16C16.5523 10 17 10.4477 17 11C17 11.5523 16.5523 12 16 12H8C7.44772 12 7 11.5523 7 11ZM8 14C7.44772 14 7 14.4477 7 15C7 15.5523 7.44772 16 8 16H12C12.5523 16 13 15.5523 13 15C13 14.4477 12.5523 14 12 14H8Z" fill="#6F767E"/>
</svg>
