<svg width="24" height="24" viewBox="0 0 24 24" fill="none" xmlns="http://www.w3.org/2000/svg">
<path d="M9.3216 7.90574C9.02136 8.32142 8.76564 8.77138 8.56143 9.24864C8.07015 9.08728 7.54527 9 7 9C4.23858 9 2 11.2386 2 14C2 16.7614 4.23858 19 7 19H15C16.5287 19 17.943 18.51 19.0943 17.6784L9.3216 7.90574Z" fill="#6F767E"/>
<path d="M20.5329 16.2886C21.4525 15.1039 22 13.6159 22 12C22 8.13401 18.866 5 15 5C13.3841 5 11.8961 5.54751 10.7114 6.46713L20.5329 16.2886Z" fill="#6F767E"/>
<path fill-rule="evenodd" clip-rule="evenodd" d="M2.29289 2.29289C2.68342 1.90237 3.31658 1.90237 3.70711 2.29289L21.7071 20.2929C22.0976 20.6834 22.0976 21.3166 21.7071 21.7071C21.3166 22.0976 20.6834 22.0976 20.2929 21.7071L2.29289 3.70711C1.90237 3.31658 1.90237 2.68342 2.29289 2.29289Z" fill="#6F767E"/>
</svg>
