<svg width="24" height="24" viewBox="0 0 24 24" fill="none" xmlns="http://www.w3.org/2000/svg">
<path d="M9.32157 7.90577C9.02134 8.32144 8.76563 8.7714 8.56143 9.24864C8.07015 9.08728 7.54527 9 7 9C4.23858 9 2 11.2386 2 14C2 16.7614 4.23858 19 7 19H15C16.5287 19 17.9429 18.51 19.0942 17.6784L17.654 16.2382C16.8849 16.7209 15.975 17 15 17H7C5.34315 17 4 15.6569 4 14C4 12.3431 5.34315 11 7 11C7.33064 11 7.64499 11.0528 7.93736 11.1488C8.92281 11.4724 9.99215 10.989 10.4002 10.0354C10.503 9.79514 10.624 9.56465 10.7614 9.34565L9.32157 7.90577Z" fill="#6F767E"/>
<path d="M19.1028 14.8586C19.6683 14.0484 20 13.0629 20 12C20 9.23858 17.7614 7 15 7C13.938 7 12.9521 7.3312 12.1413 7.89704L10.7114 6.46715C11.8961 5.54752 13.3841 5 15 5C18.866 5 22 8.13401 22 12C22 13.6159 21.4525 15.1039 20.5328 16.2886L19.1028 14.8586Z" fill="#6F767E"/>
<path fill-rule="evenodd" clip-rule="evenodd" d="M2.29289 2.29289C2.68342 1.90237 3.31658 1.90237 3.70711 2.29289L21.7071 20.2929C22.0976 20.6834 22.0976 21.3166 21.7071 21.7071C21.3166 22.0976 20.6834 22.0976 20.2929 21.7071L2.29289 3.70711C1.90237 3.31658 1.90237 2.68342 2.29289 2.29289Z" fill="#6F767E"/>
</svg>
