<svg width="24" height="24" viewBox="0 0 24 24" fill="none" xmlns="http://www.w3.org/2000/svg">
<path fill-rule="evenodd" clip-rule="evenodd" d="M15.2071 11.2929C15.5976 11.6834 15.5976 12.3166 15.2071 12.7071L12.2071 15.7071C11.8166 16.0976 11.1834 16.0976 10.7929 15.7071L9.29289 14.2071C8.90237 13.8166 8.90237 13.1834 9.29289 12.7929C9.68342 12.4024 10.3166 12.4024 10.7071 12.7929L11.5 13.5858L13.7929 11.2929C14.1834 10.9024 14.8166 10.9024 15.2071 11.2929Z" fill="#6F767E"/>
<path fill-rule="evenodd" clip-rule="evenodd" d="M14.7439 18C14.7851 17.9947 14.8267 17.9907 14.8686 17.9879C17.7333 17.7994 20 15.4136 20 12.5C20 9.46243 17.5376 7 14.5 7C12.3888 7 10.5521 8.18891 9.62876 9.9431C9.26127 10.6412 8.51771 11.0581 7.73039 11.0074C7.65447 11.0025 7.57766 11 7.5 11C5.567 11 4 12.567 4 14.5C4 16.3246 5.39773 17.8251 7.1795 17.9857C7.2197 17.9893 7.25953 17.9941 7.29897 18H14.7439ZM15 19.9836C18.909 19.7263 22 16.4741 22 12.5C22 8.35786 18.6421 5 14.5 5C11.6173 5 9.11447 6.62634 7.85897 9.01153C7.74029 9.00388 7.6206 9 7.5 9C4.46243 9 2 11.4624 2 14.5C2 17.369 4.19675 19.725 7 19.9776V20H15V19.9836Z" fill="#6F767E"/>
</svg>
