<svg width="24" height="24" viewBox="0 0 24 24" fill="none" xmlns="http://www.w3.org/2000/svg">
<path fill-rule="evenodd" clip-rule="evenodd" d="M10.4002 10.0354C9.99215 10.989 8.92281 11.4724 7.93736 11.1488C7.64499 11.0528 7.33064 11 7 11C5.34315 11 4 12.3431 4 14C4 15.6569 5.34315 17 7 17H15C17.7614 17 20 14.7614 20 12C20 9.23858 17.7614 7 15 7C12.9394 7 11.1654 8.24691 10.4002 10.0354ZM8.56143 9.24864C8.07015 9.08728 7.54527 9 7 9C4.23858 9 2 11.2386 2 14C2 16.7614 4.23858 19 7 19H15C18.866 19 22 15.866 22 12C22 8.13401 18.866 5 15 5C12.1108 5 9.63037 6.75042 8.56143 9.24864Z" fill="#6F767E"/>
</svg>
