<svg width="24" height="24" viewBox="0 0 24 24" fill="none" xmlns="http://www.w3.org/2000/svg">
<path d="M16.7412 15.5564C16.8787 15.6546 17.0525 15.6964 17.2128 15.6431C19.9944 14.717 22 12.0927 22 9C22 5.13401 18.866 2 15 2C12.1108 2 9.63037 3.75042 8.56143 6.24864C8.07015 6.08728 7.54527 6 7 6C4.23858 6 2 8.23858 2 11C2 13.6038 3.99035 15.7428 6.53263 15.9784C6.68166 15.9923 6.8249 15.9284 6.9336 15.8255C7.36665 15.4156 7.91656 15.1421 8.50236 15.0423C8.77458 14.9958 9 14.7761 9 14.5V13C9 11.3431 10.3431 10 12 10C13.6569 10 15 11.3431 15 13V14.5C15 14.7761 15.2254 14.9958 15.4977 15.0413C15.9372 15.1149 16.3635 15.2866 16.7412 15.5564Z" fill="#6F767E"/>
<path fill-rule="evenodd" clip-rule="evenodd" d="M9.70711 17.2929C9.31658 16.9024 8.68342 16.9024 8.29289 17.2929C7.90237 17.6834 7.90237 18.3166 8.29289 18.7071L11.2929 21.7071C11.4874 21.9016 11.7421 21.9992 11.997 22C11.998 22 11.999 22 12 22C12.001 22 12.002 22 12.003 22C12.1375 21.9996 12.2657 21.9727 12.3828 21.9241C12.5007 21.8753 12.6112 21.803 12.7071 21.7071L15.7071 18.7071C16.0976 18.3166 16.0976 17.6834 15.7071 17.2929C15.3166 16.9024 14.6834 16.9024 14.2929 17.2929L13 18.5858V13C13 12.4477 12.5523 12 12 12C11.4477 12 11 12.4477 11 13V18.5858L9.70711 17.2929Z" fill="#6F767E"/>
</svg>
