<svg width="24" height="24" viewBox="0 0 24 24" fill="none" xmlns="http://www.w3.org/2000/svg">
<path fill-rule="evenodd" clip-rule="evenodd" d="M15 19C18.866 19 22 15.866 22 12C22 8.13401 18.866 5 15 5C12.1108 5 9.63037 6.75042 8.56143 9.24864C8.07015 9.08728 7.54527 9 7 9C4.23858 9 2 11.2386 2 14C2 16.7614 4.23858 19 7 19H15ZM12.2071 15.7071L15.2071 12.7071C15.5976 12.3166 15.5976 11.6834 15.2071 11.2929C14.8166 10.9024 14.1834 10.9024 13.7929 11.2929L11.5 13.5858L10.7071 12.7929C10.3166 12.4024 9.68342 12.4024 9.29289 12.7929C8.90237 13.1834 8.90237 13.8166 9.29289 14.2071L10.7929 15.7071C11.1834 16.0976 11.8166 16.0976 12.2071 15.7071Z" fill="#6F767E"/>
</svg>
