<svg width="24" height="24" viewBox="0 0 24 24" fill="none" xmlns="http://www.w3.org/2000/svg">
<path fill-rule="evenodd" clip-rule="evenodd" d="M8.56161 6.24899C9.63043 3.75082 12.1098 2 15 2C18.866 2 22 5.13401 22 9C22 11.0733 21.0974 12.937 19.6669 14.2173C19.2554 14.5857 18.6232 14.5507 18.2549 14.1391C17.8865 13.7276 17.9216 13.0954 18.3331 12.7271C19.3576 11.8101 20 10.4807 20 9C20 6.23858 17.7614 4 15 4C12.6324 4 10.647 5.64655 10.1308 7.8581C10.0569 8.17445 9.83401 8.43522 9.533 8.55738C9.23199 8.67955 8.8904 8.64789 8.61697 8.47248C8.15091 8.17349 7.59724 8 7 8C5.34315 8 4 9.34315 4 11C4 12.1092 4.60141 13.079 5.50073 13.5993C5.97879 13.8758 6.14215 14.4875 5.86561 14.9656C5.58906 15.4437 4.97733 15.607 4.49927 15.3305C3.00738 14.4675 2 12.852 2 11C2 8.23858 4.23858 6 7 6C7.54465 6 8.0698 6.0874 8.56161 6.24899Z" fill="#6F767E"/>
<path fill-rule="evenodd" clip-rule="evenodd" d="M9.70711 17.2929C9.31658 16.9024 8.68342 16.9024 8.29289 17.2929C7.90237 17.6834 7.90237 18.3166 8.29289 18.7071L11.2929 21.7071C11.4874 21.9016 11.7421 21.9992 11.997 22C11.998 22 11.999 22 12 22C12.001 22 12.002 22 12.003 22C12.1375 21.9996 12.2657 21.9727 12.3828 21.9241C12.5007 21.8753 12.6112 21.803 12.7071 21.7071L15.7071 18.7071C16.0976 18.3166 16.0976 17.6834 15.7071 17.2929C15.3166 16.9024 14.6834 16.9024 14.2929 17.2929L13 18.5858V13C13 12.4477 12.5523 12 12 12C11.4477 12 11 12.4477 11 13V18.5858L9.70711 17.2929Z" fill="#6F767E"/>
</svg>
