<svg width="24" height="24" viewBox="0 0 24 24" fill="none" xmlns="http://www.w3.org/2000/svg">
<path fill-rule="evenodd" clip-rule="evenodd" d="M9.70711 15.7071C9.31658 16.0976 8.68342 16.0976 8.29289 15.7071C7.90237 15.3166 7.90237 14.6834 8.29289 14.2929L11.2929 11.2929C11.4874 11.0984 11.7421 11.0008 11.997 11C11.998 11 11.999 11 12 11C12.001 11 12.002 11 12.003 11C12.1375 11.0004 12.2657 11.0273 12.3828 11.0759C12.5007 11.1247 12.6112 11.197 12.7071 11.2929L15.7071 14.2929C16.0976 14.6834 16.0976 15.3166 15.7071 15.7071C15.3166 16.0976 14.6834 16.0976 14.2929 15.7071L13 14.4142V20C13 20.5523 12.5523 21 12 21C11.4477 21 11 20.5523 11 20V14.4142L9.70711 15.7071Z" fill="#6F767E"/>
<path fill-rule="evenodd" clip-rule="evenodd" d="M8.56161 6.24899C9.63043 3.75082 12.1098 2 15 2C18.866 2 22 5.13401 22 9C22 11.0733 21.0974 12.937 19.6669 14.2173C19.2554 14.5857 18.6232 14.5507 18.2549 14.1391C17.8865 13.7276 17.9216 13.0954 18.3331 12.7271C19.3576 11.8101 20 10.4807 20 9C20 6.23858 17.7614 4 15 4C12.6324 4 10.647 5.64655 10.1308 7.8581C10.0569 8.17445 9.83401 8.43522 9.533 8.55738C9.23199 8.67955 8.8904 8.64789 8.61697 8.47248C8.15091 8.17349 7.59724 8 7 8C5.34315 8 4 9.34315 4 11C4 12.1092 4.60141 13.079 5.50073 13.5993C5.97879 13.8758 6.14215 14.4875 5.86561 14.9656C5.58906 15.4437 4.97733 15.607 4.49927 15.3305C3.00738 14.4675 2 12.852 2 11C2 8.23858 4.23858 6 7 6C7.54465 6 8.0698 6.0874 8.56161 6.24899Z" fill="#6F767E"/>
</svg>
