<svg width="24" height="24" viewBox="0 0 24 24" fill="none" xmlns="http://www.w3.org/2000/svg">
<path d="M17.9483 14.4441C18.0205 14.8286 18.4346 15.1134 18.7643 14.9027C20.71 13.6594 22 11.4803 22 9C22 5.13401 18.866 2 15 2C12.1108 2 9.63037 3.75042 8.56143 6.24864C8.07015 6.08728 7.54527 6 7 6C4.23858 6 2 8.23858 2 11C2 13.1818 3.3974 15.0371 5.346 15.7199C5.70094 15.8443 6.01654 15.491 6.0022 15.1151C5.97145 14.3095 6.26361 13.4938 6.87868 12.8787L9.87739 9.87997L9.88849 9.86891C10.1738 9.58613 10.5018 9.37237 10.8516 9.22764C11.2054 9.08096 11.5932 9 12 9C12.8216 9 13.5661 9.33029 14.1079 9.86534L14.123 9.88032L17.1213 12.8787C17.5651 13.3224 17.8407 13.8706 17.9483 14.4441Z" fill="#6F767E"/>
<path fill-rule="evenodd" clip-rule="evenodd" d="M9.70711 15.7071C9.31658 16.0976 8.68342 16.0976 8.29289 15.7071C7.90237 15.3166 7.90237 14.6834 8.29289 14.2929L11.2929 11.2929C11.4874 11.0984 11.7421 11.0008 11.997 11L12 11L12.003 11C12.1375 11.0004 12.2657 11.0273 12.3828 11.0759C12.5007 11.1247 12.6112 11.197 12.7071 11.2929L15.7071 14.2929C16.0976 14.6834 16.0976 15.3166 15.7071 15.7071C15.3166 16.0976 14.6834 16.0976 14.2929 15.7071L13 14.4142V20C13 20.5523 12.5523 21 12 21C11.4477 21 11 20.5523 11 20V14.4142L9.70711 15.7071Z" fill="#6F767E"/>
</svg>
