<svg width="24" height="24" viewBox="0 0 24 24" fill="none" xmlns="http://www.w3.org/2000/svg">
<path fill-rule="evenodd" clip-rule="evenodd" d="M17.9888 13.3371C17.8155 15.9413 15.6482 18 13 18H8C5.23858 18 3 15.7614 3 13V5C3 3.89543 3.89543 3 5 3H16C17.1046 3 18 3.89543 18 5H20C21.1046 5 22 5.89543 22 7V9.83772C22 11.129 21.1737 12.2754 19.9487 12.6838L17.9888 13.3371ZM5 5H16V13C16 14.6569 14.6569 16 13 16H8C6.34315 16 5 14.6569 5 13V5ZM18 11.2251L19.3162 10.7864C19.7246 10.6503 20 10.2682 20 9.83772V7H18V11.2251Z" fill="#6F767E"/>
<path fill-rule="evenodd" clip-rule="evenodd" d="M2 20C2 19.4477 2.44772 19 3 19H19C19.5523 19 20 19.4477 20 20C20 20.5523 19.5523 21 19 21H3C2.44772 21 2 20.5523 2 20Z" fill="#6F767E"/>
</svg>
