<svg width="24" height="24" viewBox="0 0 24 24" fill="none" xmlns="http://www.w3.org/2000/svg">
<path fill-rule="evenodd" clip-rule="evenodd" d="M2 20.5C2 19.9477 2.44772 19.5 3 19.5H19C19.5523 19.5 20 19.9477 20 20.5C20 21.0523 19.5523 21.5 19 21.5H3C2.44772 21.5 2 21.0523 2 20.5Z" fill="#6F767E"/>
<path fill-rule="evenodd" clip-rule="evenodd" d="M5 3C3.89543 3 3 3.89543 3 5V13C3 15.7614 5.23858 18 8 18H13C15.6482 18 17.8155 15.9413 17.9888 13.3371L19.9487 12.6838C21.1737 12.2754 22 11.129 22 9.83772V7C22 5.89543 21.1046 5 20 5H18C18 3.89543 17.1046 3 16 3H5ZM18 11.2251V7H20V9.83772C20 10.2682 19.7246 10.6503 19.3162 10.7864L18 11.2251Z" fill="#6F767E"/>
</svg>
