<svg width="24" height="24" viewBox="0 0 24 24" fill="none" xmlns="http://www.w3.org/2000/svg">
<path fill-rule="evenodd" clip-rule="evenodd" d="M19.7866 14C20.9581 14 22 13.1714 22 12C22 6.47715 17.5228 2 12 2C6.47715 2 2 6.47715 2 12C2 17.5228 6.47715 22 12 22C13.1714 22 14 20.9581 14 19.7866V18C14 15.7909 15.7909 14 18 14H19.7866ZM13 6C13 6.82843 12.3284 7.5 11.5 7.5C10.6716 7.5 10 6.82843 10 6C10 5.17157 10.6716 4.5 11.5 4.5C12.3284 4.5 13 5.17157 13 6ZM17.5 11C18.3284 11 19 10.3284 19 9.5C19 8.67157 18.3284 8 17.5 8C16.6716 8 16 8.67157 16 9.5C16 10.3284 16.6716 11 17.5 11ZM8 10C8 10.8284 7.32843 11.5 6.5 11.5C5.67157 11.5 5 10.8284 5 10C5 9.17157 5.67157 8.5 6.5 8.5C7.32843 8.5 8 9.17157 8 10ZM8 18C8.82843 18 9.5 17.3284 9.5 16.5C9.5 15.6716 8.82843 15 8 15C7.17157 15 6.5 15.6716 6.5 16.5C6.5 17.3284 7.17157 18 8 18Z" fill="#6F767E"/>
</svg>
