<svg width="24" height="24" viewBox="0 0 24 24" fill="none" xmlns="http://www.w3.org/2000/svg">
<path d="M13.5 7C13.5 7.82843 12.8284 8.5 12 8.5C11.1716 8.5 10.5 7.82843 10.5 7C10.5 6.17157 11.1716 5.5 12 5.5C12.8284 5.5 13.5 6.17157 13.5 7Z" fill="#6F767E"/>
<path d="M18 9.5C18 10.3284 17.3284 11 16.5 11C15.6716 11 15 10.3284 15 9.5C15 8.67157 15.6716 8 16.5 8C17.3284 8 18 8.67157 18 9.5Z" fill="#6F767E"/>
<path d="M9 10C9 10.8284 8.32843 11.5 7.5 11.5C6.67157 11.5 6 10.8284 6 10C6 9.17157 6.67157 8.5 7.5 8.5C8.32843 8.5 9 9.17157 9 10Z" fill="#6F767E"/>
<path d="M10 15.5C10 16.3284 9.32843 17 8.5 17C7.67157 17 7 16.3284 7 15.5C7 14.6716 7.67157 14 8.5 14C9.32843 14 10 14.6716 10 15.5Z" fill="#6F767E"/>
<path fill-rule="evenodd" clip-rule="evenodd" d="M19.9998 11.9449C19.9702 7.552 16.3999 4 12 4C7.58172 4 4 7.58172 4 12C4 16.3999 7.552 19.9702 11.9449 19.9998C11.9539 19.9856 11.9644 19.9658 11.9739 19.9397C11.9896 19.8967 12 19.8444 12 19.7866V18C12 14.6863 14.6863 12 18 12H19.7866C19.8444 12 19.8967 11.9896 19.9397 11.9739C19.9658 11.9644 19.9856 11.9539 19.9998 11.9449ZM22 12C22 13.1714 20.9581 14 19.7866 14H18C15.7909 14 14 15.7909 14 18V19.7866C14 20.9581 13.1714 22 12 22C6.47715 22 2 17.5228 2 12C2 6.47715 6.47715 2 12 2C17.5228 2 22 6.47715 22 12Z" fill="#6F767E"/>
</svg>
