<svg width="24" height="24" viewBox="0 0 24 24" fill="none" xmlns="http://www.w3.org/2000/svg">
<path fill-rule="evenodd" clip-rule="evenodd" d="M22 12C22 17.5228 17.5228 22 12 22C6.47715 22 2 17.5228 2 12C2 6.47715 6.47715 2 12 2C17.5228 2 22 6.47715 22 12ZM15.7808 6.9138L10.2706 9.18271C9.77739 9.38577 9.38577 9.7774 9.1827 10.2706L6.91379 15.7808C6.57535 16.6027 7.39728 17.4246 8.21922 17.0862L13.7294 14.8173C14.2226 14.6142 14.6142 14.2226 14.8173 13.7294L17.0862 8.21923C17.4246 7.39729 16.6027 6.57535 15.7808 6.9138Z" fill="#6F767E"/>
</svg>
