<svg width="24" height="24" viewBox="0 0 24 24" fill="none" xmlns="http://www.w3.org/2000/svg">
<path fill-rule="evenodd" clip-rule="evenodd" d="M14 5H6C5.44772 5 5 5.44772 5 6V14C5 14.5523 5.44772 15 6 15H14C14.5523 15 15 14.5523 15 14V6C15 5.44772 14.5523 5 14 5ZM6 3C4.34315 3 3 4.34315 3 6V14C3 15.6569 4.34315 17 6 17H14C15.6569 17 17 15.6569 17 14V6C17 4.34315 15.6569 3 14 3H6Z" fill="#6F767E"/>
<path d="M7 10C7 8.34315 8.34315 7 10 7H18C19.6569 7 21 8.34315 21 10V18C21 19.6569 19.6569 21 18 21H10C8.34315 21 7 19.6569 7 18V10Z" fill="#6F767E"/>
</svg>
