<svg width="24" height="24" viewBox="0 0 24 24" fill="none" xmlns="http://www.w3.org/2000/svg">
<path fill-rule="evenodd" clip-rule="evenodd" d="M7 3C7 2.44772 6.55228 2 6 2C5.44772 2 5 2.44772 5 3V5H3C2.44772 5 2 5.44772 2 6C2 6.55228 2.44772 7 3 7H5V16C5 17.6569 6.34315 19 8 19H17V21C17 21.5523 17.4477 22 18 22C18.5523 22 19 21.5523 19 21V19H21C21.5523 19 22 18.5523 22 18C22 17.4477 21.5523 17 21 17H19V8C19 6.34315 17.6569 5 16 5H7V3ZM7 7V16C7 16.5523 7.44772 17 8 17H17V8C17 7.44772 16.5523 7 16 7H7Z" fill="#6F767E"/>
</svg>
