<svg width="24" height="24" viewBox="0 0 24 24" fill="none" xmlns="http://www.w3.org/2000/svg">
<path fill-rule="evenodd" clip-rule="evenodd" d="M6 2C6.55228 2 7 2.44772 7 3V16C7 16.5523 7.44772 17 8 17H21C21.5523 17 22 17.4477 22 18C22 18.5523 21.5523 19 21 19H8C6.34315 19 5 17.6569 5 16V3C5 2.44772 5.44772 2 6 2Z" fill="#6F767E"/>
<path fill-rule="evenodd" clip-rule="evenodd" d="M2 6C2 5.44772 2.44772 5 3 5H16C17.6569 5 19 6.34315 19 8V21C19 21.5523 18.5523 22 18 22C17.4477 22 17 21.5523 17 21V8C17 7.44772 16.5523 7 16 7H3C2.44772 7 2 6.55228 2 6Z" fill="#6F767E"/>
</svg>
