<svg width="24" height="24" viewBox="0 0 24 24" fill="none" xmlns="http://www.w3.org/2000/svg">
<path d="M16 4C16 5.10457 15.1046 6 14 6C12.8954 6 12 5.10457 12 4C12 2.89543 12.8954 2 14 2C15.1046 2 16 2.89543 16 4Z" fill="#6F767E"/>
<path fill-rule="evenodd" clip-rule="evenodd" d="M6 22C8.20914 22 10 20.2091 10 18C10 15.7909 8.20914 14 6 14C3.79086 14 2 15.7909 2 18C2 20.2091 3.79086 22 6 22ZM6 20C7.10457 20 8 19.1046 8 18C8 16.8954 7.10457 16 6 16C4.89543 16 4 16.8954 4 18C4 19.1046 4.89543 20 6 20Z" fill="#6F767E"/>
<path fill-rule="evenodd" clip-rule="evenodd" d="M18 22C20.2091 22 22 20.2091 22 18C22 15.8715 20.3375 14.1313 18.2402 14.0071L17.3125 11H18.0001C18.5524 11 19.0001 10.5522 19.0001 9.99996C19.0001 9.44768 18.5524 8.99996 18.0001 8.99996H15.4143L13.4972 7.08288C12.6543 6.24 11.2659 6.31689 10.5213 7.24771L7.90059 10.5236C7.16786 11.4395 7.37698 12.7864 8.35293 13.437L11.359 15.4411L10.5299 18.7574C10.396 19.2932 10.7218 19.8362 11.2576 19.9701C11.7933 20.1041 12.3363 19.7783 12.4702 19.2425L13.3753 15.6223C13.5347 14.9845 13.276 14.3154 12.729 13.9507L9.46233 11.7729L12.083 8.4971L14.1303 10.5444C14.4194 10.8335 14.8108 10.9971 15.2194 10.9999L16.2665 14.3941C14.9255 15.04 14 16.4119 14 18C14 20.2091 15.7909 22 18 22ZM18 20C19.1046 20 20 19.1046 20 18C20 16.8954 19.1046 16 18 16C16.8954 16 16 16.8954 16 18C16 19.1046 16.8954 20 18 20Z" fill="#6F767E"/>
</svg>
