<svg width="24" height="24" viewBox="0 0 24 24" fill="none" xmlns="http://www.w3.org/2000/svg">
<path fill-rule="evenodd" clip-rule="evenodd" d="M18.2402 14.0071L16.8445 9.48303L14.9333 10.0726L16.2665 14.3941C14.9255 15.04 14 16.4119 14 18C14 20.2091 15.7909 22 18 22C20.2091 22 22 20.2091 22 18C22 15.8715 20.3375 14.1313 18.2402 14.0071ZM18 20C19.1046 20 20 19.1046 20 18C20 16.8954 19.1046 16 18 16C16.8954 16 16 16.8954 16 18C16 19.1046 16.8954 20 18 20Z" fill="#6F767E"/>
<path fill-rule="evenodd" clip-rule="evenodd" d="M6 22C8.20914 22 10 20.2091 10 18C10 15.7909 8.20914 14 6 14C3.79086 14 2 15.7909 2 18C2 20.2091 3.79086 22 6 22ZM6 20C7.10457 20 8 19.1046 8 18C8 16.8954 7.10457 16 6 16C4.89543 16 4 16.8954 4 18C4 19.1046 4.89543 20 6 20Z" fill="#6F767E"/>
<path fill-rule="evenodd" clip-rule="evenodd" d="M14 6C15.1046 6 16 5.10457 16 4C16 2.89543 15.1046 2 14 2C12.8954 2 12 2.89543 12 4C12 5.10457 12.8954 6 14 6Z" fill="#6F767E"/>
<path fill-rule="evenodd" clip-rule="evenodd" d="M10.5211 7.24771C11.2658 6.31689 12.6542 6.24 13.4971 7.08288L15.4142 8.99996H18C18.5523 8.99996 19 9.44768 19 9.99996C19 10.5522 18.5523 11 18 11H15.2301C14.8175 11 14.4219 10.8361 14.1301 10.5444L12.0829 8.4971L9.46221 11.7729L12.7289 13.9507C13.2759 14.3154 13.5346 14.9845 13.3752 15.6223L12.4701 19.2425C12.3362 19.7783 11.7932 20.1041 11.2574 19.9701C10.7216 19.8362 10.3959 19.2932 10.5298 18.7574L11.3589 15.4411L8.35281 13.437C7.37686 12.7864 7.16774 11.4395 7.90047 10.5236L10.5211 7.24771Z" fill="#6F767E"/>
</svg>
