<svg width="24" height="24" viewBox="0 0 24 24" fill="none" xmlns="http://www.w3.org/2000/svg">
<path fill-rule="evenodd" clip-rule="evenodd" d="M12 5C7.58172 5 4 8.58172 4 13C4 15.2122 4.89659 17.2131 6.34862 18.6623C6.73952 19.0525 6.74012 19.6856 6.34998 20.0765C5.95983 20.4674 5.32666 20.468 4.93576 20.0779C3.12321 18.2688 2 15.7646 2 13C2 7.47715 6.47715 3 12 3C17.5228 3 22 7.47715 22 13C22 15.7611 20.8796 18.2625 19.0711 20.0711C18.6805 20.4616 18.0474 20.4616 17.6569 20.0711C17.2663 19.6805 17.2663 19.0474 17.6569 18.6569C19.1057 17.208 20 15.2094 20 13C20 8.58172 16.4183 5 12 5Z" fill="#6F767E"/>
<path fill-rule="evenodd" clip-rule="evenodd" d="M16.7071 9.70711C17.0976 9.31658 17.0976 8.68342 16.7071 8.29289C16.3166 7.90237 15.6834 7.90237 15.2929 8.29289L13.2934 10.2924C12.9018 10.105 12.4631 10 12 10C10.3431 10 9 11.3431 9 13C9 14.6569 10.3431 16 12 16C13.6569 16 15 14.6569 15 13C15 12.5369 14.895 12.0982 14.7076 11.7066L16.7071 9.70711ZM11 13C11 12.4477 11.4477 12 12 12C12.5523 12 13 12.4477 13 13C13 13.5523 12.5523 14 12 14C11.4477 14 11 13.5523 11 13Z" fill="#6F767E"/>
</svg>
