<svg width="24" height="24" viewBox="0 0 24 24" fill="none" xmlns="http://www.w3.org/2000/svg">
<path fill-rule="evenodd" clip-rule="evenodd" d="M2 13C2 7.47715 6.47715 3 12 3C17.5228 3 22 7.47715 22 13C22 15.1807 21.302 17.1984 20.1172 18.8418C19.7785 19.3115 19.2187 19.5561 18.6395 19.5561H5.36047C4.78135 19.5561 4.22149 19.3115 3.88281 18.8418C2.69802 17.1984 2 15.1807 2 13ZM16.7071 8.29289C17.0976 8.68342 17.0976 9.31658 16.7071 9.70711L13.9323 12.482C13.9764 12.6472 14 12.8208 14 13C14 14.1046 13.1046 15 12 15C10.8954 15 10 14.1046 10 13C10 11.8954 10.8954 11 12 11C12.1792 11 12.3528 11.0236 12.518 11.0677L15.2929 8.29289C15.6834 7.90237 16.3166 7.90237 16.7071 8.29289Z" fill="#6F767E"/>
</svg>
