<svg width="24" height="24" viewBox="0 0 24 24" fill="none" xmlns="http://www.w3.org/2000/svg">
<path d="M3.82414 15.3437C3.46687 15.1496 3 15.3957 3 15.8023V17C3 19.2723 6.95053 21 12 21C17.0495 21 21 19.2723 21 17V15.8023C21 15.3957 20.5331 15.1496 20.1759 15.3437C19.9913 15.4439 19.8007 15.5391 19.6047 15.6293C17.7779 16.4701 15.2238 17 12 17C8.77623 17 6.2221 16.4701 4.39529 15.6293C4.19932 15.5391 4.00865 15.4439 3.82414 15.3437Z" fill="#6F767E"/>
<path d="M21 6.08571C21 7.78991 16.9706 9 12 9C7.02944 9 3 7.78991 3 6.08571C3 4.38152 7.02944 3 12 3C16.9706 3 21 4.38152 21 6.08571Z" fill="#6F767E"/>
<path d="M12 11C14.6205 11 17.0869 10.684 18.9675 10.0887C19.3924 9.95419 19.8124 9.79771 20.2115 9.61448C20.5666 9.45148 21 9.699 21 10.0897V11.5C21 13 18.0495 15 12 15C5.95053 15 3 13 3 11.5V10.0897C3 9.699 3.43337 9.45148 3.78845 9.61448C4.18758 9.79771 4.60758 9.95419 5.03247 10.0887C6.91314 10.684 9.37947 11 12 11Z" fill="#6F767E"/>
</svg>
