<svg width="24" height="24" viewBox="0 0 24 24" fill="none" xmlns="http://www.w3.org/2000/svg">
<path fill-rule="evenodd" clip-rule="evenodd" d="M18.9874 7.10749C18.9383 7.00005 18.6986 6.55708 17.5324 6.024C16.2197 5.42387 14.2656 5 12 5C9.73441 5 7.78033 5.42387 6.46756 6.024C5.30145 6.55708 5.06172 7.00005 5.01259 7.10749C5.06446 7.21134 5.30835 7.6001 6.41373 8.06663C7.73109 8.62264 9.70059 9 12 9C14.2994 9 16.2689 8.62264 17.5863 8.06663C18.6916 7.6001 18.9355 7.21134 18.9874 7.10749ZM12 11C14.8273 11 17.35 10.478 19 9.60965V11.9794C19 11.9794 18.9985 11.9818 18.9965 11.9867C18.9719 12.0482 18.7958 12.4873 17.5846 13.023C16.2845 13.598 14.3257 14 12 14C9.67429 14 7.71551 13.598 6.41542 13.023C5.20421 12.4873 5.0283 12.0479 5.00368 11.9864C5.0017 11.9815 5.00021 11.9791 5.00021 11.9791L5.00004 9.60967C6.65 10.478 9.17276 11 12 11ZM21 12V7.11429V7H20.9966C20.8644 4.78051 16.8871 3 12 3C7.11304 3 3.13582 4.78058 3.00341 7H3V7.11429V12V17C3 19.2723 6.95053 21 12 21C17.0495 21 21 19.2723 21 17V12ZM19 14.5545C17.3631 15.4467 14.8575 16 12 16C9.14248 16 6.6369 15.4467 5.00004 14.5545L5.00021 16.9791C5.00021 16.9791 5.0017 16.9815 5.00368 16.9864C5.0283 17.0479 5.20421 17.4873 6.41542 18.023C7.71551 18.598 9.67429 19 12 19C14.3257 19 16.2845 18.598 17.5846 18.023C18.7958 17.4873 18.9719 17.0482 18.9965 16.9867C18.9985 16.9818 19 16.9794 19 16.9794V14.5545Z" fill="#6F767E"/>
</svg>
