<svg width="24" height="24" viewBox="0 0 24 24" fill="none" xmlns="http://www.w3.org/2000/svg">
<path d="M2.45412 5.28255C1.28255 6.45412 1.28255 8.35361 2.45412 9.52519L4.3206 11.3917C4.71083 11.7819 5.34342 11.7822 5.73406 11.3924L11.397 5.74161C11.7882 5.35121 11.7885 4.71746 11.3977 4.32664L9.52519 2.45412C8.35361 1.28255 6.45412 1.28255 5.28255 2.45412L2.45412 5.28255Z" fill="#6F767E"/>
<path d="M12.8044 19.8754C12.4141 19.4852 12.4138 18.8526 12.8036 18.462L18.4544 12.7991C18.8448 12.4079 19.4786 12.4075 19.8694 12.7983L21.546 14.4749C22.7176 15.6465 22.7176 17.546 21.546 18.7176L18.7176 21.546C17.546 22.7176 15.6465 22.7176 14.4749 21.546L12.8044 19.8754Z" fill="#6F767E"/>
<path d="M16.8673 3.08579C17.6484 2.30474 18.9147 2.30474 19.6957 3.08579L21.11 4.5C21.891 5.28105 21.891 6.54738 21.11 7.32843L20.4028 8.0356C20.0123 8.42612 19.3791 8.42612 18.9886 8.0356L16.1602 5.20717C15.7696 4.81665 15.7696 4.18348 16.1602 3.79296L16.8673 3.08579Z" fill="#6F767E"/>
<path d="M14.7461 6.62141C14.3556 6.23089 13.7224 6.23089 13.3319 6.62141L3.96718 15.9861C3.84827 16.105 3.76127 16.252 3.71422 16.4134L2.54367 20.4302C2.32222 21.1901 3.02951 21.8939 3.7883 21.6686L7.78539 20.4822C7.94499 20.4348 8.09023 20.3483 8.20794 20.2306L17.5745 10.8641C17.965 10.4735 17.965 9.84036 17.5745 9.44984L14.7461 6.62141Z" fill="#6F767E"/>
</svg>
