<svg width="24" height="24" viewBox="0 0 24 24" fill="none" xmlns="http://www.w3.org/2000/svg">
<path fill-rule="evenodd" clip-rule="evenodd" d="M12.7279 5.65688L9.87864 2.80763C8.70707 1.63606 6.80757 1.63606 5.636 2.80763L2.80757 5.63606C1.636 6.80763 1.636 8.70713 2.80757 9.8787L4.21517 11.2863L4.22179 11.293L4.22847 11.2996L5.65682 12.7279L3.45671 14.9281C3.31711 15.0677 3.22195 15.2455 3.18324 15.4391L2.12258 20.7424C1.98263 21.4421 2.59955 22.059 3.29927 21.9191L8.60257 20.8584C8.79616 20.8197 8.97396 20.7245 9.11356 20.5849L11.3137 18.3848L14.1213 21.1924C15.2929 22.364 17.1924 22.364 18.3639 21.1924L21.1924 18.364C22.3639 17.1924 22.3639 15.2929 21.1924 14.1213L18.3847 11.3137L20.9203 8.77821C22.0919 7.60664 22.0919 5.70714 20.9203 4.53557L19.5061 3.12136C18.3345 1.94978 16.435 1.94978 15.2634 3.12136L12.7279 5.65688ZM4.22179 7.05028C3.83126 7.4408 3.83126 8.07396 4.22179 8.46449L4.92893 9.17163L6.34311 7.75745C6.73363 7.36692 7.3668 7.36692 7.75732 7.75745C8.14785 8.14797 8.14785 8.78114 7.75732 9.17166L6.34314 10.5858L7.07103 11.3137L11.3137 7.07109L8.46443 4.22185C8.0739 3.83132 7.44074 3.83132 7.05021 4.22185L4.22179 7.05028ZM16.9705 12.7279L12.7279 16.9706L13.4142 17.6569L14.1213 16.9498C14.5118 16.5593 15.145 16.5593 15.5355 16.9498C15.926 17.3403 15.926 17.9735 15.5355 18.364L14.8284 19.0711L15.5355 19.7782C15.926 20.1687 16.5592 20.1687 16.9497 19.7782L19.7781 16.9498C20.1687 16.5592 20.1687 15.9261 19.7781 15.5356L16.9705 12.7279ZM19.5061 5.94978L18.0919 4.53557C17.7013 4.14504 17.0682 4.14504 16.6776 4.53557L15.2634 5.9498L18.0918 8.77823L19.5061 7.364C19.8966 6.97347 19.8966 6.34031 19.5061 5.94978ZM5.08502 16.1282L13.8492 7.36402L16.6776 10.1924L7.91344 18.9566L4.37791 19.6637L5.08502 16.1282Z" fill="#6F767E"/>
</svg>
