<svg xmlns="http://www.w3.org/2000/svg" width="30" height="30" viewBox="0 0 30 30">
  <g id="Group_4" data-name="Group 4" transform="translate(-285 -620)">
    <rect id="Rectangle_315" data-name="Rectangle 315" width="30" height="30" rx="5" transform="translate(285 620)" fill="#ff4343"/>
    <g id="Group_798" data-name="Group 798">
      <path id="Vector" d="M11.534,6.429H6.894a1.583,1.583,0,0,1-1.125-.471A1.615,1.615,0,0,1,5.3,4.821V.134A.135.135,0,0,0,5.264.039.132.132,0,0,0,5.17,0H2.121a2.11,2.11,0,0,0-1.5.628A2.154,2.154,0,0,0,0,2.143V12.857a2.154,2.154,0,0,0,.621,1.515,2.11,2.11,0,0,0,1.5.628H9.545a2.11,2.11,0,0,0,1.5-.628,2.154,2.154,0,0,0,.621-1.515V6.563a.135.135,0,0,0-.039-.095A.132.132,0,0,0,11.534,6.429Z" transform="translate(294 628)" fill="#fff"/>
      <path id="Vector-2" data-name="Vector" d="M4.879,4.835.113.019a.066.066,0,0,0-.1.01A.067.067,0,0,0,0,.067V4.413a.538.538,0,0,0,.155.379.528.528,0,0,0,.375.157h4.3a.066.066,0,0,0,.037-.011.067.067,0,0,0,.024-.03.067.067,0,0,0-.014-.073Z" transform="translate(300.363 628.409)" fill="#fff"/>
    </g>
  </g>
</svg>
