<svg xmlns="http://www.w3.org/2000/svg" width="12" height="15.429" viewBox="0 0 12 15.429">
  <g id="Group_785" data-name="Group 785" transform="translate(-279 -215)">
    <path id="Vector" d="M11.864,6.612H7.091a1.628,1.628,0,0,1-1.157-.484,1.662,1.662,0,0,1-.479-1.169V.138a.138.138,0,0,0-.04-.1.136.136,0,0,0-.1-.04H2.182A2.171,2.171,0,0,0,.639.646,2.216,2.216,0,0,0,0,2.2v11.02a2.216,2.216,0,0,0,.639,1.559,2.171,2.171,0,0,0,1.543.646H9.818a2.171,2.171,0,0,0,1.543-.646A2.216,2.216,0,0,0,12,13.224V6.75a.138.138,0,0,0-.04-.1A.136.136,0,0,0,11.864,6.612Z" transform="translate(279 215)" fill="#2697ff"/>
    <path id="Vector-2" data-name="Vector" d="M5.019,4.973.116.02a.068.068,0,0,0-.1.01A.069.069,0,0,0,0,.069v4.47a.554.554,0,0,0,.16.39.543.543,0,0,0,.386.161H4.971a.068.068,0,0,0,.038-.012.069.069,0,0,0,.025-.031.069.069,0,0,0-.015-.075Z" transform="translate(285.545 215.42)" fill="#2697ff"/>
  </g>
</svg>
