<svg xmlns="http://www.w3.org/2000/svg" width="26.485" height="21.577" viewBox="0 0 26.485 21.577"><g transform="translate(-103 -178.79)"><path d="M121.181,195.149a.973.973,0,0,1-.344-.063L117.6,194l-6.19-2.112a9.067,9.067,0,0,1-3.535-2.059l-.021-.018-1.789-1.658-.022-.025a2.7,2.7,0,0,0-2.024-.819l-.044,0-.972-.066V178.79h14.156a4.52,4.52,0,0,1,2.782.963l4.583,3.606a3.13,3.13,0,0,1,1.2,2.475v3.988l-.852-.284-.074-.025-.007,0-.037-.011-.008,0-.07-.021h0l-.085-.024-.095-.025-.007,0-.084-.02-.007,0-.092-.02-.007,0-.07-.014h-.006l-.073-.013-.009,0-.068-.011-.028,0-.038-.006H124l-.092-.012h-.01l-.079-.009-.029,0-.056-.005-.053,0-.029,0-.056,0h-.037c-.045,0-.094,0-.139-.006h-.2l-.074,0-.051,0-.053,0-.12.007H122.9l-.023,0-.016,0c-.09.008-.174.017-.255.029l-.058.008-.059.009-.013,0-.046.008-.023,0-.04.007-.008,0c-.067.013-.138.028-.216.047h-.006l-.037.009-.839.307v-3.263l-1.829-1.44a1.427,1.427,0,0,0-1.765,0l-.72.563a1.836,1.836,0,0,0-.64,1.943,2.076,2.076,0,0,0,1.211,1.367L120.2,190a3.477,3.477,0,0,1,1.89,4.543A.976.976,0,0,1,121.181,195.149Zm-.294-1.1h0Zm-2.874-1.278,2.968,1a2.182,2.182,0,0,0-1.281-2.57l-2.671-1.1a3.372,3.372,0,0,1-1.966-2.219,3.129,3.129,0,0,1,1.09-3.309l.72-.563a2.719,2.719,0,0,1,3.363,0l1.9,1.492a1.118,1.118,0,0,1,.428.882v1.642c.059-.007.12-.013.183-.019L122.8,188l.02,0,.152-.009.039,0h.016l.067,0,.094,0h.256c.056,0,.116,0,.178.007l.062,0,.035,0,.07.005.034,0,.019,0,.058.006h.014l.024,0,.126.015.119.016.057.009.023,0,.092.015.07.012v-2.254a1.843,1.843,0,0,0-.707-1.457l-4.583-3.605a3.217,3.217,0,0,0-1.981-.686H104.3v5.935a3.906,3.906,0,0,1,2.694,1.225l1.732,1.6a7.745,7.745,0,0,0,3.084,1.8l.013,0Zm4.06-3.34h0Zm1.7-.13h0Z" fill="#03716e"/><path d="M544.751,475.126a6.193,6.193,0,0,1-6.128-7.073l.111-.768,3.706,1.243a2.185,2.185,0,0,0-1.281-2.57l-1.528-.631.659-.685a6.175,6.175,0,0,1,2.918-1.705l.027-.006.033-.008.038-.009c.1-.023.187-.042.273-.059l.054-.01.019,0,.082-.014.087-.014.066-.01c.107-.015.213-.027.316-.036l.057-.005h.016l.16-.01h.011l.039,0h.009l.063,0,.1,0c.067,0,.135,0,.2,0h.046c.057,0,.119,0,.184.008l.041,0h.011l.045,0,.07.005.036,0,.095.009h0l.136.016.116.016.07.01.012,0,.1.016.093.017h.006l.095.019.007,0,.12.027.123.029.107.028.02.005.1.029.07.021.046.014.023.007.058.019.04.013.01,0a6.194,6.194,0,0,1-1.991,12.057Zm-4.9-6.1a4.9,4.9,0,1,0,6.474-4.731l-.047-.015-.033-.011-.039-.012-.021-.006-.057-.017-.012,0-.07-.02-.015,0-.083-.022-.009,0-.087-.021h-.005l-.094-.021-.076-.015h0l-.075-.013-.018,0-.05-.008-.026,0-.041-.006-.015,0-.092-.012-.094-.011-.015,0-.082-.007-.026,0-.038,0-.057,0h-.037c-.045,0-.093,0-.138-.006h-.205l-.074,0h-.038l-.062,0-.121.007h-.015l-.02,0-.02,0c-.082.007-.166.016-.253.028l-.05.007-.066.011-.022,0-.039.007-.028.005-.031.006h-.007c-.067.013-.138.028-.215.047l-.09.022a4.86,4.86,0,0,0-1.553.713,3.484,3.484,0,0,1,1.578,4.4.976.976,0,0,1-1.25.541Zm2.489-.217h0Z" transform="translate(-421.458 -274.759)" fill="#03716e"/><rect width="1.295" height="1.291" transform="translate(122.646 196.414)" fill="#03716e"/><rect width="1.295" height="1.27" transform="translate(122.646 190.646)" fill="#03716e"/><path d="M663.9,570.022h-.811a1.705,1.705,0,0,1-1.722-1.684h1.3a.41.41,0,0,0,.427.389h.811a.5.5,0,0,0,.518-.477.455.455,0,0,0-.143-.329.536.536,0,0,0-.374-.148h-.811A1.8,1.8,0,0,1,661.28,566a1.739,1.739,0,0,1,.539-1.261,1.824,1.824,0,0,1,1.273-.511h.811a1.705,1.705,0,0,1,1.722,1.684h-1.3a.41.41,0,0,0-.427-.389h-.811a.535.535,0,0,0-.374.148.456.456,0,0,0-.143.329.5.5,0,0,0,.518.477h.811a1.823,1.823,0,0,1,1.273.511,1.74,1.74,0,0,1,.539,1.261A1.8,1.8,0,0,1,663.9,570.022Z" transform="translate(-540.204 -372.96)" fill="#03716e"/></g></svg>