<svg width="24" height="24" viewBox="0 0 24 24" fill="none" xmlns="http://www.w3.org/2000/svg">
<path fill-rule="evenodd" clip-rule="evenodd" d="M9 6.2918C8.33309 6.49063 7.69594 6.78888 7.11101 7.17971C5.95987 7.94888 5.06266 9.04213 4.53285 10.3212C4.00303 11.6003 3.86441 13.0078 4.13451 14.3656C4.4046 15.7235 5.07129 16.9708 6.05026 17.9497C7.02922 18.9287 8.2765 19.5954 9.63437 19.8655C10.9922 20.1356 12.3997 19.997 13.6788 19.4672C14.9579 18.9373 16.0511 18.0401 16.8203 16.889C17.2111 16.3041 17.5094 15.6669 17.7082 15H15.5912C15.4728 15.2717 15.3301 15.5336 15.1639 15.7822C14.6136 16.6058 13.8315 17.2477 12.9164 17.6267C12.0014 18.0057 10.9944 18.1049 10.023 17.9117C9.05158 17.7184 8.15925 17.2415 7.45889 16.5411C6.75852 15.8407 6.28157 14.9484 6.08834 13.977C5.8951 13.0056 5.99428 11.9986 6.37331 11.0836C6.75235 10.1685 7.39422 9.38636 8.21777 8.83609C8.46643 8.66993 8.72831 8.52716 9 8.40881V6.2918ZM10.002 4.05549C10.5509 3.99426 11 4.44771 11 5V8.99211C11 9.54439 10.5404 9.97657 10.0183 10.1568C9.77608 10.2404 9.54426 10.3551 9.32891 10.499C8.83426 10.8295 8.44873 11.2993 8.22107 11.8489C7.99341 12.3986 7.93385 13.0033 8.04991 13.5868C8.16597 14.1703 8.45244 14.7062 8.8731 15.1269C9.29376 15.5476 9.82972 15.834 10.4132 15.9501C10.9967 16.0662 11.6015 16.0066 12.1511 15.7789C12.7007 15.5513 13.1705 15.1657 13.501 14.6711C13.6449 14.4557 13.7596 14.2239 13.8432 13.9817C14.0234 13.4597 14.4556 13 15.0079 13H19C19.5523 13 20.0057 13.4491 19.9445 13.998C19.7853 15.4249 19.2863 16.7983 18.4832 18.0001C17.4943 19.4802 16.0887 20.6337 14.4442 21.3149C12.7996 21.9961 10.99 22.1743 9.24419 21.8271C7.49836 21.4798 5.89472 20.6226 4.63604 19.364C3.37737 18.1053 2.5202 16.5016 2.17294 14.7558C1.82567 13.01 2.0039 11.2004 2.68509 9.55585C3.36628 7.91131 4.51983 6.50571 5.99987 5.51677C7.20175 4.71371 8.57508 4.2147 10.002 4.05549Z" fill="#6F767E"/>
<path fill-rule="evenodd" clip-rule="evenodd" d="M19.7082 9C19.6397 8.77018 19.5593 8.54361 19.4672 8.32121C19.1154 7.47194 18.5998 6.70026 17.9497 6.05025C17.2997 5.40024 16.5281 4.88463 15.6788 4.53284C15.4564 4.44072 15.2298 4.36031 15 4.29179V6.40881C15.5747 6.65915 16.0975 7.01527 16.5411 7.45888C16.9847 7.9025 17.3409 8.42533 17.5912 9H19.7082ZM21.9445 10.002C22.0057 10.5509 21.5523 11 21 11H17.0079C16.4556 11 16.0234 10.5404 15.8432 10.0183C15.8235 9.96129 15.8021 9.9048 15.7789 9.84893C15.6278 9.48399 15.4062 9.15241 15.1269 8.8731C14.8476 8.59379 14.516 8.37223 14.1511 8.22107C14.0952 8.19792 14.0387 8.1765 13.9817 8.15681C13.4596 7.97656 13 7.54439 13 6.99211V3C13 2.44771 13.4491 1.99426 13.9979 2.0555C14.8372 2.14914 15.6609 2.36064 16.4442 2.68508C17.5361 3.13738 18.5282 3.80031 19.364 4.63604C20.1997 5.47177 20.8626 6.46392 21.3149 7.55585C21.6394 8.33913 21.8509 9.16275 21.9445 10.002Z" fill="#6F767E"/>
</svg>
