<svg width="24" height="24" viewBox="0 0 24 24" fill="none" xmlns="http://www.w3.org/2000/svg">
<path fill-rule="evenodd" clip-rule="evenodd" d="M16.6015 10.0425C16.6357 10.0945 16.6726 10.1452 16.712 10.1944C17.5405 11.2279 18.0348 12.5361 18.0348 13.9652C18.0348 17.2981 15.3329 20 12 20C8.66707 20 5.96521 17.2981 5.96521 13.9652C5.96521 12.5363 6.45937 11.2282 7.28774 10.1947L7.2937 10.1873C7.30823 10.1692 7.32245 10.1508 7.33634 10.1322C7.49062 9.92626 7.64518 9.72052 7.80014 9.51507C8.09313 9.12664 8.50628 8.58115 8.98631 7.95378C9.88086 6.78468 10.9983 5.34348 12.0007 4.10618C13.0062 5.34614 14.1262 6.78956 15.0226 7.96019C15.7438 8.90222 16.3145 9.66008 16.5535 9.97843L16.6015 10.0425ZM18.2754 8.94115C18.2754 8.94115 18.2737 8.93886 18.2725 8.93726C18.2213 8.86877 17.751 8.24046 17.0696 7.34562C16.0587 6.01806 14.5831 4.10387 13.3215 2.56071C12.6313 1.71655 11.3689 1.71688 10.6792 2.56137C8.52282 5.20153 5.73397 8.93538 5.73397 8.93538L5.72747 8.94348C4.62478 10.319 3.96521 12.0651 3.96521 13.9652C3.96521 18.4027 7.5625 22 12 22C16.4375 22 20.0348 18.4027 20.0348 13.9652C20.0348 12.783 19.7794 11.6604 19.3209 10.6495C19.0435 10.038 18.6917 9.46743 18.2772 8.94928L18.2743 8.94565L18.2725 8.94348H18.2772L18.2754 8.94115Z" fill="#6F767E"/>
</svg>
