<svg width="24" height="24" viewBox="0 0 24 24" fill="none" xmlns="http://www.w3.org/2000/svg">
<path d="M6.5 6C7.05228 6 7.5 6.44772 7.5 7V11H16.5V7C16.5 6.44772 16.9477 6 17.5 6C18.0523 6 18.5 6.44772 18.5 7V17C18.5 17.5523 18.0523 18 17.5 18C16.9477 18 16.5 17.5523 16.5 17V13H7.5V17C7.5 17.5523 7.05228 18 6.5 18C5.94772 18 5.5 17.5523 5.5 17V7C5.5 6.44772 5.94772 6 6.5 6Z" fill="#6F767E"/>
<path fill-rule="evenodd" clip-rule="evenodd" d="M3 8C3.55228 8 4 8.44772 4 9V15C4 15.5523 3.55228 16 3 16C2.44772 16 2 15.5523 2 15V9C2 8.44772 2.44772 8 3 8Z" fill="#6F767E"/>
<path fill-rule="evenodd" clip-rule="evenodd" d="M21 8C21.5523 8 22 8.44772 22 9V15C22 15.5523 21.5523 16 21 16C20.4477 16 20 15.5523 20 15V9C20 8.44772 20.4477 8 21 8Z" fill="#6F767E"/>
</svg>
