<svg width="24" height="24" viewBox="0 0 24 24" fill="none" xmlns="http://www.w3.org/2000/svg">
<path d="M6 6C6.55228 6 7 6.44772 7 7V11H17V7C17 6.44772 17.4477 6 18 6C18.5523 6 19 6.44772 19 7V17C19 17.5523 18.5523 18 18 18C17.4477 18 17 17.5523 17 17V13H7V17C7 17.5523 6.55228 18 6 18C5.44772 18 5 17.5523 5 17V7C5 6.44772 5.44772 6 6 6Z" fill="#6F767E"/>
<path fill-rule="evenodd" clip-rule="evenodd" d="M3 8C3.55228 8 4 8.44772 4 9V15C4 15.5523 3.55228 16 3 16C2.44772 16 2 15.5523 2 15V9C2 8.44772 2.44772 8 3 8Z" fill="#6F767E"/>
<path fill-rule="evenodd" clip-rule="evenodd" d="M21 8C21.5523 8 22 8.44772 22 9V15C22 15.5523 21.5523 16 21 16C20.4477 16 20 15.5523 20 15V9C20 8.44772 20.4477 8 21 8Z" fill="#6F767E"/>
</svg>
