<svg width="24" height="24" viewBox="0 0 24 24" fill="none" xmlns="http://www.w3.org/2000/svg">
<path d="M3.98558 21.1911L9.28888 20.1304C9.48247 20.0917 9.66027 19.9966 9.79987 19.857L16.4497 13.2071C16.8402 12.8166 16.8402 12.1834 16.4497 11.7929L12.207 7.55027C11.8165 7.15974 11.1833 7.15974 10.7928 7.55027L4.14302 14.2001C4.00342 14.3397 3.90826 14.5175 3.86955 14.7111L2.80889 20.0144C2.66894 20.7141 3.28586 21.331 3.98558 21.1911Z" fill="#6F767E"/>
<path d="M20.1924 5.22181L18.7782 3.8076C17.6066 2.63602 15.7071 2.63602 14.5355 3.80759L13.5502 4.79288C13.1597 5.18341 13.1597 5.81657 13.5502 6.2071L17.7929 10.4497C18.1834 10.8403 18.8166 10.8403 19.2071 10.4497L20.1924 9.46445C21.364 8.29288 21.364 6.39338 20.1924 5.22181Z" fill="#6F767E"/>
</svg>
