<svg xmlns="http://www.w3.org/2000/svg" width="24.478" height="16.313" viewBox="0 0 24.478 16.313"><path d="M24.2,9.855,13.149,5.741a1.222,1.222,0,0,0-.821,0L1.274,9.855a1.182,1.182,0,0,0-.039,2.2l3.885,1.611v5.409a1.175,1.175,0,0,0,.655,1.058l.79.395a13.848,13.848,0,0,0,12.349,0l.79-.395a1.175,1.175,0,0,0,.655-1.058V13.669l1.429-.592v4.588a1.184,1.184,0,0,0,2.369,0V12.1l.087-.039a1.182,1.182,0,0,0-.039-2.2ZM17.99,18.343l-.134.071a11.49,11.49,0,0,1-10.233,0l-.134-.071v-3.7l4.8,1.982a1.21,1.21,0,0,0,.9,0l4.8-1.982v3.7Z" transform="translate(-0.5 -5.67)" fill="#03716e"/></svg>