<svg width="24" height="24" viewBox="0 0 24 24" fill="none" xmlns="http://www.w3.org/2000/svg">
<path d="M14 4C11.1287 4 8.55913 6.02383 7.50602 9H13C13.5523 9 14 9.44772 14 10C14 10.5523 13.5523 11 13 11H7.05347C7.0182 11.3267 7 11.6604 7 12C7 12.3396 7.0182 12.6733 7.05347 13H13C13.5523 13 14 13.4477 14 14C14 14.5523 13.5523 15 13 15H7.50602C8.55913 17.9762 11.1287 20 14 20C15.1366 20 16.2116 19.6905 17.1659 19.1356C17.6433 18.8579 18.2554 19.0199 18.5331 19.4973C18.8107 19.9747 18.6488 20.5868 18.1714 20.8644C16.9279 21.5876 15.5081 22 14 22C9.89751 22 6.54956 19.0034 5.41462 15H3C2.44772 15 2 14.5523 2 14C2 13.4477 2.44772 13 3 13H5.04495C5.01521 12.6704 5 12.3368 5 12C5 11.6632 5.01521 11.3296 5.04495 11H3C2.44772 11 2 10.5523 2 10C2 9.44772 2.44772 9 3 9H5.41462C6.54956 4.99657 9.89751 2 14 2C15.5081 2 16.9279 2.41241 18.1714 3.13556C18.6488 3.41321 18.8107 4.02531 18.5331 4.50273C18.2554 4.98015 17.6433 5.14209 17.1659 4.86444C16.2116 4.30945 15.1366 4 14 4Z" fill="#6F767E"/>
</svg>
