<svg width="24" height="24" viewBox="0 0 24 24" fill="none" xmlns="http://www.w3.org/2000/svg">
<path fill-rule="evenodd" clip-rule="evenodd" d="M7 2C7.55228 2 8 2.44772 8 3V4H16V3C16 2.44772 16.4477 2 17 2C17.5523 2 18 2.44772 18 3V4H19C20.6569 4 22 5.34315 22 7V19C22 20.6569 20.6569 22 19 22H5C3.34315 22 2 20.6569 2 19V7C2 5.34315 3.34315 4 5 4H6V3C6 2.44772 6.44772 2 7 2ZM16 6V7C16 7.55228 16.4477 8 17 8C17.5523 8 18 7.55228 18 7V6H19C19.5523 6 20 6.44771 20 7V19C20 19.5523 19.5523 20 19 20H5C4.44772 20 4 19.5523 4 19V7C4 6.44772 4.44772 6 5 6H6V7C6 7.55228 6.44772 8 7 8C7.55228 8 8 7.55228 8 7V6H16Z" fill="#6F767E"/>
<path d="M13 10C13 9.44772 12.5523 9 12 9C11.4477 9 11 9.44772 11 10L11 12H9C8.44772 12 8 12.4477 8 13C8 13.5523 8.44772 14 9 14H11L11 16C11 16.5523 11.4477 17 12 17C12.5523 17 13 16.5523 13 16L13 14H15C15.5523 14 16 13.5523 16 13C16 12.4477 15.5523 12 15 12H13L13 10Z" fill="#6F767E"/>
</svg>
