<svg width="24" height="24" viewBox="0 0 24 24" fill="none" xmlns="http://www.w3.org/2000/svg">
<path fill-rule="evenodd" clip-rule="evenodd" d="M8 3C8 2.44772 7.55228 2 7 2C6.44772 2 6 2.44772 6 3V4H5C3.34315 4 2 5.34315 2 7V19C2 20.6569 3.34315 22 5 22H19C20.6569 22 22 20.6569 22 19V7C22 5.34315 20.6569 4 19 4H18V3C18 2.44772 17.5523 2 17 2C16.4477 2 16 2.44772 16 3V4H8V3ZM16.7071 11.7071C17.0976 11.3166 17.0976 10.6834 16.7071 10.2929C16.3166 9.90237 15.6834 9.90237 15.2929 10.2929L11 14.5858L9.20711 12.7929C8.81658 12.4024 8.18342 12.4024 7.79289 12.7929C7.40237 13.1834 7.40237 13.8166 7.79289 14.2071L10.2929 16.7071C10.6834 17.0976 11.3166 17.0976 11.7071 16.7071L16.7071 11.7071Z" fill="#6F767E"/>
</svg>
