<svg xmlns="http://www.w3.org/2000/svg" width="30" height="30" viewBox="0 0 30 30">
  <g id="Group_8" data-name="Group 8" transform="translate(-285 -832)">
    <rect id="Rectangle_388" data-name="Rectangle 388" width="30" height="30" rx="5" transform="translate(285 832)" fill="#19b7e9"/>
    <g id="Group_799" data-name="Group 799">
      <path id="Vector" d="M7.247,4.7a.7.7,0,0,1-.7-.7V0H.7A.7.7,0,0,0,0,.7V14.273A.7.7,0,0,0,.7,15h9.808a.7.7,0,0,0,.7-.7V4.7ZM8.3,12.565A.352.352,0,0,1,8,13.108H6.981a.34.34,0,0,1-.306-.185c-.577-1.056-1.067-2.008-1.067-2.008-.185.433-.294.577-1.067,2.013a.358.358,0,0,1-.306.185H3.214a.352.352,0,0,1-.294-.542l1.76-2.729L2.92,7.108a.346.346,0,0,1,.294-.537H4.229a.363.363,0,0,1,.312.179c.762,1.425.577.987,1.067,2l1.067-2a.363.363,0,0,1,.312-.179H8a.346.346,0,0,1,.294.537L6.566,9.837Z" transform="translate(294 840)" fill="#fff"/>
      <path id="Vector-2" data-name="Vector" d="M3.738,3.583v.179H0V0H.179a.721.721,0,0,1,.5.2L3.56,3.087a.7.7,0,0,1,.179.5Z" transform="translate(301.478 840)" fill="#fff"/>
    </g>
  </g>
</svg>
