<svg width="24" height="24" viewBox="0 0 24 24" fill="none" xmlns="http://www.w3.org/2000/svg">
<path fill-rule="evenodd" clip-rule="evenodd" d="M19.7782 4.22174C18.2161 2.65965 15.6834 2.65965 14.1213 4.22174L13.3788 4.96421C12.4082 4.32111 11.0875 4.42717 10.2322 5.2824C9.37698 6.13765 9.27092 7.45837 9.91405 8.42906L5.63602 12.7071C5.17703 13.1661 4.87929 13.7616 4.7875 14.4041L4.71679 14.8991C4.62499 15.5417 4.32725 16.1372 3.86826 16.5962C3.08721 17.3772 3.08721 18.6436 3.86826 19.4246L4.57536 20.1317C5.35641 20.9128 6.62274 20.9128 7.40379 20.1317C7.86278 19.6727 8.45826 19.375 9.10085 19.2832L9.59582 19.2125C10.2384 19.1207 10.8339 18.8229 11.2929 18.3639L15.5709 14.0859C16.5416 14.729 17.8623 14.6229 18.7175 13.7677C19.5727 12.9125 19.6788 11.5918 19.0357 10.6211L19.7782 9.8786C21.3403 8.3165 21.3403 5.78384 19.7782 4.22174ZM12.2742 6.63149L13.6371 7.53441L15.5355 5.63596C16.3166 4.85491 17.5829 4.85491 18.3639 5.63596C19.145 6.41701 19.145 7.68334 18.3639 8.46438L16.4655 10.3628L17.3684 11.7257C17.4966 11.9191 17.4727 12.1841 17.3033 12.3535C17.108 12.5487 16.7914 12.5487 16.5962 12.3535L11.6464 7.40372C11.4512 7.20846 11.4512 6.89188 11.6464 6.69662C11.8158 6.52722 12.0808 6.50335 12.2742 6.63149ZM14.1213 12.7071L11.2929 9.87863L7.05024 14.1213C6.89724 14.2743 6.79799 14.4728 6.76739 14.687L6.69668 15.182C6.54369 16.2529 6.04745 17.2454 5.28247 18.0104L5.98958 18.7175C6.75456 17.9525 7.74703 17.4563 8.818 17.3033L9.31298 17.2326C9.52718 17.202 9.72567 17.1027 9.87866 16.9497L14.1213 12.7071Z" fill="#6F767E"/>
</svg>
