<svg width="24" height="24" viewBox="0 0 24 24" fill="none" xmlns="http://www.w3.org/2000/svg">
<path fill-rule="evenodd" clip-rule="evenodd" d="M14.1214 4.22174C15.6835 2.65965 18.2162 2.65965 19.7783 4.22174C21.3404 5.78384 21.3404 8.3165 19.7783 9.8786L19.0358 10.6211C19.6789 11.5918 19.5729 12.9125 18.7176 13.7677C17.8624 14.6229 16.5416 14.729 15.5709 14.0858L11.2928 18.3639C10.8338 18.8229 10.2383 19.1206 9.59576 19.2124L9.10079 19.2831C8.4582 19.3749 7.86272 19.6727 7.40373 20.1317C6.62268 20.9127 5.35635 20.9127 4.5753 20.1317L3.8682 19.4245C3.08715 18.6435 3.08715 17.3772 3.8682 16.5961C4.32719 16.1371 4.62493 15.5416 4.71672 14.8991L4.78743 14.4041C4.87923 13.7615 5.17697 13.166 5.63596 12.707L9.91408 8.42891C9.27106 7.45824 9.37714 6.1376 10.2323 5.2824C11.0876 4.42717 12.4083 4.32111 13.379 4.96421L14.1214 4.22174ZM11.2929 9.87851L7.05018 14.1212C6.89718 14.2742 6.79793 14.4727 6.76733 14.6869L6.69662 15.1819C6.54363 16.2529 6.04739 17.2453 5.28241 18.0103L5.98952 18.7174C6.7545 17.9525 7.74696 17.4562 8.81794 17.3032L9.31292 17.2325C9.52711 17.2019 9.72561 17.1027 9.8786 16.9497L14.1213 12.7069L11.2929 9.87851Z" fill="#6F767E"/>
</svg>
