<svg width="24" height="24" viewBox="0 0 24 24" fill="none" xmlns="http://www.w3.org/2000/svg">
<path fill-rule="evenodd" clip-rule="evenodd" d="M5.6 15.8L9.6 12.8C10.1333 12.4 10.1333 11.6 9.6 11.2L5.6 8.20001C4.94076 7.70559 4 8.17597 4 9.00001V15C4 15.8241 4.94076 16.2944 5.6 15.8ZM10.8 14.4C12.4 13.2 12.4 10.8 10.8 9.60001L6.8 6.60001C4.82229 5.11673 2 6.52788 2 9.00001V15C2 17.4721 4.82229 18.8833 6.8 17.4L10.8 14.4Z" fill="#6F767E"/>
<path fill-rule="evenodd" clip-rule="evenodd" d="M15.6 15.8L19.6 12.8C20.1333 12.4 20.1333 11.6 19.6 11.2L15.6 8.2C14.9408 7.70557 14 8.17595 14 9V15C14 15.824 14.9408 16.2944 15.6 15.8ZM20.8 14.4C22.4 13.2 22.4 10.8 20.8 9.6L16.8 6.6C14.8223 5.11672 12 6.52786 12 9V15C12 17.4721 14.8223 18.8833 16.8 17.4L20.8 14.4Z" fill="#6F767E"/>
</svg>
