<svg width="24" height="24" viewBox="0 0 24 24" fill="none" xmlns="http://www.w3.org/2000/svg">
<path fill-rule="evenodd" clip-rule="evenodd" d="M18.4 15.8L14.4 12.8C13.8667 12.4 13.8667 11.6 14.4 11.2L18.4 8.2C19.0592 7.70557 20 8.17595 20 9V15C20 15.824 19.0592 16.2944 18.4 15.8ZM13.2 14.4C11.6 13.2 11.6 10.8 13.2 9.6L17.2 6.6C19.1777 5.11672 22 6.52786 22 9V15C22 17.4721 19.1777 18.8833 17.2 17.4L13.2 14.4Z" fill="#6F767E"/>
<path fill-rule="evenodd" clip-rule="evenodd" d="M8.4 15.8L4.4 12.8C3.86667 12.4 3.86667 11.6 4.4 11.2L8.4 8.2C9.05924 7.70557 10 8.17595 10 9V15C10 15.824 9.05924 16.2944 8.4 15.8ZM3.2 14.4C1.6 13.2 1.6 10.8 3.2 9.6L7.2 6.6C9.17771 5.11672 12 6.52786 12 9V15C12 17.4721 9.17771 18.8833 7.2 17.4L3.2 14.4Z" fill="#6F767E"/>
</svg>
