<svg width="24" height="24" viewBox="0 0 24 24" fill="none" xmlns="http://www.w3.org/2000/svg">
<path fill-rule="evenodd" clip-rule="evenodd" d="M11 4H9C7.89543 4 7 4.89543 7 6C7 7.10457 7.89543 8 9 8H11V4ZM13 4V8H15C16.1046 8 17 7.10457 17 6C17 4.89543 16.1046 4 15 4H13ZM9 16H11V18C11 19.1046 10.1046 20 9 20C7.89543 20 7 19.1046 7 18C7 16.8954 7.89543 16 9 16ZM5 12C5 13.1947 5.52376 14.2671 6.35418 15C5.52376 15.7329 5 16.8053 5 18C5 20.2091 6.79086 22 9 22C11.2091 22 13 20.2091 13 18V15.4649C13.5883 15.8052 14.2714 16 15 16C17.2091 16 19 14.2091 19 12C19 10.8053 18.4762 9.73295 17.6458 9C18.4762 8.26706 19 7.19469 19 6C19 3.79086 17.2091 2 15 2H9C6.79086 2 5 3.79086 5 6C5 7.19469 5.52376 8.26706 6.35418 9C5.52376 9.73295 5 10.8053 5 12ZM11 14H9C7.89543 14 7 13.1046 7 12C7 10.8954 7.89543 10 9 10H11V12V14ZM13 12C13 10.8954 13.8954 10 15 10C16.1046 10 17 10.8954 17 12C17 13.1046 16.1046 14 15 14C13.8954 14 13 13.1046 13 12Z" fill="#6F767E"/>
</svg>
