<svg width="24" height="24" viewBox="0 0 24 24" fill="none" xmlns="http://www.w3.org/2000/svg">
<path fill-rule="evenodd" clip-rule="evenodd" d="M7 5C7 3.34315 8.34315 2 10 2H15.2574C16.053 2 16.8161 2.31607 17.3787 2.87868L20.1213 5.62132C20.6839 6.18393 21 6.94699 21 7.74264V15C21 16.6569 19.6569 18 18 18H17V19C17 20.6569 15.6569 22 14 22H6C4.34315 22 3 20.6569 3 19V9C3 7.34315 4.34315 6 6 6H7V5ZM7 15V8H6C5.44772 8 5 8.44772 5 9V19C5 19.5523 5.44772 20 6 20H14C14.5523 20 15 19.5523 15 19V18H10C8.34315 18 7 16.6569 7 15ZM15 4.20712V6.00001C15 7.10458 15.8954 8.00001 17 8.00001H18.7929C19.2383 8.00001 19.4614 7.46144 19.1464 7.14646L15.8536 3.85356C15.5386 3.53858 15 3.76167 15 4.20712Z" fill="#6F767E"/>
</svg>
