<svg width="24" height="24" viewBox="0 0 24 24" fill="none" xmlns="http://www.w3.org/2000/svg">
<path fill-rule="evenodd" clip-rule="evenodd" d="M5 3C5 2.44772 4.55228 2 4 2C3.44772 2 3 2.44772 3 3V21C3 21.5523 3.44772 22 4 22C4.55228 22 5 21.5523 5 21V15H10.0263C10.6712 15 11.3119 15.104 11.9237 15.3079L13.0763 15.6921C13.6881 15.896 14.3288 16 14.9737 16H18C19.6569 16 21 14.6569 21 13V7C21 5.34315 19.6569 4 18 4H14.9737C14.3288 4 13.6881 3.89603 13.0763 3.6921L11.9237 3.3079C11.3119 3.10397 10.6712 3 10.0263 3H5ZM5 5V13H10.0263C10.8862 13 11.7404 13.1386 12.5562 13.4105L13.7088 13.7947C14.1166 13.9307 14.5437 14 14.9737 14H18C18.5523 14 19 13.5523 19 13V7C19 6.44771 18.5523 6 18 6H14.9737C14.1138 6 13.2596 5.86138 12.4438 5.58947L11.2912 5.20527C10.8834 5.06931 10.4563 5 10.0263 5H5Z" fill="#6F767E"/>
</svg>
