<svg width="24" height="24" viewBox="0 0 24 24" fill="none" xmlns="http://www.w3.org/2000/svg">
<path fill-rule="evenodd" clip-rule="evenodd" d="M7.81235 11.8499C7.93095 11.9448 8 12.0884 8 12.2403V19C8 20.6569 9.34315 22 11 22H13C14.6569 22 16 20.6569 16 19V12.2403C16 12.0884 16.069 11.9448 16.1877 11.8499L17.7494 10.6005C18.2238 10.2209 18.5 9.64632 18.5 9.03875V8C18.5 7.44772 18.0523 7 17.5 7H6.5C5.94772 7 5.5 7.44772 5.5 8V9.03875C5.5 9.64632 5.77618 10.2209 6.25061 10.6005L7.81235 11.8499ZM13 14C13 13.4477 12.5523 13 12 13C11.4477 13 11 13.4477 11 14V16C11 16.5523 11.4477 17 12 17C12.5523 17 13 16.5523 13 16V14Z" fill="#6F767E"/>
<path fill-rule="evenodd" clip-rule="evenodd" d="M12 1.5C12.5523 1.5 13 1.94772 13 2.5V3.5C13 4.05228 12.5523 4.5 12 4.5C11.4477 4.5 11 4.05228 11 3.5V2.5C11 1.94772 11.4477 1.5 12 1.5Z" fill="#6F767E"/>
<path fill-rule="evenodd" clip-rule="evenodd" d="M6.05276 2.60579C6.54674 2.3588 7.14741 2.55903 7.3944 3.05301L7.8944 4.05301C8.14139 4.54698 7.94117 5.14766 7.44719 5.39465C6.95321 5.64164 6.35254 5.44141 6.10555 4.94743L5.60555 3.94743C5.35856 3.45345 5.55878 2.85278 6.05276 2.60579Z" fill="#6F767E"/>
<path fill-rule="evenodd" clip-rule="evenodd" d="M17.9472 2.60579C18.4412 2.85278 18.6414 3.45345 18.3944 3.94743L17.8944 4.94743C17.6474 5.44141 17.0467 5.64164 16.5528 5.39465C16.0588 5.14766 15.8586 4.54698 16.1055 4.05301L16.6055 3.05301C16.8525 2.55903 17.4532 2.3588 17.9472 2.60579Z" fill="#6F767E"/>
</svg>
