<svg width="24" height="24" viewBox="0 0 24 24" fill="none" xmlns="http://www.w3.org/2000/svg">
<path fill-rule="evenodd" clip-rule="evenodd" d="M4 13.6502L9.7087 11.9118C10.0118 11.8195 10.3407 11.8763 10.5953 12.0649C10.8499 12.2535 11 12.5516 11 12.8684L11 17C11 17.3148 10.8518 17.6111 10.6 17.8L9 19L9 19.882L11.5528 18.6056C11.8343 18.4648 12.1657 18.4648 12.4472 18.6056L15 19.882L15 19L13.4 17.8C13.1482 17.6111 13 17.3148 13 17L13 12.8684C13 12.5516 13.1501 12.2535 13.4047 12.0649C13.6593 11.8763 13.9882 11.8195 14.2913 11.9118L20 13.6502L20 13.2361C20 12.8573 19.786 12.511 19.4472 12.3416L13.5528 9.39443C13.214 9.22503 13 8.87877 13 8.5L13 4.5C13 3.94772 12.5523 3.5 12 3.5C11.4477 3.5 11 3.94772 11 4.5L11 8.5C11 8.87877 10.786 9.22503 10.4472 9.39443L4.55279 12.3416C4.214 12.511 4 12.8573 4 13.2361L4 13.6502ZM2 15L2 13.2361C2 12.0998 2.64201 11.061 3.65836 10.5528L9 7.88196L9 4.5C9 2.84315 10.3431 1.5 12 1.5C13.6569 1.5 15 2.84315 15 4.5L15 7.88197L20.3416 10.5528C21.358 11.061 22 12.0998 22 13.2361L22 15C22 15.3168 21.8499 15.6149 21.5953 15.8035C21.3407 15.9921 21.0118 16.0489 20.7087 15.9566L15 14.2183L15 16.5L16.2 17.4C16.7036 17.7777 17 18.3705 17 19L17 21.5C17 21.8466 16.8205 22.1684 16.5257 22.3506C16.2309 22.5329 15.8628 22.5494 15.5528 22.3944L12 20.618L8.44721 22.3944C8.13723 22.5494 7.76909 22.5329 7.47427 22.3506C7.17945 22.1684 7 21.8466 7 21.5L7 19C7 18.3705 7.29639 17.7777 7.8 17.4L9 16.5L9 14.2183L3.29131 15.9566C2.98821 16.0489 2.65931 15.9921 2.40473 15.8035C2.15015 15.6149 2 15.3168 2 15Z" fill="#6F767E"/>
</svg>
