<svg width="24" height="24" viewBox="0 0 24 24" fill="none" xmlns="http://www.w3.org/2000/svg">
<path fill-rule="evenodd" clip-rule="evenodd" d="M2.5 15L2.5 13.2361C2.5 12.2891 3.03501 11.4235 3.88197 11L9.22361 8.32918C9.393 8.24448 9.5 8.07135 9.5 7.88197L9.5 4.5C9.5 3.11929 10.6193 2 12 2C13.3807 2 14.5 3.11929 14.5 4.5L14.5 7.88197C14.5 8.07135 14.607 8.24448 14.7764 8.32918L20.118 11C20.965 11.4235 21.5 12.2891 21.5 13.2361L21.5 15C21.5 15.1584 21.4249 15.3075 21.2976 15.4018C21.1703 15.4961 21.0059 15.5245 20.8543 15.4783L14.8228 13.6416C14.6622 13.5927 14.5 13.7129 14.5 13.8808L14.5 16.5C14.5 16.6574 14.5741 16.8056 14.7 16.9L15.9 17.8C16.2777 18.0833 16.5 18.5279 16.5 19L16.5 21.5C16.5 21.6733 16.4103 21.8342 16.2629 21.9253C16.1155 22.0164 15.9314 22.0247 15.7764 21.9472L12 20.059L8.22361 21.9472C8.06861 22.0247 7.88454 22.0164 7.73713 21.9253C7.58973 21.8342 7.5 21.6733 7.5 21.5L7.5 19C7.5 18.5279 7.72229 18.0833 8.1 17.8L9.3 16.9C9.4259 16.8056 9.5 16.6574 9.5 16.5L9.5 13.8808C9.5 13.7129 9.33779 13.5927 9.17717 13.6416L3.14565 15.4783C2.99411 15.5245 2.82966 15.4961 2.70236 15.4018C2.57507 15.3075 2.5 15.1584 2.5 15Z" fill="#6F767E"/>
</svg>
