<svg width="24" height="24" viewBox="0 0 24 24" fill="none" xmlns="http://www.w3.org/2000/svg">
<path d="M13 10C13 9.44772 12.5523 9 12 9C11.4477 9 11 9.44772 11 10L11 12H9C8.44772 12 8 12.4477 8 13C8 13.5523 8.44772 14 9 14H11L11 16C11 16.5523 11.4477 17 12 17C12.5523 17 13 16.5523 13 16L13 14H15C15.5523 14 16 13.5523 16 13C16 12.4477 15.5523 12 15 12H13L13 10Z" fill="#6F767E"/>
<path fill-rule="evenodd" clip-rule="evenodd" d="M11 7C10.4696 7 9.96086 6.78929 9.58579 6.41421L8.46447 5.29289C8.27693 5.10536 8.02258 5 7.75736 5H5C4.44772 5 4 5.44772 4 6V18C4 18.5523 4.44772 19 5 19H19C19.5523 19 20 18.5523 20 18V8C20 7.44772 19.5523 7 19 7H11ZM11 5H19C20.6569 5 22 6.34315 22 8V18C22 19.6569 20.6569 21 19 21H5C3.34315 21 2 19.6569 2 18V6C2 4.34315 3.34315 3 5 3H7.75736C8.55301 3 9.31607 3.31607 9.87868 3.87868L11 5Z" fill="#6F767E"/>
</svg>
