<svg width="24" height="24" viewBox="0 0 24 24" fill="none" xmlns="http://www.w3.org/2000/svg">
<path fill-rule="evenodd" clip-rule="evenodd" d="M12 22C17.5228 22 22 17.5228 22 12C22 6.47715 17.5228 2 12 2C6.47715 2 2 6.47715 2 12C2 17.5228 6.47715 22 12 22ZM8.7996 16.6006C8.46789 17.0422 7.84102 17.1313 7.39944 16.7995C6.95787 16.4678 6.86881 15.841 7.20052 15.3994C8.2934 13.9445 10.0364 13 12 13C13.9637 13 15.7067 13.9445 16.7996 15.3994C17.1313 15.841 17.0422 16.4678 16.6007 16.7995C16.1591 17.1313 15.5322 17.0422 15.2005 16.6006C14.469 15.6268 13.3079 15 12 15C10.6922 15 9.53115 15.6268 8.7996 16.6006ZM7.29289 8.29289C7.68342 7.90237 8.31658 7.90237 8.70711 8.29289L9.20711 8.79289C9.59763 9.18342 9.59763 9.81658 9.20711 10.2071C8.81658 10.5976 8.18342 10.5976 7.79289 10.2071L7.29289 9.70711C6.90237 9.31658 6.90237 8.68342 7.29289 8.29289ZM15.2929 8.29289C15.6834 7.90237 16.3166 7.90237 16.7071 8.29289C17.0976 8.68342 17.0976 9.31658 16.7071 9.70711L16.2071 10.2071C15.8166 10.5976 15.1834 10.5976 14.7929 10.2071C14.4024 9.81658 14.4024 9.18342 14.7929 8.79289L15.2929 8.29289Z" fill="#6F767E"/>
</svg>
