<svg width="24" height="24" viewBox="0 0 24 24" fill="none" xmlns="http://www.w3.org/2000/svg">
<path fill-rule="evenodd" clip-rule="evenodd" d="M12 20C16.4183 20 20 16.4183 20 12C20 7.58172 16.4183 4 12 4C7.58172 4 4 7.58172 4 12C4 16.4183 7.58172 20 12 20ZM12 22C17.5228 22 22 17.5228 22 12C22 6.47715 17.5228 2 12 2C6.47715 2 2 6.47715 2 12C2 17.5228 6.47715 22 12 22Z" fill="#6F767E"/>
<path fill-rule="evenodd" clip-rule="evenodd" d="M7.39938 16.7995C7.84095 17.1313 8.46782 17.0422 8.79954 16.6006C9.53109 15.6268 10.6922 15 12 15C13.3078 15 14.4689 15.6268 15.2005 16.6006C15.5322 17.0422 16.159 17.1313 16.6006 16.7995C17.0422 16.4678 17.1312 15.841 16.7995 15.3994C15.7066 13.9445 13.9636 13 12 13C10.0363 13 8.29334 13.9445 7.20046 15.3994C6.86875 15.841 6.95781 16.4678 7.39938 16.7995Z" fill="#6F767E"/>
<path fill-rule="evenodd" clip-rule="evenodd" d="M7.29289 8.29289C7.68342 7.90237 8.31658 7.90237 8.70711 8.29289L9.20711 8.79289C9.59763 9.18342 9.59763 9.81658 9.20711 10.2071C8.81658 10.5976 8.18342 10.5976 7.79289 10.2071L7.29289 9.70711C6.90237 9.31658 6.90237 8.68342 7.29289 8.29289Z" fill="#6F767E"/>
<path fill-rule="evenodd" clip-rule="evenodd" d="M16.7071 8.29289C16.3166 7.90237 15.6834 7.90237 15.2929 8.29289L14.7929 8.79289C14.4024 9.18342 14.4024 9.81658 14.7929 10.2071C15.1834 10.5976 15.8166 10.5976 16.2071 10.2071L16.7071 9.70711C17.0976 9.31658 17.0976 8.68342 16.7071 8.29289Z" fill="#6F767E"/>
</svg>
