<svg width="24" height="24" viewBox="0 0 24 24" fill="none" xmlns="http://www.w3.org/2000/svg">
<path fill-rule="evenodd" clip-rule="evenodd" d="M7 2C5.34315 2 4 3.34315 4 5V20H3C2.44772 20 2 20.4477 2 21C2 21.5523 2.44772 22 3 22H17C17.5523 22 18 21.5523 18 21C18 20.4477 17.5523 20 17 20H16V14C16.5523 14 17 14.4477 17 15V16.5C17 17.8807 18.1193 19 19.5 19C20.8807 19 22 17.8807 22 16.5V8.41421C22 7.88378 21.7893 7.37507 21.4142 7L19.7071 5.29289C19.3166 4.90237 18.6834 4.90237 18.2929 5.29289C17.9024 5.68342 17.9024 6.31658 18.2929 6.70711L19 7.41421V8.58579C19 9.11622 19.2107 9.62493 19.5858 10L20 10.4142V16.5C20 16.7761 19.7761 17 19.5 17C19.2239 17 19 16.7761 19 16.5V15C19 13.3431 17.6569 12 16 12V5C16 3.34315 14.6569 2 13 2H7ZM7 4C6.44772 4 6 4.44772 6 5V9C6 9.55228 6.44772 10 7 10H13C13.5523 10 14 9.55228 14 9V5C14 4.44772 13.5523 4 13 4H7Z" fill="#6F767E"/>
</svg>
