<svg width="24" height="24" viewBox="0 0 24 24" fill="none" xmlns="http://www.w3.org/2000/svg">
<path d="M17 13C17.5523 13 18 12.5523 18 12C18 11.4477 17.5523 11 17 11C16.4477 11 16 11.4477 16 12C16 12.5523 16.4477 13 17 13Z" fill="#6F767E"/>
<path fill-rule="evenodd" clip-rule="evenodd" d="M13 4C13 3.44772 12.5523 3 12 3C11.4477 3 11 3.44772 11 4V5H6C3.79086 5 2 6.79086 2 9V15C2 17.2091 3.79086 19 6 19H18C20.2091 19 22 17.2091 22 15V9C22 6.79086 20.2091 5 18 5H13V4ZM20 12C20 13.6569 18.6569 15 17 15C15.3431 15 14 13.6569 14 12C14 10.3431 15.3431 9 17 9C18.6569 9 20 10.3431 20 12ZM7 9C7.55228 9 8 9.44772 8 10V11H9C9.55228 11 10 11.4477 10 12C10 12.5523 9.55228 13 9 13H8V14C8 14.5523 7.55228 15 7 15C6.44772 15 6 14.5523 6 14V13H5C4.44772 13 4 12.5523 4 12C4 11.4477 4.44772 11 5 11H6V10C6 9.44772 6.44772 9 7 9Z" fill="#6F767E"/>
</svg>
