<svg width="24" height="24" viewBox="0 0 24 24" fill="none" xmlns="http://www.w3.org/2000/svg">
<path fill-rule="evenodd" clip-rule="evenodd" d="M6.49982 6H4C2.89543 6 2 6.89543 2 8V9C2 10.1046 2.89543 11 4 11H11V8C11 7.44772 11.4477 7 12 7C12.5523 7 13 7.44772 13 8V11H20C21.1046 11 22 10.1046 22 9V8C22 6.89543 21.1046 6 20 6H17.5002C17.814 5.58217 18 5.0628 18 4.5C18 3.11929 16.8807 2 15.5 2H15.2984C14.4777 2 13.7016 2.37306 13.1889 3.01391L12 4.5L10.8111 3.01391C10.2984 2.37306 9.52225 2 8.70156 2H8.5C7.11929 2 6 3.11929 6 4.5C6 5.0628 6.18597 5.58217 6.49982 6ZM9.24939 4.2633L9.83875 5H8.5C8.22386 5 8 4.77614 8 4.5C8 4.22386 8.22386 4 8.5 4H8.70156C8.91468 4 9.11625 4.09688 9.24939 4.2633ZM14.1612 5L14.7506 4.2633C14.8837 4.09688 15.0853 4 15.2984 4H15.5C15.7761 4 16 4.22386 16 4.5C16 4.77614 15.7761 5 15.5 5H14.1612Z" fill="#6F767E"/>
<path d="M11 13H4C3.48809 13 3 13.3726 3 13.8845V19C3 20.6568 4.34315 22 6 22H11V13Z" fill="#6F767E"/>
<path d="M13 22H18C19.6569 22 21 20.6568 21 19V13.8845C21 13.3726 20.5119 13 20 13H13V22Z" fill="#6F767E"/>
</svg>
