<svg width="24" height="24" viewBox="0 0 24 24" fill="none" xmlns="http://www.w3.org/2000/svg">
<path fill-rule="evenodd" clip-rule="evenodd" d="M12 4.5L10.8111 3.01391C10.2984 2.37306 9.52225 2 8.70156 2H8.5C7.11929 2 6 3.11929 6 4.5C6 4.67123 6.01722 4.83844 6.05001 5H5C3.34315 5 2 6.34315 2 8V9C2 9.8885 2.38625 10.6868 3 11.2361V19C3 20.6569 4.34315 22 6 22H18C19.6569 22 21 20.6569 21 19V11.2361C21.6137 10.6868 22 9.8885 22 9V8C22 6.34315 20.6569 5 19 5H17.95C17.9828 4.83844 18 4.67123 18 4.5C18 3.11929 16.8807 2 15.5 2H15.2984C14.4777 2 13.7016 2.37306 13.1889 3.01391L12 4.5ZM14.1612 5H15.5C15.7761 5 16 4.77614 16 4.5C16 4.22386 15.7761 4 15.5 4H15.2984C15.0853 4 14.8837 4.09688 14.7506 4.2633L14.1612 5ZM5 7C4.44772 7 4 7.44772 4 8V9C4 9.55229 4.44772 10 5 10H11V7H5ZM13 7V10H19C19.5523 10 20 9.55228 20 9V8C20 7.44771 19.5523 7 19 7H13ZM8 4.5C8 4.77614 8.22386 5 8.5 5H9.83875L9.24939 4.2633C9.11625 4.09688 8.91468 4 8.70156 4H8.5C8.22386 4 8 4.22386 8 4.5ZM5 12L5 19C5 19.5523 5.44772 20 6 20H11V12H5ZM13 20V12H19V19C19 19.5523 18.5523 20 18 20H13Z" fill="#6F767E"/>
</svg>
