<svg width="24" height="24" viewBox="0 0 24 24" fill="none" xmlns="http://www.w3.org/2000/svg">
<path fill-rule="evenodd" clip-rule="evenodd" d="M2 5C2 3.34315 3.34315 2 5 2H19C20.6569 2 22 3.34315 22 5V19C22 20.6569 20.6569 22 19 22H5C3.34315 22 2 20.6569 2 19V5ZM16 4H19C19.5523 4 20 4.44771 20 5V8H16V4ZM14 4H10V8H14V4ZM8 4H5C4.44771 4 4 4.44772 4 5V8H8V4ZM4 10V14H8V10H4ZM4 16V19C4 19.5523 4.44772 20 5 20H8V16H4ZM10 20H14V16H10V20ZM16 20H19C19.5523 20 20 19.5523 20 19V16H16V20ZM20 14V10H16V14H20ZM14 10V14H10V10H14Z" fill="#6F767E"/>
</svg>
