<svg width="24" height="24" viewBox="0 0 24 24" fill="none" xmlns="http://www.w3.org/2000/svg">
<path d="M1 17V20C1 20.5523 1.44772 21 2 21H16C16.5523 21 17 20.5523 17 20V17C17 14.7909 15.2091 13 13 13H5C2.79086 13 1 14.7909 1 17Z" fill="#6F767E"/>
<path d="M18.984 20.3118C18.9486 20.655 19.1913 21 19.5363 21H22C22.5523 21 23 20.5523 23 20V17C23 14.7909 21.2092 13 19 13H18.0315C17.8154 13 17.6968 13.2597 17.8254 13.4334C18.5635 14.4304 19 15.6642 19 17V20C19 20.1053 18.9946 20.2093 18.984 20.3118Z" fill="#6F767E"/>
<path d="M13 7C13 9.20914 11.2091 11 9 11C6.79086 11 5 9.20914 5 7C5 4.79086 6.79086 3 9 3C11.2091 3 13 4.79086 13 7Z" fill="#6F767E"/>
<path d="M14.3508 10.9476C14.01 10.892 13.8938 10.4893 14.0781 10.1973C14.6621 9.2717 15 8.17531 15 7C15 5.82469 14.6621 4.7283 14.0781 3.80271C13.8938 3.51073 14.01 3.10804 14.3508 3.05242C14.5621 3.01793 14.7789 3 15 3C17.2091 3 19 4.79086 19 7C19 9.20914 17.2091 11 15 11C14.7789 11 14.5621 10.9821 14.3508 10.9476Z" fill="#6F767E"/>
</svg>
