<svg width="24" height="24" viewBox="0 0 24 24" fill="none" xmlns="http://www.w3.org/2000/svg">
<path fill-rule="evenodd" clip-rule="evenodd" d="M3 2C3.55228 2 4 2.44772 4 3V19C4 19.5523 4.44772 20 5 20H21C21.5523 20 22 20.4477 22 21C22 21.5523 21.5523 22 21 22H5C3.34315 22 2 20.6569 2 19V3C2 2.44772 2.44772 2 3 2Z" fill="#6F767E"/>
<path d="M17 6.5C16.4477 6.5 16 6.94772 16 7.5C16 8.05228 16.4477 8.5 17 8.5H18.5858L14.5 12.5858L11.9142 10C11.1332 9.21895 9.86684 9.21895 9.08579 10L6.29289 12.7929C5.90237 13.1834 5.90237 13.8166 6.29289 14.2071C6.68342 14.5976 7.31658 14.5976 7.70711 14.2071L10.5 11.4142L13.0858 14C13.8668 14.781 15.1332 14.781 15.9142 14L20 9.91421V11.5C20 12.0523 20.4477 12.5 21 12.5C21.5523 12.5 22 12.0523 22 11.5V7.5C22 6.94772 21.5523 6.5 21 6.5H17Z" fill="#6F767E"/>
</svg>
