<svg width="24" height="24" viewBox="0 0 24 24" fill="none" xmlns="http://www.w3.org/2000/svg">
<path fill-rule="evenodd" clip-rule="evenodd" d="M10.7983 3.04554C11.3254 3.21028 11.6192 3.77115 11.4545 4.2983L10.6102 7H16.5148L17.5455 3.70175C17.7103 3.1746 18.2712 2.88081 18.7983 3.04554C19.3254 3.21028 19.6192 3.77115 19.4545 4.2983L18.6102 7H20.5C21.0523 7 21.5 7.44772 21.5 8C21.5 8.55228 21.0523 9 20.5 9H17.9852L16.1102 15H18.5C19.0523 15 19.5 15.4477 19.5 16C19.5 16.5523 19.0523 17 18.5 17H15.4852L14.4545 20.2983C14.2898 20.8254 13.7289 21.1192 13.2017 20.9545C12.6746 20.7898 12.3808 20.2289 12.5455 19.7017L13.3898 17H7.48522L6.4545 20.2983C6.28977 20.8254 5.72889 21.1192 5.20175 20.9545C4.6746 20.7898 4.38081 20.2289 4.54554 19.7017L5.38984 17H3.5C2.94772 17 2.5 16.5523 2.5 16C2.5 15.4477 2.94772 15 3.5 15H6.01484L7.88984 9H5.5C4.94772 9 4.5 8.55228 4.5 8C4.5 7.44772 4.94772 7 5.5 7H8.51484L9.54554 3.70175C9.71028 3.1746 10.2712 2.88081 10.7983 3.04554ZM14.0148 15L15.8898 9H9.98522L8.11022 15H14.0148Z" fill="#6F767E"/>
</svg>
