<svg width="24" height="24" viewBox="0 0 24 24" fill="none" xmlns="http://www.w3.org/2000/svg">
<path fill-rule="evenodd" clip-rule="evenodd" d="M10.2983 3.04554C10.8254 3.21028 11.1192 3.77115 10.9545 4.2983L10.1102 7H16.0148L17.0455 3.70175C17.2103 3.1746 17.7712 2.88081 18.2983 3.04554C18.8254 3.21028 19.1192 3.77115 18.9545 4.2983L18.1102 7H20C20.5523 7 21 7.44772 21 8C21 8.55228 20.5523 9 20 9H17.4852L15.6102 15H18C18.5523 15 19 15.4477 19 16C19 16.5523 18.5523 17 18 17H14.9852L13.9545 20.2983C13.7898 20.8254 13.2289 21.1192 12.7017 20.9545C12.1746 20.7898 11.8808 20.2289 12.0455 19.7017L12.8898 17H6.98522L5.9545 20.2983C5.78977 20.8254 5.22889 21.1192 4.70175 20.9545C4.1746 20.7898 3.88081 20.2289 4.04554 19.7017L4.88984 17H3C2.44772 17 2 16.5523 2 16C2 15.4477 2.44772 15 3 15H5.51484L7.38984 9H5C4.44772 9 4 8.55228 4 8C4 7.44772 4.44772 7 5 7H8.01484L9.04554 3.70175C9.21028 3.1746 9.77115 2.88081 10.2983 3.04554ZM13.5148 15L15.3898 9H9.48522L7.61022 15H13.5148Z" fill="#6F767E"/>
</svg>
