<svg width="24" height="24" viewBox="0 0 24 24" fill="none" xmlns="http://www.w3.org/2000/svg">
<path fill-rule="evenodd" clip-rule="evenodd" d="M12 4C7.58172 4 4 7.58172 4 12H6C7.65685 12 9 13.3431 9 15V18C9 19.6569 7.65685 21 6 21H5C3.34315 21 2 19.6569 2 18V12C2 6.47715 6.47715 2 12 2C17.5228 2 22 6.47715 22 12V18C22 19.6569 20.6569 21 19 21H18C16.3431 21 15 19.6569 15 18V15C15 13.3431 16.3431 12 18 12H20C20 7.58172 16.4183 4 12 4ZM20 14H18C17.4477 14 17 14.4477 17 15V18C17 18.5523 17.4477 19 18 19H19C19.5523 19 20 18.5523 20 18V14ZM4 14V18C4 18.5523 4.44772 19 5 19H6C6.55228 19 7 18.5523 7 18V15C7 14.4477 6.55228 14 6 14H4Z" fill="#6F767E"/>
</svg>
