<svg xmlns="http://www.w3.org/2000/svg" width="25.238" height="25.238" viewBox="0 0 25.238 25.238"><g transform="translate(-2 -2)"><path d="M22.814,6.757a11.366,11.366,0,0,0-6.885-3.42l-.1.835a10.524,10.524,0,0,1,6.374,3.167Zm-8.6-2.646c.268-.01.541-.01.809,0l.032-.84c-.289-.011-.584-.011-.873,0ZM4.1,14.619a10.505,10.505,0,0,1,9.3-10.447l-.1-.835a11.358,11.358,0,0,0,0,22.564l.1-.835A10.505,10.505,0,0,1,4.1,14.619ZM14.214,25.127l-.032.84c.145.006.29.008.437.008s.292,0,.437-.008l-.032-.84C14.755,25.137,14.483,25.137,14.214,25.127Zm9.659-10.3h1.252a10.5,10.5,0,0,1-9.292,10.237l.1.835A11.343,11.343,0,0,0,25.971,14.829h1.267l-1.683-2.524Zm3.3-11.238a1.892,1.892,0,0,1-1.524-1.524.1.1,0,0,0-.183,0A1.891,1.891,0,0,1,23.94,3.591a.1.1,0,0,0,0,.183A1.891,1.891,0,0,1,25.464,5.3a.1.1,0,0,0,.183,0,1.891,1.891,0,0,1,1.524-1.524A.1.1,0,0,0,27.171,3.591ZM5.3,25.464A1.891,1.891,0,0,1,3.774,23.94a.1.1,0,0,0-.183,0,1.891,1.891,0,0,1-1.524,1.524.1.1,0,0,0,0,.183,1.892,1.892,0,0,1,1.524,1.524.1.1,0,0,0,.183,0A1.891,1.891,0,0,1,5.3,25.647.1.1,0,0,0,5.3,25.464Z" transform="translate(0)" fill="#03716e"/><path d="M11,19.833A8.833,8.833,0,1,0,19.833,11,8.833,8.833,0,0,0,11,19.833Zm4.206-1.683h2.944V15.206h3.365v2.944H24.46v3.365H21.516V24.46H18.151V21.516H15.206Z" transform="translate(-5.214 -5.214)" fill="#03716e"/></g></svg>