<svg width="24" height="24" viewBox="0 0 24 24" fill="none" xmlns="http://www.w3.org/2000/svg">
<path fill-rule="evenodd" clip-rule="evenodd" d="M22 12C22 17.5228 17.5228 22 12 22C6.47715 22 2 17.5228 2 12C2 6.47715 6.47715 2 12 2C17.5228 2 22 6.47715 22 12ZM13 18C13 18.5523 12.5523 19 12 19C11.4477 19 11 18.5523 11 18C11 17.4477 11.4477 17 12 17C12.5523 17 13 17.4477 13 18ZM10.1135 9.33325C10.3886 8.5551 11.1307 8 12 8C13.1045 8 14 8.89543 14 10C14 11.1046 13.1045 12 12 12C11.4477 12 11 12.4477 11 13V14.5C11 15.0523 11.4477 15.5 12 15.5C12.5523 15.5 13 15.0523 13 14.5V13.874C14.7252 13.4299 16 11.8638 16 10C16 7.79086 14.2091 6 12 6C10.2568 6 8.77648 7.11451 8.22784 8.66675C8.0438 9.18747 8.31672 9.75879 8.83744 9.94284C9.35815 10.1269 9.92948 9.85396 10.1135 9.33325Z" fill="#6F767E"/>
</svg>
