<svg width="24" height="24" viewBox="0 0 24 24" fill="none" xmlns="http://www.w3.org/2000/svg">
<path d="M7.50103 6.08517C4.98549 7.38362 3.39313 9.54721 2.60186 10.8666C2.17959 11.5708 2.17959 12.4292 2.60186 13.1334C3.79014 15.1148 6.78504 19 12.0001 19C14.6127 19 16.6682 18.0249 18.2184 16.8025L14.7082 13.2923C14.2254 14.3023 13.1942 15 12.0001 15C10.3432 15 9.00007 13.6569 9.00007 12C9.00007 10.8059 9.69775 9.77469 10.7077 9.29186L7.50103 6.08517Z" fill="#6F767E"/>
<path d="M19.6823 15.438C20.4495 14.6013 21.0169 13.7693 21.3983 13.1334C21.8205 12.4292 21.8205 11.5708 21.3983 10.8666C20.21 8.88521 17.2151 5 12.0001 5C11.1203 5 10.3036 5.11058 9.54823 5.30394L19.6823 15.438Z" fill="#6F767E"/>
<path fill-rule="evenodd" clip-rule="evenodd" d="M2.29289 2.29289C2.68342 1.90237 3.31658 1.90237 3.70711 2.29289L21.7071 20.2929C22.0976 20.6834 22.0976 21.3166 21.7071 21.7071C21.3166 22.0976 20.6834 22.0976 20.2929 21.7071L2.29289 3.70711C1.90237 3.31658 1.90237 2.68342 2.29289 2.29289Z" fill="#6F767E"/>
</svg>
