<svg width="24" height="24" viewBox="0 0 24 24" fill="none" xmlns="http://www.w3.org/2000/svg">
<path d="M20 12C20 7.58172 16.4183 4 12 4C9.48295 4 7.27119 5.1635 5.81776 6.99321L7.49707 6.98829C8.04935 6.98667 8.49838 7.43307 8.5 7.98535C8.50161 8.53763 8.05521 8.98666 7.50293 8.98828L4.06007 8.99836C4.02166 9.00071 3.983 9.00084 3.94428 8.9987L3.50293 9C3.23721 9.00077 2.9821 8.89576 2.79393 8.70814C2.60576 8.52052 2.5 8.26572 2.5 8L2.5 4C2.5 3.44771 2.94772 3 3.5 3C4.05229 3 4.5 3.44772 4.5 4L4.5 5.44947C6.31255 3.34038 8.97702 2 12 2C17.5228 2 22 6.47715 22 12C22 17.5228 17.5228 22 12 22C8.06405 22 4.73586 19.7278 3.10449 16.445C2.8587 15.9505 3.06039 15.3503 3.55497 15.1045C4.04955 14.8587 4.64973 15.0604 4.89551 15.555C6.20955 18.1991 8.86851 20 12 20C16.4183 20 20 16.4183 20 12Z" fill="#6F767E"/>
<path fill-rule="evenodd" clip-rule="evenodd" d="M12 7C12.5523 7 13 7.44772 13 8V11.5858L14.7071 13.2929C15.0976 13.6834 15.0976 14.3166 14.7071 14.7071C14.3166 15.0976 13.6834 15.0976 13.2929 14.7071L11.5858 13C11.2107 12.6249 11 12.1162 11 11.5858V8C11 7.44772 11.4477 7 12 7Z" fill="#6F767E"/>
</svg>
