<svg width="24" height="24" viewBox="0 0 24 24" fill="none" xmlns="http://www.w3.org/2000/svg">
<path d="M12 7C12 5.34315 13.3431 4 15 4H19C20.6569 4 22 5.34315 22 7V17C22 18.6569 20.6569 20 19 20H15C13.3431 20 12 18.6569 12 17V7Z" fill="#6F767E"/>
<path fill-rule="evenodd" clip-rule="evenodd" d="M2 6C2 5.44772 2.44772 5 3 5H9C9.55228 5 10 5.44772 10 6C10 6.55228 9.55228 7 9 7H3C2.44772 7 2 6.55228 2 6Z" fill="#6F767E"/>
<path fill-rule="evenodd" clip-rule="evenodd" d="M2 10C2 9.44772 2.44772 9 3 9H9C9.55228 9 10 9.44772 10 10C10 10.5523 9.55228 11 9 11H3C2.44772 11 2 10.5523 2 10Z" fill="#6F767E"/>
<path fill-rule="evenodd" clip-rule="evenodd" d="M2 14C2 13.4477 2.44772 13 3 13H9C9.55228 13 10 13.4477 10 14C10 14.5523 9.55228 15 9 15H3C2.44772 15 2 14.5523 2 14Z" fill="#6F767E"/>
<path fill-rule="evenodd" clip-rule="evenodd" d="M2 18C2 17.4477 2.44772 17 3 17H9C9.55228 17 10 17.4477 10 18C10 18.5523 9.55228 19 9 19H3C2.44772 19 2 18.5523 2 18Z" fill="#6F767E"/>
</svg>
