<svg width="24" height="24" viewBox="0 0 24 24" fill="none" xmlns="http://www.w3.org/2000/svg">
<path fill-rule="evenodd" clip-rule="evenodd" d="M16 10C17.1046 10 18 9.10457 18 8C18 6.89543 17.1046 6 16 6C14.8954 6 14 6.89543 14 8C14 9.10457 14.8954 10 16 10Z" fill="#6F767E"/>
<path fill-rule="evenodd" clip-rule="evenodd" d="M2 5C2 3.34315 3.34315 2 5 2H19C20.6569 2 22 3.34315 22 5V19C22 20.6569 20.6569 22 19 22H5C3.34315 22 2 20.6569 2 19V5ZM5 4H19C19.5523 4 20 4.44771 20 5V19C20 19.2279 19.9238 19.438 19.7954 19.6061C19.7648 19.5653 19.7316 19.5254 19.6959 19.4864L10.569 9.52987C9.34177 8.19102 7.21566 8.24121 6.05292 9.63649L4 12.1V5C4 4.44772 4.44771 4 5 4ZM4 15.2241V19C4 19.5523 4.44772 20 5 20H17.4535L9.09474 10.8813C8.68565 10.435 7.97694 10.4518 7.58937 10.9169L4 15.2241Z" fill="#6F767E"/>
</svg>
