<svg width="24" height="24" viewBox="0 0 24 24" fill="none" xmlns="http://www.w3.org/2000/svg">
<path fill-rule="evenodd" clip-rule="evenodd" d="M2 5C2 3.34315 3.34315 2 5 2H19C20.6569 2 22 3.34315 22 5V19C22 20.6569 20.6569 22 19 22H5C3.34315 22 2 20.6569 2 19V5ZM19.0831 19.9966C19.5656 19.9569 19.5575 19.3462 19.2305 18.9891L10.569 9.52987C9.34177 8.19102 7.21566 8.24121 6.05292 9.63649L4.23178 11.8219C4.08202 12.0016 4 12.2281 4 12.462V19C4 19.5523 4.44772 20 5 20H19C19.028 20 19.0557 19.9988 19.0831 19.9966ZM17 9C18.1046 9 19 8.10457 19 7C19 5.89543 18.1046 5 17 5C15.8954 5 15 5.89543 15 7C15 8.10457 15.8954 9 17 9Z" fill="#6F767E"/>
</svg>
