<svg width="24" height="24" viewBox="0 0 24 24" fill="none" xmlns="http://www.w3.org/2000/svg">
<path fill-rule="evenodd" clip-rule="evenodd" d="M22 13.1468C22 13.0976 21.9964 13.0485 21.9892 13C21.9821 12.9525 21.9717 12.9055 21.9578 12.8594L19.6414 5.13796C19.2607 3.869 18.0927 3 16.7679 3H7.23209C5.90727 3 4.7393 3.869 4.35861 5.13796L2.04217 12.8594C2.02834 12.9055 2.01788 12.9525 2.01083 13C2.00363 13.0485 2 13.0976 2 13.1468V18C2 19.6569 3.34315 21 5 21H19C20.6569 21 22 19.6569 22 18V13.1468ZM16.7679 5H7.23209C6.79048 5 6.40116 5.28967 6.27427 5.71265L4.08806 13H8.38197C8.76074 13 9.107 13.214 9.27639 13.5528L9.99724 14.9945C9.99893 14.9979 10.0024 15 10.0062 15H13.9938C13.9976 15 14.0011 14.9979 14.0028 14.9945L14.7236 13.5528C14.893 13.214 15.2393 13 15.618 13H19.9119L17.7257 5.71265C17.5988 5.28967 17.2095 5 16.7679 5ZM20 15H16.2361L15.7916 15.8889C15.4511 16.5698 14.7552 17 13.9938 17H10.0062C9.24487 17 8.54887 16.5699 8.20838 15.8889L7.76393 15H4V18C4 18.5523 4.44772 19 5 19H19C19.5523 19 20 18.5523 20 18V15Z" fill="#6F767E"/>
</svg>
