<svg width="24" height="24" viewBox="0 0 24 24" fill="none" xmlns="http://www.w3.org/2000/svg">
<path d="M15 12C15 12.5288 14.9816 13.0447 14.9466 13.5452C14.9286 13.803 14.7121 14 14.4536 14H9.54637C9.28788 14 9.07137 13.803 9.05336 13.5452C9.01841 13.0447 9 12.5288 9 12C9 11.4712 9.01841 10.9553 9.05336 10.4549C9.07137 10.197 9.28788 10 9.54637 10H14.4536C14.7121 10 14.9286 10.197 14.9466 10.4549C14.9816 10.9553 15 11.4712 15 12Z" fill="#6F767E"/>
<path d="M17.461 10C17.1685 10 16.9389 10.2501 16.9565 10.5421C16.9852 11.0191 17 11.5057 17 12C17 12.4943 16.9852 12.9809 16.9565 13.4579C16.9389 13.75 17.1685 14 17.461 14H21.3913C21.6291 14 21.8353 13.8327 21.873 13.5979C21.9566 13.0776 22 12.5439 22 12C22 11.4561 21.9566 10.9224 21.873 10.4021C21.8353 10.1673 21.6291 10 21.3913 10H17.461Z" fill="#6F767E"/>
<path d="M20.8354 7.31217C21.0046 7.63045 20.7643 8 20.4038 8H17.0782C16.8358 8 16.6289 7.82577 16.5816 7.58802C16.2683 6.01571 15.7927 4.63554 15.2014 3.5501C14.9695 3.12443 15.3569 2.56482 15.8051 2.74939C17.9658 3.63911 19.7463 5.26381 20.8354 7.31217Z" fill="#6F767E"/>
<path d="M14.4955 7.40503C14.5678 7.71177 14.3308 8 14.0156 8H9.98438C9.66925 8 9.43221 7.71177 9.50445 7.40503C9.71454 6.51304 9.98085 5.719 10.2852 5.04944C11.129 3.19312 11.8858 3 12 3C12.1142 3 12.871 3.19312 13.7148 5.04944C14.0191 5.719 14.2855 6.51304 14.4955 7.40503Z" fill="#6F767E"/>
<path d="M6.92179 8C7.16422 8 7.37106 7.82577 7.41843 7.58802C7.73171 6.01571 8.20731 4.63554 8.79859 3.5501C9.03048 3.12443 8.64314 2.56482 8.19492 2.74939C6.03423 3.63911 4.25369 5.26381 3.16462 7.31217C2.9954 7.63045 3.23572 8 3.59619 8H6.92179Z" fill="#6F767E"/>
<path d="M2.60874 10C2.37094 10 2.16468 10.1673 2.12698 10.4021C2.04342 10.9224 2 11.4561 2 12C2 12.5439 2.04342 13.0776 2.12698 13.5979C2.16468 13.8327 2.37094 14 2.60874 14H6.53896C6.83151 14 7.06111 13.75 7.04353 13.4579C7.01482 12.9809 7 12.4943 7 12C7 11.5057 7.01482 11.0191 7.04353 10.5421C7.06111 10.2501 6.83151 10 6.53896 10H2.60874Z" fill="#6F767E"/>
<path d="M10.2852 18.9506C9.98085 18.281 9.71454 17.487 9.50445 16.595C9.43221 16.2882 9.66925 16 9.98438 16H14.0156C14.3308 16 14.5678 16.2882 14.4955 16.595C14.2855 17.487 14.0191 18.281 13.7148 18.9506C12.871 20.8069 12.1142 21 12 21C11.8858 21 11.129 20.8069 10.2852 18.9506Z" fill="#6F767E"/>
<path d="M7.41843 16.412C7.37106 16.1742 7.16423 16 6.9218 16H3.59619C3.23572 16 2.99539 16.3696 3.16462 16.6878C4.25369 18.7362 6.03423 20.3609 8.19492 21.2506C8.64314 21.4352 9.03047 20.8756 8.79859 20.4499C8.20731 19.3645 7.73171 17.9843 7.41843 16.412Z" fill="#6F767E"/>
<path d="M20.8354 16.6878C21.0046 16.3696 20.7643 16 20.4038 16H17.0782C16.8358 16 16.6289 16.1742 16.5816 16.412C16.2683 17.9843 15.7927 19.3645 15.2014 20.4499C14.9695 20.8756 15.3569 21.4352 15.8051 21.2506C17.9658 20.3609 19.7463 18.7362 20.8354 16.6878Z" fill="#6F767E"/>
</svg>
