<?xml version="1.0" standalone="no"?>
<!DOCTYPE svg PUBLIC "-//W3C//DTD SVG 20010904//EN"
 "http://www.w3.org/TR/2001/REC-SVG-20010904/DTD/svg10.dtd">
<svg version="1.0" xmlns="http://www.w3.org/2000/svg"
 width="64.000000pt" height="64.000000pt" viewBox="0 0 64.000000 64.000000"
 preserveAspectRatio="xMidYMid meet">

<g transform="translate(0.000000,64.000000) scale(0.100000,-0.100000)"
fill="#000000" stroke="none">
<path d="M229 606 c-50 -34 -71 -85 -73 -169 -1 -92 15 -107 120 -107 73 0 74
-1 74 -25 0 -14 -8 -37 -17 -51 -14 -21 -15 -31 -5 -56 8 -21 8 -36 0 -53 -8
-18 -8 -32 2 -55 10 -24 10 -33 0 -45 -26 -32 -35 -9 -40 106 -4 92 -8 114
-20 114 -12 0 -16 -17 -18 -80 -5 -117 4 -164 33 -177 19 -9 30 -7 50 6 34 22
41 42 27 78 -8 22 -8 36 0 54 8 18 8 31 -1 50 -10 22 -9 30 3 43 8 9 17 33 21
54 6 29 12 37 29 37 12 0 32 7 44 16 20 13 22 24 22 96 0 92 -18 133 -74 167
-49 30 -130 29 -177 -3z m161 -23 c46 -27 62 -68 58 -148 l-3 -70 -125 0 -125
0 -3 78 -3 78 39 40 c35 34 45 39 87 39 26 0 60 -7 75 -17z"/>
<path d="M272 508 c3 -7 23 -14 46 -16 33 -2 42 0 42 12 0 12 -11 16 -46 16
-32 0 -44 -4 -42 -12z"/>
</g>
</svg>
