<svg width="24" height="24" viewBox="0 0 24 24" fill="none" xmlns="http://www.w3.org/2000/svg">
<path d="M11.6683 14.4993C11.4896 14.1903 11.1597 14 10.8027 14H5.41427L3.41406 11.9998L5.413 10H10.8027C11.1597 10 11.4896 9.80972 11.6683 9.50073C12.5344 8.00361 14.1506 7 16 7C18.7614 7 21 9.23858 21 12C21 14.7614 18.7614 17 16 17C14.1506 17 12.5344 15.9964 11.6683 14.4993Z" stroke="#6F767E" stroke-width="2" stroke-linecap="round" stroke-linejoin="round"/>
<path d="M17 12C17 12.5523 16.5523 13 16 13C15.4477 13 15 12.5523 15 12C15 11.4477 15.4477 11 16 11C16.5523 11 17 11.4477 17 12Z" stroke="#6F767E" stroke-width="2"/>
</svg>
