<svg width="24" height="24" viewBox="0 0 24 24" fill="none" xmlns="http://www.w3.org/2000/svg">
<path fill-rule="evenodd" clip-rule="evenodd" d="M16 18C19.3137 18 22 15.3137 22 12C22 8.68629 19.3137 6 16 6C13.7792 6 11.8401 7.2066 10.8027 9H5.413C5.14771 9 4.89329 9.10542 4.70574 9.29305L2.7068 11.2929C2.31642 11.6834 2.31649 12.3165 2.70696 12.7069L4.70717 14.7071C4.8947 14.8946 5.14906 15 5.41427 15H10.8027C11.8401 16.7934 13.7792 18 16 18ZM18 12C18 13.1046 17.1046 14 16 14C14.8954 14 14 13.1046 14 12C14 10.8954 14.8954 10 16 10C17.1046 10 18 10.8954 18 12Z" fill="#6F767E"/>
</svg>
