<svg width="24" height="24" viewBox="0 0 24 24" fill="none" xmlns="http://www.w3.org/2000/svg">
<path fill-rule="evenodd" clip-rule="evenodd" d="M19 7H5C4.44772 7 4 7.44772 4 8V16C4 16.5523 4.44772 17 5 17H19C19.5523 17 20 16.5523 20 16V8C20 7.44772 19.5523 7 19 7ZM5 5C3.34315 5 2 6.34315 2 8V16C2 17.6569 3.34315 19 5 19H19C20.6569 19 22 17.6569 22 16V8C22 6.34315 20.6569 5 19 5H5Z" fill="#6F767E"/>
<path fill-rule="evenodd" clip-rule="evenodd" d="M8 15C8 14.4477 8.44772 14 9 14H15C15.5523 14 16 14.4477 16 15C16 15.5523 15.5523 16 15 16H9C8.44772 16 8 15.5523 8 15Z" fill="#6F767E"/>
<path d="M5 9C5 8.44772 5.44772 8 6 8C6.55228 8 7 8.44772 7 9C7 9.55228 6.55228 10 6 10C5.44772 10 5 9.55228 5 9Z" fill="#6F767E"/>
<path d="M5 12C5 11.4477 5.44772 11 6 11C6.55228 11 7 11.4477 7 12C7 12.5523 6.55228 13 6 13C5.44772 13 5 12.5523 5 12Z" fill="#6F767E"/>
<path d="M8 12C8 11.4477 8.44772 11 9 11C9.55228 11 10 11.4477 10 12C10 12.5523 9.55228 13 9 13C8.44772 13 8 12.5523 8 12Z" fill="#6F767E"/>
<path d="M11 12C11 11.4477 11.4477 11 12 11C12.5523 11 13 11.4477 13 12C13 12.5523 12.5523 13 12 13C11.4477 13 11 12.5523 11 12Z" fill="#6F767E"/>
<path d="M14 12C14 11.4477 14.4477 11 15 11C15.5523 11 16 11.4477 16 12C16 12.5523 15.5523 13 15 13C14.4477 13 14 12.5523 14 12Z" fill="#6F767E"/>
<path d="M17 12C17 11.4477 17.4477 11 18 11C18.5523 11 19 11.4477 19 12C19 12.5523 18.5523 13 18 13C17.4477 13 17 12.5523 17 12Z" fill="#6F767E"/>
<path d="M5 15C5 14.4477 5.44772 14 6 14C6.55228 14 7 14.4477 7 15C7 15.5523 6.55228 16 6 16C5.44772 16 5 15.5523 5 15Z" fill="#6F767E"/>
<path d="M17 15C17 14.4477 17.4477 14 18 14C18.5523 14 19 14.4477 19 15C19 15.5523 18.5523 16 18 16C17.4477 16 17 15.5523 17 15Z" fill="#6F767E"/>
<path d="M8 9C8 8.44772 8.44772 8 9 8C9.55228 8 10 8.44772 10 9C10 9.55228 9.55228 10 9 10C8.44772 10 8 9.55228 8 9Z" fill="#6F767E"/>
<path d="M11 9C11 8.44772 11.4477 8 12 8C12.5523 8 13 8.44772 13 9C13 9.55228 12.5523 10 12 10C11.4477 10 11 9.55228 11 9Z" fill="#6F767E"/>
<path d="M14 9C14 8.44772 14.4477 8 15 8C15.5523 8 16 8.44772 16 9C16 9.55228 15.5523 10 15 10C14.4477 10 14 9.55228 14 9Z" fill="#6F767E"/>
<path d="M17 9C17 8.44772 17.4477 8 18 8C18.5523 8 19 8.44772 19 9C19 9.55228 18.5523 10 18 10C17.4477 10 17 9.55228 17 9Z" fill="#6F767E"/>
</svg>
