<svg width="24" height="24" viewBox="0 0 24 24" fill="none" xmlns="http://www.w3.org/2000/svg">
<path fill-rule="evenodd" clip-rule="evenodd" d="M5 5C3.34315 5 2 6.34315 2 8V16C2 17.6569 3.34315 19 5 19H19C20.6569 19 22 17.6569 22 16V8C22 6.34315 20.6569 5 19 5H5ZM5 11C4.44772 11 4 11.4477 4 12C4 12.5523 4.44772 13 5 13C5.55228 13 6 12.5523 6 12C6 11.4477 5.55228 11 5 11ZM7.5 12C7.5 11.4477 7.94772 11 8.5 11C9.05228 11 9.5 11.4477 9.5 12C9.5 12.5523 9.05228 13 8.5 13C7.94772 13 7.5 12.5523 7.5 12ZM12 11C11.4477 11 11 11.4477 11 12C11 12.5523 11.4477 13 12 13C12.5523 13 13 12.5523 13 12C13 11.4477 12.5523 11 12 11ZM14.5 12C14.5 11.4477 14.9477 11 15.5 11C16.0523 11 16.5 11.4477 16.5 12C16.5 12.5523 16.0523 13 15.5 13C14.9477 13 14.5 12.5523 14.5 12ZM19 11C18.4477 11 18 11.4477 18 12C18 12.5523 18.4477 13 19 13C19.5523 13 20 12.5523 20 12C20 11.4477 19.5523 11 19 11ZM7.5 15.5C7.5 14.9477 7.94772 14.5 8.5 14.5H15.5C16.0523 14.5 16.5 14.9477 16.5 15.5C16.5 16.0523 16.0523 16.5 15.5 16.5H8.5C7.94772 16.5 7.5 16.0523 7.5 15.5ZM5 14.5C4.44772 14.5 4 14.9477 4 15.5C4 16.0523 4.44772 16.5 5 16.5C5.55228 16.5 6 16.0523 6 15.5C6 14.9477 5.55228 14.5 5 14.5ZM18 15.5C18 14.9477 18.4477 14.5 19 14.5C19.5523 14.5 20 14.9477 20 15.5C20 16.0523 19.5523 16.5 19 16.5C18.4477 16.5 18 16.0523 18 15.5ZM5 7.5C4.44772 7.5 4 7.94772 4 8.5C4 9.05228 4.44772 9.5 5 9.5C5.55228 9.5 6 9.05228 6 8.5C6 7.94772 5.55228 7.5 5 7.5ZM7.5 8.5C7.5 7.94772 7.94772 7.5 8.5 7.5C9.05228 7.5 9.5 7.94772 9.5 8.5C9.5 9.05228 9.05228 9.5 8.5 9.5C7.94772 9.5 7.5 9.05228 7.5 8.5ZM12 7.5C11.4477 7.5 11 7.94772 11 8.5C11 9.05228 11.4477 9.5 12 9.5C12.5523 9.5 13 9.05228 13 8.5C13 7.94772 12.5523 7.5 12 7.5ZM14.5 8.5C14.5 7.94772 14.9477 7.5 15.5 7.5C16.0523 7.5 16.5 7.94772 16.5 8.5C16.5 9.05228 16.0523 9.5 15.5 9.5C14.9477 9.5 14.5 9.05228 14.5 8.5ZM19 7.5C18.4477 7.5 18 7.94772 18 8.5C18 9.05228 18.4477 9.5 19 9.5C19.5523 9.5 20 9.05228 20 8.5C20 7.94772 19.5523 7.5 19 7.5Z" fill="#6F767E"/>
</svg>
