<svg width="24" height="24" viewBox="0 0 24 24" fill="none" xmlns="http://www.w3.org/2000/svg">
<path d="M8.5 4.5C8.5 5.32843 7.82843 6 7 6C6.17157 6 5.5 5.32843 5.5 4.5C5.5 3.67157 6.17157 3 7 3C7.82843 3 8.5 3.67157 8.5 4.5Z" fill="#6F767E"/>
<path d="M8.5 9.5C8.5 10.3284 7.82843 11 7 11C6.17157 11 5.5 10.3284 5.5 9.5C5.5 8.67157 6.17157 8 7 8C7.82843 8 8.5 8.67157 8.5 9.5Z" fill="#6F767E"/>
<path d="M8.5 14.5C8.5 15.3284 7.82843 16 7 16C6.17157 16 5.5 15.3284 5.5 14.5C5.5 13.6716 6.17157 13 7 13C7.82843 13 8.5 13.6716 8.5 14.5Z" fill="#6F767E"/>
<path d="M13.5 4.5C13.5 5.32843 12.8284 6 12 6C11.1716 6 10.5 5.32843 10.5 4.5C10.5 3.67157 11.1716 3 12 3C12.8284 3 13.5 3.67157 13.5 4.5Z" fill="#6F767E"/>
<path d="M13.5 9.5C13.5 10.3284 12.8284 11 12 11C11.1716 11 10.5 10.3284 10.5 9.5C10.5 8.67157 11.1716 8 12 8C12.8284 8 13.5 8.67157 13.5 9.5Z" fill="#6F767E"/>
<path d="M13.5 14.5C13.5 15.3284 12.8284 16 12 16C11.1716 16 10.5 15.3284 10.5 14.5C10.5 13.6716 11.1716 13 12 13C12.8284 13 13.5 13.6716 13.5 14.5Z" fill="#6F767E"/>
<path d="M13.5 19.5C13.5 20.3284 12.8284 21 12 21C11.1716 21 10.5 20.3284 10.5 19.5C10.5 18.6716 11.1716 18 12 18C12.8284 18 13.5 18.6716 13.5 19.5Z" fill="#6F767E"/>
<path d="M18.5 4.5C18.5 5.32843 17.8284 6 17 6C16.1716 6 15.5 5.32843 15.5 4.5C15.5 3.67157 16.1716 3 17 3C17.8284 3 18.5 3.67157 18.5 4.5Z" fill="#6F767E"/>
<path d="M18.5 9.5C18.5 10.3284 17.8284 11 17 11C16.1716 11 15.5 10.3284 15.5 9.5C15.5 8.67157 16.1716 8 17 8C17.8284 8 18.5 8.67157 18.5 9.5Z" fill="#6F767E"/>
<path d="M18.5 14.5C18.5 15.3284 17.8284 16 17 16C16.1716 16 15.5 15.3284 15.5 14.5C15.5 13.6716 16.1716 13 17 13C17.8284 13 18.5 13.6716 18.5 14.5Z" fill="#6F767E"/>
</svg>
