<svg width="24" height="24" viewBox="0 0 24 24" fill="none" xmlns="http://www.w3.org/2000/svg">
<path fill-rule="evenodd" clip-rule="evenodd" d="M19 5H5C4.44772 5 4 5.44772 4 6V15C4 15.5523 4.44772 16 5 16H19C19.5523 16 20 15.5523 20 15V6C20 5.44771 19.5523 5 19 5ZM5 3C3.34315 3 2 4.34315 2 6V15C2 16.6569 3.34315 18 5 18H19C20.6569 18 22 16.6569 22 15V6C22 4.34315 20.6569 3 19 3H5Z" fill="#6F767E"/>
<path fill-rule="evenodd" clip-rule="evenodd" d="M1 20C1 19.4477 1.44772 19 2 19H22C22.5523 19 23 19.4477 23 20C23 20.5523 22.5523 21 22 21H2C1.44772 21 1 20.5523 1 20Z" fill="#6F767E"/>
</svg>
