<svg width="24" height="24" viewBox="0 0 24 24" fill="none" xmlns="http://www.w3.org/2000/svg">
<path fill-rule="evenodd" clip-rule="evenodd" d="M12 20C16.4183 20 20 16.4183 20 12C20 7.58172 16.4183 4 12 4C7.58172 4 4 7.58172 4 12C4 16.4183 7.58172 20 12 20ZM12 22C17.5228 22 22 17.5228 22 12C22 6.47715 17.5228 2 12 2C6.47715 2 2 6.47715 2 12C2 17.5228 6.47715 22 12 22Z" fill="#6F767E"/>
<path fill-rule="evenodd" clip-rule="evenodd" d="M6.69423 12.3079C6.88283 12.1112 7.14352 12 7.41602 12H16.5839C16.8564 12 17.1171 12.1112 17.3057 12.3079C17.4943 12.5046 17.5945 12.7697 17.5831 13.0419C17.5318 14.2638 17.0621 15.5118 16.1095 16.4591C15.1454 17.4178 13.7559 18 12 18C10.2441 18 8.85455 17.4178 7.89049 16.4591C6.93789 15.5118 6.46821 14.2638 6.4169 13.042C6.40546 12.7697 6.50563 12.5046 6.69423 12.3079ZM8.62814 14C8.77651 14.3868 9.00102 14.7429 9.30075 15.0409C9.8451 15.5822 10.7056 16 12 16C13.2944 16 14.1549 15.5822 14.6992 15.0409C14.999 14.7429 15.2235 14.3868 15.3718 14H8.62814Z" fill="#6F767E"/>
<path d="M9 9C9 9.55228 8.55228 10 8 10C7.44772 10 7 9.55228 7 9C7 8.44772 7.44772 8 8 8C8.55228 8 9 8.44772 9 9Z" fill="#6F767E"/>
<path d="M17 9C17 9.55228 16.5523 10 16 10C15.4477 10 15 9.55228 15 9C15 8.44772 15.4477 8 16 8C16.5523 8 17 8.44772 17 9Z" fill="#6F767E"/>
</svg>
