<svg width="24" height="24" viewBox="0 0 24 24" fill="none" xmlns="http://www.w3.org/2000/svg">
<path fill-rule="evenodd" clip-rule="evenodd" d="M2 12C2 9.23858 4.23858 7 7 7H10C10.5523 7 11 7.44772 11 8C11 8.55228 10.5523 9 10 9H7C5.34315 9 4 10.3431 4 12C4 13.6569 5.34315 15 7 15H10C10.5523 15 11 15.4477 11 16C11 16.5523 10.5523 17 10 17H7C4.23858 17 2 14.7614 2 12Z" fill="#6F767E"/>
<path fill-rule="evenodd" clip-rule="evenodd" d="M13 8C13 7.44772 13.4477 7 14 7H17C19.7614 7 22 9.23858 22 12C22 14.7614 19.7614 17 17 17H14C13.4477 17 13 16.5523 13 16C13 15.4477 13.4477 15 14 15H17C18.6569 15 20 13.6569 20 12C20 10.3431 18.6569 9 17 9H14C13.4477 9 13 8.55228 13 8Z" fill="#6F767E"/>
<path fill-rule="evenodd" clip-rule="evenodd" d="M8 12C8 11.4477 8.44772 11 9 11H15C15.5523 11 16 11.4477 16 12C16 12.5523 15.5523 13 15 13H9C8.44772 13 8 12.5523 8 12Z" fill="#6F767E"/>
</svg>
