<svg width="24" height="24" viewBox="0 0 24 24" fill="none" xmlns="http://www.w3.org/2000/svg">
<path fill-rule="evenodd" clip-rule="evenodd" d="M7 7C7 6.44772 7.44772 6 8 6H20C20.5523 6 21 6.44772 21 7C21 7.55228 20.5523 8 20 8H8C7.44772 8 7 7.55228 7 7Z" fill="#6F767E"/>
<path fill-rule="evenodd" clip-rule="evenodd" d="M7 12C7 11.4477 7.44772 11 8 11H20C20.5523 11 21 11.4477 21 12C21 12.5523 20.5523 13 20 13H8C7.44772 13 7 12.5523 7 12Z" fill="#6F767E"/>
<path fill-rule="evenodd" clip-rule="evenodd" d="M7 17C7 16.4477 7.44772 16 8 16H20C20.5523 16 21 16.4477 21 17C21 17.5523 20.5523 18 20 18H8C7.44772 18 7 17.5523 7 17Z" fill="#6F767E"/>
<circle cx="4" cy="7" r="1" fill="#6F767E"/>
<circle cx="4" cy="12" r="1" fill="#6F767E"/>
<circle cx="4" cy="17" r="1" fill="#6F767E"/>
</svg>
