<svg width="24" height="24" viewBox="0 0 24 24" fill="none" xmlns="http://www.w3.org/2000/svg">
<path fill-rule="evenodd" clip-rule="evenodd" d="M10 11.9005C10 13.005 10.8954 13.9005 12 13.9005C13.1046 13.9005 14 13.005 14 11.9005C14 10.7959 13.1046 9.90045 12 9.90045C10.8954 9.90045 10 10.7959 10 11.9005Z" fill="#6F767E"/>
<path fill-rule="evenodd" clip-rule="evenodd" d="M16 11.9004C16 10.7564 15.617 9.70477 14.9718 8.86265C14.6359 8.42426 14.719 7.79657 15.1574 7.46067C15.5958 7.12476 16.2234 7.20785 16.5594 7.64624C17.4627 8.82522 18 10.3015 18 11.9004C18 13.5668 17.4164 15.0997 16.4434 16.3018C16.0959 16.7311 15.4662 16.7974 15.0369 16.4499C14.6077 16.1025 14.5413 15.4728 14.8888 15.0435C15.5842 14.1844 16 13.0923 16 11.9004Z" fill="#6F767E"/>
<path fill-rule="evenodd" clip-rule="evenodd" d="M8 11.9004C8 10.7549 8.38397 9.70199 9.03075 8.85931C9.36702 8.4212 9.28446 7.79344 8.84635 7.45718C8.40824 7.12091 7.78048 7.20347 7.44421 7.64158C6.53871 8.82132 6 10.2994 6 11.9004C6 13.5655 6.58267 15.0973 7.55437 16.299C7.90163 16.7285 8.53128 16.7951 8.96074 16.4479C9.39019 16.1006 9.45682 15.4709 9.10956 15.0415C8.41518 14.1827 8 13.0914 8 11.9004Z" fill="#6F767E"/>
<path fill-rule="evenodd" clip-rule="evenodd" d="M20 11.9004C20 9.66837 19.1888 7.62835 17.8438 6.05526C17.4849 5.63549 17.5342 5.00425 17.954 4.64535C18.3738 4.28645 19.005 4.3358 19.3639 4.75557C21.0069 6.67719 22 9.1741 22 11.9004C22 14.6895 20.9607 17.2382 19.2497 19.1767C18.8843 19.5908 18.2523 19.6302 17.8383 19.2647C17.4242 18.8993 17.3848 18.2673 17.7503 17.8532C19.1511 16.2661 20 14.1836 20 11.9004Z" fill="#6F767E"/>
<path fill-rule="evenodd" clip-rule="evenodd" d="M4 11.9004C4 9.66851 4.81114 7.62861 6.15595 6.05556C6.51483 5.63577 6.46545 5.00454 6.04566 4.64565C5.62588 4.28677 4.99464 4.33615 4.63576 4.75594C2.99299 6.67751 2 9.17428 2 11.9004C2 14.6857 3.03649 17.2313 4.74335 19.1689C5.10842 19.5833 5.74032 19.6233 6.15474 19.2582C6.56915 18.8931 6.60915 18.2612 6.24408 17.8468C4.8466 16.2605 4 14.1805 4 11.9004Z" fill="#6F767E"/>
</svg>
