<svg width="24" height="24" viewBox="0 0 24 24" fill="none" xmlns="http://www.w3.org/2000/svg">
<path fill-rule="evenodd" clip-rule="evenodd" d="M20.0347 10.0348C20.0347 11.9349 19.3751 13.681 18.2724 15.0565H18.277C18.277 15.0565 15.4846 18.7933 13.3214 21.4393C12.6312 22.2834 11.3688 22.2831 10.6791 21.4386C8.5227 18.7985 5.73385 15.0646 5.73385 15.0646L5.72735 15.0565C4.62466 13.681 3.96509 11.9349 3.96509 10.0348C3.96509 5.5973 7.56238 2 11.9999 2C16.4374 2 20.0347 5.5973 20.0347 10.0348ZM15 10C15 11.6569 13.6569 13 12 13C10.3431 13 9 11.6569 9 10C9 8.34315 10.3431 7 12 7C13.6569 7 15 8.34315 15 10Z" fill="#6F767E"/>
</svg>
