<svg width="24" height="24" viewBox="0 0 24 24" fill="none" xmlns="http://www.w3.org/2000/svg">
<path d="M12.7071 7.79289C12.3166 7.40237 11.6834 7.40237 11.2929 7.79289C10.9024 8.18342 10.9024 8.81658 11.2929 9.20711L13.0858 11H4C3.44772 11 3 11.4477 3 12C3 12.5523 3.44772 13 4 13H13.0858L11.2929 14.7929C10.9024 15.1834 10.9024 15.8166 11.2929 16.2071C11.6834 16.5976 12.3166 16.5976 12.7071 16.2071L15.5 13.4142C16.2811 12.6332 16.281 11.3668 15.5 10.5858L12.7071 7.79289Z" fill="#6F767E"/>
<path fill-rule="evenodd" clip-rule="evenodd" d="M21 5C21 3.34315 19.6569 2 18 2H12C10.3431 2 9 3.34315 9 5V6C9 6.55228 9.44771 7 10 7C10.5523 7 11 6.55228 11 6V5C11 4.44772 11.4477 4 12 4H18C18.5523 4 19 4.44772 19 5V19C19 19.5523 18.5523 20 18 20H12C11.4477 20 11 19.5523 11 19V18C11 17.4477 10.5523 17 10 17C9.44771 17 9 17.4477 9 18V19C9 20.6569 10.3431 22 12 22H18C19.6569 22 21 20.6569 21 19V5Z" fill="#6F767E"/>
</svg>
