<svg xmlns="http://www.w3.org/2000/svg" xmlns:xlink="http://www.w3.org/1999/xlink" width="55.921" height="77.354" viewBox="0 0 55.921 77.354"><defs><linearGradient id="a" x1="0.5" x2="0.5" y2="1" gradientUnits="objectBoundingBox"><stop offset="0" stop-color="#049c98"/><stop offset="0.889" stop-color="#037572"/><stop offset="1" stop-color="#024e4c"/></linearGradient></defs><path d="M30.266,46.41a18.668,18.668,0,0,1,3.181,6.414A12.014,12.014,0,0,1,32.8,60.1a13.239,13.239,0,0,1-4.719,5.421A32.177,32.177,0,0,1,23.837,68c-.53.276-1.09.545-2.173,1.113-1.21.627-2.24,1.195-2.688,1.426a26.687,26.687,0,0,0-8.8,7.669l-.052.09,1.62-2.658c1.852-3.032,5.227-5.428,6.5-6.354,5.518-4.032,8.818-6.451,10.685-9.5C30.385,57.4,31.759,53.362,30.266,46.41Z" transform="translate(-2.555 -11.741)" fill="url(#a)"/><path d="M14.556,49.919s8.96-8.064.747-22.132a18.562,18.562,0,0,1-1.635-2.8,19.489,19.489,0,0,1-1.673-6.474c-.261-5.078,2.867-9.334,3.674-10.454,0,0,4.069-5.555,4.667-7.736,0-.075.09-.351.119-.343a15.808,15.808,0,0,1-.567,3.733c-.508,1.934-1.314,2.778-2.18,4.3a20.385,20.385,0,0,0-2.4,6.765,17.484,17.484,0,0,0,1.434,9.14c1.426,3.816,2.5,3.845,3.943,7.885a16.57,16.57,0,0,1,1.389,6.944c-.045.829-.231,6.242-4.57,9.408C14.825,50.1,14.556,49.919,14.556,49.919Z" transform="translate(-3.026 0.02)" fill="url(#a)"/><path d="M9.434,52.834a2.681,2.681,0,0,0,1.493.672c1.493.142,3.114-1.187,3.9-3.36A8.333,8.333,0,0,1,14.96,52.5c-.217,2.434-1.493,4.181-4.032,7.071-3.256,3.733-6.093,6.451-6.25,6.3s2.277-1.986,2.912-5.227a11.477,11.477,0,0,0,.045-3.614,27.62,27.62,0,0,0-1.09-4.077.6.6,0,0,0-.06-.284,11.858,11.858,0,0,1,.463-6.086c1.165-3.091,4.346-6.108,5.974-5.473.911.351,1.3,1.829,1.21,2.89a3.733,3.733,0,0,1-1.68,2.688A4.234,4.234,0,0,0,8.822,49.78a4.092,4.092,0,0,0,.612,3.054Z" transform="translate(-1.174 -10.377)" fill="url(#a)"/><path d="M49.884,70.439c-3.39,1-4.54,1.09-5.615,1.03A9.311,9.311,0,0,1,41.715,71a8.96,8.96,0,0,1-3.7-2.531,8.378,8.378,0,0,1-1.971-3.256,2.876,2.876,0,0,1-.209-2.136c.284-.642.933-1.083,3.733-1.493,2.4-.358,2.845-.119,4.592-.336a12.373,12.373,0,0,0,6.227-2.24,9.946,9.946,0,0,0,2.621-3.054c.045-.172.1-.463-.052-.627s-.9-.224-1.03.045-1.493,2.374-5.152,2.509-6.183.224-8.557,1.075-4.391,3.629-4.211,7.706S38,72.843,38,72.843s.4.582-.045.806-3.271,1.12-4.749,1.568a35.32,35.32,0,0,1-7.885.627.119.119,0,0,1-.06-.067c-.09-.329,1.971-.747,3.621-2.24a7.37,7.37,0,0,0,1.232-1.493,6.227,6.227,0,0,0,1.3-3.786,5.712,5.712,0,0,0-1.792-3.651,7.139,7.139,0,0,0-3.808-1.971,9.954,9.954,0,0,0-5.227.493,18.331,18.331,0,0,0-4.077,1.725,24.984,24.984,0,0,0-4.973,3.517,23.752,23.752,0,0,1-3.651,3.114,5.772,5.772,0,0,1-2.755.829,1.576,1.576,0,0,1-1.06-.291,1.777,1.777,0,0,1-.553-1.053,3.285,3.285,0,0,1-.067-1.277,7.467,7.467,0,0,1,1.142-2.987c2.277-3.226,7.527-6.675,7.527-6.675,1.493-.747,8.214-6.9,8.214-6.9a16.711,16.711,0,0,0,5.16-6.519c.747-1.732,2.106-4.8,1.142-8.169A14.934,14.934,0,0,0,24.5,34.314a37.433,37.433,0,0,0-2.763-3.442,31.69,31.69,0,0,1-3.689-5.227,19.661,19.661,0,0,1-2.031-8.064,25.014,25.014,0,0,1,.642-7.751,19.235,19.235,0,0,0-2.24,8.019c0,.067,0,.164,0,.284a19.713,19.713,0,0,0,.866,6.392A21.453,21.453,0,0,0,17.1,28.52c2.666,4.988,4.234,5.7,4.921,8.96a13.187,13.187,0,0,1,.224,3.733,13.814,13.814,0,0,1-1.247,4.54,14.986,14.986,0,0,1-2.591,4.2,63.469,63.469,0,0,1-9.931,8.841,25.746,25.746,0,0,0-5.645,5.227A10.017,10.017,0,0,0,0,70.2a5.757,5.757,0,0,0,0,.627A7.945,7.945,0,0,0,.542,73.2c1.3,3.159,6.675,4.883,6.675,4.883,3.733,1.2,12.963,3.047,26.075.358,9.782-2.009,16.427-5.451,19.265-6.227a3.823,3.823,0,0,0,1.09-.47A4.816,4.816,0,0,0,55.3,69.827a9.393,9.393,0,0,0,.6-1.411Zm-30.7,3.913c-3.943.418-4.682.448-5.227.47a44.171,44.171,0,0,1-5.122-.157L7.464,74.6s7.87-7.011,12.507-7.893c2.479-.493,4.025-.187,5.092.411a5.764,5.764,0,0,1,1.986,1.919,3.105,3.105,0,0,1,.6,2.486,2.24,2.24,0,0,1-.336.6C26.131,73.583,21.465,74.105,19.187,74.352Z" transform="translate(0.011 -2.475)" fill="url(#a)"/></svg>