<svg width="24" height="24" viewBox="0 0 24 24" fill="none" xmlns="http://www.w3.org/2000/svg">
<path fill-rule="evenodd" clip-rule="evenodd" d="M5 6H19C19.3862 6 19.7213 6.21897 19.8879 6.53954L12.5547 11.4283C12.2188 11.6523 11.7812 11.6523 11.4453 11.4283L4.11209 6.53953C4.27868 6.21896 4.61377 6 5 6ZM4 8.8685V17C4 17.5523 4.44772 18 5 18H19C19.5523 18 20 17.5523 20 17V8.86852L13.6641 13.0924C12.6564 13.7642 11.3436 13.7642 10.3359 13.0924L4 8.8685ZM2 7C2 5.34315 3.34315 4 5 4H19C20.6569 4 22 5.34315 22 7V17C22 18.6569 20.6569 20 19 20H5C3.34315 20 2 18.6569 2 17V7Z" fill="#6F767E"/>
</svg>
