<svg width="24" height="24" viewBox="0 0 24 24" fill="none" xmlns="http://www.w3.org/2000/svg">
<path d="M15 5.46839C15 5.006 14.683 4.60391 14.2334 4.496L9.61669 3.388C9.30227 3.31254 9 3.55085 9 3.87419V18.5316C9 18.994 9.31701 19.3961 9.76663 19.504L14.3833 20.612C14.6977 20.6874 15 20.4491 15 20.1258V5.46839Z" fill="#6F767E"/>
<path d="M17.6952 4.37752C17.281 4.51006 17 4.89508 17 5.32994V19.995C17 20.3338 17.3298 20.5745 17.6524 20.4712L19.9143 19.7474C21.1569 19.3498 22 18.1947 22 16.8901V5.7399C22 4.3849 20.681 3.42208 19.3904 3.83505L17.6952 4.37752Z" fill="#6F767E"/>
<path d="M4.08567 4.25258L6.34761 3.52876C6.67024 3.42551 7 3.66622 7 4.00497V18.67C7 19.1049 6.71896 19.4899 6.30478 19.6225L4.60955 20.1649C3.31902 20.5779 2 19.6151 2 18.2601V7.10985C2 5.80524 2.84313 4.65019 4.08567 4.25258Z" fill="#6F767E"/>
</svg>
