<svg width="24" height="24" viewBox="0 0 24 24" fill="none" xmlns="http://www.w3.org/2000/svg">
<path fill-rule="evenodd" clip-rule="evenodd" d="M4.20645 4.31482L8.14074 3.2357C8.70147 3.0819 9.29483 3.09436 9.84861 3.27157L14.1514 4.64846C14.7052 4.82568 15.2985 4.83814 15.8593 4.68434L18.8387 3.86712C20.4299 3.43068 22 4.62813 22 6.27807V16.7921C22 18.1433 21.0967 19.3278 19.7936 19.6852L15.8593 20.7643C15.2985 20.9181 14.7052 20.9057 14.1514 20.7285L9.84861 19.3516C9.29483 19.1744 8.70147 19.1619 8.14073 19.3157L5.16129 20.1329C3.57012 20.5694 2 19.3719 2 17.722V7.20797C2 5.85673 2.90334 4.67225 4.20645 4.31482ZM4.73548 6.24358L8 5.34817V17.2969C7.86975 17.3217 7.74021 17.3517 7.6117 17.3869L4.63226 18.2042C4.31403 18.2914 4 18.052 4 17.722V7.20797C4 6.75755 4.30111 6.36273 4.73548 6.24358ZM10.4582 17.4467C10.307 17.3984 10.1541 17.3574 10 17.3237V5.41992L13.5418 6.55331C13.693 6.60167 13.8459 6.64267 14 6.6763V18.5801L10.4582 17.4467ZM16 18.6519L19.2645 17.7564C19.6989 17.6373 20 17.2425 20 16.7921V6.27807C20 5.94808 19.686 5.70859 19.3677 5.79588L16.3883 6.6131C16.2598 6.64835 16.1303 6.67836 16 6.70313V18.6519Z" fill="#6F767E"/>
</svg>
