<svg width="24" height="24" viewBox="0 0 24 24" fill="none" xmlns="http://www.w3.org/2000/svg">
<path fill-rule="evenodd" clip-rule="evenodd" d="M7.24307 9.86463L3.03645 3.5547C2.59342 2.89015 3.06981 2 3.8685 2H7.92962C8.59832 2 9.22279 2.3342 9.59372 2.8906L12 6.50003L14.4063 2.8906C14.7772 2.3342 15.4017 2 16.0704 2H20.1315C20.9302 2 21.4066 2.89015 20.9636 3.5547L16.7569 9.86463C18.1365 11.1432 19 12.9707 19 15C19 18.866 15.866 22 12 22C8.13401 22 5 18.866 5 15C5 12.9707 5.86348 11.1432 7.24307 9.86463ZM10.6792 8.12442L7.92962 4L5.73702 4L8.8888 8.72767C9.44737 8.45008 10.0483 8.2449 10.6792 8.12442ZM15.1112 8.72767L18.263 4L16.0704 4L13.3208 8.12442C13.9517 8.2449 14.5526 8.45008 15.1112 8.72767ZM17 15C17 17.7614 14.7614 20 12 20C9.23858 20 7 17.7614 7 15C7 12.2386 9.23858 10 12 10C14.7614 10 17 12.2386 17 15Z" fill="#6F767E"/>
<path fill-rule="evenodd" clip-rule="evenodd" d="M12 16C12.5523 16 13 15.5523 13 15C13 14.4477 12.5523 14 12 14C11.4477 14 11 14.4477 11 15C11 15.5523 11.4477 16 12 16ZM15 15C15 16.6569 13.6569 18 12 18C10.3431 18 9 16.6569 9 15C9 13.3431 10.3431 12 12 12C13.6569 12 15 13.3431 15 15Z" fill="#6F767E"/>
</svg>
