<svg width="24" height="24" viewBox="0 0 24 24" fill="none" xmlns="http://www.w3.org/2000/svg">
<path d="M15 15C15 16.6569 13.6569 18 12 18C10.3431 18 9 16.6569 9 15C9 13.3431 10.3431 12 12 12C13.6569 12 15 13.3431 15 15Z" fill="#6F767E"/>
<path fill-rule="evenodd" clip-rule="evenodd" d="M7.24315 9.86456L3.03657 3.5547C2.59354 2.89015 3.06993 2 3.86862 2H7.92974C8.59845 2 9.22291 2.3342 9.59384 2.8906L12.0001 6.5L14.4064 2.8906C14.7773 2.3342 15.4018 2 16.0705 2H20.1316C20.9303 2 21.4067 2.89015 20.9636 3.5547L16.757 9.86468C18.1365 11.1432 19 12.9708 19 15C19 18.866 15.866 22 12 22C8.13401 22 5 18.866 5 15C5 12.9707 5.86352 11.1431 7.24315 9.86456ZM12 20C14.7614 20 17 17.7614 17 15C17 12.2386 14.7614 10 12 10C9.23858 10 7 12.2386 7 15C7 17.7614 9.23858 20 12 20Z" fill="#6F767E"/>
</svg>
