<svg xmlns="http://www.w3.org/2000/svg" width="30" height="30" viewBox="0 0 30 30">
  <g id="Group_6" data-name="Group 6" transform="translate(-285 -726)">
    <rect id="Rectangle_387" data-name="Rectangle 387" width="30" height="30" rx="5" transform="translate(285 726)" fill="#ffb443"/>
    <path id="Vector" d="M15,2.885A2.885,2.885,0,0,0,12.115,0H2.885A2.885,2.885,0,0,0,0,2.885v9.231A2.885,2.885,0,0,0,2.885,15h9.231A2.885,2.885,0,0,0,15,12.115ZM10.678,6.5l-5.2-3.034a1.154,1.154,0,0,0-1.735,1v6.068a1.154,1.154,0,0,0,1.735,1l5.2-3.034a1.154,1.154,0,0,0,0-1.993Z" transform="translate(293 734)" fill="#fff"/>
  </g>
</svg>
