<svg xmlns="http://www.w3.org/2000/svg" width="10" height="15" viewBox="0 0 10 15">
  <path id="Vector" d="M2.536,4.015A2.735,2.735,0,0,1,5,1.078,2.735,2.735,0,0,1,7.464,4.015,2.735,2.735,0,0,1,5,6.952,2.735,2.735,0,0,1,2.536,4.015Zm-.9,0C1.633,6.229,3.143,8.03,5,8.03s3.367-1.8,3.367-4.015S6.857,0,5,0,1.633,1.8,1.633,4.015ZM4.361,14.989Q4.675,15,5,15c2.147,0,5-.286,5-2.752,0-2.768-3.764-2.768-5-2.768-2.147,0-5,.286-5,2.753a2.362,2.362,0,0,0,1.66,2.29.438.438,0,0,0,.573-.338A.567.567,0,0,0,1.95,13.5C1.011,13.124.9,12.6.9,12.233c0-1.112,1.379-1.676,4.1-1.676s4.1.569,4.1,1.691S7.718,13.922,5,13.922q-.311,0-.613-.01a.547.547,0,0,0-.026,1.076Z" fill="#00162a" opacity="0.6"/>
</svg>
