<svg xmlns="http://www.w3.org/2000/svg" width="13" height="14" viewBox="0 0 13 14">
  <path id="Vector" d="M13,6a.518.518,0,0,1-.5.536H12.5a.475.475,0,0,1-.352-.159A.552.552,0,0,1,12.005,6V4.377c0-2.13-1.092-3.306-3.07-3.306H4.065c-1.984,0-3.07,1.176-3.07,3.306V9.629c0,2.13,1.092,3.3,3.07,3.3H8.935c1.984,0,3.07-1.176,3.07-3.3a.5.5,0,1,1,.995,0C13,12.325,11.445,14,8.941,14H4.065C1.555,14,0,12.325,0,9.629V4.377C0,1.675,1.555,0,4.065,0H8.935C11.434,0,13,1.675,13,4.377ZM3.224,10.281V5.8a.548.548,0,0,1,.158-.371.471.471,0,0,1,.356-.14.483.483,0,0,1,.347.17.56.56,0,0,1,.133.384v4.476a.515.515,0,0,1-.515.517A.521.521,0,0,1,3.224,10.281Zm2.8-6.557v6.563a.5.5,0,1,0,.995,0V3.725a.5.5,0,1,0-.995,0Zm2.755,6.557V8.188a.5.5,0,1,1,.995,0v2.093a.5.5,0,1,1-.995,0Z" fill="#00162a" opacity="0.6"/>
</svg>
