<svg xmlns="http://www.w3.org/2000/svg" width="13" height="15" viewBox="0 0 13 15">
  <path id="Vector" d="M12.841,4.167,8.979.183A.574.574,0,0,0,8.567.009H8.41L8.39,0a.082.082,0,0,0-.024,0,.087.087,0,0,0-.025,0l-.019,0H3.495A3.486,3.486,0,0,0,0,3.391V6.51a.572.572,0,0,0,1.144,0V3.391A2.333,2.333,0,0,1,3.495,1.142h4.3V2.764a2.526,2.526,0,0,0,2.529,2.511h0a.566.566,0,1,0,0-1.133A1.386,1.386,0,0,1,8.938,2.764V1.777l2.918,3.011v6.694a2.392,2.392,0,0,1-2.271,2.386H3.495a2.344,2.344,0,0,1-2.351-2.386V9.589A.572.572,0,0,0,0,9.589v1.892A3.47,3.47,0,0,0,3.495,15H9.585A3.514,3.514,0,0,0,13,11.481V4.56A.565.565,0,0,0,12.841,4.167ZM4.107,10.8H8.222a.566.566,0,1,0,0-1.133H4.107a.566.566,0,1,0,0,1.133ZM6.665,7.065H4.107a.566.566,0,1,1,0-1.133H6.665a.566.566,0,1,1,0,1.133Z" fill="#fff"/>
</svg>
