<svg xmlns="http://www.w3.org/2000/svg" width="13" height="14" viewBox="0 0 13 14">
  <path id="Vector" d="M12.994,2.169V4.278a2.281,2.281,0,0,1-.559,1.537,1.886,1.886,0,0,1-1.384.652h-.8a.592.592,0,0,1,0-1.161h.772a.878.878,0,0,0,.649-.3,1.063,1.063,0,0,0,.262-.719V2.169a.972.972,0,0,0-.911-1H9.1a.959.959,0,0,0-.911,1V5.332a.563.563,0,0,1-.543.57.5.5,0,0,1-.37-.181.61.61,0,0,1-.143-.416V2.169A2.276,2.276,0,0,1,7.71.636,1.881,1.881,0,0,1,9.1,0h1.924A2.123,2.123,0,0,1,12.994,2.169ZM3.9,0H1.973A2.09,2.09,0,0,0,0,2.169V4.284A2.083,2.083,0,0,0,1.973,6.446H3.9a1.88,1.88,0,0,0,1.394-.631A2.276,2.276,0,0,0,5.87,4.284V2.169A2.084,2.084,0,0,0,3.9,0Zm.911,4.284A1.063,1.063,0,0,1,4.546,5a.879.879,0,0,1-.649.3H1.973a.87.87,0,0,1-.662-.293,1.056,1.056,0,0,1-.267-.728V2.169a1.053,1.053,0,0,1,.273-.715.869.869,0,0,1,.656-.286H3.9a.966.966,0,0,1,.911,1Zm4.3,3.27h1.924A2.083,2.083,0,0,1,13,9.716v2.116A2.09,2.09,0,0,1,11.027,14H9.1a2.085,2.085,0,0,1-1.967-2.169V9.716A2.071,2.071,0,0,1,9.1,7.554Zm2.57,4.988a1.048,1.048,0,0,0,.265-.71V9.716a1.054,1.054,0,0,0-.267-.708.871.871,0,0,0-.644-.293H9.1a.959.959,0,0,0-.911,1v2.116a1.048,1.048,0,0,0,.265.71.865.865,0,0,0,.646.291h1.924A.865.865,0,0,0,11.673,12.541ZM0,11.825V9.716A2.275,2.275,0,0,1,.578,8.185a1.88,1.88,0,0,1,1.394-.631h.79a.516.516,0,0,1,.507.271.633.633,0,0,1,0,.619.516.516,0,0,1-.507.271h-.79a.965.965,0,0,0-.917,1V11.8a.984.984,0,0,0,.917,1H3.909a.87.87,0,0,0,.648-.291,1.054,1.054,0,0,0,.269-.71V8.668a.608.608,0,0,1,.238-.6.492.492,0,0,1,.594.019.614.614,0,0,1,.206.613v3.124a2.078,2.078,0,0,1-1.973,2.169H1.973A2.122,2.122,0,0,1,0,11.825Z" fill="#00162a" opacity="0.6"/>
</svg>
