<svg width="24" height="24" viewBox="0 0 24 24" fill="none" xmlns="http://www.w3.org/2000/svg">
<path fill-rule="evenodd" clip-rule="evenodd" d="M6 6.50001V8.00001H4.5C3.11929 8.00001 2 9.1193 2 10.5V20.8791C2 22.1368 3.4549 22.8361 4.43704 22.0504L6.86304 20.1096C6.9517 20.0387 7.06185 20 7.17539 20H15.5C16.8807 20 18 18.8807 18 17.5V16H19.5C20.8807 16 22 14.8807 22 13.5V2.80279C22 1.60474 20.6648 0.890154 19.668 1.55471L16.126 3.91604C16.0438 3.97079 15.9473 4.00001 15.8486 4.00001H8.5C7.11929 4.00001 6 5.1193 6 6.50001ZM15.5 8.00001H8V6.50001C8 6.22387 8.22386 6.00001 8.5 6.00001H15.8486C16.3422 6.00001 16.8247 5.85392 17.2354 5.58014L20 3.73704V13.5C20 13.7762 19.7761 14 19.5 14H18V10.5C18 9.1193 16.8807 8.00001 15.5 8.00001ZM7 13C6.44772 13 6 13.4477 6 14C6 14.5523 6.44772 15 7 15H13C13.5523 15 14 14.5523 14 14C14 13.4477 13.5523 13 13 13H7Z" fill="#6F767E"/>
</svg>
