<svg width="24" height="24" viewBox="0 0 24 24" fill="none" xmlns="http://www.w3.org/2000/svg">
<path d="M15.7374 14.3215C14.8215 15.3513 13.4865 16 12 16C9.23858 16 7 13.7614 7 11C7 10.4477 6.55228 10 6 10C5.44772 10 5 10.4477 5 11C5 14.5265 7.60771 17.4439 11 17.9291V20H9C8.44772 20 8 20.4477 8 21C8 21.5523 8.44772 22 9 22H15C15.5523 22 16 21.5523 16 21C16 20.4477 15.5523 20 15 20H13V17.9291C14.6346 17.6953 16.087 16.8968 17.1533 15.7375L15.7374 14.3215Z" fill="#6F767E"/>
<path d="M18.2997 14.0554C18.7484 13.1322 19 12.0955 19 11C19 10.4477 18.5523 10 18 10C17.4477 10 17 10.4477 17 11C17 11.5301 16.9175 12.0409 16.7647 12.5204L18.2997 14.0554Z" fill="#6F767E"/>
<path d="M9 7.58414V11C9 12.6569 10.3431 14 12 14C12.9343 14 13.7689 13.5729 14.3191 12.9032L9 7.58414Z" fill="#6F767E"/>
<path d="M15 10.7557V5C15 3.34315 13.6569 2 12 2C10.4223 2 9.12905 3.21787 9.00908 4.76479L15 10.7557Z" fill="#6F767E"/>
<path fill-rule="evenodd" clip-rule="evenodd" d="M2.29289 2.29289C2.68342 1.90237 3.31658 1.90237 3.70711 2.29289L21.7071 20.2929C22.0976 20.6834 22.0976 21.3166 21.7071 21.7071C21.3166 22.0976 20.6834 22.0976 20.2929 21.7071L2.29289 3.70711C1.90237 3.31658 1.90237 2.68342 2.29289 2.29289Z" fill="#6F767E"/>
</svg>
