<svg width="24" height="24" viewBox="0 0 24 24" fill="none" xmlns="http://www.w3.org/2000/svg">
<path d="M7 3C7 2.44772 7.44772 2 8 2H14C14.3466 2 14.6684 2.17945 14.8507 2.47427C15.0329 2.76909 15.0494 3.13723 14.8944 3.44721L14.118 5L14.8944 6.55279C15.0494 6.86277 15.0329 7.23091 14.8507 7.52573C14.6684 7.82055 14.3466 8 14 8H9V9.82932C9.2787 9.95083 9.53977 10.1256 9.76777 10.3536L14 14.5858L15.2322 13.3536C16.2085 12.3773 17.7915 12.3773 18.7678 13.3536L21.4142 16C21.7893 16.3751 22 16.8838 22 17.4142V20C22 21.1046 21.1046 22 20 22H4C2.89543 22 2 21.1046 2 20V15.4142C2 14.8838 2.21071 14.3751 2.58579 14L6.23223 10.3536C6.46023 10.1256 6.7213 9.95083 7 9.82932V3Z" fill="#6F767E"/>
</svg>
