<svg width="24" height="24" viewBox="0 0 24 24" fill="none" xmlns="http://www.w3.org/2000/svg">
<path fill-rule="evenodd" clip-rule="evenodd" d="M8 2C7.44772 2 7 2.44772 7 3V9.9992C6.59055 10.1436 6.20617 10.3796 5.87868 10.707L2.58579 13.9999C2.21071 14.375 2 14.8837 2 15.4142V19.9999C2 21.1045 2.89543 21.9999 4 21.9999H20C21.1046 21.9999 22 21.1045 22 19.9999V17.4142C22 16.8837 21.7893 16.375 21.4142 15.9999L19.1213 13.7071C17.9497 12.5355 16.0503 12.5355 14.8787 13.7071L14 14.5857L10.1213 10.707C9.79383 10.3796 9.40945 10.1436 9 9.9992V8H14C14.3466 8 14.6684 7.82055 14.8507 7.52573C15.0329 7.23091 15.0494 6.86277 14.8944 6.55279L14.118 5L14.8944 3.44721C15.0494 3.13723 15.0329 2.76909 14.8507 2.47427C14.6684 2.17945 14.3466 2 14 2H8ZM12.382 6H9V4H12.382L12.1056 4.55279C11.9648 4.83431 11.9648 5.16569 12.1056 5.44721L12.382 6ZM4 15.4142L7.29289 12.1213C7.68342 11.7307 8.31658 11.7307 8.70711 12.1213L13.2929 16.707C13.6834 17.0976 14.3166 17.0976 14.7071 16.707L16.2929 15.1213C16.6834 14.7307 17.3166 14.7307 17.7071 15.1213L20 17.4142V19.9999H4V15.4142Z" fill="#6F767E"/>
</svg>
