<svg width="24" height="24" viewBox="0 0 24 24" fill="none" xmlns="http://www.w3.org/2000/svg">
<path fill-rule="evenodd" clip-rule="evenodd" d="M12 6C12.5523 6 13 5.55228 13 5C13 4.44772 12.5523 4 12 4C11.4477 4 11 4.44772 11 5C11 5.55228 11.4477 6 12 6ZM12 8C13.6569 8 15 6.65685 15 5C15 3.34315 13.6569 2 12 2C10.3431 2 9 3.34315 9 5C9 6.65685 10.3431 8 12 8Z" fill="#6F767E"/>
<path fill-rule="evenodd" clip-rule="evenodd" d="M12 13C12.5523 13 13 12.5523 13 12C13 11.4477 12.5523 11 12 11C11.4477 11 11 11.4477 11 12C11 12.5523 11.4477 13 12 13ZM12 15C13.6569 15 15 13.6569 15 12C15 10.3431 13.6569 9 12 9C10.3431 9 9 10.3431 9 12C9 13.6569 10.3431 15 12 15Z" fill="#6F767E"/>
<path fill-rule="evenodd" clip-rule="evenodd" d="M12 20C12.5523 20 13 19.5523 13 19C13 18.4477 12.5523 18 12 18C11.4477 18 11 18.4477 11 19C11 19.5523 11.4477 20 12 20ZM12 22C13.6569 22 15 20.6569 15 19C15 17.3431 13.6569 16 12 16C10.3431 16 9 17.3431 9 19C9 20.6569 10.3431 22 12 22Z" fill="#6F767E"/>
</svg>
