<svg width="24" height="24" viewBox="0 0 24 24" fill="none" xmlns="http://www.w3.org/2000/svg">
<path fill-rule="evenodd" clip-rule="evenodd" d="M17 15V9C17 6.23858 14.7614 4 12 4C9.23858 4 7 6.23858 7 9V15C7 17.7614 9.23858 20 12 20C14.7614 20 17 17.7614 17 15ZM12 2C8.13401 2 5 5.13401 5 9V15C5 18.866 8.13401 22 12 22C15.866 22 19 18.866 19 15V9C19 5.13401 15.866 2 12 2Z" fill="#6F767E"/>
<path fill-rule="evenodd" clip-rule="evenodd" d="M12 6C12.5523 6 13 6.44772 13 7L13 10C13 10.5523 12.5523 11 12 11C11.4477 11 11 10.5523 11 10L11 7C11 6.44771 11.4477 6 12 6Z" fill="#6F767E"/>
</svg>
