<svg width="24" height="24" viewBox="0 0 24 24" fill="none" xmlns="http://www.w3.org/2000/svg">
<path fill-rule="evenodd" clip-rule="evenodd" d="M12 6.34232C12 4.96572 12.9369 3.76577 14.2724 3.43189L16.3837 2.90407C18.2206 2.44484 20 3.83416 20 5.7276C20 7.0631 19.0911 8.22722 17.7955 8.55113L14 9.49999V17C14 19.2091 12.2091 21 10 21C7.79086 21 6 19.2091 6 17C6 14.7909 7.79086 13 10 13C10.7286 13 11.4117 13.1948 12 13.5351V6.34232ZM14.7575 5.37218L16.8688 4.84435C17.4434 4.7007 18 5.1353 18 5.7276C18 6.14536 17.7157 6.50952 17.3104 6.61084L14 7.43844V6.34232C14 5.88345 14.3123 5.48347 14.7575 5.37218ZM10 15C11.1046 15 12 15.8954 12 17C12 18.1046 11.1046 19 10 19C8.89543 19 8 18.1046 8 17C8 15.8954 8.89543 15 10 15Z" fill="#6F767E"/>
</svg>
