<svg width="24" height="24" viewBox="0 0 24 24" fill="none" xmlns="http://www.w3.org/2000/svg">
<path fill-rule="evenodd" clip-rule="evenodd" d="M10.2163 2.53468C11.2441 1.65877 12.7558 1.65877 13.7837 2.53468L15.0551 3.61822C15.2553 3.78883 15.5043 3.89194 15.7665 3.91286L17.4317 4.04575C18.7779 4.15317 19.8468 5.22213 19.9542 6.56828L20.0871 8.23352C20.108 8.49573 20.2112 8.74465 20.3818 8.94486L21.4653 10.2163C22.3412 11.2442 22.3412 12.7559 21.4653 13.7837L20.3818 15.0552C20.2112 15.2554 20.108 15.5043 20.0871 15.7665L19.9542 17.4318C19.8468 18.7779 18.7779 19.8469 17.4317 19.9543L15.7665 20.0872C15.5043 20.1081 15.2553 20.2112 15.0551 20.3818L13.7837 21.4654C12.7558 22.3413 11.2441 22.3413 10.2163 21.4654L8.9448 20.3818C8.74459 20.2112 8.49567 20.1081 8.23346 20.0872L6.56822 19.9543C5.22207 19.8469 4.15311 18.7779 4.04569 17.4318L3.9128 15.7665C3.89188 15.5043 3.78877 15.2554 3.61816 15.0552L2.53462 13.7837C1.65871 12.7559 1.65871 11.2442 2.53462 10.2163L3.61816 8.94486C3.78877 8.74465 3.89188 8.49573 3.9128 8.23352L4.04569 6.56828C4.15311 5.22213 5.22207 4.15317 6.56822 4.04575L8.23346 3.91286C8.49567 3.89194 8.74459 3.78883 8.9448 3.61822L10.2163 2.53468Z" fill="#6F767E"/>
</svg>
