<svg width="24" height="24" viewBox="0 0 24 24" fill="none" xmlns="http://www.w3.org/2000/svg">
<path fill-rule="evenodd" clip-rule="evenodd" d="M6.50702 17.6167L14.5901 12.8619C15.2474 12.4753 15.2474 11.5247 14.5901 11.1381L6.50702 6.38331C5.84039 5.99117 5 6.47183 5 7.24524V16.7547C5 17.5282 5.84039 18.0088 6.50702 17.6167ZM15.6041 14.5858C17.5761 13.4258 17.5761 10.5741 15.6041 9.41419L7.52106 4.65944C5.52116 3.48303 3 4.925 3 7.24524V16.7547C3 19.075 5.52116 20.517 7.52106 19.3405L15.6041 14.5858Z" fill="#6F767E"/>
<path fill-rule="evenodd" clip-rule="evenodd" d="M20 4C20.5523 4 21 4.44772 21 5V19C21 19.5523 20.5523 20 20 20C19.4477 20 19 19.5523 19 19V5C19 4.44772 19.4477 4 20 4Z" fill="#6F767E"/>
</svg>
