<svg xmlns="http://www.w3.org/2000/svg" width="24.188" height="21.577" viewBox="0 0 24.188 21.577"><path d="M126.523,150.456a7.018,7.018,0,0,0-9.925,0l-.113.113-.113-.113a7.018,7.018,0,1,0-9.925,9.925l9.284,9.284a1.069,1.069,0,0,0,1.509,0l9.284-9.284a7.017,7.017,0,0,0,0-9.926Zm-4.656,12.088v-.006c0-.02,0-.039,0-.058s0-.03,0-.045,0-.019,0-.028,0,0,0,0c0-.035-.007-.07-.012-.1s-.007-.047-.011-.071,0-.028-.008-.042-.01-.05-.016-.075-.008-.034-.012-.05v-.006l-.013-.047c-.006-.022-.013-.044-.02-.065s-.012-.036-.018-.054-.013-.038-.02-.056-.014-.037-.022-.055l-.022-.052a2.08,2.08,0,0,0-.112-.219l-.027-.046c-.018-.029-.036-.057-.055-.085l-.015-.021-.023-.031-.019-.026c-.018-.023-.036-.047-.054-.069l-.022-.026c-.022-.026-.044-.051-.066-.076l-.031-.032-.034-.035-.028-.027q-.059-.057-.123-.109l.352-.156a1.528,1.528,0,0,0,2.019,0l.7.314-2.28,2.28V162.6Q121.867,162.573,121.866,162.543Zm-.724-6.577a2.059,2.059,0,0,1,2.572,0,1.741,1.741,0,0,1,.54,1.337,2.4,2.4,0,0,1-.525,1.516,1.609,1.609,0,0,1-2.6,0,2.4,2.4,0,0,1-.525-1.516A1.741,1.741,0,0,1,121.142,155.966Zm-6.39-2.074a2.847,2.847,0,0,1,3.55,0,2.4,2.4,0,0,1,.743,1.843,3.324,3.324,0,0,1-.728,2.1,2.212,2.212,0,0,1-3.581,0,3.326,3.326,0,0,1-.727-2.1A2.4,2.4,0,0,1,114.752,153.892Zm-1.911,7.536,1.123-.5,1.164-.517,1.4,1.824,1.416-1.825,1.038.463,1.236.551a1.289,1.289,0,0,1,.763,1.176v1.646l-4.493,4.493-4.408-4.408V162.6A1.289,1.289,0,0,1,112.841,161.427Zm-3.725-5.461a2.059,2.059,0,0,1,2.571,0,1.74,1.74,0,0,1,.54,1.337,2.4,2.4,0,0,1-.525,1.516,1.609,1.609,0,0,1-2.6,0,2.4,2.4,0,0,1-.525-1.516A1.74,1.74,0,0,1,109.116,155.966Zm.269,4.8a1.529,1.529,0,0,0,2.02,0l.5.223-.014.013q-.049.045-.094.092l-.021.022-.055.061-.022.026-.049.06-.022.028-.047.065-.021.03,0,0-.02.029-.021.033-.015.025c-.015.025-.03.05-.044.075l-.017.032,0,.006-.016.031-.017.035-.017.035-.016.035c-.028.062-.052.125-.074.19l-.008.025c-.005.016-.01.031-.015.047l-.012.042-.016.061c0,.014-.007.028-.01.042l0,.02c0,.015-.007.029-.009.044l0,.014c0,.016-.006.033-.008.049-.006.036-.011.072-.015.107,0,.007,0,.014,0,.021s0,.027,0,.04a.027.027,0,0,0,0,.005c0,.038-.005.076-.006.114q0,.029,0,.059v.838l-2.408-2.408Z" transform="translate(-104.39 -148.4)" fill="#03716e"/></svg>