<svg width="24" height="24" viewBox="0 0 24 24" fill="none" xmlns="http://www.w3.org/2000/svg">
<path fill-rule="evenodd" clip-rule="evenodd" d="M5 15H6V16C6 17.6569 7.34315 19 9 19H19C20.6569 19 22 17.6569 22 16V12C22 10.3431 20.6569 9 19 9H18V8C18 6.34315 16.6569 5 15 5H5C3.34315 5 2 6.34315 2 8V12C2 13.6569 3.34315 15 5 15ZM15 7H5C4.44772 7 4 7.44772 4 8V12C4 12.5523 4.44772 13 5 13H6V12C6 10.3431 7.34315 9 9 9H16V8C16 7.44772 15.5523 7 15 7ZM14 16C15.1046 16 16 15.1046 16 14C16 12.8954 15.1046 12 14 12C12.8954 12 12 12.8954 12 14C12 15.1046 12.8954 16 14 16ZM10 14C10 14.5523 9.55228 15 9 15C8.44772 15 8 14.5523 8 14C8 13.4477 8.44772 13 9 13C9.55228 13 10 13.4477 10 14ZM19 15C19.5523 15 20 14.5523 20 14C20 13.4477 19.5523 13 19 13C18.4477 13 18 13.4477 18 14C18 14.5523 18.4477 15 19 15Z" fill="#6F767E"/>
</svg>
