<svg width="24" height="24" viewBox="0 0 24 24" fill="none" xmlns="http://www.w3.org/2000/svg">
<path fill-rule="evenodd" clip-rule="evenodd" d="M6.0809 4.66509C4.818 6.08003 4.05253 7.9482 4.05867 9.9946L4.06814 13.1476C4.06977 13.6922 3.84928 14.2139 3.45759 14.5922L2.42864 15.586C2.15471 15.8506 2 16.2151 2 16.5959C2 17.3714 2.62863 18 3.40408 18H8C8 20.2091 9.79086 22 12 22C14.2091 22 16 20.2091 16 18H19.4158L17.4158 16L4.87851 16C5.64222 15.246 6.07136 14.2161 6.06813 13.1416L6.05867 9.9886C6.05419 8.49679 6.59712 7.13142 7.49817 6.08237L6.0809 4.66509ZM12 20C10.8954 20 10 19.1046 10 18H14C14 19.1046 13.1046 20 12 20Z" fill="#6F767E"/>
<path d="M18.0507 13.8065C18.0171 13.5978 18 13.3856 18 13.1716L18 9.97067C18 6.67316 15.3268 4 12.0293 4C10.9414 4 9.92161 4.29092 9.04335 4.79912L7.59234 3.34811C8.86049 2.49678 10.3867 2 12.0293 2C16.4314 2 20 5.56859 20 9.97067L20 13.1716C20 13.702 20.2107 14.2107 20.5858 14.5858L21.5858 15.5858C21.851 15.851 22 16.2107 22 16.5858C22 16.9141 21.8881 17.2162 21.7005 17.4562L18.0507 13.8065Z" fill="#6F767E"/>
<path fill-rule="evenodd" clip-rule="evenodd" d="M2.29289 2.29289C2.68342 1.90237 3.31658 1.90237 3.70711 2.29289L21.7071 20.2929C22.0976 20.6834 22.0976 21.3166 21.7071 21.7071C21.3166 22.0976 20.6834 22.0976 20.2929 21.7071L2.29289 3.70711C1.90237 3.31658 1.90237 2.68342 2.29289 2.29289Z" fill="#6F767E"/>
</svg>
