<svg width="24" height="24" viewBox="0 0 24 24" fill="none" xmlns="http://www.w3.org/2000/svg">
<path d="M15.357 20.1758C15.7129 19.6278 15.2374 19 14.584 19H9.41595C8.76251 19 8.28703 19.6278 8.64294 20.1758C9.35604 21.2738 10.5932 22 12 22C13.4067 22 14.6439 21.2738 15.357 20.1758Z" fill="#6F767E"/>
<path d="M6.08176 4.66589C4.81919 6.08102 4.05416 7.94931 4.06086 9.99568L4.06791 12.1473C4.06969 12.692 3.84919 13.2139 3.45736 13.5924L2.42864 14.586C2.15471 14.8506 2 15.2151 2 15.5959C2 16.3714 2.62863 17 3.40408 17H18.4159L6.08176 4.66589Z" fill="#6F767E"/>
<path d="M21.1341 16.8898C21.6428 16.6756 22 16.1724 22 15.5858C22 15.2107 21.851 14.851 21.5858 14.5858L20.5858 13.5858C20.2107 13.2107 20 12.702 20 12.1716L20 9.96958C20 5.5681 16.4319 2 12.0304 2C10.3876 2 8.86112 2.497 7.59295 3.34865L21.1341 16.8898Z" fill="#6F767E"/>
<path fill-rule="evenodd" clip-rule="evenodd" d="M2.29289 2.29289C2.68342 1.90237 3.31658 1.90237 3.70711 2.29289L21.7071 20.2929C22.0976 20.6834 22.0976 21.3166 21.7071 21.7071C21.3166 22.0976 20.6834 22.0976 20.2929 21.7071L2.29289 3.70711C1.90237 3.31658 1.90237 2.68342 2.29289 2.29289Z" fill="#6F767E"/>
</svg>
