<svg width="24" height="24" viewBox="0 0 24 24" fill="none" xmlns="http://www.w3.org/2000/svg">
<path fill-rule="evenodd" clip-rule="evenodd" d="M3 5C3 3.34315 4.34315 2 6 2H16C17.3062 2 18.4175 2.83481 18.8293 4H19C20.6569 4 22 5.34315 22 7V8.86039C22 10.2904 20.9906 11.5217 19.5883 11.8021L12.8039 13.159C12.3365 13.2525 12 13.6629 12 14.1396V14.2676C12.5978 14.6134 13 15.2597 13 16V20C13 21.1046 12.1046 22 11 22C9.89543 22 9 21.1046 9 20V16C9 15.2597 9.4022 14.6134 10 14.2676V14.1396C10 12.7096 11.0094 11.4783 12.4117 11.1979L19.1961 9.84097C19.6635 9.74749 20 9.33707 20 8.86039V7C20 6.44772 19.5523 6 19 6C19 7.65685 17.6569 9 16 9H6C4.34315 9 3 7.65685 3 6V5ZM17 5C17 4.44772 16.5523 4 16 4H6C5.44772 4 5 4.44772 5 5V6C5 6.55228 5.44772 7 6 7H16C16.5523 7 17 6.55228 17 6V5Z" fill="#6F767E"/>
</svg>
