<svg width="24" height="24" viewBox="0 0 24 24" fill="none" xmlns="http://www.w3.org/2000/svg">
<path d="M6 2C4.34315 2 3 3.34315 3 5V6C3 7.65685 4.34315 9 6 9H16C17.6569 9 19 7.65685 19 6C19.5523 6 20 6.44772 20 7V8.86039C20 9.33707 19.6635 9.74749 19.1961 9.84097L12.4117 11.1979C11.0094 11.4783 10 12.7096 10 14.1396V14.2676C9.4022 14.6134 9 15.2597 9 16V20C9 21.1046 9.89543 22 11 22C12.1046 22 13 21.1046 13 20V16C13 15.2597 12.5978 14.6134 12 14.2676V14.1396C12 13.6629 12.3365 13.2525 12.8039 13.159L19.5883 11.8021C20.9906 11.5217 22 10.2904 22 8.86039V7C22 5.34315 20.6569 4 19 4H18.8293C18.4175 2.83481 17.3062 2 16 2H6Z" fill="#6F767E"/>
</svg>
