<svg width="24" height="24" viewBox="0 0 24 24" fill="none" xmlns="http://www.w3.org/2000/svg">
<path fill-rule="evenodd" clip-rule="evenodd" d="M19.6817 14.5946C19.897 14.8579 20.1286 15.1496 20.3534 15.4369C20.9686 16.2232 21.5323 16.9763 21.5678 17.0237L21.5689 17.0252L21.5695 17.0261H21.5678L21.5684 17.0269L21.5695 17.0283C21.9831 17.5451 22.2325 18.1989 22.239 18.9108L22.2391 18.9391C22.2391 20.6296 20.8687 22 19.1782 22C17.4878 22 16.1174 20.6296 16.1174 18.9391C16.1174 18.2153 16.3686 17.5501 16.7887 17.0261L16.7912 17.023C16.7912 17.023 17.8536 15.6006 18.6751 14.5948C18.9378 14.2731 19.4187 14.273 19.6817 14.5946ZM20.0073 18.277C20.1532 18.459 20.2391 18.6863 20.2391 18.9391C20.2391 19.525 19.7641 20 19.1782 20C18.5923 20 18.1174 19.525 18.1174 18.9391C18.1174 18.6865 18.2032 18.4593 18.3489 18.2774C18.5711 17.9859 18.7907 17.6925 19.0135 17.4014C19.0668 17.3317 19.1221 17.2595 19.1789 17.1857C19.2365 17.2605 19.2926 17.3336 19.3467 17.4042C19.5682 17.6935 19.7794 17.9927 20.0073 18.277Z" fill="#6F767E"/>
<path fill-rule="evenodd" clip-rule="evenodd" d="M9.70716 2.22185C10.0977 1.83132 10.7308 1.83132 11.1214 2.22185L18.8995 10C19.0871 10.1875 19.1924 10.4419 19.1924 10.7071C19.1924 10.9723 19.0871 11.2267 18.8995 11.4142L11.8284 18.4853C10.6568 19.6568 8.75736 19.6568 7.58579 18.4853L2.63606 13.5355C1.46449 12.364 1.46449 10.4645 2.63607 9.29289L9.70716 2.22185ZM10.4143 4.34317L4.05028 10.7071C3.65975 11.0976 3.65975 11.7308 4.05028 12.1213L9 17.071C9.39052 17.4616 10.0237 17.4616 10.4142 17.071L16.7782 10.7071L10.4143 4.34317Z" fill="#6F767E"/>
<path d="M5.5356 2.29289C5.14507 1.90237 4.51191 1.90237 4.12138 2.29289C3.73086 2.68342 3.73086 3.31658 4.12138 3.70711L9.54278 9.12851C9.36461 9.79573 9.53725 10.5372 10.0607 11.0606C10.8417 11.8417 12.1081 11.8417 12.8891 11.0606C13.6702 10.2796 13.6702 9.01323 12.8891 8.23218C12.3657 7.70871 11.6242 7.53608 10.957 7.71427L5.5356 2.29289Z" fill="#6F767E"/>
</svg>
