<svg width="24" height="24" viewBox="0 0 24 24" fill="none" xmlns="http://www.w3.org/2000/svg">
<path d="M21.5678 17.0261C21.9878 17.5501 22.2391 18.2153 22.2391 18.9391C22.2391 20.6296 20.8687 22 19.1782 22C17.4878 22 16.1174 20.6296 16.1174 18.9391C16.1174 18.2153 16.3686 17.5501 16.7887 17.0261L16.7912 17.023C16.7912 17.023 17.8536 15.6006 18.6751 14.5948C18.9378 14.2731 19.4187 14.273 19.6817 14.5946C20.5058 15.6025 21.5695 17.0261 21.5695 17.0261H21.5678Z" fill="#6F767E"/>
<path d="M10.9751 2.57536C10.5845 2.18484 9.95138 2.18484 9.56085 2.57536L7.43939 4.69681L10.7393 7.99676C11.4066 7.81859 12.148 7.99122 12.6714 8.51468C13.4525 9.29573 13.4525 10.5621 12.6714 11.3431C11.8904 12.1242 10.6241 12.1242 9.84302 11.3431C9.31955 10.8196 9.14692 10.0782 9.32511 9.41096L6.02515 6.11099L7.43939 4.69681L5.31795 2.57539C4.92742 2.18487 4.29426 2.18487 3.90373 2.57539C3.51321 2.96592 3.51321 3.59908 3.90373 3.98961L6.02515 6.11099L2.48977 9.6464C1.31819 10.818 1.31819 12.7175 2.48976 13.8891L7.43949 18.8388C8.61106 20.0103 10.5105 20.0103 11.6821 18.8388L18.7532 11.7677C18.9408 11.5802 19.0461 11.3258 19.0461 11.0606C19.0461 10.7954 18.9408 10.541 18.7532 10.3535L10.9751 2.57536Z" fill="#6F767E"/>
</svg>
