<svg width="24" height="24" viewBox="0 0 24 24" fill="none" xmlns="http://www.w3.org/2000/svg">
<path fill-rule="evenodd" clip-rule="evenodd" d="M3 10C2.44772 10 2 10.4477 2 11V17C2 18.6569 3.34315 20 5 20H19C20.6569 20 22 18.6569 22 17V11C22 10.4477 21.5523 10 21 10H3ZM5 14C4.44772 14 4 14.4477 4 15C4 15.5523 4.44772 16 5 16H11C11.5523 16 12 15.5523 12 15C12 14.4477 11.5523 14 11 14H5Z" fill="#6F767E"/>
<path d="M2 7C2 5.34315 3.34315 4 5 4H19C20.6569 4 22 5.34315 22 7C22 7.55228 21.5523 8 21 8H3C2.44772 8 2 7.55228 2 7Z" fill="#6F767E"/>
</svg>
