<svg xmlns="http://www.w3.org/2000/svg" width="30" height="30" viewBox="0 0 30 30">
  <g id="Group_7" data-name="Group 7" transform="translate(-285 -778)">
    <rect id="Rectangle_315" data-name="Rectangle 315" width="30" height="30" rx="5" transform="translate(285 778)" fill="#19e9aa"/>
    <g id="Group">
      <path id="Vector" d="M.405,2.94H3.015A1.252,1.252,0,0,0,2.82,2.7L.243.19A1.587,1.587,0,0,0,0,0V2.529A.4.4,0,0,0,.405,2.94Z" transform="translate(303.189 786.221)" fill="#fff"/>
      <path id="Vector-2" data-name="Vector" d="M.294.063C.278.032.246,0,.148,0S.035.032.035.047A1.986,1.986,0,0,0,.278,1.28C.424.616.408.221.294.063Z" transform="translate(299.508 791.532)" fill="#fff"/>
      <path id="Vector-3" data-name="Vector" d="M9.595,4.22A1.469,1.469,0,0,1,8.1,2.766V0H1.442A1.439,1.439,0,0,0,.421.411a1.368,1.368,0,0,0-.421,1V13.593A1.428,1.428,0,0,0,1.442,15h9.546a1.428,1.428,0,0,0,1.442-1.407V4.22Zm.049,5.832A1.221,1.221,0,0,1,8.8,10.4a2.763,2.763,0,0,1-1.588-.727c-.324.063-.681.158-1.1.269-.357.095-.665.205-.94.3-.486.854-1.118,1.723-1.718,1.865a.832.832,0,0,1-.194.032.649.649,0,0,1-.438-.158.677.677,0,0,1-.259-.664c.13-.648,1.2-1.2,2.172-1.581.13-.237.243-.49.357-.743.194-.474.357-.9.47-1.264a3.244,3.244,0,0,1-.567-2.387.735.735,0,0,1,.7-.427.748.748,0,0,1,.665.332c.292.411.243,1.217-.113,2.418a4.409,4.409,0,0,0,.5.7,8.087,8.087,0,0,0,.665.632c1.3-.221,2.156-.126,2.415.285A.662.662,0,0,1,9.644,10.053Z" transform="translate(294 786)" fill="#fff"/>
      <path id="Vector-4" data-name="Vector" d="M.405,0C.308.253.211.522.1.806.065.885.032.948,0,1.027.146.98.259.948.373.917.616.854.859.79,1.07.727A4.255,4.255,0,0,1,.7.348,4.292,4.292,0,0,1,.405,0Z" transform="translate(299.559 794.425)" fill="#fff"/>
      <path id="Vector-5" data-name="Vector" d="M0,.774C.049.854.065.854.113.854A2.142,2.142,0,0,0,.989,0C.34.316.032.616,0,.774Z" transform="translate(297.16 796.669)" fill="#fff"/>
      <path id="Vector-6" data-name="Vector" d="M0,.039A1.557,1.557,0,0,0,.729.292.379.379,0,0,0,1.118.133C1.2.007.778-.04,0,.039Z" transform="translate(302.087 795.477)" fill="#fff"/>
    </g>
  </g>
</svg>
