<svg width="24" height="24" viewBox="0 0 24 24" fill="none" xmlns="http://www.w3.org/2000/svg">
<rect x="6" y="18" width="12" height="4" rx="2" fill="#6F767E"/>
<path d="M10.9498 8.29762C11.123 8.1905 11.25 8.01206 11.25 7.80835V2.42404C11.25 1.94802 10.6477 1.7413 10.3554 2.11698L6.01455 7.69558C5.39932 8.48659 5.31587 9.56855 5.80254 10.4445L8.60315 15.4856C8.77952 15.8031 9.11414 16 9.47731 16H14.5227C14.8859 16 15.2205 15.8031 15.3969 15.4856L18.1975 10.4445C18.6841 9.56855 18.6007 8.48659 17.9855 7.69558L13.6446 2.11698C13.3523 1.7413 12.75 1.94802 12.75 2.42404V7.80835C12.75 8.01206 12.877 8.1905 13.0503 8.29762C13.6202 8.65001 14 9.28065 14 9.99999C14 11.1046 13.1046 12 12 12C10.8954 12 10 11.1046 10 9.99999C10 9.28065 10.3798 8.65001 10.9498 8.29762Z" fill="#6F767E"/>
</svg>
