<svg width="24" height="24" viewBox="0 0 24 24" fill="none" xmlns="http://www.w3.org/2000/svg">
<path fill-rule="evenodd" clip-rule="evenodd" d="M11.269 2.28326L6.48938 7.40423C5.60154 8.35549 5.42815 9.77064 6.06008 10.9081L8.89 16.002C7.28411 16.0599 6 17.38 6 19C6 20.6569 7.34315 22 9 22H15C16.6569 22 18 20.6569 18 19C18 17.38 16.7159 16.0599 15.11 16.002L17.9399 10.9081C18.5719 9.77064 18.3985 8.35549 17.5106 7.40423L12.7311 2.28326C12.3357 1.85968 11.6643 1.85968 11.269 2.28326ZM7.95149 8.76886L11 5.5026V8.26756C10.4022 8.61337 10 9.25972 10 10C10 11.1046 10.8954 12 12 12C13.1046 12 14 11.1046 14 10C14 9.25972 13.5978 8.61337 13 8.26756V5.50259L16.0485 8.76886C16.3445 9.08595 16.4023 9.55767 16.1916 9.93683L12.8232 16H11.1768L7.80839 9.93682C7.59775 9.55767 7.65554 9.08595 7.95149 8.76886ZM8 19C8 18.4477 8.44772 18 9 18H15C15.5523 18 16 18.4477 16 19C16 19.5523 15.5523 20 15 20H9C8.44772 20 8 19.5523 8 19Z" fill="#6F767E"/>
</svg>
