<svg width="24" height="24" viewBox="0 0 24 24" fill="none" xmlns="http://www.w3.org/2000/svg">
<path fill-rule="evenodd" clip-rule="evenodd" d="M12 10C13.6569 10 15 8.65685 15 7C15 5.34315 13.6569 4 12 4C10.3431 4 9 5.34315 9 7C9 8.65685 10.3431 10 12 10ZM12 12C14.7614 12 17 9.76142 17 7C17 4.23858 14.7614 2 12 2C9.23858 2 7 4.23858 7 7C7 9.76142 9.23858 12 12 12Z" fill="#6F767E"/>
<path fill-rule="evenodd" clip-rule="evenodd" d="M9 16C6.79086 16 5 17.7909 5 20V21C5 21.5523 4.55228 22 4 22C3.44772 22 3 21.5523 3 21V20C3 16.6863 5.68629 14 9 14H15C18.3137 14 21 16.6863 21 20V21C21 21.5523 20.5523 22 20 22C19.4477 22 19 21.5523 19 21V20C19 17.7909 17.2091 16 15 16H9Z" fill="#6F767E"/>
</svg>
