<svg width="24" height="24" viewBox="0 0 24 24" fill="none" xmlns="http://www.w3.org/2000/svg">
<path d="M14.2928 9.70711C13.9022 9.31658 13.9022 8.68342 14.2928 8.29289L15.5857 6.99997L14.2929 5.70714C13.9023 5.31661 13.9023 4.68344 14.2929 4.29292C14.6834 3.9024 15.3166 3.9024 15.7071 4.29292L17 5.58571L18.2928 4.29289C18.6833 3.90237 19.3165 3.90237 19.707 4.29289C20.0975 4.68342 20.0975 5.31658 19.707 5.70711L18.4142 6.99992L19.7072 8.29291C20.0977 8.68343 20.0976 9.31663 19.7071 9.70715C19.3166 10.0977 18.6834 10.0977 18.2929 9.70715L16.9999 8.41419L15.707 9.70711C15.3165 10.0976 14.6833 10.0976 14.2928 9.70711Z" fill="#6F767E"/>
<path d="M2.49083 8.70889C1.38751 6.49469 2.50075 4.05103 4.62208 2.77824C5.6434 2.16544 6.96338 2.43139 7.66773 3.39186L9.2304 5.52277C9.89551 6.42974 9.99745 7.63253 9.49446 8.6385L9.08473 9.45795C8.96613 9.69517 8.94737 9.96958 9.0687 10.2054C9.28975 10.6351 9.76047 11.3965 10.6673 12.3033C11.5741 13.2101 12.3355 13.6808 12.7652 13.9019C13.001 14.0232 13.2754 14.0044 13.5126 13.8858L14.3321 13.4761C15.338 12.9731 16.5408 13.0751 17.4478 13.7402L19.5787 15.3028C20.5392 16.0072 20.8051 17.3272 20.1923 18.3485C18.9195 20.4698 16.4759 21.5831 14.2617 20.4797C12.3956 19.5499 10.0109 18.0109 7.48528 15.4853C4.95967 12.9597 3.42071 10.575 2.49083 8.70889Z" fill="#6F767E"/>
</svg>
