<svg width="24" height="24" viewBox="0 0 24 24" fill="none" xmlns="http://www.w3.org/2000/svg">
<path d="M3.18273 9.00943C2.0794 6.79522 3.19265 4.35157 5.31397 3.07877C6.3353 2.46598 7.65528 2.73192 8.35963 3.6924L9.92229 5.82331C10.5874 6.73027 10.6893 7.93307 10.1864 8.93904L9.77663 9.75849C9.65802 9.99571 9.63927 10.2701 9.7606 10.506C9.98164 10.9356 10.4524 11.6971 11.3592 12.6038C12.266 13.5106 13.0274 13.9814 13.4571 14.2024C13.6929 14.3237 13.9673 14.305 14.2045 14.1864L15.024 13.7766C16.0299 13.2737 17.2327 13.3756 18.1397 14.0407L20.2706 15.6034C21.2311 16.3077 21.497 17.6277 20.8842 18.649C19.6114 20.7704 17.1678 21.8836 14.9536 20.7803C13.0874 19.8504 10.7028 18.3114 8.17717 15.7858C5.65156 13.2602 4.11261 10.8756 3.18273 9.00943Z" fill="#6F767E"/>
</svg>
