<svg width="24" height="24" viewBox="0 0 24 24" fill="none" xmlns="http://www.w3.org/2000/svg">
<path d="M2.49083 8.70889C1.38751 6.49469 2.50075 4.05103 4.62208 2.77824C5.6434 2.16544 6.96338 2.43139 7.66773 3.39186L9.2304 5.52277C9.89551 6.42974 9.99745 7.63253 9.49446 8.6385L9.08473 9.45795C8.96613 9.69517 8.94737 9.96958 9.0687 10.2054C9.28975 10.6351 9.76047 11.3965 10.6673 12.3033C11.5741 13.2101 12.3355 13.6808 12.7652 13.9019C13.001 14.0232 13.2754 14.0044 13.5126 13.8858L14.3321 13.4761C15.338 12.9731 16.5408 13.0751 17.4478 13.7402L19.5787 15.3028C20.5392 16.0072 20.8051 17.3272 20.1923 18.3485C18.9195 20.4698 16.4759 21.5831 14.2617 20.4797C12.3956 19.5499 10.0109 18.0109 7.48528 15.4853C4.95967 12.9597 3.42071 10.575 2.49083 8.70889Z" fill="#6F767E"/>
<path d="M16 3.5C15.4477 3.5 15 3.94772 15 4.5C15 5.05228 15.4477 5.5 16 5.5H17.0858L14.2929 8.29289C13.9024 8.68342 13.9024 9.31658 14.2929 9.70711C14.6834 10.0976 15.3166 10.0976 15.7071 9.70711L18.5 6.91421V8C18.5 8.55228 18.9477 9 19.5 9C20.0523 9 20.5 8.55228 20.5 8V5.5C20.5 4.39543 19.6046 3.5 18.5 3.5H16Z" fill="#6F767E"/>
</svg>
