<svg width="24" height="24" viewBox="0 0 24 24" fill="none" xmlns="http://www.w3.org/2000/svg">
<path d="M20.2071 5.20711C20.5976 4.81658 20.5976 4.18342 20.2071 3.79289C19.8166 3.40237 19.1834 3.40237 18.7929 3.79289L16 6.58579V6C16 5.44772 15.5523 5 15 5C14.4477 5 14 5.44772 14 6V8.5C14 9.32843 14.6716 10 15.5 10H18C18.5523 10 19 9.55228 19 9C19 8.44772 18.5523 8 18 8H17.4142L20.2071 5.20711Z" fill="#6F767E"/>
<path d="M2.49083 8.70889C1.38751 6.49469 2.50075 4.05103 4.62208 2.77824C5.6434 2.16544 6.96338 2.43139 7.66773 3.39186L9.2304 5.52277C9.89551 6.42974 9.99745 7.63253 9.49446 8.6385L9.08473 9.45795C8.96613 9.69517 8.94737 9.96958 9.0687 10.2054C9.28975 10.6351 9.76047 11.3965 10.6673 12.3033C11.5741 13.2101 12.3355 13.6808 12.7652 13.9019C13.001 14.0232 13.2754 14.0044 13.5126 13.8858L14.3321 13.4761C15.338 12.9731 16.5408 13.0751 17.4478 13.7402L19.5787 15.3028C20.5392 16.0072 20.8051 17.3272 20.1923 18.3485C18.9195 20.4698 16.4759 21.5831 14.2617 20.4797C12.3956 19.5499 10.0109 18.0109 7.48528 15.4853C4.95967 12.9597 3.42071 10.575 2.49083 8.70889Z" fill="#6F767E"/>
</svg>
