<svg width="24" height="24" viewBox="0 0 24 24" fill="none" xmlns="http://www.w3.org/2000/svg">
<path d="M6 6H5C3.34315 6 2 7.34315 2 9V19C2 20.6569 3.34315 22 5 22H15C16.6569 22 18 20.6569 18 19V18H16V19C16 19.5523 15.5523 20 15 20H5C4.44772 20 4 19.5523 4 19V9C4 8.44772 4.44772 8 5 8H6V6Z" fill="#6F767E"/>
<path fill-rule="evenodd" clip-rule="evenodd" d="M6 5C6 3.34315 7.34315 2 9 2H19C20.6569 2 22 3.34315 22 5V15C22 16.6569 20.6569 18 19 18H9C7.34315 18 6 16.6569 6 15V5ZM9 4H19C19.5523 4 20 4.44772 20 5V15C20 15.2279 19.9238 15.438 19.7954 15.6061C19.7648 15.5654 19.7316 15.5254 19.6959 15.4864L13.319 8.52987C12.0918 7.19102 9.96566 7.24121 8.80293 8.63649L8 9.6V5C8 4.44772 8.44772 4 9 4ZM8 12.7241V15C8 15.5523 8.44772 16 9 16H17.4535L11.8447 9.88132C11.4356 9.43503 10.7269 9.45177 10.3394 9.91686L8 12.7241Z" fill="#6F767E"/>
<circle cx="16.5" cy="7.5" r="1.5" fill="#6F767E"/>
</svg>
