<svg width="24" height="24" viewBox="0 0 24 24" fill="none" xmlns="http://www.w3.org/2000/svg">
<path fill-rule="evenodd" clip-rule="evenodd" d="M9 8.08392C8.16919 8.22435 7.37341 8.53889 6.66658 9.01118C5.67989 9.67047 4.91085 10.6075 4.45673 11.7039C4.0026 12.8003 3.88378 14.0067 4.11529 15.1705C4.3468 16.3344 4.91825 17.4035 5.75736 18.2426C6.59648 19.0818 7.66558 19.6532 8.82946 19.8847C9.99335 20.1162 11.1997 19.9974 12.2961 19.5433C13.3925 19.0892 14.3295 18.3201 14.9888 17.3334C15.4611 16.6266 15.7757 15.8308 15.9161 15H10C9.73479 15 9.48043 14.8946 9.2929 14.7071C9.10536 14.5196 9 14.2652 9 14V8.08392ZM5.55544 7.34824C6.87104 6.46919 8.41775 6 10 6C10.5523 6 11 6.44772 11 7V13H17C17.5523 13 18 13.4477 18 14C18 15.5823 17.5308 17.129 16.6518 18.4446C15.7727 19.7602 14.5233 20.7855 13.0615 21.391C11.5997 21.9965 9.99113 22.155 8.43928 21.8463C6.88743 21.5376 5.46197 20.7757 4.34315 19.6569C3.22433 18.538 2.4624 17.1126 2.15372 15.5607C1.84504 14.0089 2.00347 12.4003 2.60897 10.9385C3.21447 9.47672 4.23985 8.22729 5.55544 7.34824Z" fill="#6F767E"/>
<path fill-rule="evenodd" clip-rule="evenodd" d="M13.2929 2.29289C13.4804 2.10536 13.7348 2 14 2C16.1217 2 18.1566 2.84285 19.6569 4.34314C21.1571 5.84344 22 7.87827 22 10C22 10.5523 21.5523 11 21 11L14 11C13.7348 11 13.4804 10.8946 13.2929 10.7071C13.1054 10.5196 13 10.2652 13 10V3C13 2.73478 13.1054 2.48043 13.2929 2.29289ZM15 4.08389V9L19.9161 9C19.7098 7.77969 19.1293 6.64405 18.2426 5.75736C17.3559 4.87067 16.2203 4.29016 15 4.08389Z" fill="#6F767E"/>
</svg>
