<svg width="24" height="24" viewBox="0 0 24 24" fill="none" xmlns="http://www.w3.org/2000/svg">
<path d="M18 14.6759V15C18 15.5523 17.5523 16 17 16H13V21C13 21.5523 12.5523 22 12 22C11.4477 22 11 21.5523 11 21V16H7C6.44772 16 6 15.5523 6 15V14.6759C6 13.0042 6.83551 11.443 8.2265 10.5157L8.5547 10.2969C8.8329 10.1114 9 9.79917 9 9.46482V7.85078C9 7.62371 8.92272 7.4034 8.78087 7.22609L7.21913 5.27391C7.07728 5.0966 7 4.87629 7 4.64922V3C7 2.44772 7.44772 2 8 2H16C16.5523 2 17 2.44772 17 3V4.64922C17 4.87629 16.9227 5.0966 16.7809 5.27391L15.2191 7.22609C15.0773 7.4034 15 7.62371 15 7.85078V9.46482C15 9.79917 15.1671 10.1114 15.4453 10.2969L15.7735 10.5157C17.1645 11.443 18 13.0042 18 14.6759Z" fill="#6F767E"/>
</svg>
