<svg width="24" height="24" viewBox="0 0 24 24" fill="none" xmlns="http://www.w3.org/2000/svg">
<path fill-rule="evenodd" clip-rule="evenodd" d="M13 16H17C17.5523 16 18 15.5523 18 15V14.6759C18 13.0042 17.1645 11.443 15.7735 10.5157L15.4453 10.2969C15.1671 10.1114 15 9.79917 15 9.46482V7.85078C15 7.62371 15.0773 7.4034 15.2191 7.22609L16.7809 5.27391C16.9227 5.0966 17 4.87629 17 4.64922V3C17 2.44772 16.5523 2 16 2H8C7.44772 2 7 2.44772 7 3V4.64922C7 4.87629 7.07728 5.0966 7.21913 5.27391L8.78087 7.22609C8.92272 7.4034 9 7.62371 9 7.85078V9.46482C9 9.79917 8.8329 10.1114 8.5547 10.2969L8.2265 10.5157C6.83551 11.443 6 13.0042 6 14.6759V15C6 15.5523 6.44772 16 7 16H11V21C11 21.5523 11.4477 22 12 22C12.5523 22 13 21.5523 13 21V16ZM14.6641 12.1798C15.3073 12.6086 15.7525 13.2632 15.9229 14H8.07709C8.24749 13.2632 8.69272 12.6086 9.3359 12.1798L9.6641 11.961C10.4987 11.4046 11 10.4679 11 9.46482V7.85078C11 7.16957 10.7682 6.50863 10.3426 5.9767L9 4.29844V4H15V4.29844L13.6574 5.9767C13.2318 6.50863 13 7.16957 13 7.85078V9.46482C13 10.4679 13.5013 11.4046 14.3359 11.961L14.6641 12.1798Z" fill="#6F767E"/>
</svg>
