<svg width="24" height="24" viewBox="0 0 24 24" fill="none" xmlns="http://www.w3.org/2000/svg">
<path fill-rule="evenodd" clip-rule="evenodd" d="M12.3193 2.0404C14.9805 1.91784 17.7186 2.86657 19.2894 4.88609C23.2876 10.0267 19.4207 17 14 17C12.7127 17 11.7014 16.7173 10.9326 16.2093C10.6371 16.0141 10.3892 15.7933 10.1819 15.5581L8.41697 21.2941C8.25455 21.822 7.69497 22.1182 7.16711 21.9558C6.63924 21.7934 6.34299 21.2338 6.50541 20.7059L10.5054 7.70596C10.6678 7.1781 11.2274 6.88185 11.7553 7.04427C12.2832 7.20669 12.5794 7.76627 12.417 8.29413L11.2058 12.2304C11.2036 12.2459 11.2009 12.2657 11.1981 12.2891C11.1888 12.3687 11.1784 12.4885 11.177 12.6343C11.1742 12.9331 11.2099 13.3024 11.3396 13.6519C11.4649 13.9891 11.6743 14.3023 12.0352 14.5407C12.4014 14.7827 13.0033 15 14 15C17.7154 15 20.7124 9.97333 17.7106 6.11397C16.6407 4.73834 14.6094 3.93705 12.4113 4.03828C10.2374 4.1384 8.08493 5.11715 6.79319 7.05476C5.95325 8.31467 5.87675 9.51733 6.12255 10.4266C6.38508 11.3977 6.96936 11.9314 7.33302 12.0473C7.8592 12.2151 8.14973 12.7777 7.98194 13.3039C7.81415 13.83 7.25158 14.1206 6.7254 13.9528C5.5211 13.5688 4.57136 12.3524 4.19185 10.9485C3.79561 9.48274 3.96906 7.6854 5.12909 5.94536C6.83739 3.38291 9.63398 2.16407 12.3193 2.0404Z" fill="#6F767E"/>
</svg>
