<svg width="24" height="24" viewBox="0 0 24 24" fill="none" xmlns="http://www.w3.org/2000/svg">
<path d="M11.9588 3.18438C10.4839 2.42936 8.76946 3.29594 8.24332 4.86704L7.95721 5.72137C10.2829 6.56869 12.3972 7.91435 14.1511 9.66604C15.9052 11.418 17.2536 13.5311 18.1038 15.8562L18.9583 15.5688C20.5287 15.0407 21.3932 13.3252 20.6364 11.8513C19.6882 10.0048 18.4555 8.3117 16.9783 6.83627C15.5011 5.36085 13.8064 4.13026 11.9588 3.18438Z" fill="#6F767E"/>
<path fill-rule="evenodd" clip-rule="evenodd" d="M16.2074 16.4939C15.4562 14.4617 14.2731 12.6146 12.7377 11.0811C11.2026 9.5479 9.35448 8.36722 7.32185 7.61859L6.6691 9.56775C6.56226 9.88679 6.79744 10.2189 7.12349 10.302C7.62846 10.4305 8.10649 10.6924 8.50169 11.0876C9.67326 12.2592 9.67326 14.1587 8.50169 15.3303C7.61545 16.2165 6.31267 16.4324 5.22354 15.9778C4.91285 15.8481 4.52453 15.9716 4.41762 16.2908L3.4832 19.081C3.22093 19.8642 3.96733 20.6097 4.75016 20.3464L16.2074 16.4939ZM11.3302 15.3303C11.7208 15.7208 12.3539 15.7208 12.7445 15.3303C13.135 14.9398 13.135 14.3066 12.7445 13.9161C12.3539 13.5256 11.7208 13.5256 11.3302 13.9161C10.9397 14.3066 10.9397 14.9398 11.3302 15.3303Z" fill="#6F767E"/>
</svg>
