<svg width="24" height="24" viewBox="0 0 24 24" fill="none" xmlns="http://www.w3.org/2000/svg">
<path d="M12.1181 14.7149C12.5086 15.1054 13.1418 15.1054 13.5323 14.7149C13.9228 14.3244 13.9228 13.6912 13.5323 13.3007C13.1418 12.9102 12.5086 12.9102 12.1181 13.3007C11.7276 13.6912 11.7276 14.3244 12.1181 14.7149Z" fill="#6F767E"/>
<path fill-rule="evenodd" clip-rule="evenodd" d="M8.32413 4.95883L3.56401 19.1728C3.52764 19.2814 3.51067 19.3893 3.5105 19.4939C3.50944 20.1434 4.15669 20.665 4.83097 20.4383L19.0391 15.6606C20.6095 15.1325 21.474 13.417 20.7172 11.9431C19.769 10.0966 18.5364 8.4035 17.0591 6.92807C15.5819 5.45264 13.8872 4.22206 12.0396 3.27618C10.5647 2.52116 8.85027 3.38774 8.32413 4.95883ZM15.6458 8.34315C14.3163 7.01527 12.7911 5.90775 11.1282 5.05645C10.9834 4.98235 10.8386 4.97931 10.676 5.05562C10.4961 5.14009 10.3115 5.32248 10.2206 5.59394L9.8632 6.66121C11.479 7.4387 12.957 8.48441 14.2324 9.75827C15.5078 11.0321 16.5554 12.5088 17.3349 14.1237L18.4017 13.7649C18.673 13.6737 18.8552 13.4888 18.9394 13.3088C19.0155 13.1462 19.0123 13.0013 18.938 12.8567C18.0847 11.1949 16.9753 9.67104 15.6458 8.34315ZM8.61361 10.3926L9.22234 8.57485C10.548 9.24241 11.7629 10.1185 12.8191 11.1734C13.8752 12.2282 14.7528 13.4421 15.422 14.7669L6.09883 17.9019L6.71318 16.0674C7.80341 16.5249 9.10906 16.3099 9.99678 15.4221C11.1683 14.2506 11.1683 12.3511 9.99678 11.1795C9.60028 10.783 9.12042 10.5207 8.61361 10.3926ZM8.58256 14.0079C8.24919 14.3413 7.73898 14.3901 7.35386 14.1543L7.97297 12.3055C8.19549 12.3272 8.41213 12.4233 8.58256 12.5937C8.97309 12.9842 8.97309 13.6174 8.58256 14.0079Z" fill="#6F767E"/>
</svg>
