<svg width="24" height="24" viewBox="0 0 24 24" fill="none" xmlns="http://www.w3.org/2000/svg">
<path d="M16.2724 3.43188C14.9369 3.76575 14 4.9657 14 6.3423V13.5351C13.4117 13.1948 12.7286 13 12 13C9.79086 13 8 14.7909 8 17C8 19.2091 9.79086 21 12 21C14.2091 21 16 19.2091 16 17V9.89036C16 9.66093 16.1561 9.46094 16.3787 9.40529L19.7276 8.56807C21.0631 8.2342 22 7.03425 22 5.65765V5.20192C22 3.57549 20.4715 2.38209 18.8937 2.77656L16.2724 3.43188Z" fill="#6F767E"/>
<path fill-rule="evenodd" clip-rule="evenodd" d="M2 6C2 5.44772 2.44772 5 3 5H11C11.5523 5 12 5.44772 12 6C12 6.55228 11.5523 7 11 7H3C2.44772 7 2 6.55228 2 6Z" fill="#6F767E"/>
<path fill-rule="evenodd" clip-rule="evenodd" d="M2 10C2 9.44772 2.44772 9 3 9H11C11.5523 9 12 9.44772 12 10C12 10.5523 11.5523 11 11 11H3C2.44772 11 2 10.5523 2 10Z" fill="#6F767E"/>
<path fill-rule="evenodd" clip-rule="evenodd" d="M2 14C2 13.4477 2.44772 13 3 13H6C6.55228 13 7 13.4477 7 14C7 14.5523 6.55228 15 6 15H3C2.44772 15 2 14.5523 2 14Z" fill="#6F767E"/>
</svg>
