<svg width="24" height="24" viewBox="0 0 24 24" fill="none" xmlns="http://www.w3.org/2000/svg">
<path fill-rule="evenodd" clip-rule="evenodd" d="M2 6C2 5.44772 2.44772 5 3 5H11C11.5523 5 12 5.44772 12 6C12 6.55228 11.5523 7 11 7H3C2.44772 7 2 6.55228 2 6Z" fill="#6F767E"/>
<path fill-rule="evenodd" clip-rule="evenodd" d="M2 10C2 9.44772 2.44772 9 3 9H11C11.5523 9 12 9.44772 12 10C12 10.5523 11.5523 11 11 11H3C2.44772 11 2 10.5523 2 10Z" fill="#6F767E"/>
<path fill-rule="evenodd" clip-rule="evenodd" d="M2 14C2 13.4477 2.44772 13 3 13H6C6.55228 13 7 13.4477 7 14C7 14.5523 6.55228 15 6 15H3C2.44772 15 2 14.5523 2 14Z" fill="#6F767E"/>
<path fill-rule="evenodd" clip-rule="evenodd" d="M14 6.34238C14 4.96578 14.9369 3.76583 16.2724 3.43195L18.3837 2.90413C20.2206 2.4449 22 3.83422 22 5.72766C22 7.06316 21.0911 8.22728 19.7955 8.55119L16 9.50005V17C16 19.2091 14.2091 21 12 21C9.79086 21 8 19.2091 8 17C8 14.7909 9.79086 13 12 13C12.7286 13 13.4117 13.1948 14 13.5351V6.34238ZM16.7575 5.37224L18.8688 4.84441C19.4434 4.70076 20 5.13536 20 5.72766C20 6.14542 19.7157 6.50958 19.3104 6.6109L16 7.4385V6.34238C16 5.88351 16.3123 5.48353 16.7575 5.37224ZM12 15C13.1046 15 14 15.8954 14 17C14 18.1046 13.1046 19 12 19C10.8954 19 10 18.1046 10 17C10 15.8954 10.8954 15 12 15Z" fill="#6F767E"/>
</svg>
