<svg width="24" height="24" viewBox="0 0 24 24" fill="none" xmlns="http://www.w3.org/2000/svg">
<path fill-rule="evenodd" clip-rule="evenodd" d="M12 20C16.4183 20 20 16.4183 20 12C20 7.58172 16.4183 4 12 4C7.58172 4 4 7.58172 4 12C4 16.4183 7.58172 20 12 20ZM12 22C17.5228 22 22 17.5228 22 12C22 6.47715 17.5228 2 12 2C6.47715 2 2 6.47715 2 12C2 17.5228 6.47715 22 12 22Z" fill="#6F767E"/>
<path fill-rule="evenodd" clip-rule="evenodd" d="M10 14.5359L14.3923 12L10 9.46409L10 14.5359ZM15.3923 13.732C16.7256 12.9622 16.7256 11.0377 15.3923 10.2679L11 7.73204C9.66667 6.96224 8 7.92449 8 9.46409V14.5359C8 16.0755 9.66667 17.0377 11 16.2679L15.3923 13.732Z" fill="#6F767E"/>
</svg>
