<svg width="24" height="24" viewBox="0 0 24 24" fill="none" xmlns="http://www.w3.org/2000/svg">
<path d="M8 10C8.55229 10 9 9.55229 9 9C9 8.44771 8.55229 8 8 8C7.44772 8 7 8.44771 7 9C7 9.55229 7.44772 10 8 10Z" fill="#6F767E"/>
<path fill-rule="evenodd" clip-rule="evenodd" d="M2 2C1.44772 2 1 2.44772 1 3C1 3.55228 1.44772 4 2 4V13C2 14.6569 3.34315 16 5 16H11V16.5858L7.29289 20.2929C6.90237 20.6834 6.90237 21.3166 7.29289 21.7071C7.68342 22.0976 8.31658 22.0976 8.70711 21.7071L11 19.4142V20C11 20.5523 11.4477 21 12 21C12.5523 21 13 20.5523 13 20V19.4142L15.2929 21.7071C15.6834 22.0976 16.3166 22.0976 16.7071 21.7071C17.0976 21.3166 17.0976 20.6834 16.7071 20.2929L13 16.5858V16H19C20.6569 16 22 14.6569 22 13V4C22.5523 4 23 3.55228 23 3C23 2.44772 22.5523 2 22 2H2ZM11 9C11 10.6569 9.65685 12 8 12C6.34315 12 5 10.6569 5 9C5 7.34315 6.34315 6 8 6C9.65685 6 11 7.34315 11 9ZM15 6C14.4477 6 14 6.44772 14 7C14 7.55228 14.4477 8 15 8H18C18.5523 8 19 7.55228 19 7C19 6.44772 18.5523 6 18 6H15ZM14 11C14 10.4477 14.4477 10 15 10H18C18.5523 10 19 10.4477 19 11C19 11.5523 18.5523 12 18 12H15C14.4477 12 14 11.5523 14 11Z" fill="#6F767E"/>
</svg>
