<svg width="24" height="24" viewBox="0 0 24 24" fill="none" xmlns="http://www.w3.org/2000/svg">
<path fill-rule="evenodd" clip-rule="evenodd" d="M2 2C1.44772 2 1 2.44772 1 3C1 3.55228 1.44772 4 2 4V13C2 14.6569 3.34315 16 5 16H11V16.5858L7.29289 20.2929C6.90237 20.6834 6.90237 21.3166 7.29289 21.7071C7.68342 22.0976 8.31658 22.0976 8.70711 21.7071L11 19.4142V20C11 20.5523 11.4477 21 12 21C12.5523 21 13 20.5523 13 20V19.4142L15.2929 21.7071C15.6834 22.0976 16.3166 22.0976 16.7071 21.7071C17.0976 21.3166 17.0976 20.6834 16.7071 20.2929L13 16.5858V16H19C20.6569 16 22 14.6569 22 13V4C22.5523 4 23 3.55228 23 3C23 2.44772 22.5523 2 22 2H2ZM20 4H4V13C4 13.5523 4.44772 14 5 14H19C19.5523 14 20 13.5523 20 13V4Z" fill="#6F767E"/>
<path fill-rule="evenodd" clip-rule="evenodd" d="M9 8C8.44772 8 8 8.44772 8 9C8 9.55228 8.44772 10 9 10C9.55228 10 10 9.55228 10 9C10 8.44772 9.55228 8 9 8ZM6 9C6 7.34315 7.34315 6 9 6C10.6569 6 12 7.34315 12 9C12 10.6569 10.6569 12 9 12C7.34315 12 6 10.6569 6 9Z" fill="#6F767E"/>
<path fill-rule="evenodd" clip-rule="evenodd" d="M14 7C14 6.44772 14.4477 6 15 6H17C17.5523 6 18 6.44772 18 7C18 7.55228 17.5523 8 17 8H15C14.4477 8 14 7.55228 14 7Z" fill="#6F767E"/>
<path fill-rule="evenodd" clip-rule="evenodd" d="M14 11C14 10.4477 14.4477 10 15 10H17C17.5523 10 18 10.4477 18 11C18 11.5523 17.5523 12 17 12H15C14.4477 12 14 11.5523 14 11Z" fill="#6F767E"/>
</svg>
