<svg width="24" height="24" viewBox="0 0 24 24" fill="none" xmlns="http://www.w3.org/2000/svg">
<path fill-rule="evenodd" clip-rule="evenodd" d="M17.493 17.6167L9.4099 12.8619C8.7526 12.4753 8.7526 11.5247 9.4099 11.1381L17.493 6.38331C18.1596 5.99117 19 6.47183 19 7.24524V16.7547C19 17.5282 18.1596 18.0088 17.493 17.6167ZM8.39586 14.5858C6.42395 13.4258 6.42395 10.5741 8.39586 9.41419L16.4789 4.65944C18.4788 3.48303 21 4.925 21 7.24524V16.7547C21 19.075 18.4788 20.517 16.4789 19.3405L8.39586 14.5858Z" fill="#6F767E"/>
<path fill-rule="evenodd" clip-rule="evenodd" d="M4 4C3.44772 4 3 4.44772 3 5V19C3 19.5523 3.44772 20 4 20C4.55228 20 5 19.5523 5 19V5C5 4.44772 4.55228 4 4 4Z" fill="#6F767E"/>
</svg>
