<svg width="24" height="24" viewBox="0 0 24 24" fill="none" xmlns="http://www.w3.org/2000/svg">
<path fill-rule="evenodd" clip-rule="evenodd" d="M7 4.5V7H5C3.34315 7 2 8.34315 2 10V16C2 17.6569 3.34315 19 5 19H7V19.5C7 20.8807 8.11929 22 9.5 22H14.5C15.8807 22 17 20.8807 17 19.5V19H19C20.6569 19 22 17.6569 22 16V10C22 8.34315 20.6569 7 19 7H17V4.5C17 3.11929 15.8807 2 14.5 2H9.5C8.11929 2 7 3.11929 7 4.5ZM14.5 4H9.5C9.22386 4 9 4.22386 9 4.5V7H15V4.5C15 4.22386 14.7761 4 14.5 4ZM9.5 16H14.5C14.7761 16 15 16.2239 15 16.5V19.5C15 19.7761 14.7761 20 14.5 20H9.5C9.22386 20 9 19.7761 9 19.5V16.5C9 16.2239 9.22386 16 9.5 16ZM20 10C20 10.5523 19.5523 11 19 11C18.4477 11 18 10.5523 18 10C18 9.44772 18.4477 9 19 9C19.5523 9 20 9.44772 20 10Z" fill="#6F767E"/>
</svg>
