<svg width="24" height="24" viewBox="0 0 24 24" fill="none" xmlns="http://www.w3.org/2000/svg">
<path fill-rule="evenodd" clip-rule="evenodd" d="M7 5V7H5C3.34315 7 2 8.34315 2 10V16C2 17.6569 3.34315 19 5 19H7C7 20.6569 8.34315 22 10 22H14C15.6569 22 17 20.6569 17 19H19C20.6569 19 22 17.6569 22 16V10C22 8.34315 20.6569 7 19 7H17V5C17 3.34315 15.6569 2 14 2H10C8.34315 2 7 3.34315 7 5ZM17 17H19C19.5523 17 20 16.5523 20 16V10C20 9.44771 19.5523 9 19 9H5C4.44772 9 4 9.44772 4 10V16C4 16.5523 4.44772 17 5 17H7V16C6.44772 16 6 15.5523 6 15C6 14.4477 6.44772 14 7 14H17C17.5523 14 18 14.4477 18 15C18 15.5523 17.5523 16 17 16V17ZM15 16H9V19C9 19.5523 9.44772 20 10 20H14C14.5523 20 15 19.5523 15 19V16ZM14 4H10C9.44771 4 9 4.44772 9 5V7H15V5C15 4.44772 14.5523 4 14 4Z" fill="#6F767E"/>
<path fill-rule="evenodd" clip-rule="evenodd" d="M18 12C18.5523 12 19 11.5523 19 11C19 10.4477 18.5523 10 18 10C17.4477 10 17 10.4477 17 11C17 11.5523 17.4477 12 18 12Z" fill="#6F767E"/>
</svg>
