<svg width="24" height="24" viewBox="0 0 24 24" fill="none" xmlns="http://www.w3.org/2000/svg">
<path fill-rule="evenodd" clip-rule="evenodd" d="M3 6.66223C3 5.37094 3.82629 4.22452 5.05132 3.81618L11.0513 1.81618C11.6671 1.61092 12.3329 1.61091 12.9487 1.81618L18.9487 3.81618C20.1737 4.22452 21 5.37094 21 6.66223V12C21 17.502 15.4398 20.8417 13.0601 22.0191C12.3875 22.3519 11.6125 22.3519 10.9399 22.0191C8.56019 20.8417 3 17.502 3 12V6.66223ZM15 9C15 10.6569 13.6569 12 12 12C10.3431 12 9 10.6569 9 9C9 7.34315 10.3431 6 12 6C13.6569 6 15 7.34315 15 9ZM12 14C13.7944 14 15.431 14.6751 16.6698 15.7852C17.0352 16.1126 17.0409 16.671 16.6998 17.0236C16.6392 17.0861 16.5779 17.1481 16.5157 17.2096C15.0429 18.6671 13.2698 19.684 12.1732 20.2265C12.0595 20.2827 11.9405 20.2827 11.8269 20.2265C10.7303 19.684 8.95721 18.6671 7.48435 17.2096C7.42218 17.1481 7.36082 17.0861 7.30031 17.0236C6.95912 16.671 6.96487 16.1126 7.33023 15.7852C8.56904 14.6751 10.2057 14 12 14Z" fill="#6F767E"/>
</svg>
