<svg width="24" height="24" viewBox="0 0 24 24" fill="none" xmlns="http://www.w3.org/2000/svg">
<path fill-rule="evenodd" clip-rule="evenodd" d="M11.6838 3.71361L5.68377 5.71361C5.27543 5.84972 5 6.23186 5 6.66229V12C5 14.0257 6.01463 15.7554 7.48432 17.2097C8.95718 18.6671 10.7303 19.684 11.8268 20.2266C11.9405 20.2828 12.0595 20.2828 12.1731 20.2266C13.2697 19.684 15.0428 18.6671 16.5157 17.2097C17.9854 15.7554 19 14.0257 19 12V6.66229C19 6.23186 18.7246 5.84972 18.3162 5.71361L12.3162 3.71361C12.111 3.64519 11.889 3.64519 11.6838 3.71361ZM5.05132 3.81624C3.82629 4.22458 3 5.371 3 6.66229V12C3 17.502 8.56019 20.8417 10.9399 22.0192C11.6125 22.3519 12.3875 22.3519 13.0601 22.0192C15.4398 20.8417 21 17.502 21 12V6.66229C21 5.371 20.1737 4.22459 18.9487 3.81624L12.9487 1.81624C12.3329 1.61098 11.6671 1.61098 11.0513 1.81624L5.05132 3.81624Z" fill="#6F767E"/>
<path fill-rule="evenodd" clip-rule="evenodd" d="M12 11C12.5523 11 13 10.5523 13 10C13 9.44772 12.5523 9 12 9C11.4477 9 11 9.44772 11 10C11 10.5523 11.4477 11 12 11ZM12 13C13.6569 13 15 11.6569 15 10C15 8.34315 13.6569 7 12 7C10.3431 7 9 8.34315 9 10C9 11.6569 10.3431 13 12 13Z" fill="#6F767E"/>
<path d="M17.2679 16.3901C15.9848 14.9251 14.1005 14 12 14C9.8996 14 8.01524 14.9251 6.73218 16.3901C6.96567 16.6724 7.21751 16.9456 7.48435 17.2096C7.69865 17.4217 7.9193 17.6244 8.1433 17.8177C9.06039 16.7075 10.4476 16 12 16C13.5525 16 14.9397 16.7075 15.8568 17.8177C16.0808 17.6244 16.3014 17.4217 16.5157 17.2096C16.7826 16.9456 17.0344 16.6724 17.2679 16.3901Z" fill="#6F767E"/>
</svg>
