<svg width="24" height="24" viewBox="0 0 24 24" fill="none" xmlns="http://www.w3.org/2000/svg">
<path fill-rule="evenodd" clip-rule="evenodd" d="M12 12C13.1046 12 14 11.1046 14 10C14 8.89543 13.1046 8 12 8C10.8954 8 10 8.89543 10 10C10 11.1046 10.8954 12 12 12ZM12 14C14.2091 14 16 12.2091 16 10C16 7.79086 14.2091 6 12 6C9.79086 6 8 7.79086 8 10C8 12.2091 9.79086 14 12 14Z" fill="#6F767E"/>
<path fill-rule="evenodd" clip-rule="evenodd" d="M18.5588 19.5488C20.6672 17.7154 22 15.0134 22 12C22 6.47715 17.5228 2 12 2C6.47715 2 2 6.47715 2 12C2 15.0134 3.33284 17.7154 5.44116 19.5488C7.19693 21.0756 9.49052 22 12 22C14.4162 22 16.6323 21.143 18.3609 19.7165C18.4276 19.6614 18.4936 19.6055 18.5588 19.5488ZM12.2579 19.9959C12.1723 19.9986 12.0863 20 12 20C11.9914 20 11.9827 20 11.9741 20C11.8937 19.9997 11.8135 19.9983 11.7337 19.9956C10.3914 19.9517 9.13273 19.5772 8.03655 18.9508C8.95181 17.7632 10.3882 17 12 17C13.6118 17 15.0482 17.7632 15.9634 18.9508C14.865 19.5785 13.6033 19.9533 12.2579 19.9959ZM17.5624 17.7498C16.2832 16.0781 14.2675 15 12 15C9.73249 15 7.7168 16.0781 6.43759 17.7498C4.93447 16.2953 4 14.2568 4 12C4 7.58172 7.58172 4 12 4C16.4183 4 20 7.58172 20 12C20 14.2568 19.0655 16.2953 17.5624 17.7498Z" fill="#6F767E"/>
</svg>
