<svg width="24" height="24" viewBox="0 0 24 24" fill="none" xmlns="http://www.w3.org/2000/svg">
<path fill-rule="evenodd" clip-rule="evenodd" d="M10.0541 2.3444C11.1754 1.38886 12.8245 1.38886 13.9458 2.3444L15.2173 3.42794C15.3774 3.56443 15.5766 3.64692 15.7863 3.66366L17.4516 3.79654C18.9201 3.91373 20.0863 5.07986 20.2034 6.54839L20.3363 8.21363C20.3531 8.4234 20.4356 8.62254 20.572 8.7827L21.6556 10.0542C22.6111 11.1754 22.6111 12.8246 21.6556 13.9459L20.572 15.2173C20.4356 15.3775 20.3531 15.5766 20.3363 15.7864L20.2034 17.4517C20.0863 18.9202 18.9201 20.0863 17.4516 20.2035L15.7863 20.3364C15.5766 20.3531 15.3774 20.4356 15.2173 20.5721L13.9458 21.6556C12.8245 22.6112 11.1754 22.6112 10.0541 21.6556L8.78264 20.5721C8.62248 20.4356 8.42334 20.3531 8.21357 20.3364L6.54833 20.2035C5.0798 20.0863 3.91367 18.9202 3.79648 17.4517L3.66359 15.7864C3.64686 15.5766 3.56437 15.3775 3.42788 15.2173L2.34434 13.9459C1.3888 12.8246 1.3888 11.1754 2.34434 10.0542L3.42788 8.7827C3.56437 8.62254 3.64686 8.4234 3.66359 8.21363L3.79648 6.54839C3.91367 5.07986 5.0798 3.91373 6.54833 3.79654L8.21357 3.66366C8.42334 3.64692 8.62248 3.56443 8.78264 3.42794L10.0541 2.3444ZM8.5 10C9.32843 10 10 9.32843 10 8.5C10 7.67157 9.32843 7 8.5 7C7.67157 7 7 7.67157 7 8.5C7 9.32843 7.67157 10 8.5 10ZM17 15.5C17 16.3284 16.3284 17 15.5 17C14.6716 17 14 16.3284 14 15.5C14 14.6716 14.6716 14 15.5 14C16.3284 14 17 14.6716 17 15.5ZM16.1017 8.64021C16.4552 8.21593 16.3979 7.58537 15.9736 7.2318C15.5493 6.87824 14.9188 6.93556 14.5652 7.35984L7.89855 15.3598C7.54499 15.7841 7.60231 16.4147 8.02659 16.7682C8.45087 17.1218 9.08143 17.0645 9.43499 16.6402L16.1017 8.64021Z" fill="#6F767E"/>
</svg>
