<svg width="24" height="24" viewBox="0 0 24 24" fill="none" xmlns="http://www.w3.org/2000/svg">
<path fill-rule="evenodd" clip-rule="evenodd" d="M10.0541 2.34439C11.1754 1.38885 12.8245 1.38885 13.9458 2.34439L15.2173 3.42792C15.3774 3.56441 15.5766 3.6469 15.7863 3.66364L17.4516 3.79653C18.9201 3.91372 20.0863 5.07985 20.2034 6.54838L20.3363 8.21362C20.3531 8.42338 20.4356 8.62252 20.572 8.78269L21.6556 10.0542C22.6111 11.1754 22.6111 12.8246 21.6556 13.9459L20.572 15.2173C20.4356 15.3775 20.3531 15.5766 20.3363 15.7864L20.2034 17.4516C20.0863 18.9202 18.9201 20.0863 17.4516 20.2035L15.7863 20.3364C15.5766 20.3531 15.3774 20.4356 15.2173 20.5721L13.9458 21.6556C12.8245 22.6112 11.1754 22.6112 10.0541 21.6556L8.78264 20.5721C8.62248 20.4356 8.42334 20.3531 8.21357 20.3364L6.54833 20.2035C5.0798 20.0863 3.91367 18.9202 3.79648 17.4516L3.66359 15.7864C3.64685 15.5766 3.56437 15.3775 3.42788 15.2173L2.34434 13.9459C1.3888 12.8246 1.3888 11.1754 2.34434 10.0542L3.42788 8.78269C3.56437 8.62252 3.64685 8.42338 3.66359 8.21362L3.79648 6.54838C3.91367 5.07985 5.0798 3.91372 6.54833 3.79653L8.21357 3.66364C8.42334 3.6469 8.62248 3.56441 8.78264 3.42792L10.0541 2.34439ZM12.6486 3.86662C12.2748 3.5481 11.7251 3.5481 11.3513 3.86662L10.0799 4.95015C9.59939 5.35963 9.00197 5.60708 8.37267 5.6573L6.70743 5.79019C6.21792 5.82925 5.82921 6.21796 5.79014 6.70747L5.65726 8.37271C5.60704 9.00201 5.35958 9.59943 4.95011 10.0799L3.86657 11.3514C3.54806 11.7251 3.54806 12.2749 3.86657 12.6486L4.95011 13.9201C5.35958 14.4006 5.60704 14.998 5.65726 15.6273L5.79014 17.2925C5.82921 17.7821 6.21792 18.1708 6.70743 18.2098L8.37267 18.3427C9.00197 18.3929 9.59939 18.6404 10.0799 19.0499L11.3513 20.1334C11.7251 20.4519 12.2748 20.4519 12.6486 20.1334L13.92 19.0499C14.4005 18.6404 14.998 18.3929 15.6273 18.3427L17.2925 18.2098C17.782 18.1708 18.1707 17.7821 18.2098 17.2925L18.3427 15.6273C18.3929 14.998 18.6403 14.4006 19.0498 13.9201L20.1334 12.6486C20.4519 12.2749 20.4519 11.7251 20.1334 11.3514L19.0498 10.0799C18.6403 9.59943 18.3929 9.00201 18.3427 8.37271L18.2098 6.70747C18.1707 6.21796 17.782 5.82925 17.2925 5.79019L15.6273 5.6573C14.998 5.60708 14.4005 5.35962 13.92 4.95015L12.6486 3.86662Z" fill="#6F767E"/>
<path d="M11 9.5C11 10.3284 10.3284 11 9.5 11C8.67157 11 8 10.3284 8 9.5C8 8.67157 8.67157 8 9.5 8C10.3284 8 11 8.67157 11 9.5Z" fill="#6F767E"/>
<path d="M16 14.5C16 15.3284 15.3284 16 14.5 16C13.6716 16 13 15.3284 13 14.5C13 13.6716 13.6716 13 14.5 13C15.3284 13 16 13.6716 16 14.5Z" fill="#6F767E"/>
<path fill-rule="evenodd" clip-rule="evenodd" d="M15.1402 8.23177C15.5645 8.58534 15.6218 9.2159 15.2682 9.64018L10.2682 15.6402C9.91468 16.0645 9.28412 16.1218 8.85984 15.7682C8.43556 15.4147 8.37824 14.7841 8.7318 14.3598L13.7318 8.35981C14.0854 7.93553 14.7159 7.87821 15.1402 8.23177Z" fill="#6F767E"/>
</svg>
