<svg width="24" height="24" viewBox="0 0 24 24" fill="none" xmlns="http://www.w3.org/2000/svg">
<path fill-rule="evenodd" clip-rule="evenodd" d="M10 5C10 3.34315 11.3431 2 13 2C14.6569 2 16 3.34315 16 5H19C20.1046 5 21 5.89543 21 7V11.2676C21 11.625 20.8092 11.9552 20.4996 12.1338C20.19 12.3124 19.8087 12.3121 19.4993 12.1332C19.3532 12.0487 19.1838 12 19 12C18.4477 12 18 12.4477 18 13C18 13.5523 18.4477 14 19 14C19.1838 14 19.3532 13.9513 19.4993 13.8668C19.8087 13.6879 20.19 13.6876 20.4996 13.8662C20.8092 14.0448 21 14.375 21 14.7324V19C21 20.1046 20.1046 21 19 21H14.7324C14.375 21 14.0448 20.8092 13.8662 20.4996C13.6876 20.19 13.6879 19.8087 13.8668 19.4993C13.9513 19.3532 14 19.1838 14 19C14 18.4477 13.5523 18 13 18C12.4477 18 12 18.4477 12 19C12 19.1838 12.0487 19.3532 12.1332 19.4993C12.3121 19.8087 12.3124 20.19 12.1338 20.4996C11.9552 20.8092 11.625 21 11.2676 21H7C5.89543 21 5 20.1046 5 19V16C3.34315 16 2 14.6569 2 13C2 11.3431 3.34315 10 5 10V7C5 5.89543 5.89543 5 7 5H10ZM13 4C12.4477 4 12 4.44772 12 5C12 5.1838 12.0487 5.35321 12.1332 5.49927C12.3121 5.80866 12.3124 6.19003 12.1338 6.49964C11.9552 6.80924 11.625 7 11.2676 7L7 7V11.2676C7 11.625 6.80924 11.9552 6.49964 12.1338C6.19003 12.3124 5.80866 12.3121 5.49927 12.1332C5.35321 12.0487 5.1838 12 5 12C4.44772 12 4 12.4477 4 13C4 13.5523 4.44772 14 5 14C5.1838 14 5.35321 13.9513 5.49927 13.8668C5.80866 13.6879 6.19003 13.6876 6.49964 13.8662C6.80924 14.0448 7 14.375 7 14.7324V19H10C10 17.3431 11.3431 16 13 16C14.6569 16 16 17.3431 16 19H19V16C17.3431 16 16 14.6569 16 13C16 11.3431 17.3431 10 19 10V7H14.7324C14.375 7 14.0448 6.80924 13.8662 6.49964C13.6876 6.19003 13.6879 5.80866 13.8668 5.49927C13.9513 5.35321 14 5.1838 14 5C14 4.44772 13.5523 4 13 4Z" fill="#6F767E"/>
</svg>
