<svg width="24" height="24" viewBox="0 0 24 24" fill="none" xmlns="http://www.w3.org/2000/svg">
<path d="M15.5 4.5C15.5 4.70758 15.4747 4.90926 15.427 5.1021C15.3281 5.50224 15.5889 6 16.0011 6H18C19.1046 6 20 6.89543 20 8V9.99891C20 10.4111 19.5022 10.6719 19.1021 10.573C18.9093 10.5253 18.7076 10.5 18.5 10.5C17.1193 10.5 16 11.6193 16 13C16 14.3807 17.1193 15.5 18.5 15.5C18.7076 15.5 18.9093 15.4747 19.1021 15.427C19.5022 15.3281 20 15.5889 20 16.0011V18C20 19.1046 19.1046 20 18 20H16.0011C15.5889 20 15.3281 19.5022 15.427 19.1021C15.4747 18.9093 15.5 18.7076 15.5 18.5C15.5 17.1193 14.3807 16 13 16C11.6193 16 10.5 17.1193 10.5 18.5C10.5 18.7076 10.5253 18.9093 10.573 19.1021C10.6719 19.5022 10.4111 20 9.99891 20H8C6.89543 20 6 19.1046 6 18V16.0011C6 15.5889 5.50224 15.3281 5.1021 15.427C4.90926 15.4747 4.70758 15.5 4.5 15.5C3.11929 15.5 2 14.3807 2 13C2 11.6193 3.11929 10.5 4.5 10.5C4.70758 10.5 4.90926 10.5253 5.1021 10.573C5.50224 10.6719 6 10.4111 6 9.99891V8C6 6.89543 6.89543 6 8 6H9.99891C10.4111 6 10.6719 5.50224 10.573 5.1021C10.5253 4.90926 10.5 4.70758 10.5 4.5C10.5 3.11929 11.6193 2 13 2C14.3807 2 15.5 3.11929 15.5 4.5Z" fill="#6F767E"/>
</svg>
