<svg width="24" height="24" viewBox="0 0 24 24" fill="none" xmlns="http://www.w3.org/2000/svg">
<path fill-rule="evenodd" clip-rule="evenodd" d="M16.7506 15.1707C17.2678 15.3646 17.5298 15.9411 17.3358 16.4582L15.8359 20.4582C15.6419 20.9753 15.0655 21.2373 14.5484 21.0434C14.0313 20.8495 13.7693 20.2731 13.9632 19.7559L15.4632 15.7559C15.6571 15.2388 16.2335 14.9768 16.7506 15.1707Z" fill="#6F767E"/>
<path fill-rule="evenodd" clip-rule="evenodd" d="M8.75063 15.1707C9.26775 15.3646 9.52975 15.9411 9.33584 16.4582L7.83585 20.4582C7.64194 20.9753 7.06552 21.2373 6.5484 21.0434C6.03128 20.8495 5.76927 20.2731 5.96319 19.7559L7.46318 15.7559C7.65709 15.2388 8.2335 14.9768 8.75063 15.1707Z" fill="#6F767E"/>
<path fill-rule="evenodd" clip-rule="evenodd" d="M12.7506 15.1707C13.2677 15.3646 13.5298 15.9411 13.3358 16.4582L11.8359 20.4582C11.6419 20.9753 11.0655 21.2373 10.5484 21.0434C10.0313 20.8495 9.76927 20.2731 9.96319 19.7559L11.4632 15.7559C11.6571 15.2388 12.2335 14.9768 12.7506 15.1707Z" fill="#6F767E"/>
<path d="M18.8044 15.423C18.8557 15.6029 19.0687 15.6998 19.2179 15.587C20.9079 14.3091 22 12.2821 22 10C22 6.13401 18.866 3 15 3C12.1108 3 9.63037 4.75042 8.56143 7.24864C8.07015 7.08728 7.54527 7 7 7C4.23858 7 2 9.23858 2 12C2 14.0647 3.25147 15.8371 5.03725 16.6C5.28212 16.7047 5.55601 16.57 5.6495 16.3206L6.05876 15.2293C6.54355 13.9365 7.98458 13.2814 9.27739 13.7662C9.62974 13.8984 9.93471 14.1015 10.1821 14.3534C10.299 14.4723 10.4998 14.4723 10.6169 14.3535C11.2885 13.6715 12.3233 13.4085 13.2774 13.7662C13.6297 13.8984 13.9347 14.1015 14.1822 14.3534C14.299 14.4723 14.4999 14.4723 14.6169 14.3535C15.2885 13.6715 16.3233 13.4085 17.2774 13.7662C18.0496 14.0558 18.5942 14.6865 18.8044 15.423Z" fill="#6F767E"/>
</svg>
