<svg width="24" height="24" viewBox="0 0 24 24" fill="none" xmlns="http://www.w3.org/2000/svg">
<path fill-rule="evenodd" clip-rule="evenodd" d="M8.75067 15.1707C9.26779 15.3646 9.52979 15.9411 9.33588 16.4582L7.83589 20.4582C7.64198 20.9753 7.06556 21.2373 6.54844 21.0434C6.03132 20.8495 5.76931 20.2731 5.96323 19.7559L7.46322 15.7559C7.65713 15.2388 8.23354 14.9768 8.75067 15.1707Z" fill="#6F767E"/>
<path fill-rule="evenodd" clip-rule="evenodd" d="M12.7507 15.1707C13.2678 15.3646 13.5298 15.9411 13.3359 16.4582L11.8359 20.4582C11.642 20.9753 11.0656 21.2373 10.5484 21.0434C10.0313 20.8495 9.76931 20.2731 9.96323 19.7559L11.4632 15.7559C11.6571 15.2388 12.2335 14.9768 12.7507 15.1707Z" fill="#6F767E"/>
<path fill-rule="evenodd" clip-rule="evenodd" d="M16.7507 15.1707C17.2678 15.3646 17.5298 15.9411 17.3359 16.4582L15.8359 20.4582C15.642 20.9753 15.0656 21.2373 14.5484 21.0434C14.0313 20.8495 13.7693 20.2731 13.9632 19.7559L15.4632 15.7559C15.6571 15.2388 16.2336 14.9768 16.7507 15.1707Z" fill="#6F767E"/>
<path fill-rule="evenodd" clip-rule="evenodd" d="M8.56161 7.24899C9.63043 4.75082 12.1098 3 15 3C18.866 3 22 6.13401 22 10C22 12.0733 21.0974 13.937 19.6669 15.2173C19.2554 15.5857 18.6232 15.5507 18.2549 15.1391C17.8865 14.7276 17.9216 14.0954 18.3331 13.7271C19.3576 12.8101 20 11.4807 20 10C20 7.23858 17.7614 5 15 5C12.6324 5 10.647 6.64655 10.1308 8.8581C10.0569 9.17445 9.83401 9.43522 9.533 9.55738C9.23199 9.67955 8.8904 9.64789 8.61697 9.47248C8.15091 9.17349 7.59724 9 7 9C5.34315 9 4 10.3431 4 12C4 13.1092 4.60141 14.079 5.50073 14.5993C5.97879 14.8758 6.14215 15.4875 5.86561 15.9656C5.58906 16.4437 4.97733 16.607 4.49927 16.3305C3.00738 15.4675 2 13.852 2 12C2 9.23858 4.23858 7 7 7C7.54465 7 8.0698 7.0874 8.56161 7.24899Z" fill="#6F767E"/>
</svg>
