<svg width="24" height="24" viewBox="0 0 24 24" fill="none" xmlns="http://www.w3.org/2000/svg">
<path d="M3.96581 14.7428C5.05059 10.6943 9.21191 8.29179 13.2604 9.37657C15.5333 9.98559 17.2572 11.5573 18.1514 13.5496L16.6969 13.1553C16.1639 13.0108 15.6146 13.3258 15.4701 13.8588C15.3256 14.3918 15.6406 14.9411 16.1736 15.0856L19.344 15.9451C19.3794 15.9568 19.4155 15.9667 19.4523 15.9744L19.858 16.0844C20.1145 16.1539 20.3881 16.1185 20.6184 15.986C20.8487 15.8535 21.0168 15.6347 21.0856 15.3781L22.0736 11.6908C22.2165 11.1573 21.8999 10.609 21.3665 10.4661C20.833 10.3231 20.2847 10.6397 20.1417 11.1732L19.8153 12.3915C18.6481 10.0402 16.5355 8.18358 13.778 7.44472C8.66262 6.07405 3.40462 9.10976 2.03396 14.2252C1.89101 14.7586 2.2076 15.307 2.74106 15.4499C3.27453 15.5928 3.82287 15.2763 3.96581 14.7428Z" fill="#6F767E"/>
</svg>
