<svg width="24" height="24" viewBox="0 0 24 24" fill="none" xmlns="http://www.w3.org/2000/svg">
<path d="M11.2194 21.4627C11.1263 21.3258 11.0639 21.1671 11.0256 21H12.9743C12.936 21.1671 12.8737 21.3258 12.7805 21.4627C12.6572 21.6439 12.4407 21.8472 12 21.9723C11.5593 21.8472 11.3428 21.6439 11.2194 21.4627ZM13.166 21C13.166 21 13.1659 21 13.1659 21H13.166ZM10.834 21H10.8341C10.834 21 10.834 21 10.834 21Z" stroke="#6F767E" stroke-width="2" stroke-linecap="round" stroke-linejoin="round"/>
<path fill-rule="evenodd" clip-rule="evenodd" d="M6.99995 7.16548C7.7498 4.91615 10.1861 2.38572 11.3583 1.26023C11.7197 0.913258 12.2803 0.913258 12.6416 1.26023C13.8139 2.38572 16.2502 4.91615 16.9999 7.16548C17.3826 8.31348 17.3451 9.96912 17.1244 11.668C18.7236 11.7333 20 13.0503 20 14.6655V18.797C20 19.5957 19.1099 20.0721 18.4453 19.629L15.5254 17.6824C14.9898 18.2977 14.1922 18.6655 13.3297 18.6655H10.6622C9.80136 18.6655 9.00507 18.2991 8.46989 17.6856L5.5547 19.629C4.89015 20.0721 4 19.5957 4 18.797V14.6655C4 13.0536 5.27124 11.7386 6.86583 11.6684C6.64756 9.9766 6.61361 8.32437 6.99995 7.16548ZM12 10.6655C13.1046 10.6655 14 9.77005 14 8.66548C14 7.56091 13.1046 6.66548 12 6.66548C10.8954 6.66548 10 7.56091 10 8.66548C10 9.77005 10.8954 10.6655 12 10.6655Z" fill="#6F767E"/>
</svg>
