<svg width="24" height="24" viewBox="0 0 24 24" fill="none" xmlns="http://www.w3.org/2000/svg">
<path fill-rule="evenodd" clip-rule="evenodd" d="M18.364 2.80763C17.1924 1.63606 15.2929 1.63606 14.1213 2.80763L2.80763 14.1213C1.63606 15.2929 1.63606 17.1924 2.80763 18.364L5.63606 21.1924C6.80763 22.364 8.70713 22.364 9.8787 21.1924L21.1924 9.8787C22.364 8.70713 22.364 6.80763 21.1924 5.63606L18.364 2.80763ZM14.8284 4.92902C14.6331 4.73376 14.3165 4.73376 14.1213 4.92902L13.4142 5.63613C13.2189 5.83139 13.2189 6.14797 13.4142 6.34323L14.8283 7.75739C15.2188 8.14791 15.852 8.14791 16.2425 7.75739C16.6331 7.36686 16.6331 6.7337 16.2425 6.34317L14.8284 4.92902ZM12 7.75745C11.8047 7.56219 11.4881 7.56219 11.2928 7.75745L10.5857 8.46456C10.3905 8.65982 10.3905 8.9764 10.5857 9.17166L11.2928 9.87871C11.6833 10.2692 12.3165 10.2692 12.707 9.87871C13.0975 9.48818 13.0975 8.85502 12.707 8.4645L12 7.75745ZM9.17153 10.5859C8.97626 10.3906 8.65968 10.3906 8.46442 10.5859L7.75731 11.293C7.56205 11.4882 7.56205 11.8048 7.75731 12.0001L9.17153 13.4143C9.56205 13.8048 10.1952 13.8048 10.5857 13.4143C10.9763 13.0238 10.9763 12.3906 10.5857 12.0001L9.17153 10.5859ZM5.63605 13.4142C5.83131 13.219 6.14789 13.219 6.34316 13.4142L7.05026 14.1214C7.44079 14.5119 7.44079 15.145 7.05026 15.5356C6.65974 15.9261 6.02657 15.9261 5.63605 15.5356L4.92894 14.8285C4.73368 14.6332 4.73368 14.3166 4.92894 14.1214L5.63605 13.4142Z" fill="#6F767E"/>
</svg>
