<svg width="24" height="24" viewBox="0 0 24 24" fill="none" xmlns="http://www.w3.org/2000/svg">
<path fill-rule="evenodd" clip-rule="evenodd" d="M18.3639 2.80757C17.1924 1.636 15.2929 1.636 14.1213 2.80757L2.80757 14.1213C1.636 15.2929 1.636 17.1924 2.80757 18.3639L5.636 21.1924C6.80757 22.3639 8.70707 22.3639 9.87864 21.1924L21.1924 9.87864C22.3639 8.70707 22.3639 6.80757 21.1924 5.636L18.3639 2.80757ZM16.9497 4.22179C16.5592 3.83126 15.926 3.83126 15.5355 4.22179L14.8284 4.92893L16.2426 6.34317C16.6331 6.7337 16.6331 7.36686 16.2426 7.75739C15.8521 8.14791 15.2189 8.14791 14.8284 7.75739L13.4141 6.34314L12 7.7573L12.7071 8.46443C13.0976 8.85496 13.0976 9.48812 12.7071 9.87865C12.3166 10.2692 11.6834 10.2692 11.2929 9.87865L10.5858 9.17151L9.17153 10.5858L10.5858 12C10.9763 12.3906 10.9763 13.0237 10.5858 13.4142C10.1953 13.8048 9.56211 13.8048 9.17159 13.4142L7.75731 12L6.34313 13.4142L7.05026 14.1213C7.44079 14.5118 7.44079 15.145 7.05026 15.5355C6.65974 15.926 6.02657 15.926 5.63605 15.5355L4.92891 14.8284L4.22179 15.5355C3.83126 15.926 3.83126 16.5592 4.22179 16.9497L7.05021 19.7781C7.44074 20.1687 8.0739 20.1687 8.46443 19.7781L19.7781 8.46443C20.1687 8.0739 20.1687 7.44074 19.7781 7.05021L16.9497 4.22179Z" fill="#6F767E"/>
</svg>
