<svg width="24" height="24" viewBox="0 0 24 24" fill="none" xmlns="http://www.w3.org/2000/svg">
<path d="M5 3C5 2.44772 5.44772 2 6 2H18C18.5523 2 19 2.44772 19 3C19 3.55228 18.5523 4 18 4H13.7238C14.202 4.57903 14.564 5.25761 14.774 6H18C18.5523 6 19 6.44772 19 7C19 7.55228 18.5523 8 18 8H14.9586C14.706 10.8032 12.35 13 9.48101 13H8.18771L13.7968 20.3957C14.1305 20.8358 14.0444 21.463 13.6043 21.7968C13.1643 22.1305 12.537 22.0443 12.2033 21.6043L6.09182 13.5462C5.29912 12.501 6.0446 11 7.35638 11H9.48101C11.2442 11 12.7029 9.69615 12.9456 8H6C5.44772 8 5 7.55228 5 7C5 6.44772 5.44772 6 6 6H12.6442C12.0825 4.81753 10.8772 4 9.48101 4H6C5.44772 4 5 3.55228 5 3Z" fill="#6F767E"/>
</svg>
