<svg width="24" height="24" viewBox="0 0 24 24" fill="none" xmlns="http://www.w3.org/2000/svg">
<path d="M5 3C5 2.44772 5.44772 2 6 2H18C18.5523 2 19 2.44772 19 3C19 3.55228 18.5523 4 18 4H13.724C14.2022 4.57903 14.5641 5.25761 14.7741 6H18C18.5523 6 19 6.44772 19 7C19 7.55228 18.5523 8 18 8H14.9587C14.7061 10.8032 12.3502 13 9.48113 13H8.18783L13.7969 20.3957C14.1307 20.8358 14.0445 21.463 13.6044 21.7968C13.1644 22.1305 12.5371 22.0443 12.2034 21.6043L6.09194 13.5462C5.29924 12.501 6.04472 11 7.3565 11H9.48113C11.2444 11 12.7031 9.69615 12.9457 8H6C5.44772 8 5 7.55228 5 7C5 6.44772 5.44772 6 6 6H12.6443C12.0826 4.81753 10.8773 4 9.48113 4H6C5.44772 4 5 3.55228 5 3Z" fill="#6F767E"/>
</svg>
