<svg width="24" height="24" viewBox="0 0 24 24" fill="none" xmlns="http://www.w3.org/2000/svg">
<path fill-rule="evenodd" clip-rule="evenodd" d="M12 22C17.5228 22 22 17.5228 22 12C22 6.47715 17.5228 2 12 2C6.47715 2 2 6.47715 2 12C2 17.5228 6.47715 22 12 22ZM8.33238 16.4004C8.11126 16.9065 7.52174 17.1375 7.01565 16.9163C6.50957 16.6952 6.27855 16.1057 6.49967 15.5996C7.42463 13.4826 9.53804 12 12 12C14.4619 12 16.5753 13.4826 17.5003 15.5996C17.7214 16.1057 17.4904 16.6952 16.9843 16.9163C16.4782 17.1375 15.8887 16.9065 15.6676 16.4004C15.0494 14.9855 13.6387 14 12 14C10.3613 14 8.95054 14.9855 8.33238 16.4004ZM9 9C9 9.55228 8.55228 10 8 10C7.44772 10 7 9.55228 7 9C7 8.44772 7.44772 8 8 8C8.55228 8 9 8.44772 9 9ZM16 10C16.5523 10 17 9.55228 17 9C17 8.44772 16.5523 8 16 8C15.4477 8 15 8.44772 15 9C15 9.55228 15.4477 10 16 10Z" fill="#6F767E"/>
</svg>
