<svg width="24" height="24" viewBox="0 0 24 24" fill="none" xmlns="http://www.w3.org/2000/svg">
<path fill-rule="evenodd" clip-rule="evenodd" d="M12 20C16.4183 20 20 16.4183 20 12C20 7.58172 16.4183 4 12 4C7.58172 4 4 7.58172 4 12C4 16.4183 7.58172 20 12 20ZM12 22C17.5228 22 22 17.5228 22 12C22 6.47715 17.5228 2 12 2C6.47715 2 2 6.47715 2 12C2 17.5228 6.47715 22 12 22Z" fill="#6F767E"/>
<path fill-rule="evenodd" clip-rule="evenodd" d="M7.01565 16.9164C7.52174 17.1375 8.11126 16.9065 8.33238 16.4004C8.95054 14.9856 10.3613 14 12 14C13.6387 14 15.0494 14.9856 15.6676 16.4004C15.8887 16.9065 16.4782 17.1375 16.9843 16.9164C17.4904 16.6952 17.7214 16.1057 17.5003 15.5996C16.5753 13.4826 14.4619 12 12 12C9.53804 12 7.42463 13.4826 6.49967 15.5996C6.27855 16.1057 6.50957 16.6952 7.01565 16.9164Z" fill="#6F767E"/>
<path d="M9 9C9 9.55228 8.55228 10 8 10C7.44772 10 7 9.55228 7 9C7 8.44772 7.44772 8 8 8C8.55228 8 9 8.44772 9 9Z" fill="#6F767E"/>
<path d="M17 9C17 9.55228 16.5523 10 16 10C15.4477 10 15 9.55228 15 9C15 8.44772 15.4477 8 16 8C16.5523 8 17 8.44772 17 9Z" fill="#6F767E"/>
</svg>
