<svg width="24" height="24" viewBox="0 0 24 24" fill="none" xmlns="http://www.w3.org/2000/svg">
<path fill-rule="evenodd" clip-rule="evenodd" d="M7 8C7.55228 8 8 8.44772 8 9V13C8 13.5523 7.55228 14 7 14C6.44772 14 6 13.5523 6 13V9C6 8.44772 6.44772 8 7 8Z" fill="#6F767E"/>
<path fill-rule="evenodd" clip-rule="evenodd" d="M20 18.8293C21.1652 18.4175 22 17.3062 22 16V6C22 4.34315 20.6569 3 19 3H5C3.34315 3 2 4.34315 2 6V16C2 17.3062 2.83481 18.4175 4 18.8293V19C4 20.1046 4.89543 21 6 21C7.10457 21 8 20.1046 8 19H16C16 20.1046 16.8954 21 18 21C19.1046 21 20 20.1046 20 19V18.8293ZM19 5H5C4.44772 5 4 5.44772 4 6V16C4 16.5523 4.44772 17 5 17H19C19.5523 17 20 16.5523 20 16V6C20 5.44771 19.5523 5 19 5Z" fill="#6F767E"/>
<path fill-rule="evenodd" clip-rule="evenodd" d="M10.293 14.707C9.90243 14.3165 9.90243 13.6833 10.293 13.2928L11.2924 12.2934C11.1049 11.9017 11 11.4631 11 11C11 10.5369 11.1049 10.0983 11.2923 9.70667L10.2929 8.70723C9.90237 8.3167 9.90237 7.68354 10.2929 7.29302C10.6834 6.90249 11.3166 6.90249 11.7071 7.29302L12.7065 8.29241C13.0982 8.10497 13.5368 8 14 8C14.4631 8 14.9017 8.10494 15.2934 8.29235L16.2928 7.29289C16.6834 6.90237 17.3165 6.90237 17.707 7.29289C18.0976 7.68342 18.0976 8.31658 17.707 8.70711L16.7076 9.70654C16.895 10.0982 17 10.5368 17 11C17 11.4632 16.895 11.9018 16.7076 12.2935L17.707 13.2929C18.0975 13.6834 18.0975 14.3166 17.707 14.7071C17.3165 15.0976 16.6833 15.0976 16.2928 14.7071L15.2933 13.7077C14.9017 13.8951 14.4631 14 14 14C13.5368 14 13.0982 13.895 12.7065 13.7076L11.7072 14.707C11.3166 15.0975 10.6835 15.0975 10.293 14.707ZM14 10C13.4477 10 13 10.4477 13 11C13 11.5523 13.4477 12 14 12C14.5523 12 15 11.5523 15 11C15 10.4477 14.5523 10 14 10Z" fill="#6F767E"/>
</svg>
