<svg width="24" height="24" viewBox="0 0 24 24" fill="none" xmlns="http://www.w3.org/2000/svg">
<path d="M16 11C16 11.5523 15.5523 12 15 12C14.4477 12 14 11.5523 14 11C14 10.4477 14.4477 10 15 10C15.5523 10 16 10.4477 16 11Z" fill="#6F767E"/>
<path fill-rule="evenodd" clip-rule="evenodd" d="M5 3C3.34315 3 2 4.34315 2 6V16C2 17.3062 2.83481 18.4175 4 18.8293V19C4 20.1046 4.89543 21 6 21C7.10457 21 8 20.1046 8 19H16C16 20.1046 16.8954 21 18 21C19.1046 21 20 20.1046 20 19V18.8293C21.1652 18.4175 22 17.3062 22 16V6C22 4.34315 20.6569 3 19 3H5ZM7 9C7 8.44771 6.55228 8 6 8C5.44772 8 5 8.44771 5 9V13C5 13.5523 5.44772 14 6 14C6.55228 14 7 13.5523 7 13V9ZM11.293 14.707C10.9025 14.3165 10.9025 13.6833 11.293 13.2928L12.2924 12.2933C12.105 11.9017 12.0001 11.4631 12.0001 11C12.0001 10.5369 12.105 10.0984 12.2924 9.70676L11.2929 8.70726C10.9024 8.31673 10.9024 7.68357 11.2929 7.29304C11.6834 6.90252 12.3166 6.90252 12.7071 7.29304L13.7065 8.29247C14.0982 8.10501 14.5369 8.00003 15.0001 8.00003C15.4632 8.00003 15.9018 8.10496 16.2934 8.29235L17.2929 7.29289C17.6834 6.90237 18.3166 6.90237 18.7071 7.29289C19.0976 7.68342 19.0976 8.31658 18.7071 8.70711L17.7077 9.70651C17.8951 10.0982 18.0001 10.5368 18.0001 11C18.0001 11.4632 17.8951 11.9019 17.7077 12.2936L18.707 13.2929C19.0975 13.6834 19.0975 14.3166 18.707 14.7071C18.3165 15.0977 17.6833 15.0977 17.2928 14.7071L16.2934 13.7077C15.9018 13.8951 15.4632 14 15.0001 14C14.5369 14 14.0982 13.8951 13.7066 13.7076L12.7072 14.707C12.3167 15.0975 11.6835 15.0975 11.293 14.707Z" fill="#6F767E"/>
</svg>
