<svg width="24" height="24" viewBox="0 0 24 24" fill="none" xmlns="http://www.w3.org/2000/svg">
<path fill-rule="evenodd" clip-rule="evenodd" d="M15.7574 2C16.553 2 17.3161 2.31607 17.8787 2.87868L21.1213 6.12132C21.6839 6.68393 22 7.44699 22 8.24264V19C22 20.6569 20.6569 22 19 22H5C3.34315 22 2 20.6569 2 19V5C2 3.34315 3.34315 2 5 2H15.7574ZM5 20H6V16C6 14.8954 6.89543 14 8 14H16C17.1046 14 18 14.8954 18 16V20H19C19.5523 20 20 19.5523 20 19V8.24264C20 7.97742 19.8946 7.72307 19.7071 7.53553L17 4.82843V7C17 8.10457 16.1046 9 15 9H9C7.89543 9 7 8.10457 7 7V4L5 4C4.44771 4 4 4.44772 4 5V19C4 19.5523 4.44772 20 5 20ZM9 4V7H15V4.02988C14.9213 4.01019 14.8399 4 14.7574 4L9 4ZM16 20H8V16H16V20Z" fill="#6F767E"/>
</svg>
