<svg width="24" height="24" viewBox="0 0 24 24" fill="none" xmlns="http://www.w3.org/2000/svg">
<path fill-rule="evenodd" clip-rule="evenodd" d="M5 2C3.34315 2 2 3.34315 2 5V19C2 20.6569 3.34315 22 5 22H19C20.6569 22 22 20.6569 22 19V8.24264C22 7.44699 21.6839 6.68393 21.1213 6.12132L17.8787 2.87868C17.3161 2.31607 16.553 2 15.7574 2H5ZM6 16C6 14.8954 6.89543 14 8 14H16C17.1046 14 18 14.8954 18 16V19C18 19.5523 17.5523 20 17 20H7C6.44771 20 6 19.5523 6 19V16ZM15 9H9C7.89543 9 7 8.10457 7 7V5C7 4.44772 7.44772 4 8 4H15.5858C15.851 4 16.1054 4.10536 16.2929 4.29289L16.7071 4.70711C16.8946 4.89464 17 5.149 17 5.41421V7C17 8.10457 16.1046 9 15 9Z" fill="#6F767E"/>
</svg>
