<svg width="24" height="24" viewBox="0 0 24 24" fill="none" xmlns="http://www.w3.org/2000/svg">
<path d="M7 15.5C7 15.2239 7.22386 15 7.5 15H16.5C16.7761 15 17 15.2239 17 15.5C17 16.8807 15.8807 18 14.5 18H9.5C8.11929 18 7 16.8807 7 15.5Z" fill="#6F767E"/>
<path d="M7 8.5C7 7.11929 8.11929 6 9.5 6H14.5C15.8807 6 17 7.11929 17 8.5V12.5C17 12.7761 16.7761 13 16.5 13H7.5C7.22386 13 7 12.7761 7 12.5V8.5Z" fill="#6F767E"/>
<path fill-rule="evenodd" clip-rule="evenodd" d="M2 12C2 11.4477 2.44772 11 3 11H21C21.5523 11 22 11.4477 22 12C22 12.5523 21.5523 13 21 13H3C2.44772 13 2 12.5523 2 12Z" fill="#6F767E"/>
<path fill-rule="evenodd" clip-rule="evenodd" d="M2 5C2 3.34315 3.34315 2 5 2H7C7.55228 2 8 2.44772 8 3C8 3.55228 7.55228 4 7 4H5C4.44772 4 4 4.44772 4 5V7C4 7.55228 3.55228 8 3 8C2.44772 8 2 7.55228 2 7V5Z" fill="#6F767E"/>
<path fill-rule="evenodd" clip-rule="evenodd" d="M2 19C2 20.6569 3.34315 22 5 22H7C7.55228 22 8 21.5523 8 21C8 20.4477 7.55228 20 7 20H5C4.44772 20 4 19.5523 4 19V17C4 16.4477 3.55228 16 3 16C2.44772 16 2 16.4477 2 17V19Z" fill="#6F767E"/>
<path fill-rule="evenodd" clip-rule="evenodd" d="M22 19C22 20.6569 20.6569 22 19 22H17C16.4477 22 16 21.5523 16 21C16 20.4477 16.4477 20 17 20H19C19.5523 20 20 19.5523 20 19V17C20 16.4477 20.4477 16 21 16C21.5523 16 22 16.4477 22 17V19Z" fill="#6F767E"/>
<path fill-rule="evenodd" clip-rule="evenodd" d="M22 5C22 3.34315 20.6569 2 19 2H17C16.4477 2 16 2.44772 16 3C16 3.55228 16.4477 4 17 4H19C19.5523 4 20 4.44772 20 5V7C20 7.55228 20.4477 8 21 8C21.5523 8 22 7.55228 22 7V5Z" fill="#6F767E"/>
</svg>
