<svg width="24" height="24" viewBox="0 0 24 24" fill="none" xmlns="http://www.w3.org/2000/svg">
<path d="M8 3C8 2.44772 7.55228 2 7 2C6.44772 2 6 2.44772 6 3V4H5C3.34315 4 2 5.34315 2 7V19C2 20.6569 3.34315 22 5 22H13.6822C12.9121 21.488 12.2671 20.8028 11.8027 20H5C4.44772 20 4 19.5523 4 19V7C4 6.44772 4.44772 6 5 6H6V7C6 7.55228 6.44772 8 7 8C7.55228 8 8 7.55228 8 7V6H16V7C16 7.55228 16.4477 8 17 8C17.5523 8 18 7.55228 18 7V6H19C19.5523 6 20 6.44771 20 7V11.8027C20.8028 12.2671 21.488 12.9121 22 13.6822V7C22 5.34315 20.6569 4 19 4H18V3C18 2.44772 17.5523 2 17 2C16.4477 2 16 2.44772 16 3V4H8V3Z" fill="#6F767E"/>
<path fill-rule="evenodd" clip-rule="evenodd" d="M17 21C19.2091 21 21 19.2091 21 17C21 14.7909 19.2091 13 17 13C14.7909 13 13 14.7909 13 17C13 19.2091 14.7909 21 17 21ZM17 23C20.3137 23 23 20.3137 23 17C23 13.6863 20.3137 11 17 11C13.6863 11 11 13.6863 11 17C11 20.3137 13.6863 23 17 23Z" fill="#6F767E"/>
<path fill-rule="evenodd" clip-rule="evenodd" d="M17 14C17.5523 14 18 14.4477 18 15V16.5858L18.7071 17.2929C19.0976 17.6834 19.0976 18.3166 18.7071 18.7071C18.3166 19.0976 17.6834 19.0976 17.2929 18.7071L16.2929 17.7071C16.1054 17.5196 16 17.2652 16 17V15C16 14.4477 16.4477 14 17 14Z" fill="#6F767E"/>
</svg>
