<svg width="24" height="24" viewBox="0 0 24 24" fill="none" xmlns="http://www.w3.org/2000/svg">
<path d="M8 3C8 2.44772 7.55228 2 7 2C6.44772 2 6 2.44772 6 3V4H5C3.34315 4 2 5.34315 2 7V19C2 20.6569 3.34315 22 5 22H10.8764C11.3243 22 11.5659 21.4354 11.3051 21.0713C10.4836 19.9242 10 18.5186 10 17C10 13.134 13.134 10 17 10C18.5186 10 19.9242 10.4836 21.0713 11.3051C21.4354 11.5659 22 11.3243 22 10.8764V7C22 5.34315 20.6569 4 19 4H18V3C18 2.44772 17.5523 2 17 2C16.4477 2 16 2.44772 16 3V4H8V3Z" fill="#6F767E"/>
<path fill-rule="evenodd" clip-rule="evenodd" d="M22 17C22 14.2386 19.7614 12 17 12C14.2386 12 12 14.2386 12 17C12 19.7614 14.2386 22 17 22C19.7614 22 22 19.7614 22 17ZM18 15C18 14.4477 17.5523 14 17 14C16.4477 14 16 14.4477 16 15V17C16 17.2652 16.1054 17.5196 16.2929 17.7071L17.7929 19.2071C18.1834 19.5976 18.8166 19.5976 19.2071 19.2071C19.5976 18.8166 19.5976 18.1834 19.2071 17.7929L18 16.5858V15Z" fill="#6F767E"/>
</svg>
