<svg width="24" height="24" viewBox="0 0 24 24" fill="none" xmlns="http://www.w3.org/2000/svg">
<path fill-rule="evenodd" clip-rule="evenodd" d="M17.7811 4.15674C18.0572 3.67844 17.8933 3.06685 17.415 2.79071C16.9368 2.51457 16.3252 2.67844 16.049 3.15674L8.88062 15.5728C8.59488 15.1584 8.21486 14.7995 7.74997 14.5311C6.07595 13.5646 3.93538 14.1381 2.96889 15.8122C2.00239 17.4862 2.57595 19.6267 4.24997 20.5932C5.92169 21.5584 8.05867 20.9878 9.02706 19.3191C9.02841 19.3168 9.02975 19.3145 9.03108 19.3122L17.7811 4.15674ZM7.29901 18.3122C6.8848 19.0296 5.96741 19.2754 5.24997 18.8612C4.53254 18.447 4.28672 17.5296 4.70094 16.8122C5.11515 16.0947 6.03254 15.8489 6.74997 16.2631C7.46741 16.6773 7.71323 17.5947 7.29901 18.3122Z" fill="#6F767E"/>
<path fill-rule="evenodd" clip-rule="evenodd" d="M6.21892 4.15674C5.94278 3.67844 6.10665 3.06685 6.58494 2.79071C7.06324 2.51457 7.67483 2.67844 7.95097 3.15674L15.1193 15.5727C15.4051 15.1584 15.7851 14.7995 16.25 14.5311C17.924 13.5646 20.0645 14.1381 21.031 15.8122C21.9975 17.4862 21.424 19.6267 19.75 20.5932C18.0759 21.5597 15.9354 20.9862 14.9689 19.3122C14.9663 19.3078 14.9638 19.3034 14.9613 19.299L6.21892 4.15674ZM16.7041 18.3176C17.1198 19.0308 18.0343 19.2744 18.75 18.8612C19.4674 18.447 19.7132 17.5296 19.299 16.8122C18.8848 16.0947 17.9674 15.8489 17.25 16.2631C16.5354 16.6757 16.2887 17.5874 16.696 18.3036L16.701 18.3122C16.702 18.314 16.703 18.3158 16.7041 18.3176Z" fill="#6F767E"/>
</svg>
