<svg width="24" height="24" viewBox="0 0 24 24" fill="none" xmlns="http://www.w3.org/2000/svg">
<path fill-rule="evenodd" clip-rule="evenodd" d="M2.19279 6.5784C1.36183 4.08549 3.91012 1.80466 6.29602 2.90584L20.0983 9.27613C22.422 10.3486 22.422 13.6514 20.0983 14.7239L6.29603 21.0941C3.91012 22.1953 1.36183 19.9145 2.19281 17.4216L3.68376 12.9487C3.88903 12.3329 3.88903 11.6671 3.68377 11.0513L2.19279 6.5784ZM5.4579 4.72176L19.2601 11.0921C20.0347 11.4496 20.0347 12.5505 19.2601 12.908L5.45791 19.2782C4.66261 19.6453 3.81318 18.885 4.09017 18.054L5.58113 13.5812C5.64486 13.39 5.69672 13.1959 5.73671 13H14C14.5523 13 15 12.5523 15 12C15 11.4477 14.5523 11 14 11H5.73669C5.69671 10.8041 5.64486 10.61 5.58113 10.4189L4.09016 5.94595C3.81317 5.11497 4.66261 4.3547 5.4579 4.72176Z" fill="#6F767E"/>
</svg>
