<svg width="24" height="24" viewBox="0 0 24 24" fill="none" xmlns="http://www.w3.org/2000/svg">
<path d="M13.1635 7.13568C13.358 7.79377 13.7172 8.38116 14.1934 8.85012L10.8364 10.8643C10.6419 10.2062 10.2827 9.61883 9.80652 9.14988L13.1635 7.13568Z" fill="#6F767E"/>
<path d="M9.80652 14.8502L13.1635 16.8643C13.358 16.2063 13.7172 15.6189 14.1934 15.1499L10.8364 13.1357C10.6419 13.7938 10.2827 14.3812 9.80652 14.8502Z" fill="#6F767E"/>
<path fill-rule="evenodd" clip-rule="evenodd" d="M17 8C18.1046 8 19 7.10457 19 6C19 4.89543 18.1046 4 17 4C15.8954 4 15 4.89543 15 6C15 7.10457 15.8954 8 17 8ZM21 6C21 8.20914 19.2091 10 17 10C14.7909 10 13 8.20914 13 6C13 3.79086 14.7909 2 17 2C19.2091 2 21 3.79086 21 6Z" fill="#6F767E"/>
<path fill-rule="evenodd" clip-rule="evenodd" d="M17 20C18.1046 20 19 19.1046 19 18C19 16.8954 18.1046 16 17 16C15.8954 16 15 16.8954 15 18C15 19.1046 15.8954 20 17 20ZM21 18C21 20.2091 19.2091 22 17 22C14.7909 22 13 20.2091 13 18C13 15.7909 14.7909 14 17 14C19.2091 14 21 15.7909 21 18Z" fill="#6F767E"/>
<path fill-rule="evenodd" clip-rule="evenodd" d="M7 14C8.10457 14 9 13.1046 9 12C9 10.8954 8.10457 10 7 10C5.89543 10 5 10.8954 5 12C5 13.1046 5.89543 14 7 14ZM11 12C11 14.2091 9.20914 16 7 16C4.79086 16 3 14.2091 3 12C3 9.79086 4.79086 8 7 8C9.20914 8 11 9.79086 11 12Z" fill="#6F767E"/>
</svg>
