<svg width="24" height="24" viewBox="0 0 24 24" fill="none" xmlns="http://www.w3.org/2000/svg">
<path d="M20 6C20 7.65685 18.6569 9 17 9C16.2739 9 15.6081 8.74205 15.0891 8.31278L9.9404 11.402C9.97948 11.5953 10 11.7952 10 12C10 12.2048 9.97948 12.4047 9.9404 12.598L15.0891 15.6872C15.6081 15.258 16.2739 15 17 15C18.6569 15 20 16.3431 20 18C20 19.6569 18.6569 21 17 21C15.3431 21 14 19.6569 14 18C14 17.7952 14.0205 17.5952 14.0596 17.4019L8.91097 14.3127C8.392 14.742 7.72613 15 7 15C5.34315 15 4 13.6569 4 12C4 10.3431 5.34315 9 7 9C7.72613 9 8.39201 9.25798 8.91097 9.68728L14.0596 6.59809C14.0205 6.40482 14 6.2048 14 6C14 4.34315 15.3431 3 17 3C18.6569 3 20 4.34315 20 6Z" fill="#6F767E"/>
</svg>
