<svg width="24" height="24" viewBox="0 0 24 24" fill="none" xmlns="http://www.w3.org/2000/svg">
<path fill-rule="evenodd" clip-rule="evenodd" d="M11.6838 3.71361L5.68377 5.71361C5.27543 5.84972 5 6.23186 5 6.66229V12C5 14.0257 6.01463 15.7554 7.48432 17.2097C8.95718 18.6671 10.7303 19.684 11.8268 20.2266C11.9405 20.2828 12.0595 20.2828 12.1731 20.2266C13.2697 19.684 15.0428 18.6671 16.5157 17.2097C17.9854 15.7554 19 14.0257 19 12V6.66229C19 6.23186 18.7246 5.84972 18.3162 5.71361L12.3162 3.71361C12.111 3.64519 11.889 3.64519 11.6838 3.71361ZM5.05132 3.81624C3.82629 4.22458 3 5.371 3 6.66229V12C3 17.502 8.56019 20.8417 10.9399 22.0192C11.6125 22.3519 12.3875 22.3519 13.0601 22.0192C15.4398 20.8417 21 17.502 21 12V6.66229C21 5.371 20.1737 4.22459 18.9487 3.81624L12.9487 1.81624C12.3329 1.61098 11.6671 1.61098 11.0513 1.81624L5.05132 3.81624Z" fill="#6F767E"/>
</svg>
