<svg width="24" height="24" viewBox="0 0 24 24" fill="none" xmlns="http://www.w3.org/2000/svg">
<path fill-rule="evenodd" clip-rule="evenodd" d="M5.05132 3.81624C3.82629 4.22458 3 5.371 3 6.66229V12C3 17.502 8.56019 20.8417 10.9399 22.0192C11.6125 22.3519 12.3875 22.3519 13.0601 22.0192C15.4398 20.8417 21 17.502 21 12V6.66229C21 5.371 20.1737 4.22459 18.9487 3.81624L12.9487 1.81624C12.3329 1.61098 11.6671 1.61098 11.0513 1.81624L5.05132 3.81624ZM15.7071 10.7071C16.0976 10.3166 16.0976 9.68342 15.7071 9.29289C15.3166 8.90237 14.6834 8.90237 14.2929 9.29289L11 12.5858L9.70711 11.2929C9.31658 10.9024 8.68342 10.9024 8.29289 11.2929C7.90237 11.6834 7.90237 12.3166 8.29289 12.7071L9.72721 14.1414C10.4302 14.8444 11.5698 14.8444 12.2728 14.1414L15.7071 10.7071Z" fill="#6F767E"/>
</svg>
