<svg width="24" height="24" viewBox="0 0 24 24" fill="none" xmlns="http://www.w3.org/2000/svg">
<path fill-rule="evenodd" clip-rule="evenodd" d="M13 3C13 2.44772 12.5523 2 12 2C11.4477 2 11 2.44772 11 3V4H9.5C8.11929 4 7 5.11929 7 6.5V7C5.34315 7 4 8.34315 4 10V13.2857L3.86163 13.3253C2.55063 13.6998 1.78153 15.0558 2.13285 16.3732L2.96675 19.5004C2.61225 19.5125 2.27533 19.7132 2.10555 20.0528C1.85856 20.5467 2.05878 21.1474 2.55276 21.3944L2.65833 21.4472C3.50292 21.8695 4.49703 21.8695 5.34162 21.4472L5.55276 21.3416C5.83429 21.2009 6.16566 21.2009 6.44719 21.3416L6.65833 21.4472C7.50292 21.8695 8.49703 21.8695 9.34162 21.4472L9.55276 21.3416C9.83429 21.2009 10.1657 21.2009 10.4472 21.3416L10.6583 21.4472C11.5029 21.8695 12.497 21.8695 13.3416 21.4472L13.5528 21.3416C13.8343 21.2009 14.1657 21.2009 14.4472 21.3416L14.6583 21.4472C15.5029 21.8695 16.497 21.8695 17.3416 21.4472L17.5528 21.3416C17.8343 21.2009 18.1657 21.2009 18.4472 21.3416L18.6583 21.4472C19.5029 21.8695 20.497 21.8695 21.3416 21.4472L21.4472 21.3944C21.9412 21.1474 22.1414 20.5467 21.8944 20.0528C21.7246 19.7132 21.3877 19.5125 21.0332 19.5004L21.8671 16.3732C22.2184 15.0558 21.4494 13.6998 20.1383 13.3253L20 13.2857V10C20 8.34315 18.6569 7 17 7V6.5C17 5.11929 15.8807 4 14.5 4H13V3ZM18 12.7143V10C18 9.44772 17.5523 9 17 9H7C6.44771 9 6 9.44771 6 10V12.7143L11.1758 11.2355C11.7145 11.0816 12.2855 11.0816 12.8242 11.2355L18 12.7143Z" fill="#6F767E"/>
</svg>
