<svg width="24" height="24" viewBox="0 0 24 24" fill="none" xmlns="http://www.w3.org/2000/svg">
<path fill-rule="evenodd" clip-rule="evenodd" d="M12 2C12.5523 2 13 2.44772 13 3V4H14C15.6569 4 17 5.34315 17 7V8C18.6569 8 20 9.34315 20 11V13.2857L20.1383 13.3253C21.4494 13.6998 22.2184 15.0558 21.8671 16.3732L21.0332 19.5003C21.3877 19.5125 21.7246 19.7132 21.8944 20.0528C22.1414 20.5467 21.9412 21.1474 21.4472 21.3944L21.3416 21.4472C20.5338 21.8511 19.5893 21.8687 18.7696 21.5H18.75L18.752 21.492C18.7206 21.4777 18.6894 21.4627 18.6583 21.4472L18.4472 21.3416C18.1657 21.2009 17.8343 21.2009 17.5528 21.3416L17.3416 21.4472C16.497 21.8695 15.5029 21.8695 14.6583 21.4472L14.4472 21.3416C14.1657 21.2009 13.8343 21.2009 13.5528 21.3416L13.3416 21.4472C12.497 21.8695 11.5029 21.8695 10.6583 21.4472L10.4472 21.3416C10.1657 21.2009 9.83429 21.2009 9.55276 21.3416L9.34162 21.4472C8.49703 21.8695 7.50292 21.8695 6.65833 21.4472L6.44719 21.3416C6.16566 21.2009 5.83429 21.2009 5.55276 21.3416L5.34162 21.4472C5.31061 21.4627 5.2794 21.4776 5.248 21.492L5.25 21.5H5.23035C4.41066 21.8687 3.4661 21.8511 2.65833 21.4472L2.55276 21.3944C2.05878 21.1474 1.85856 20.5467 2.10555 20.0528C2.27533 19.7132 2.61225 19.5124 2.96675 19.5003L2.13285 16.3732C1.78153 15.0558 2.55063 13.6998 3.86163 13.3253L4 13.2857V11C4 9.34315 5.34315 8 7 8V7C7 5.34315 8.34315 4 10 4H11V3C11 2.44772 11.4477 2 12 2ZM5.01088 19.4038C5.77085 19.1383 6.61203 19.188 7.34162 19.5528L7.55276 19.6583C7.83429 19.7991 8.16566 19.7991 8.44719 19.6583L8.65833 19.5528C9.50292 19.1305 10.497 19.1305 11.3416 19.5528L11.5528 19.6583C11.8343 19.7991 12.1657 19.7991 12.4472 19.6583L12.6583 19.5528C13.5029 19.1305 14.497 19.1305 15.3416 19.5528L15.5528 19.6583C15.8343 19.7991 16.1657 19.7991 16.4472 19.6583L16.6583 19.5528C17.3879 19.188 18.2291 19.1383 18.9891 19.4038L19.9347 15.8579C20.0049 15.5944 19.8511 15.3232 19.5889 15.2483L12.2747 13.1585C12.0952 13.1072 11.9048 13.1072 11.7253 13.1585L4.41107 15.2483C4.14887 15.3232 3.99505 15.5944 4.06532 15.8579L5.01088 19.4038ZM6 12.7143L11.1758 11.2355C11.7145 11.0816 12.2855 11.0816 12.8242 11.2355L18 12.7143V11C18 10.4477 17.5523 10 17 10H7C6.44771 10 6 10.4477 6 11V12.7143ZM9 7C9 6.44772 9.44772 6 10 6H14C14.5523 6 15 6.44772 15 7V8H9V7Z" fill="#6F767E"/>
</svg>
