<svg width="24" height="24" viewBox="0 0 24 24" fill="none" xmlns="http://www.w3.org/2000/svg">
<path fill-rule="evenodd" clip-rule="evenodd" d="M12 2C9.79086 2 8 3.79086 8 6H6.64833C5.13536 6 3.85916 7.12661 3.6715 8.6279L2.4215 18.6279C2.19768 20.4185 3.59384 22 5.39833 22H18.6016C20.4061 22 21.8023 20.4185 21.5785 18.6279L20.3285 8.6279C20.1408 7.12661 18.8646 6 17.3516 6H16C16 3.79086 14.2091 2 12 2ZM14 8V9C14 9.55228 14.4477 10 15 10C15.5523 10 16 9.55228 16 9V8H17.3516C17.856 8 18.2814 8.37554 18.3439 8.87597L19.5939 18.876C19.6685 19.4728 19.2031 20 18.6016 20H5.39833C4.79683 20 4.33145 19.4728 4.40605 18.876L5.65605 8.87597C5.71861 8.37554 6.14401 8 6.64833 8H8V9C8 9.55228 8.44772 10 9 10C9.55228 10 10 9.55228 10 9V8H14ZM14 6C14 4.89543 13.1046 4 12 4C10.8954 4 10 4.89543 10 6H14Z" fill="#6F767E"/>
</svg>
