<svg width="24" height="24" viewBox="0 0 24 24" fill="none" xmlns="http://www.w3.org/2000/svg">
<path fill-rule="evenodd" clip-rule="evenodd" d="M21.3982 13.1334C20.2099 15.1148 17.215 19 12 19C6.78498 19 3.79008 15.1148 2.60179 13.1334C2.17953 12.4292 2.17953 11.5708 2.6018 10.8666C3.79008 8.88521 6.78498 5 12 5C17.215 5 20.2099 8.88521 21.3982 10.8666C21.8205 11.5708 21.8205 12.4292 21.3982 13.1334ZM12 15C13.6569 15 15 13.6569 15 12C15 10.3431 13.6569 9 12 9C10.3432 9 9 10.3431 9 12C9 13.6569 10.3432 15 12 15Z" fill="#6F767E"/>
</svg>
