<svg width="24" height="24" viewBox="0 0 24 24" fill="none" xmlns="http://www.w3.org/2000/svg">
<path fill-rule="evenodd" clip-rule="evenodd" d="M11.9999 17C16.112 17 18.5865 13.933 19.6829 12.1047C19.708 12.063 19.7149 12.0278 19.7149 12C19.7149 11.9722 19.708 11.937 19.6829 11.8953C18.5865 10.067 16.112 7 11.9999 7C7.88789 7 5.41337 10.067 4.31694 11.8953C4.29189 11.937 4.28503 11.9722 4.28503 12C4.28503 12.0278 4.29189 12.063 4.31694 12.1047C5.41337 13.933 7.88789 17 11.9999 17ZM21.3982 13.1334C20.2099 15.1148 17.215 19 11.9999 19C6.78492 19 3.79002 15.1148 2.60173 13.1334C2.17947 12.4292 2.17947 11.5708 2.60173 10.8666C3.79002 8.88521 6.78492 5 11.9999 5C17.215 5 20.2099 8.88521 21.3982 10.8666C21.8204 11.5708 21.8204 12.4292 21.3982 13.1334Z" fill="#6F767E"/>
<path fill-rule="evenodd" clip-rule="evenodd" d="M12 13C12.5523 13 13 12.5523 13 12C13 11.4477 12.5523 11 12 11C11.4477 11 11 11.4477 11 12C11 12.5523 11.4477 13 12 13ZM12 15C13.6569 15 15 13.6569 15 12C15 10.3431 13.6569 9 12 9C10.3431 9 9 10.3431 9 12C9 13.6569 10.3431 15 12 15Z" fill="#6F767E"/>
</svg>
