<svg width="24" height="24" viewBox="0 0 24 24" fill="none" xmlns="http://www.w3.org/2000/svg">
<path d="M17.7929 3.79295C18.1834 3.40243 18.8166 3.40243 19.2071 3.79296L21.352 5.93791C21.9378 6.52369 21.9378 7.47343 21.352 8.05922L19.2071 10.2042C18.8166 10.5947 18.1834 10.5947 17.7929 10.2042C17.4024 9.81368 17.4024 9.18051 17.7929 8.78998L18.5866 7.99622H16.2648C15.211 7.99622 14.2345 8.54911 13.6923 9.45273L12.1639 12L13.6923 14.5473C14.2345 15.4509 15.211 16.0038 16.2648 16.0038H18.5867L17.7929 15.21C17.4024 14.8195 17.4024 14.1863 17.7929 13.7958C18.1834 13.4053 18.8166 13.4053 19.2071 13.7958L21.352 15.9407C21.9378 16.5265 21.9378 17.4762 21.352 18.062L19.2071 20.207C18.8166 20.5975 18.1834 20.5975 17.7929 20.207C17.4024 19.8165 17.4024 19.1833 17.7929 18.7928L18.5819 18.0038H16.2648C14.5084 18.0038 12.8809 17.0823 11.9773 15.5763L10.9977 13.9437L10.0227 15.5687C9.11909 17.0747 7.49155 17.9962 5.73524 17.9962H3C2.44772 17.9962 2 17.5485 2 16.9962C2 16.4439 2.44772 15.9962 3 15.9962H5.73524C6.78903 15.9962 7.76555 15.4433 8.30772 14.5397L9.83154 12L8.30772 9.4603C7.76555 8.55668 6.78903 8.00378 5.73524 8.00378H3C2.44772 8.00378 2 7.55607 2 7.00378C2 6.4515 2.44772 6.00378 3 6.00378H5.73524C7.49155 6.00378 9.11909 6.92528 10.0227 8.4313L10.9977 10.0563L11.9773 8.42374C12.8809 6.91771 14.5084 5.99622 16.2648 5.99622H18.5819L17.7929 5.20716C17.4024 4.81664 17.4024 4.18347 17.7929 3.79295Z" fill="#6F767E"/>
</svg>
