<svg width="24" height="24" viewBox="0 0 24 24" fill="none" xmlns="http://www.w3.org/2000/svg">
<path d="M19.2071 3.79296C18.8166 3.40243 18.1834 3.40243 17.7929 3.79295C17.4024 4.18347 17.4024 4.81664 17.7929 5.20716L18.5819 5.99622H15.7081C13.6636 5.99622 11.8251 7.24097 11.0657 9.13926L9.0773 14.1104C8.62171 15.2494 7.51858 15.9962 6.29187 15.9962H3C2.44772 15.9962 2 16.4439 2 16.9962C2 17.5485 2.44772 17.9962 3 17.9962H6.29187C8.33639 17.9962 10.1749 16.7515 10.9343 14.8532L12.9227 9.88204C13.3783 8.74307 14.4814 7.99622 15.7081 7.99622H18.5866L17.7929 8.78998C17.4024 9.18051 17.4024 9.81368 17.7929 10.2042C18.1834 10.5947 18.8166 10.5947 19.2071 10.2042L21.352 8.05922C21.9378 7.47343 21.9378 6.52369 21.352 5.93791L19.2071 3.79296Z" fill="#6F767E"/>
<path d="M12.9227 14.118C13.3783 15.2569 14.4814 16.0038 15.7081 16.0038H18.5866L17.7929 15.2101C17.4024 14.8196 17.4024 14.1864 17.7929 13.7959C18.1834 13.4054 18.8166 13.4054 19.2071 13.7959L21.352 15.9408C21.9378 16.5266 21.9378 17.4764 21.352 18.0621L19.2071 20.2071C18.8166 20.5976 18.1834 20.5976 17.7929 20.2071C17.4024 19.8166 17.4024 19.1834 17.7929 18.7929L18.582 18.0038H15.7081C13.6636 18.0038 11.8251 16.759 11.0657 14.8607L9.0773 9.88961C8.62171 8.75064 7.51858 8.00378 6.29187 8.00378H3C2.44772 8.00378 2 7.55607 2 7.00378C2 6.4515 2.44772 6.00378 3 6.00378H6.29187C8.33639 6.00378 10.1749 7.24854 10.9343 9.14683L12.9227 14.118Z" fill="#6F767E"/>
</svg>
