<svg width="24" height="24" viewBox="0 0 24 24" fill="none" xmlns="http://www.w3.org/2000/svg">
<path d="M7.5 3.5C7.5 2.39543 8.39543 1.5 9.5 1.5C10.6046 1.5 11.5 2.39543 11.5 3.5V5C11.5 5.27614 11.2761 5.5 11 5.5H9.5C8.39543 5.5 7.5 4.60457 7.5 3.5Z" fill="#6F767E"/>
<path d="M4 6.5C2.61929 6.5 1.5 7.61929 1.5 9C1.5 10.3807 2.61929 11.5 4 11.5H9C10.3807 11.5 11.5 10.3807 11.5 9C11.5 7.61929 10.3807 6.5 9 6.5H4Z" fill="#6F767E"/>
<path d="M22.5 15C22.5 16.3807 21.3807 17.5 20 17.5H15C13.6193 17.5 12.5 16.3807 12.5 15C12.5 13.6193 13.6193 12.5 15 12.5L20 12.5C21.3807 12.5 22.5 13.6193 22.5 15Z" fill="#6F767E"/>
<path d="M16.5 20.5C16.5 21.6046 15.6046 22.5 14.5 22.5C13.3954 22.5 12.5 21.6046 12.5 20.5V19C12.5 18.7239 12.7239 18.5 13 18.5H14.5C15.6046 18.5 16.5 19.3954 16.5 20.5Z" fill="#6F767E"/>
<path d="M9 22.5C7.61929 22.5 6.5 21.3807 6.5 20V15C6.5 13.6193 7.61929 12.5 9 12.5C10.3807 12.5 11.5 13.6193 11.5 15V20C11.5 21.3807 10.3807 22.5 9 22.5Z" fill="#6F767E"/>
<path d="M3.5 16.5C2.39543 16.5 1.5 15.6046 1.5 14.5C1.5 13.3954 2.39543 12.5 3.5 12.5H5C5.27614 12.5 5.5 12.7239 5.5 13V14.5C5.5 15.6046 4.60457 16.5 3.5 16.5Z" fill="#6F767E"/>
<path d="M15 1.5C16.3807 1.5 17.5 2.61929 17.5 4V9C17.5 10.3807 16.3807 11.5 15 11.5C13.6193 11.5 12.5 10.3807 12.5 9V4C12.5 2.61929 13.6193 1.5 15 1.5Z" fill="#6F767E"/>
<path d="M20.5 7.5C21.6046 7.5 22.5 8.39543 22.5 9.5C22.5 10.6046 21.6046 11.5 20.5 11.5H19C18.7239 11.5 18.5 11.2761 18.5 11V9.5C18.5 8.39543 19.3954 7.5 20.5 7.5Z" fill="#6F767E"/>
</svg>
