<svg width="24" height="24" viewBox="0 0 24 24" fill="none" xmlns="http://www.w3.org/2000/svg">
<path fill-rule="evenodd" clip-rule="evenodd" d="M9 8.5H4C3.72386 8.5 3.5 8.72386 3.5 9C3.5 9.27614 3.72386 9.5 4 9.5H9C9.27614 9.5 9.5 9.27614 9.5 9C9.5 8.72386 9.27614 8.5 9 8.5ZM4 6.5C2.61929 6.5 1.5 7.61929 1.5 9C1.5 10.3807 2.61929 11.5 4 11.5H9C10.3807 11.5 11.5 10.3807 11.5 9C11.5 7.61929 10.3807 6.5 9 6.5H4Z" fill="#6F767E"/>
<path fill-rule="evenodd" clip-rule="evenodd" d="M9.5 1.5C8.39543 1.5 7.5 2.39543 7.5 3.5C7.5 4.60457 8.39543 5.5 9.5 5.5H10.5C11.0523 5.5 11.5 5.05228 11.5 4.5V3.5C11.5 2.39543 10.6046 1.5 9.5 1.5Z" fill="#6F767E"/>
<path fill-rule="evenodd" clip-rule="evenodd" d="M15 15.5L20 15.5C20.2761 15.5 20.5 15.2761 20.5 15C20.5 14.7239 20.2761 14.5 20 14.5L15 14.5C14.7239 14.5 14.5 14.7239 14.5 15C14.5 15.2761 14.7239 15.5 15 15.5ZM20 17.5C21.3807 17.5 22.5 16.3807 22.5 15C22.5 13.6193 21.3807 12.5 20 12.5L15 12.5C13.6193 12.5 12.5 13.6193 12.5 15C12.5 16.3807 13.6193 17.5 15 17.5L20 17.5Z" fill="#6F767E"/>
<path fill-rule="evenodd" clip-rule="evenodd" d="M14.5 22.5C15.6046 22.5 16.5 21.6046 16.5 20.5C16.5 19.3954 15.6046 18.5 14.5 18.5L13.5 18.5C12.9477 18.5 12.5 18.9477 12.5 19.5L12.5 20.5C12.5 21.6046 13.3954 22.5 14.5 22.5Z" fill="#6F767E"/>
<path fill-rule="evenodd" clip-rule="evenodd" d="M8.5 15L8.5 20C8.5 20.2761 8.72386 20.5 9 20.5C9.27614 20.5 9.5 20.2761 9.5 20L9.5 15C9.5 14.7239 9.27614 14.5 9 14.5C8.72386 14.5 8.5 14.7239 8.5 15ZM6.5 20C6.5 21.3807 7.61929 22.5 9 22.5C10.3807 22.5 11.5 21.3807 11.5 20L11.5 15C11.5 13.6193 10.3807 12.5 9 12.5C7.61929 12.5 6.5 13.6193 6.5 15L6.5 20Z" fill="#6F767E"/>
<path fill-rule="evenodd" clip-rule="evenodd" d="M1.5 14.5C1.5 15.6046 2.39543 16.5 3.5 16.5C4.60457 16.5 5.5 15.6046 5.5 14.5L5.5 13.5C5.5 12.9477 5.05228 12.5 4.5 12.5L3.5 12.5C2.39543 12.5 1.5 13.3954 1.5 14.5Z" fill="#6F767E"/>
<path fill-rule="evenodd" clip-rule="evenodd" d="M15.5 9L15.5 4C15.5 3.72386 15.2761 3.5 15 3.5C14.7239 3.5 14.5 3.72386 14.5 4L14.5 9C14.5 9.27614 14.7239 9.5 15 9.5C15.2761 9.5 15.5 9.27614 15.5 9ZM17.5 4C17.5 2.61929 16.3807 1.5 15 1.5C13.6193 1.5 12.5 2.61929 12.5 4L12.5 9C12.5 10.3807 13.6193 11.5 15 11.5C16.3807 11.5 17.5 10.3807 17.5 9L17.5 4Z" fill="#6F767E"/>
<path fill-rule="evenodd" clip-rule="evenodd" d="M22.5 9.5C22.5 8.39543 21.6046 7.5 20.5 7.5C19.3954 7.5 18.5 8.39543 18.5 9.5L18.5 10.5C18.5 11.0523 18.9477 11.5 19.5 11.5L20.5 11.5C21.6046 11.5 22.5 10.6046 22.5 9.5Z" fill="#6F767E"/>
</svg>
