<svg width="24" height="24" viewBox="0 0 24 24" fill="none" xmlns="http://www.w3.org/2000/svg">
<path fill-rule="evenodd" clip-rule="evenodd" d="M8.57647 3.97618C8.82347 2.8235 9.84213 2 11.021 2H12.9789C14.1577 2 15.1764 2.8235 15.4234 3.97618L15.8855 6.13284C17.1101 6.51063 18 7.65139 18 9V10.0854C18.5826 10.2913 19 10.8469 19 11.5V12.5C19 13.1531 18.5826 13.7087 18 13.9146V15C18 16.3486 17.1102 17.4893 15.8856 17.8671L15.4235 20.0238C15.1765 21.1765 14.1578 22 12.979 22H11.021C9.84217 22 8.82351 21.1766 8.5765 20.0239L8.11432 17.8671C6.8898 17.4893 6 16.3486 6 15V9C6 7.65145 6.8898 6.51072 8.11432 6.13288L8.57647 3.97618ZM16 9C16 8.44772 15.5523 8 15 8H9C8.44772 8 8 8.44772 8 9V15C8 15.5523 8.44772 16 9 16H15C15.5523 16 16 15.5523 16 15V9Z" fill="#6F767E"/>
<path fill-rule="evenodd" clip-rule="evenodd" d="M10 13C10.5523 13 11 12.5523 11 12C11 11.4477 10.5523 11 10 11C9.44772 11 9 11.4477 9 12C9 12.5523 9.44772 13 10 13Z" fill="#6F767E"/>
<path fill-rule="evenodd" clip-rule="evenodd" d="M14 13C14.5523 13 15 12.5523 15 12C15 11.4477 14.5523 11 14 11C13.4477 11 13 11.4477 13 12C13 12.5523 13.4477 13 14 13Z" fill="#6F767E"/>
<path fill-rule="evenodd" clip-rule="evenodd" d="M12 11C12.5523 11 13 10.5523 13 10C13 9.44772 12.5523 9 12 9C11.4477 9 11 9.44772 11 10C11 10.5523 11.4477 11 12 11Z" fill="#6F767E"/>
<path fill-rule="evenodd" clip-rule="evenodd" d="M12 15C12.5523 15 13 14.5523 13 14C13 13.4477 12.5523 13 12 13C11.4477 13 11 13.4477 11 14C11 14.5523 11.4477 15 12 15Z" fill="#6F767E"/>
</svg>
