<svg width="24" height="24" viewBox="0 0 24 24" fill="none" xmlns="http://www.w3.org/2000/svg">
<path fill-rule="evenodd" clip-rule="evenodd" d="M7.56464 6.36501L7.99184 4.37141C8.28824 2.9882 9.51063 2 10.9252 2H13.0748C14.4894 2 15.7118 2.9882 16.0082 4.37141L16.4354 6.36501C17.3676 6.87391 18 7.8631 18 9V10.0854C18.5826 10.2913 19 10.8469 19 11.5V12.5C19 13.1531 18.5826 13.7087 18 13.9146V15C18 16.1369 17.3676 17.1261 16.4354 17.635L16.0082 19.6286C15.7118 21.0118 14.4894 22 13.0748 22H10.9253C9.51068 22 8.2883 21.0118 7.99189 19.6286L7.56467 17.635C6.63242 17.1261 6 16.1369 6 15V9C6 7.8631 6.63241 6.87391 7.56464 6.36501ZM10.9252 4H13.0748C13.5463 4 13.9538 4.3294 14.0526 4.79047L14.3117 6H9.68826L9.94744 4.79047C10.0462 4.3294 10.4537 4 10.9252 4ZM9.68829 18L9.94749 19.2095C10.0463 19.6706 10.4538 20 10.9253 20H13.0748C13.5463 20 13.9538 19.6706 14.0526 19.2095L14.3118 18H9.68829ZM9 8H15C15.5523 8 16 8.44772 16 9V15C16 15.5523 15.5523 16 15 16H9C8.44772 16 8 15.5523 8 15V9C8 8.44772 8.44772 8 9 8Z" fill="#6F767E"/>
<path fill-rule="evenodd" clip-rule="evenodd" d="M10 13C10.5523 13 11 12.5523 11 12C11 11.4477 10.5523 11 10 11C9.44772 11 9 11.4477 9 12C9 12.5523 9.44772 13 10 13Z" fill="#6F767E"/>
<path fill-rule="evenodd" clip-rule="evenodd" d="M14 13C14.5523 13 15 12.5523 15 12C15 11.4477 14.5523 11 14 11C13.4477 11 13 11.4477 13 12C13 12.5523 13.4477 13 14 13Z" fill="#6F767E"/>
<path fill-rule="evenodd" clip-rule="evenodd" d="M12 11C12.5523 11 13 10.5523 13 10C13 9.44772 12.5523 9 12 9C11.4477 9 11 9.44772 11 10C11 10.5523 11.4477 11 12 11Z" fill="#6F767E"/>
<path fill-rule="evenodd" clip-rule="evenodd" d="M12 15C12.5523 15 13 14.5523 13 14C13 13.4477 12.5523 13 12 13C11.4477 13 11 13.4477 11 14C11 14.5523 11.4477 15 12 15Z" fill="#6F767E"/>
</svg>
