<svg width="24" height="24" viewBox="0 0 24 24" fill="none" xmlns="http://www.w3.org/2000/svg">
<path fill-rule="evenodd" clip-rule="evenodd" d="M12 22C17.5228 22 22 17.5228 22 12C22 6.47715 17.5228 2 12 2C6.47715 2 2 6.47715 2 12C2 17.5228 6.47715 22 12 22ZM8.33238 13.5996C8.11126 13.0935 7.52174 12.8625 7.01565 13.0837C6.50957 13.3048 6.27855 13.8943 6.49967 14.4004C7.42463 16.5174 9.53804 18 12 18C14.4619 18 16.5753 16.5174 17.5003 14.4004C17.7214 13.8943 17.4904 13.3048 16.9843 13.0837C16.4782 12.8625 15.8887 13.0935 15.6676 13.5996C15.0494 15.0145 13.6387 16 12 16C10.3613 16 8.95054 15.0145 8.33238 13.5996ZM9 9C9 9.55228 8.55228 10 8 10C7.44772 10 7 9.55228 7 9C7 8.44772 7.44772 8 8 8C8.55228 8 9 8.44772 9 9ZM16 10C16.5523 10 17 9.55228 17 9C17 8.44772 16.5523 8 16 8C15.4477 8 15 8.44772 15 9C15 9.55228 15.4477 10 16 10Z" fill="#6F767E"/>
</svg>
