<svg width="24" height="24" viewBox="0 0 24 24" fill="none" xmlns="http://www.w3.org/2000/svg">
<path d="M5 15.5C6.10535 14.7615 6.36094 13.8505 6 13C5.65537 12.1873 3.11111 11.4444 3.66667 10.3333C4.22222 9.22222 5.50289 10.6502 6.44444 9.77778C6.35915 8.19759 6.13755 6.83277 6.80081 5.34581C7.76907 3.11111 9.77778 2 12 2C14.2222 2 16.2309 3.11111 17.1992 5.34581C17.8624 6.83277 17.6409 8.19759 17.5556 9.77778C18.4971 10.6502 19.7778 9.22222 20.3333 10.3333C20.8889 11.4444 18.3446 12.1873 18 13C17.6391 13.8505 17.8947 14.7615 19 15.5C20.6724 16.6174 22 16.4444 22 17.5788C22 18.6667 19.5764 18.9111 19 19L18.3 19.9333C18.1111 20.1851 17.814 20.3339 17.4992 20.3295C16.2405 20.3117 15.8219 20.2642 14.7778 20.8889C13.9231 21.4002 13.0636 22 12 22C10.9364 22 10.0769 21.4002 9.22222 20.8889C8.17809 20.2642 7.75948 20.3117 6.50075 20.3295C6.18603 20.3339 5.88885 20.1851 5.7 19.9333L5 19C4.42359 18.9111 2 18.6667 2 17.5788C2 16.4444 3.32757 16.6174 5 15.5Z" fill="#6F767E"/>
</svg>
