<svg width="24" height="24" viewBox="0 0 24 24" fill="none" xmlns="http://www.w3.org/2000/svg">
<path fill-rule="evenodd" clip-rule="evenodd" d="M4.92053 12.0636L4.80558 11.9879C4.74025 11.9448 4.67495 11.9013 4.61041 11.8575C3.95076 11.4095 3.37165 10.9234 3.66667 10.3333C3.9538 9.75906 4.43463 9.86304 4.96223 9.97713C5.12243 10.0118 5.28694 10.0473 5.45164 10.0651C5.79404 10.1022 6.13728 10.0624 6.44444 9.77778C6.43212 9.54939 6.41694 9.32551 6.402 9.1051C6.31358 7.80052 6.23342 6.61786 6.80081 5.34581C7.76907 3.11111 9.77778 2 12 2C14.2222 2 16.2309 3.11111 17.1992 5.34581C17.7666 6.61786 17.6864 7.80052 17.598 9.1051C17.5831 9.32551 17.5679 9.54939 17.5556 9.77778C17.8627 10.0624 18.206 10.1022 18.5484 10.0651C18.7131 10.0473 18.8776 10.0118 19.0378 9.97713C19.5654 9.86304 20.0462 9.75906 20.3333 10.3333C20.6283 10.9234 20.0492 11.4095 19.3896 11.8575C19.3251 11.9013 19.2597 11.9448 19.1944 11.9879L19.0795 12.0636C18.595 12.3822 18.1332 12.6859 18 13C17.6391 13.8505 17.8947 14.7615 19 15.5C19.643 15.9296 20.2351 16.1685 20.7203 16.3643C21.497 16.6777 22 16.8806 22 17.5788C22 18.6667 19.5764 18.9111 19 19L18.3 19.9333C18.1111 20.1851 17.814 20.3339 17.4992 20.3295C16.2405 20.3117 15.8219 20.2642 14.7778 20.8889C14.6875 20.9429 14.5971 20.9979 14.5064 21.0531C13.7391 21.5203 12.9512 22 12 22C11.0488 22 10.2609 21.5203 9.49358 21.0531C9.40292 20.9979 9.31254 20.9429 9.22222 20.8889C8.17809 20.2642 7.75948 20.3117 6.50075 20.3295C6.18603 20.3339 5.88885 20.1851 5.7 19.9333L5 19C4.42359 18.9111 2 18.6667 2 17.5788C2 16.8806 2.50295 16.6777 3.2797 16.3643C3.76492 16.1685 4.35697 15.9296 5 15.5C6.10535 14.7615 6.36094 13.8505 6 13C5.86679 12.6859 5.40496 12.3822 4.92053 12.0636ZM8.62734 6.16054L8.63596 6.14095C9.25355 4.71558 10.4865 4 12 4C13.5135 4 14.7465 4.71558 15.364 6.14095L15.3727 6.16054C15.7252 6.95081 15.6848 7.59999 15.6037 8.90497C15.5893 9.13762 15.5735 9.39112 15.5585 9.66998C15.5264 10.2636 15.7602 10.8408 16.1963 11.2449C16.3182 11.3579 16.4435 11.457 16.5709 11.5437L16.1589 12.2187C15.8024 13.059 15.7217 14.0277 16.0733 14.9829C16.4299 15.9517 17.1694 16.705 18.0265 17.2529C17.5797 17.5019 17.3081 17.9225 17.009 18.3213C16.6031 18.3172 16.1603 18.3252 15.7362 18.3943C15.0126 18.5123 14.4047 18.7815 13.751 19.1726L13.6685 19.222C12.6648 19.8226 12.3683 20 12 20C11.6317 20 11.3352 19.8226 10.3315 19.222L10.249 19.1726C9.59531 18.7815 8.9874 18.5123 8.26377 18.3943C7.83974 18.3252 7.39692 18.3172 6.99096 18.3213C6.69189 17.9225 6.42026 17.5019 5.97347 17.2529C6.83058 16.705 7.57011 15.9517 7.92674 14.9829C8.27833 14.0277 8.19755 13.059 7.84107 12.2187C7.72522 11.9456 7.57387 11.7209 7.42907 11.5437C7.55647 11.457 7.68178 11.3579 7.80373 11.2449C8.23985 10.8408 8.47358 10.2636 8.44154 9.66998C8.42648 9.39112 8.41073 9.13762 8.39628 8.90497C8.31518 7.59999 8.27484 6.95081 8.62734 6.16054Z" fill="#6F767E"/>
</svg>
