<svg width="24" height="24" viewBox="0 0 24 24" fill="none" xmlns="http://www.w3.org/2000/svg">
<path d="M7 5C7 4.44772 6.55228 4 6 4C5.44772 4 5 4.44772 5 5V17.0858L3.70711 15.7929C3.31658 15.4024 2.68342 15.4024 2.29289 15.7929C1.90237 16.1834 1.90237 16.8166 2.29289 17.2071L4.58579 19.5C5.36683 20.281 6.63316 20.281 7.41421 19.5L9.70711 17.2071C10.0976 16.8166 10.0976 16.1834 9.70711 15.7929C9.31658 15.4024 8.68342 15.4024 8.29289 15.7929L7 17.0858V5Z" fill="#6F767E"/>
<path fill-rule="evenodd" clip-rule="evenodd" d="M12 7C12 6.44772 12.4477 6 13 6H21C21.5523 6 22 6.44772 22 7C22 7.55228 21.5523 8 21 8H13C12.4477 8 12 7.55228 12 7Z" fill="#6F767E"/>
<path fill-rule="evenodd" clip-rule="evenodd" d="M12 12C12 12.5523 12.4477 13 13 13H18C18.5523 13 19 12.5523 19 12C19 11.4477 18.5523 11 18 11H13C12.4477 11 12 11.4477 12 12Z" fill="#6F767E"/>
<path fill-rule="evenodd" clip-rule="evenodd" d="M12 17C12 17.5523 12.4477 18 13 18H15C15.5523 18 16 17.5523 16 17C16 16.4477 15.5523 16 15 16H13C12.4477 16 12 16.4477 12 17Z" fill="#6F767E"/>
</svg>
