<svg xmlns="http://www.w3.org/2000/svg" width="30" height="30" viewBox="0 0 30 30">
  <g id="Group_5" data-name="Group 5" transform="translate(-285 -672)">
    <rect id="Rectangle_315" data-name="Rectangle 315" width="30" height="30" rx="5" transform="translate(285 672)" fill="#ff7b43"/>
    <path id="Vector" d="M9.814,0H5.186A5.2,5.2,0,0,0,0,5.186V9.814A5.2,5.2,0,0,0,5.186,15H9.814A5.2,5.2,0,0,0,15,9.814V5.186A5.2,5.2,0,0,0,9.814,0ZM9.2,5.084c.293-.173.586-.343.881-.509a.5.5,0,1,1,.49.861c-.288.17-.576.338-.868.5a.5.5,0,0,1-.741-.483A.45.45,0,0,1,9.2,5.084Zm-.7,5.454c0,.582-.381.772-.846.421L5.56,9.383a1.111,1.111,0,0,1-.421.08H4.632A1.113,1.113,0,0,1,3.516,8.35V6.655A1.118,1.118,0,0,1,4.632,5.537h.507a1.113,1.113,0,0,1,.415.081l2.1-1.579c.465-.352.846-.16.846.422v6.077Zm2.25-.3a.492.492,0,0,1-.663.183c-.3-.165-.59-.336-.881-.508a.476.476,0,0,1-.24-.426.489.489,0,0,1,.716-.439c.308.165.61.342.908.524a.488.488,0,0,1,.16.668Zm.739-2.666a.252.252,0,0,1-.023.065A.491.491,0,0,1,11,7.994q-.513.005-1.025,0a.495.495,0,0,1-.008-.989c.347-.006.694,0,1.041,0a.49.49,0,0,1,.456.36.234.234,0,0,1,.02.059v.152Z" transform="translate(293 680)" fill="#fff"/>
  </g>
</svg>
