<svg width="24" height="24" viewBox="0 0 24 24" fill="none" xmlns="http://www.w3.org/2000/svg">
<path fill-rule="evenodd" clip-rule="evenodd" d="M12 22C17.5228 22 22 17.5228 22 12C22 6.47715 17.5228 2 12 2C6.47715 2 2 6.47715 2 12C2 17.5228 6.47715 22 12 22ZM6.28438 9.34241C6.13627 8.81036 6.44752 8.25898 6.97957 8.11086L6.98059 8.11058L6.98181 8.11024L6.98481 8.10942C7.12649 8.07158 7.26961 8.03932 7.4132 8.00959C7.67664 7.95504 8.05377 7.88702 8.52669 7.82816C9.47163 7.71055 10.8049 7.62876 12.3812 7.76667C13.9576 7.90459 15.2564 8.21665 16.1666 8.49656C16.6221 8.63665 16.9817 8.76912 17.2316 8.86859C17.3687 8.92315 17.5056 8.97934 17.639 9.04263C18.1271 9.27506 18.3452 9.88927 18.1119 10.3772C17.8739 10.8748 17.2781 11.0857 16.7802 10.8489L16.7791 10.8483L16.7702 10.8442C16.7403 10.8305 16.6456 10.7879 16.4922 10.7269C16.2874 10.6454 15.9785 10.5312 15.5787 10.4082C14.7782 10.162 13.6192 9.88261 12.2069 9.75906C10.7947 9.63551 9.60479 9.7094 8.77371 9.81284C8.35862 9.86451 8.03453 9.92336 7.81875 9.96804C7.657 10.0015 7.55642 10.027 7.52457 10.0353L7.51549 10.0377C6.98373 10.1852 6.43241 9.87416 6.28438 9.34241ZM8.34968 14.2957C7.83606 14.4987 7.58424 15.0796 7.78724 15.5933C7.98884 16.1033 8.56317 16.3552 9.07416 16.1598L9.08526 16.156C9.10101 16.1507 9.13231 16.1406 9.17902 16.1276C9.27239 16.1016 9.42753 16.0639 9.64324 16.0296C10.074 15.9611 10.75 15.9054 11.6622 15.9853C12.5745 16.0651 13.2306 16.2373 13.6429 16.3795C13.8494 16.4508 13.9956 16.5148 14.083 16.5566C14.1268 16.5775 14.1559 16.5929 14.1704 16.6009L14.1807 16.6066C14.65 16.8877 15.2593 16.7394 15.5465 16.2721C15.8356 15.8015 15.6884 15.1857 15.2179 14.8966L15.2165 14.8957L15.2118 14.8929C15.1844 14.8766 15.1567 14.8607 15.1287 14.8454C15.0834 14.8207 15.0225 14.789 14.9458 14.7523C14.7924 14.6789 14.576 14.5858 14.2952 14.4889C13.7331 14.295 12.9167 14.0874 11.8366 13.9929C10.7564 13.8984 9.91636 13.961 9.32912 14.0544C9.03583 14.1011 8.80651 14.1552 8.64266 14.2008C8.56075 14.2236 8.49526 14.2443 8.44637 14.2608C8.41612 14.271 8.38616 14.2819 8.35628 14.2931L8.35279 14.2945L8.35119 14.2951L8.34968 14.2957ZM7.0098 12.3823C6.88148 11.8451 7.21292 11.3056 7.75009 11.1773L7.75227 11.1768L7.75503 11.1761C7.78742 11.1686 7.81994 11.1617 7.85251 11.155C7.91029 11.1431 7.99134 11.1275 8.09451 11.11C8.30082 11.075 8.59582 11.0326 8.97022 10.9978C9.71885 10.9283 10.7864 10.8895 12.0979 11.0043C13.4095 11.119 14.4541 11.3426 15.1793 11.541C15.542 11.6403 15.8251 11.7333 16.0222 11.8036C16.1208 11.8387 16.1979 11.8682 16.2527 11.8899C16.2836 11.9021 16.3144 11.9146 16.345 11.9277L16.3476 11.9288L16.3497 11.9297C16.8564 12.1493 17.0891 12.7382 16.8695 13.2449C16.6503 13.7507 16.0629 13.9834 15.5568 13.7658L15.552 13.7638C15.5332 13.756 15.4651 13.7283 15.3506 13.6875C15.1979 13.633 14.9627 13.5553 14.6514 13.4701C14.0286 13.2996 13.1026 13.0998 11.9236 12.9967C10.7447 12.8935 9.79806 12.9295 9.15513 12.9892C8.83375 13.0191 8.58863 13.0548 8.42876 13.0819C8.34885 13.0954 8.2903 13.1068 8.25424 13.1142C8.23621 13.1179 8.22381 13.1206 8.21719 13.1221L8.21176 13.1233C7.67559 13.2497 7.13788 12.9185 7.0098 12.3823Z" fill="#6F767E"/>
</svg>
