<svg width="24" height="24" viewBox="0 0 24 24" fill="none" xmlns="http://www.w3.org/2000/svg">
<path fill-rule="evenodd" clip-rule="evenodd" d="M12 20C16.4183 20 20 16.4183 20 12C20 7.58172 16.4183 4 12 4C7.58172 4 4 7.58172 4 12C4 16.4183 7.58172 20 12 20ZM12 22C17.5228 22 22 17.5228 22 12C22 6.47715 17.5228 2 12 2C6.47715 2 2 6.47715 2 12C2 17.5228 6.47715 22 12 22Z" fill="#6F767E"/>
<path fill-rule="evenodd" clip-rule="evenodd" d="M6.97963 8.11083C6.44758 8.25895 6.13633 8.81033 6.28444 9.34238C6.43251 9.87429 6.98363 10.1855 7.51555 10.0377L7.51451 10.038L7.52463 10.0353C7.55648 10.027 7.65706 10.0015 7.81881 9.96801C8.03459 9.92333 8.35868 9.86448 8.77377 9.81281C9.60486 9.70937 10.7948 9.63548 12.207 9.75903C13.6192 9.88258 14.7782 10.162 15.5787 10.4082C15.9785 10.5311 16.2875 10.6454 16.4922 10.7268C16.6457 10.7879 16.7403 10.8305 16.7703 10.8442L16.7791 10.8483L16.7803 10.8488C17.2782 11.0856 17.874 10.8748 18.1119 10.3772C18.3452 9.88924 18.1271 9.27503 17.6391 9.0426C17.5057 8.97931 17.3688 8.92312 17.2317 8.86856C16.9817 8.76909 16.6221 8.63662 16.1666 8.49653C15.2565 8.21662 13.9577 7.90456 12.3813 7.76664C10.8049 7.62873 9.47169 7.71051 8.52675 7.82813C8.05383 7.88699 7.6767 7.95501 7.41326 8.00956C7.26967 8.03929 7.12655 8.07155 6.98487 8.10939L6.98187 8.11021L6.98065 8.11055L6.97963 8.11083Z" fill="#6F767E"/>
<path fill-rule="evenodd" clip-rule="evenodd" d="M8.34968 14.2957C7.83606 14.4987 7.58424 15.0796 7.78724 15.5933C7.98884 16.1033 8.56317 16.3552 9.07416 16.1598L9.08526 16.156C9.10101 16.1507 9.13231 16.1406 9.17902 16.1276C9.27239 16.1016 9.42753 16.0639 9.64324 16.0296C10.074 15.9611 10.75 15.9054 11.6622 15.9853C12.5745 16.0651 13.2306 16.2373 13.6429 16.3795C13.8494 16.4508 13.9956 16.5148 14.083 16.5566C14.1268 16.5775 14.1559 16.5929 14.1704 16.6009L14.1807 16.6066C14.65 16.8877 15.2593 16.7394 15.5465 16.2721C15.8356 15.8015 15.6884 15.1857 15.2179 14.8966L15.2165 14.8957L15.2118 14.8929C15.1844 14.8766 15.1567 14.8607 15.1287 14.8454C15.0834 14.8207 15.0225 14.789 14.9458 14.7523C14.7924 14.6789 14.576 14.5858 14.2952 14.4889C13.7331 14.295 12.9167 14.0874 11.8366 13.9929C10.7564 13.8984 9.91636 13.961 9.32912 14.0544C9.03583 14.1011 8.80651 14.1552 8.64266 14.2008C8.56075 14.2236 8.49526 14.2443 8.44637 14.2608C8.41612 14.271 8.38616 14.2819 8.35628 14.2931L8.35279 14.2945L8.35119 14.2951C8.34912 14.2959 8.34968 14.2957 8.34968 14.2957Z" fill="#6F767E"/>
<path fill-rule="evenodd" clip-rule="evenodd" d="M7.75021 11.1773C7.21304 11.3056 6.8816 11.8451 7.00992 12.3823C7.138 12.9185 7.67571 13.2497 8.21188 13.1233L8.21731 13.1221C8.22393 13.1206 8.23633 13.1179 8.25436 13.1142C8.29042 13.1068 8.34897 13.0954 8.42889 13.0819C8.58875 13.0548 8.83387 13.0191 9.15525 12.9892C9.79818 12.9295 10.7448 12.8935 11.9238 12.9967C13.1027 13.0998 14.0287 13.2996 14.6515 13.4701C14.9628 13.5553 15.198 13.633 15.3507 13.6875C15.4652 13.7283 15.5333 13.756 15.5521 13.7638L15.5569 13.7658C16.063 13.9834 16.6504 13.7507 16.8696 13.2449C17.0893 12.7382 16.8565 12.1493 16.3498 11.9297L16.3478 11.9288L16.3452 11.9277C16.3146 11.9146 16.2837 11.9021 16.2528 11.8899C16.198 11.8682 16.1209 11.8387 16.0223 11.8036C15.8252 11.7333 15.5421 11.6403 15.1794 11.541C14.4542 11.3426 13.4096 11.119 12.0981 11.0043C10.7865 10.8895 9.71897 10.9283 8.97034 10.9978C8.59594 11.0326 8.30094 11.075 8.09463 11.11C7.99146 11.1275 7.91041 11.1431 7.85264 11.155C7.82006 11.1617 7.78754 11.1686 7.75515 11.1761L7.7524 11.1768L7.75123 11.1771L7.75021 11.1773Z" fill="#6F767E"/>
</svg>
