<svg width="24" height="24" viewBox="0 0 24 24" fill="none" xmlns="http://www.w3.org/2000/svg">
<path d="M10.1359 3.84334C10.7585 2.05222 13.2916 2.05222 13.9142 3.84334L14.8597 6.5635C15.1344 7.35364 15.8717 7.88938 16.7081 7.90642L19.5873 7.9651C21.4831 8.00373 22.2659 10.4128 20.7548 11.5584L18.46 13.2983C17.7934 13.8036 17.5117 14.6705 17.754 15.4712L18.5879 18.2276C19.137 20.0426 17.0877 21.5315 15.5312 20.4484L13.1674 18.8035C12.4808 18.3257 11.5693 18.3257 10.8827 18.8035L8.51887 20.4484C6.96239 21.5315 4.91309 20.0426 5.4622 18.2276L6.29612 15.4712C6.53835 14.6705 6.2567 13.8036 5.5901 13.2983L3.29526 11.5584C1.7842 10.4128 2.56696 8.00373 4.46281 7.9651L7.34201 7.90642C8.17835 7.88938 8.91574 7.35364 9.19039 6.5635L10.1359 3.84334Z" fill="#6F767E"/>
</svg>
