<svg width="24" height="24" viewBox="0 0 24 24" fill="none" xmlns="http://www.w3.org/2000/svg">
<path fill-rule="evenodd" clip-rule="evenodd" d="M8.51812 2C8.50537 1.99976 8.49264 1.99976 8.47996 2H6.55221C5.31497 2 4.20463 2.75954 3.75619 3.91266L1.96825 8.51023C1.53386 9.62723 2.01111 10.8522 3 11.4121V19C3 20.6568 4.34315 22 6 22H18C19.6569 22 21 20.6568 21 19V11.4121C21.9889 10.8522 22.4662 9.62723 22.0318 8.51023L20.2438 3.91266C19.7954 2.75955 18.685 2 17.4478 2H15.5201C15.5074 1.99976 15.4947 1.99976 15.4819 2H8.51812ZM19 11.7384C18.5515 11.6859 18.1119 11.5559 17.7016 11.3508L17.0005 11.0002L16.9994 11.0002L16.357 11.2572C15.1649 11.734 13.8351 11.734 12.6431 11.2572L12 11L11.357 11.2572C10.1649 11.734 8.83511 11.734 7.64305 11.2572L7.00058 11.0002L6.99955 11.0002L6.29844 11.3508C5.88814 11.5559 5.44854 11.6859 5 11.7384V19C5 19.5523 5.44772 20 6 20H8V17C8 15.3431 9.34315 14 11 14H13C14.6569 14 16 15.3431 16 17V20H18C18.5523 20 19 19.5523 19 19V11.7384ZM17.8944 9.21115C17.8793 9.2036 17.8642 9.19626 17.849 9.18912L16.737 4H17.4478C17.8602 4 18.2303 4.25318 18.3798 4.63755L20.1678 9.23512C20.2451 9.4341 20.1304 9.65585 19.9233 9.70763C19.4776 9.81904 19.0069 9.76736 18.596 9.56193L17.8944 9.21115ZM15.8303 9.31382L14.6916 4H13V9.24593L13.3858 9.40027C14.1011 9.68636 14.8989 9.68636 15.6142 9.40027L15.8303 9.31382ZM11 4H9.30844L8.16976 9.31384L8.38583 9.40027C9.10107 9.68636 9.89894 9.68636 10.6142 9.40027L11 9.24594V4ZM6.15109 9.1891L7.26304 4H6.55221C6.13979 4 5.76968 4.25318 5.6202 4.63755L3.83226 9.23512C3.75488 9.4341 3.8696 9.65585 4.07673 9.70763C4.52237 9.81904 4.99315 9.76736 5.40401 9.56193L6.10558 9.21115C6.12068 9.2036 6.13585 9.19625 6.15109 9.1891ZM14 17V20H10V17C10 16.4477 10.4477 16 11 16H13C13.5523 16 14 16.4477 14 17Z" fill="#6F767E"/>
</svg>
