<svg width="24" height="24" viewBox="0 0 24 24" fill="none" xmlns="http://www.w3.org/2000/svg">
<path fill-rule="evenodd" clip-rule="evenodd" d="M8.51806 2H15.4819C15.4946 1.99976 15.5073 1.99976 15.52 2H17.4478C18.685 2 19.7954 2.75955 20.2438 3.91266L22.0318 8.51023C22.4662 9.62723 21.9889 10.8522 21 11.4121V19C21 20.6569 19.6569 22 18 22H6C4.34315 22 3 20.6569 3 19V11.4121C2.01111 10.8522 1.53386 9.62723 1.96825 8.51023L3.75619 3.91266C4.20463 2.75954 5.31497 2 6.55221 2H8.4799C8.49258 1.99976 8.5053 1.99976 8.51806 2ZM17.8489 9.18909C17.8641 9.19624 17.8793 9.20359 17.8944 9.21115L18.596 9.56193C19.0069 9.76736 19.4776 9.81904 19.9233 9.70763C20.1304 9.65585 20.2451 9.4341 20.1678 9.23512L18.3798 4.63755C18.2303 4.25318 17.8602 4 17.4478 4H16.7369L17.8489 9.18909ZM14.6915 4L15.8302 9.31385L15.6142 9.40027C14.8989 9.68636 14.1011 9.68636 13.3858 9.40027L13 9.24593V4H14.6915ZM9.30838 4H11V9.24594L10.6142 9.40027C9.89894 9.68636 9.10107 9.68636 8.38583 9.40027L8.16971 9.31382L9.30838 4ZM7.26298 4L6.15102 9.18913C6.1358 9.19627 6.12065 9.20361 6.10558 9.21115L5.40401 9.56193C4.99315 9.76736 4.52237 9.81904 4.07673 9.70763C3.8696 9.65585 3.75488 9.4341 3.83226 9.23512L5.6202 4.63755C5.76968 4.25318 6.13979 4 6.55221 4H7.26298ZM11 14C9.89543 14 9 14.8954 9 16V19.5C9 19.7761 9.22386 20 9.5 20H14.5C14.7761 20 15 19.7761 15 19.5V16C15 14.8954 14.1046 14 13 14H11Z" fill="#6F767E"/>
</svg>
