<svg width="24" height="24" viewBox="0 0 24 24" fill="none" xmlns="http://www.w3.org/2000/svg">
<path fill-rule="evenodd" clip-rule="evenodd" d="M12 18C15.3137 18 18 15.3137 18 12C18 8.68629 15.3137 6 12 6C8.68629 6 6 8.68629 6 12C6 15.3137 8.68629 18 12 18Z" fill="#6F767E"/>
<path fill-rule="evenodd" clip-rule="evenodd" d="M11.9951 1.5C12.5474 1.5 12.9951 1.94772 12.9951 2.5V3.5C12.9951 4.05228 12.5474 4.5 11.9951 4.5C11.4428 4.5 10.9951 4.05228 10.9951 3.5V2.5C10.9951 1.94772 11.4428 1.5 11.9951 1.5Z" fill="#6F767E"/>
<path fill-rule="evenodd" clip-rule="evenodd" d="M11.9951 19.5C12.5474 19.5 12.9951 19.9477 12.9951 20.5V21.4968C12.9951 22.0491 12.5474 22.4968 11.9951 22.4968C11.4428 22.4968 10.9951 22.0491 10.9951 21.4968V20.5C10.9951 19.9477 11.4428 19.5 11.9951 19.5Z" fill="#6F767E"/>
<path fill-rule="evenodd" clip-rule="evenodd" d="M1.4967 11.9984C1.4967 11.4461 1.94442 10.9984 2.4967 10.9984H3.4967C4.04899 10.9984 4.4967 11.4461 4.4967 11.9984C4.4967 12.5507 4.04899 12.9984 3.4967 12.9984H2.4967C1.94442 12.9984 1.4967 12.5507 1.4967 11.9984Z" fill="#6F767E"/>
<path fill-rule="evenodd" clip-rule="evenodd" d="M19.4967 11.9984C19.4967 11.4461 19.9444 10.9984 20.4967 10.9984H21.4935C22.0458 10.9984 22.4935 11.4461 22.4935 11.9984C22.4935 12.5507 22.0458 12.9984 21.4935 12.9984H20.4967C19.9444 12.9984 19.4967 12.5507 19.4967 11.9984Z" fill="#6F767E"/>
<path fill-rule="evenodd" clip-rule="evenodd" d="M4.57171 19.4219C4.18118 19.0313 4.18118 18.3982 4.57171 18.0077L5.27881 17.3005C5.66934 16.91 6.3025 16.91 6.69303 17.3005C7.08355 17.6911 7.08355 18.3242 6.69303 18.7148L5.98592 19.4219C5.5954 19.8124 4.96223 19.8124 4.57171 19.4219Z" fill="#6F767E"/>
<path fill-rule="evenodd" clip-rule="evenodd" d="M17.2996 6.69394C16.9091 6.30342 16.9091 5.67025 17.2996 5.27973L18.0045 4.5749C18.395 4.18438 19.0281 4.18438 19.4187 4.5749C19.8092 4.96543 19.8092 5.59859 19.4187 5.98911L18.7138 6.69394C18.3233 7.08447 17.6902 7.08447 17.2996 6.69394Z" fill="#6F767E"/>
<path fill-rule="evenodd" clip-rule="evenodd" d="M4.57171 4.5749C4.96223 4.18438 5.5954 4.18438 5.98592 4.5749L6.69303 5.28201C7.08355 5.67253 7.08355 6.3057 6.69303 6.69622C6.3025 7.08675 5.66934 7.08675 5.27881 6.69622L4.57171 5.98911C4.18118 5.59859 4.18118 4.96543 4.57171 4.5749Z" fill="#6F767E"/>
<path fill-rule="evenodd" clip-rule="evenodd" d="M17.2996 17.3028C17.6902 16.9123 18.3233 16.9123 18.7138 17.3028L19.4187 18.0077C19.8092 18.3982 19.8092 19.0313 19.4187 19.4219C19.0281 19.8124 18.395 19.8124 18.0045 19.4219L17.2996 18.717C16.9091 18.3265 16.9091 17.6933 17.2996 17.3028Z" fill="#6F767E"/>
</svg>
