<svg width="24" height="24" viewBox="0 0 24 24" fill="none" xmlns="http://www.w3.org/2000/svg">
<g clip-path="url(#clip0_14_3520)">
<path fill-rule="evenodd" clip-rule="evenodd" d="M10.6479 17.7663C11.1938 17.2203 12.0053 17.0374 12.7327 17.2963C14.4994 17.9251 16.5415 17.5296 17.9497 16.1213C19.9023 14.1687 19.9023 11.0029 17.9497 9.05024C15.9971 7.09762 12.8313 7.09762 10.8787 9.05024C9.4704 10.4585 9.07491 12.5005 9.70368 14.2673C9.96255 14.9947 9.77961 15.8061 9.23366 16.3521L8.05022 17.5355C7.6597 17.926 7.6597 18.5592 8.05022 18.9497C8.44075 19.3403 9.07391 19.3403 9.46444 18.9497L10.6479 17.7663ZM12.0621 19.1805L10.8787 20.3639C9.70708 21.5355 7.80758 21.5355 6.63601 20.3639C5.46444 19.1924 5.46444 17.2929 6.63601 16.1213L7.81945 14.9379C6.94158 12.4712 7.48991 9.61055 9.46444 7.63603C12.1981 4.90236 16.6303 4.90236 19.3639 7.63603C22.0976 10.3697 22.0976 14.8019 19.3639 17.5355C17.3894 19.51 14.5288 20.0584 12.0621 19.1805Z" fill="#6F767E"/>
<path fill-rule="evenodd" clip-rule="evenodd" d="M5 6C5.55228 6 6 5.55228 6 5C6 4.44772 5.55228 4 5 4C4.44772 4 4 4.44772 4 5C4 5.55228 4.44772 6 5 6ZM5 8C6.65685 8 8 6.65685 8 5C8 3.34315 6.65685 2 5 2C3.34315 2 2 3.34315 2 5C2 6.65685 3.34315 8 5 8Z" fill="#6F767E"/>
</g>
<defs>
<clipPath id="clip0_14_3520">
<rect width="24" height="24" fill="white"/>
</clipPath>
</defs>
</svg>
