<svg width="24" height="24" viewBox="0 0 24 24" fill="none" xmlns="http://www.w3.org/2000/svg">
<path fill-rule="evenodd" clip-rule="evenodd" d="M20.6811 13.2434C21.3004 12.6241 21.6181 11.7652 21.5509 10.892L21.1469 5.63919C21.0334 4.16385 19.8611 2.99161 18.3858 2.87812L13.133 2.47406C12.2598 2.40689 11.4009 2.72463 10.7816 3.3439L3.27199 10.8535C2.10042 12.0251 2.10042 13.9246 3.27199 15.0962L8.92884 20.753C10.1004 21.9246 11.9999 21.9246 13.1715 20.753L20.6811 13.2434ZM14.5858 7.318C14 7.90379 14 8.85353 14.5858 9.43932C15.1716 10.0251 16.1214 10.0251 16.7072 9.43932C17.2929 8.85353 17.2929 7.90379 16.7072 7.318C16.1214 6.73221 15.1716 6.73221 14.5858 7.318ZM10.3433 16.5104L7.51484 13.682C7.12432 13.2914 7.12432 12.6583 7.51484 12.2677C7.90537 11.8772 8.53853 11.8772 8.92906 12.2677L11.7575 15.0962C12.148 15.4867 12.148 16.1199 11.7575 16.5104C11.367 16.9009 10.7338 16.9009 10.3433 16.5104Z" fill="#6F767E"/>
</svg>
