<svg width="24" height="24" viewBox="0 0 24 24" fill="none" xmlns="http://www.w3.org/2000/svg">
<path fill-rule="evenodd" clip-rule="evenodd" d="M4.68633 12.2677L12.1959 4.75813C12.4024 4.55171 12.6887 4.44579 12.9797 4.46818L18.2325 4.87224C18.7243 4.91007 19.1151 5.30082 19.1529 5.7926L19.557 11.0454C19.5793 11.3365 19.4734 11.6228 19.267 11.8292L11.7574 19.3388C11.3669 19.7293 10.7337 19.7293 10.3432 19.3388L4.68633 13.682C4.2958 13.2914 4.2958 12.6583 4.68633 12.2677ZM21.5511 10.892C21.6182 11.7652 21.3005 12.6241 20.6812 13.2434L13.1716 20.753C12 21.9246 10.1005 21.9246 8.92896 20.753L3.27211 15.0962C2.10054 13.9246 2.10054 12.0251 3.27211 10.8535L10.7817 3.34392C11.401 2.72465 12.2599 2.4069 13.1331 2.47407L18.3859 2.87813C19.8613 2.99162 21.0335 4.16387 21.147 5.63921L21.5511 10.892Z" fill="#6F767E"/>
<path d="M14.5858 7.318C14 7.90379 14 8.85354 14.5858 9.43932C15.1716 10.0251 16.1214 10.0251 16.7071 9.43932C17.2929 8.85354 17.2929 7.90379 16.7071 7.318C16.1214 6.73222 15.1716 6.73222 14.5858 7.318Z" fill="#6F767E"/>
<path fill-rule="evenodd" clip-rule="evenodd" d="M7.51469 13.682L10.3431 16.5104C10.7336 16.9009 11.3668 16.9009 11.7573 16.5104C12.1479 16.1199 12.1479 15.4867 11.7573 15.0962L8.92891 12.2677C8.53838 11.8772 7.90522 11.8772 7.5147 12.2677C7.12417 12.6583 7.12417 13.2914 7.51469 13.682Z" fill="#6F767E"/>
</svg>
