<svg width="24" height="24" viewBox="0 0 24 24" fill="none" xmlns="http://www.w3.org/2000/svg">
<path fill-rule="evenodd" clip-rule="evenodd" d="M19.7822 2.4794C19.6655 1.66374 18.6677 1.33138 18.0851 1.91409L16.7834 3.21612C15.3625 2.4407 13.7327 2 12 2C6.47715 2 2 6.47715 2 12C2 17.5228 6.47715 22 12 22C17.5228 22 22 17.5228 22 12C22 10.2671 21.5592 8.63719 20.7837 7.21621L22.0857 5.91419C22.6684 5.3315 22.3358 4.33366 21.52 4.21714L19.9999 4.00001L19.7822 2.4794ZM17.2374 8.17679L19.0049 8.4293C19.0586 8.43697 19.1124 8.44021 19.1658 8.43917C19.6997 9.51155 20 10.7207 20 12C20 16.4183 16.4183 20 12 20C7.58172 20 4 16.4183 4 12C4 7.58172 7.58172 4 12 4C13.2793 4 14.4884 4.30026 15.5607 4.83415C15.5597 4.88749 15.5629 4.94124 15.5706 4.9949L15.8231 6.76264L15.4765 7.10925C14.4957 6.41079 13.2958 6 12 6C8.68629 6 6 8.68629 6 12C6 15.3137 8.68629 18 12 18C15.3137 18 18 15.3137 18 12C18 10.7042 17.5892 9.50428 16.8907 8.52347L17.2374 8.17679ZM12 8C12.7418 8 13.4365 8.20193 14.032 8.55382L12.518 10.0677C12.3528 10.0236 12.1792 10 12 10C10.8954 10 10 10.8954 10 12C10 13.1046 10.8954 14 12 14C13.1046 14 14 13.1046 14 12C14 11.8208 13.9764 11.6472 13.9323 11.482L15.4462 9.96803C15.7981 10.5635 16 11.2582 16 12C16 14.2091 14.2091 16 12 16C9.79086 16 8 14.2091 8 12C8 9.79086 9.79086 8 12 8Z" fill="#6F767E"/>
</svg>
