<svg width="24" height="24" viewBox="0 0 24 24" fill="none" xmlns="http://www.w3.org/2000/svg">
<path fill-rule="evenodd" clip-rule="evenodd" d="M12 16C14.2091 16 16 14.2091 16 12C16 9.79086 14.2091 8 12 8C9.79086 8 8 9.79086 8 12C8 14.2091 9.79086 16 12 16ZM12 18C15.3137 18 18 15.3137 18 12C18 8.68629 15.3137 6 12 6C8.68629 6 6 8.68629 6 12C6 15.3137 8.68629 18 12 18Z" fill="#6F767E"/>
<path fill-rule="evenodd" clip-rule="evenodd" d="M12 14C13.1046 14 14 13.1046 14 12C14 10.8954 13.1046 10 12 10C10.8954 10 10 10.8954 10 12C10 13.1046 10.8954 14 12 14Z" fill="#6F767E"/>
<path d="M16.7835 3.21617C15.3626 2.44071 13.7328 2 12 2C6.47715 2 2 6.47715 2 12C2 17.5228 6.47715 22 12 22C17.5228 22 22 17.5228 22 12C22 10.2672 21.5592 8.63725 20.7837 7.21629L19.8536 8.14645C19.6693 8.33069 19.4222 8.43422 19.1658 8.43917C19.6997 9.51156 20 10.7207 20 12C20 16.4183 16.4183 20 12 20C7.58172 20 4 16.4183 4 12C4 7.58172 7.58172 4 12 4C13.2793 4 14.4885 4.30028 15.5609 4.83421C15.5658 4.57783 15.6693 4.33071 15.8535 4.14647L16.7835 3.21617Z" fill="#6F767E"/>
<path fill-rule="evenodd" clip-rule="evenodd" d="M18.0852 1.91409C18.6678 1.33138 19.6656 1.66374 19.7824 2.4794L20 4.00001L21.5201 4.21714C22.3359 4.33366 22.6685 5.3315 22.0858 5.91419L19.8536 8.14645C19.631 8.36902 19.3166 8.47381 19.0051 8.4293L17.2364 8.17662C17.2269 8.18694 17.2171 8.1971 17.2071 8.20711L12.7071 12.7071C12.3166 13.0976 11.6834 13.0976 11.2929 12.7071C10.9024 12.3166 10.9024 11.6834 11.2929 11.2929L15.7929 6.79289C15.8029 6.78288 15.8131 6.77312 15.8234 6.76362L15.5707 4.9949C15.5262 4.68335 15.631 4.36903 15.8535 4.14647L18.0852 1.91409ZM17.6213 5.20695L18.1268 4.70129C18.3292 5.24225 18.7576 5.67064 19.2985 5.8731L18.7929 6.37869L17.7678 6.23224L17.6213 5.20695Z" fill="#6F767E"/>
</svg>
