<svg width="24" height="24" viewBox="0 0 24 24" fill="none" xmlns="http://www.w3.org/2000/svg">
<path d="M2 12.5C2 13.6046 2.89543 14.5 4 14.5H5C5.55228 14.5 6 14.0523 6 13.5V4.5C6 3.94771 5.55228 3.5 5 3.5H4C2.89543 3.5 2 4.39543 2 5.5V12.5Z" fill="#6F767E"/>
<path d="M22.3113 11.9748C22.6582 13.2468 21.701 14.5005 20.3826 14.501L15.1401 14.5032C14.8149 14.5033 14.5764 14.8089 14.6553 15.1244L15.3707 17.9862C15.7384 19.457 15.0352 20.9858 13.6792 21.6638C12.8687 22.0691 11.9034 21.537 11.8132 20.6353L11.5954 18.4576C11.5334 17.8369 11.2794 17.2511 10.8689 16.7815L8.49429 14.0654C8.17562 13.7009 8 13.2332 8 12.749V5.49999C8 4.39542 8.89543 3.49999 10 3.49999H17.7086C19.0615 3.49999 20.2469 4.40546 20.6029 5.71064L22.3113 11.9748Z" fill="#6F767E"/>
</svg>
