<svg width="24" height="24" viewBox="0 0 24 24" fill="none" xmlns="http://www.w3.org/2000/svg">
<path fill-rule="evenodd" clip-rule="evenodd" d="M13.0272 9.67123C12.9306 10.251 13.0939 10.8439 13.4737 11.2924C13.8535 11.741 14.4114 11.9998 14.9991 12L19.1582 12.0018C19.8087 12.0021 20.2857 12.6134 20.1279 13.2444L18.628 19.2426C18.5166 19.6878 18.1167 20 17.6578 20H8V12.7016L10.9043 9.07115C11.6136 8.18459 12 7.08304 12 5.94768V4.79262C12.9985 5.26019 13.582 6.34279 13.3969 7.45334L13.0272 9.67123ZM6.8 11L9.34261 7.82176C9.76816 7.28983 10 6.62889 10 5.94768V4.49029C10 3.26518 11.2002 2.4001 12.3625 2.78751C14.4572 3.48576 15.7326 5.60415 15.3696 7.78214L15 10L19.1591 10.0018C21.1104 10.0026 22.5416 11.8366 22.0682 13.7296L20.5682 19.7278C20.2343 21.0632 19.0344 22 17.6578 22H8H5C3.34315 22 2 20.6569 2 19V14C2 12.3432 3.34315 11 5 11H6.8ZM6 13H5C4.44772 13 4 13.4477 4 14V19C4 19.5523 4.44772 20 5 20H6V13Z" fill="#6F767E"/>
</svg>
