<svg width="24" height="24" viewBox="0 0 24 24" fill="none" xmlns="http://www.w3.org/2000/svg">
<path d="M2 12C2 10.8954 2.89543 10 4 10H5C5.55228 10 6 10.4477 6 11V20C6 20.5523 5.55228 21 5 21H4C2.89543 21 2 20.1046 2 19V12Z" fill="#6F767E"/>
<path d="M22.3113 12.5252C22.6582 11.2532 21.701 9.99948 20.3826 9.99895L15.1401 9.99684C14.8149 9.99671 14.5764 9.69106 14.6553 9.37557L15.3707 6.51381C15.7384 5.04303 15.0352 3.51419 13.6792 2.8362C12.8687 2.43092 11.9034 2.96297 11.8132 3.8647L11.5954 6.04245C11.5334 6.66307 11.2794 7.24892 10.8689 7.71849L8.49429 10.4346C8.17562 10.7991 8 11.2668 8 11.751V19C8 20.1046 8.89543 21 10 21H17.7086C19.0615 21 20.2469 20.0945 20.6029 18.7894L22.3113 12.5252Z" fill="#6F767E"/>
</svg>
