<svg width="24" height="24" viewBox="0 0 24 24" fill="none" xmlns="http://www.w3.org/2000/svg">
<path fill-rule="evenodd" clip-rule="evenodd" d="M5 6C4.44772 6 4 6.44772 4 7V8.53552C5.19153 9.22431 6 10.5164 6 12C6 13.4836 5.19153 14.7757 4 15.4645V17C4 17.5523 4.44772 18 5 18H19C19.5523 18 20 17.5523 20 17V15.4645C18.8085 14.7757 18 13.4836 18 12C18 10.5164 18.8085 9.22431 20 8.53552V7C20 6.44772 19.5523 6 19 6H5ZM5 4C3.34315 4 2 5.34315 2 7V9C2 9.55228 2.47452 9.97928 2.95897 10.2445C3.57933 10.5841 4 11.2429 4 12C4 12.7571 3.57933 13.4159 2.95897 13.7555C2.47452 14.0207 2 14.4477 2 15V17C2 18.6569 3.34315 20 5 20H19C20.6569 20 22 18.6569 22 17V15C22 14.4477 21.5255 14.0207 21.041 13.7555C20.4207 13.4159 20 12.7571 20 12C20 11.2429 20.4207 10.5841 21.041 10.2445C21.5255 9.97928 22 9.55228 22 9V7C22 5.34315 20.6569 4 19 4H5Z" fill="#6F767E"/>
<path fill-rule="evenodd" clip-rule="evenodd" d="M12 11.1887C11.7744 11.4154 11.5137 11.6047 11.2284 11.7493C11.3743 12.0339 11.4738 12.3403 11.5231 12.6564C11.8389 12.6056 12.1611 12.6056 12.4769 12.6564C12.5262 12.3403 12.6257 12.0339 12.7716 11.7493C12.4863 11.6047 12.2257 11.4154 12 11.1887ZM12.9446 8.71739C12.6333 7.82183 11.3667 7.82183 11.0554 8.71739L10.8178 9.40107C10.6805 9.79614 10.3118 10.064 9.8936 10.0725L9.16994 10.0873C8.22202 10.1066 7.83064 11.3111 8.58617 11.8839L9.16296 12.3212C9.49625 12.5739 9.63708 13.0073 9.51596 13.4077L9.30637 14.1005C9.03181 15.008 10.0565 15.7524 10.8347 15.2109L11.4288 14.7975C11.7721 14.5586 12.2279 14.5586 12.5712 14.7975L13.1653 15.2109C13.9435 15.7524 14.9682 15.008 14.6936 14.1005L14.484 13.4077C14.3629 13.0073 14.5038 12.5739 14.8371 12.3212L15.4138 11.8839C16.1694 11.3111 15.778 10.1066 14.8301 10.0873L14.1064 10.0725C13.6882 10.064 13.3195 9.79614 13.1822 9.40107L12.9446 8.71739Z" fill="#6F767E"/>
</svg>
