<svg width="24" height="24" viewBox="0 0 24 24" fill="none" xmlns="http://www.w3.org/2000/svg">
<path fill-rule="evenodd" clip-rule="evenodd" d="M18 5H6C5.44772 5 5 5.44772 5 6V8C5 8.55228 5.44772 9 6 9H18C18.5523 9 19 8.55228 19 8V6C19 5.44772 18.5523 5 18 5ZM6 3C4.34315 3 3 4.34315 3 6V8C3 9.65685 4.34315 11 6 11H18C19.6569 11 21 9.65685 21 8V6C21 4.34315 19.6569 3 18 3H6Z" fill="#6F767E"/>
<path fill-rule="evenodd" clip-rule="evenodd" d="M18 15H6C5.44772 15 5 15.4477 5 16V18C5 18.5523 5.44772 19 6 19H18C18.5523 19 19 18.5523 19 18V16C19 15.4477 18.5523 15 18 15ZM6 13C4.34315 13 3 14.3431 3 16V18C3 19.6569 4.34315 21 6 21H18C19.6569 21 21 19.6569 21 18V16C21 14.3431 19.6569 13 18 13H6Z" fill="#6F767E"/>
</svg>
