<svg width="24" height="24" viewBox="0 0 24 24" fill="none" xmlns="http://www.w3.org/2000/svg">
<path fill-rule="evenodd" clip-rule="evenodd" d="M9 10.5C8.17157 10.5 7.5 11.1716 7.5 12C7.5 12.8284 8.17157 13.5 9 13.5C9.82843 13.5 10.5 12.8284 10.5 12C10.5 11.1716 9.82843 10.5 9 10.5ZM5.5 12C5.5 10.067 7.067 8.5 9 8.5C10.933 8.5 12.5 10.067 12.5 12C12.5 13.933 10.933 15.5 9 15.5C7.067 15.5 5.5 13.933 5.5 12Z" fill="#6F767E"/>
<path fill-rule="evenodd" clip-rule="evenodd" d="M2 12C2 8.13401 5.13401 5 9 5H15C18.866 5 22 8.13401 22 12C22 15.866 18.866 19 15 19H9C5.13401 19 2 15.866 2 12ZM9 7C6.23858 7 4 9.23858 4 12C4 14.7614 6.23858 17 9 17H15C17.7614 17 20 14.7614 20 12C20 9.23858 17.7614 7 15 7H9Z" fill="#6F767E"/>
</svg>
