<svg width="24" height="24" viewBox="0 0 24 24" fill="none" xmlns="http://www.w3.org/2000/svg">
<path fill-rule="evenodd" clip-rule="evenodd" d="M2 12C2 8.13401 5.13401 5 9 5H15C18.866 5 22 8.13401 22 12C22 15.866 18.866 19 15 19H9C5.13401 19 2 15.866 2 12ZM9 7C6.23858 7 4 9.23858 4 12C4 14.7614 6.23858 17 9 17H15C17.7614 17 20 14.7614 20 12C20 9.23858 17.7614 7 15 7H9Z" fill="#6F767E"/>
<path fill-rule="evenodd" clip-rule="evenodd" d="M15 10.5C14.1716 10.5 13.5 11.1716 13.5 12C13.5 12.8284 14.1716 13.5 15 13.5C15.8284 13.5 16.5 12.8284 16.5 12C16.5 11.1716 15.8284 10.5 15 10.5ZM11.5 12C11.5 10.067 13.067 8.5 15 8.5C16.933 8.5 18.5 10.067 18.5 12C18.5 13.933 16.933 15.5 15 15.5C13.067 15.5 11.5 13.933 11.5 12Z" fill="#6F767E"/>
</svg>
