<svg width="24" height="24" viewBox="0 0 24 24" fill="none" xmlns="http://www.w3.org/2000/svg">
<path fill-rule="evenodd" clip-rule="evenodd" d="M12.5969 12.8588C13.1017 12.354 13.8374 12.1565 14.5271 12.3407C15.8674 12.6986 17.3481 12.3502 18.3933 11.3051C19.1097 10.5886 19.4986 9.66647 19.5573 8.72677L19.1004 9.18372C17.9288 10.3553 16.0293 10.3553 14.8577 9.18372C13.6862 8.01214 13.6862 6.11265 14.8577 4.94108L15.3147 4.48413C14.375 4.54286 13.4529 4.9317 12.7364 5.6482C11.6913 6.69333 11.3428 8.17404 11.7007 9.51434C11.8849 10.2041 11.6875 10.9397 11.1827 11.4446L5.66533 16.9619C5.27481 17.3524 5.27481 17.9856 5.66533 18.3761C6.05585 18.7666 6.68902 18.7666 7.07954 18.3761L12.5969 12.8588ZM14.0111 14.273C16.0128 14.8076 18.2371 14.2896 19.8075 12.7193C21.6179 10.9089 22.0295 8.22937 21.0423 6.02377C20.7897 5.45935 20.0575 5.39811 19.6203 5.83537L17.6862 7.7695C17.2956 8.16003 16.6625 8.16003 16.2719 7.7695C15.8814 7.37898 15.8814 6.74581 16.2719 6.35529L18.2061 4.42116C18.6433 3.9839 18.5821 3.25175 18.0177 2.99913C15.8121 2.01196 13.1326 2.42358 11.3222 4.23398C9.75181 5.80436 9.2339 8.02865 9.76845 10.0304L4.25112 15.5477C3.07954 16.7193 3.07954 18.6188 4.25112 19.7903C5.42269 20.9619 7.32218 20.9619 8.49376 19.7903L14.0111 14.273Z" fill="#6F767E"/>
</svg>
