<svg width="24" height="24" viewBox="0 0 24 24" fill="none" xmlns="http://www.w3.org/2000/svg">
<path d="M16.1505 3.13114C16.8256 3.27438 16.9746 4.09645 16.4866 4.58446L14.8995 6.17158C14.1184 6.95262 14.1184 8.21895 14.8995 9C15.6805 9.78105 16.9469 9.78105 17.7279 9L19.315 7.41289C19.803 6.92488 20.6251 7.07392 20.7684 7.74903C21.1758 9.66945 20.6337 11.751 19.1421 13.2426C17.2949 15.0899 14.5427 15.4808 12.3125 14.4154L6.41421 20.3137C5.63317 21.0948 4.36684 21.0948 3.58579 20.3137C2.80474 19.5327 2.80474 18.2663 3.58579 17.4853L9.48405 11.587C8.41864 9.35676 8.80958 6.60463 10.6568 4.75736C12.1485 3.26575 14.23 2.72367 16.1505 3.13114Z" fill="#6F767E"/>
</svg>
