<svg width="24" height="24" viewBox="0 0 24 24" fill="none" xmlns="http://www.w3.org/2000/svg">
<path d="M8 14C8 14.5523 7.55228 15 7 15C6.44772 15 6 14.5523 6 14C6 13.4477 6.44772 13 7 13C7.55228 13 8 13.4477 8 14Z" fill="#6F767E"/>
<path d="M18 14C18 14.5523 17.5523 15 17 15C16.4477 15 16 14.5523 16 14C16 13.4477 16.4477 13 17 13C17.5523 13 18 13.4477 18 14Z" fill="#6F767E"/>
<path fill-rule="evenodd" clip-rule="evenodd" d="M8.23609 21C7.85731 21 7.51104 21.214 7.34165 21.5528L6.89447 22.4472C6.64749 22.9412 6.04682 23.1414 5.55284 22.8944C5.05885 22.6475 4.85862 22.0468 5.1056 21.5528L5.55278 20.6584C6.06095 19.642 7.09975 19 8.23609 19H15.764C16.9003 19 17.939 19.642 18.4472 20.6583L18.8945 21.5528C19.1415 22.0468 18.9412 22.6474 18.4473 22.8944C17.9533 23.1414 17.3526 22.9412 17.1056 22.4472L16.6584 21.5528C16.489 21.214 16.1427 21 15.764 21H8.23609Z" fill="#6F767E"/>
<path fill-rule="evenodd" clip-rule="evenodd" d="M15 2C15 1.44772 14.5523 1 14 1H10C9.44772 1 9 1.44772 9 2H6C4.34315 2 3 3.34315 3 5V15C3 16.6569 4.34315 18 6 18H18C19.6569 18 21 16.6569 21 15V5C21 3.34315 19.6569 2 18 2H15ZM18 4H6C5.44772 4 5 4.44772 5 5V9H19V5C19 4.44772 18.5523 4 18 4ZM19 11H5V15C5 15.5523 5.44772 16 6 16H18C18.5523 16 19 15.5523 19 15V11Z" fill="#6F767E"/>
</svg>
