<svg width="24" height="24" viewBox="0 0 24 24" fill="none" xmlns="http://www.w3.org/2000/svg">
<path fill-rule="evenodd" clip-rule="evenodd" d="M15 2C15 1.44772 14.5523 1 14 1H10C9.44772 1 9 1.44772 9 2H6C4.34315 2 3 3.34315 3 5V15C3 16.6569 4.34315 18 6 18H18C19.6569 18 21 16.6569 21 15V5C21 3.34315 19.6569 2 18 2H15ZM6 4H18C18.5523 4 19 4.44772 19 5V9C19 9.55228 18.5523 10 18 10H6C5.44772 10 5 9.55228 5 9V5C5 4.44772 5.44772 4 6 4ZM7 15C7 15.5523 6.55228 16 6 16C5.44772 16 5 15.5523 5 15C5 14.4477 5.44772 14 6 14C6.55228 14 7 14.4477 7 15ZM18 16C18.5523 16 19 15.5523 19 15C19 14.4477 18.5523 14 18 14C17.4477 14 17 14.4477 17 15C17 15.5523 17.4477 16 18 16Z" fill="#6F767E"/>
<path fill-rule="evenodd" clip-rule="evenodd" d="M8.07035 21.5C7.73599 21.5 7.42375 21.6671 7.23829 21.9453L6.83206 22.5547C6.52572 23.0142 5.90485 23.1384 5.44531 22.8321C4.98578 22.5257 4.86159 21.9049 5.16794 21.4453L5.57417 20.8359C6.13056 20.0013 7.06727 19.5 8.07035 19.5H15.9296C16.9327 19.5 17.8694 20.0013 18.4258 20.8359L18.832 21.4453C19.1384 21.9048 19.0142 22.5257 18.5547 22.832C18.0952 23.1384 17.4743 23.0142 17.168 22.5547L16.7617 21.9453C16.5762 21.6671 16.264 21.5 15.9296 21.5H8.07035Z" fill="#6F767E"/>
</svg>
