<svg width="24" height="24" viewBox="0 0 24 24" fill="none" xmlns="http://www.w3.org/2000/svg">
<path fill-rule="evenodd" clip-rule="evenodd" d="M5 18H19C20.6569 18 22 16.6569 22 15V12.7082C22 12.2425 21.8916 11.7831 21.6833 11.3666L19.8292 7.65836C19.321 6.64201 18.2822 6 17.1459 6H15.8293C15.4175 4.83481 14.3062 4 13 4H5C3.34315 4 2 5.34315 2 7V15C2 16.6569 3.34315 18 5 18ZM13 6H5C4.44772 6 4 6.44772 4 7V15C4 15.5523 4.44772 16 5 16H14V7C14 6.44772 13.5523 6 13 6ZM16 12V16H19C19.5523 16 20 15.5523 20 15V12.7082C20 12.553 19.9639 12.3998 19.8944 12.261L19.7639 12H16ZM18.7639 10H16V8H17.1459C17.5247 8 17.8709 8.214 18.0403 8.55279L18.7639 10Z" fill="#6F767E"/>
<path fill-rule="evenodd" clip-rule="evenodd" d="M7 20C8.10457 20 9 19.1046 9 18C9 16.8954 8.10457 16 7 16C5.89543 16 5 16.8954 5 18C5 19.1046 5.89543 20 7 20Z" fill="#6F767E"/>
<path fill-rule="evenodd" clip-rule="evenodd" d="M18 20C19.1046 20 20 19.1046 20 18C20 16.8954 19.1046 16 18 16C16.8954 16 16 16.8954 16 18C16 19.1046 16.8954 20 18 20Z" fill="#6F767E"/>
</svg>
