<svg width="24" height="24" viewBox="0 0 24 24" fill="none" xmlns="http://www.w3.org/2000/svg">
<path fill-rule="evenodd" clip-rule="evenodd" d="M4 4C2.34315 4 1 5.34315 1 7V16C1 17.3538 1.89669 18.4981 3.12854 18.8715C3.5019 20.1033 4.64623 21 6 21C7.30622 21 8.41746 20.1652 8.82929 19H15.1707C15.5825 20.1652 16.6938 21 18 21C19.3146 21 20.4318 20.1544 20.8372 18.9775C22.0584 18.8128 23 17.7664 23 16.5V11.6667C23 11.2339 22.8596 10.8129 22.6 10.4667L20.6 7.8C20.2223 7.29639 19.6295 7 19 7H17C17 5.34315 15.6569 4 14 4H4ZM17.5 9C17.2239 9 17 9.22386 17 9.5V12.5C17 12.7761 17.2239 13 17.5 13H20.5C20.7761 13 21 12.7761 21 12.5V11.8333C21 11.7251 20.9649 11.6199 20.9 11.5333L19.15 9.2C19.0556 9.0741 18.9074 9 18.75 9H17.5ZM7 18C7 18.5523 6.55228 19 6 19C5.44772 19 5 18.5523 5 18C5 17.4477 5.44772 17 6 17C6.55228 17 7 17.4477 7 18ZM18 19C18.5523 19 19 18.5523 19 18C19 17.4477 18.5523 17 18 17C17.4477 17 17 17.4477 17 18C17 18.5523 17.4477 19 18 19Z" fill="#6F767E"/>
</svg>
