<svg width="24" height="24" viewBox="0 0 24 24" fill="none" xmlns="http://www.w3.org/2000/svg">
<path fill-rule="evenodd" clip-rule="evenodd" d="M6.12602 18H4C3.44772 18 3 17.5523 3 17C3 16.4477 3.44772 16 4 16H6.12602C6.57006 14.2748 8.13616 13 10 13C11.8638 13 13.4299 14.2748 13.874 16H20C20.5523 16 21 16.4477 21 17C21 17.5523 20.5523 18 20 18H13.874C13.4299 19.7252 11.8638 21 10 21C8.13616 21 6.57006 19.7252 6.12602 18ZM8 17C8 15.8954 8.89543 15 10 15C11.1046 15 12 15.8954 12 17C12 18.1046 11.1046 19 10 19C8.89543 19 8 18.1046 8 17Z" fill="#6F767E"/>
<path fill-rule="evenodd" clip-rule="evenodd" d="M10.126 8H4C3.44772 8 3 7.55228 3 7C3 6.44772 3.44772 6 4 6H10.126C10.5701 4.27477 12.1362 3 14 3C15.8638 3 17.4299 4.27477 17.874 6H20C20.5523 6 21 6.44772 21 7C21 7.55228 20.5523 8 20 8H17.874C17.4299 9.72523 15.8638 11 14 11C12.1362 11 10.5701 9.72523 10.126 8ZM12 7C12 5.89543 12.8954 5 14 5C15.1046 5 16 5.89543 16 7C16 8.10457 15.1046 9 14 9C12.8954 9 12 8.10457 12 7Z" fill="#6F767E"/>
</svg>
