<svg width="24" height="24" viewBox="0 0 24 24" fill="none" xmlns="http://www.w3.org/2000/svg">
<path fill-rule="evenodd" clip-rule="evenodd" d="M3 7C3 6.44772 3.44772 6 4 6L20 6C20.5523 6 21 6.44772 21 7C21 7.55228 20.5523 8 20 8L4 8C3.44772 8 3 7.55228 3 7Z" fill="#6F767E"/>
<path fill-rule="evenodd" clip-rule="evenodd" d="M3 17C3 16.4477 3.44772 16 4 16L20 16C20.5523 16 21 16.4477 21 17C21 17.5523 20.5523 18 20 18L4 18C3.44772 18 3 17.5523 3 17Z" fill="#6F767E"/>
<path fill-rule="evenodd" clip-rule="evenodd" d="M10 20C11.6569 20 13 18.6569 13 17C13 15.3431 11.6569 14 10 14C8.34315 14 7 15.3431 7 17C7 18.6569 8.34315 20 10 20Z" fill="#6F767E"/>
<path fill-rule="evenodd" clip-rule="evenodd" d="M14 10C15.6569 10 17 8.65685 17 7C17 5.34315 15.6569 4 14 4C12.3431 4 11 5.34315 11 7C11 8.65685 12.3431 10 14 10Z" fill="#6F767E"/>
</svg>
