<svg width="24" height="24" viewBox="0 0 24 24" fill="none" xmlns="http://www.w3.org/2000/svg">
<path d="M9.00001 21.1C6.60001 21.1 4.10001 20.5 2.10001 19.4C1.70001 19.2 1.50001 18.8 1.60001 18.3C1.70001 17.9 2.00001 17.5 2.50001 17.5C4.20001 17.3 5.50001 17 6.70001 16.4C3.80001 14.2 2.30001 10.2 2.50001 5C2.50001 4.6 2.80001 4.2 3.10001 4.1C3.50001 3.9 3.90001 4 4.20001 4.3C6.20001 6.3 8.60001 8.4 10.9 8.2C10.9 7.2 11 5.6 11.9 4.5C12.7 3.5 13.9 3 15.4 3C17.1 3 18.2 4.1 18.8 4.8L21.1 4C21.5 3.9 22 4 22.2 4.3C22.5 4.6 22.5 5.1 22.2 5.5L20.4 8.2C20.6 9.4 20.8 13 18.1 16.6C15.9 19.8 12.4 21.1 9.00001 21.1ZM6.10001 18.7C9.90001 19.6 14.1 18.9 16.7 15.4C19.4 11.9 18.6 8.4 18.5 8.2C18.4 7.9 18.5 7.6 18.6 7.4L19 6.8L18.8 6.9C18.3 7.1 17.8 6.8 17.6 6.4C17.6 6.4 16.8 5 15.5 5C14.6 5 13.9 5.2 13.5 5.8C12.8 6.7 12.9 8.3 13 8.9C13.1 9.4 12.8 9.9 12.3 10C9.40001 11 6.50001 9.1 4.50001 7.4C4.80001 10.6 5.80001 14 9.00001 15.6C9.30001 15.8 9.50001 16.1 9.50001 16.4C9.50001 16.8 9.30001 17.1 9.00001 17.3C8.10001 17.9 7.10001 18.4 6.10001 18.7Z" fill="#6F767E"/>
</svg>
