<svg width="24" height="24" viewBox="0 0 24 24" fill="none" xmlns="http://www.w3.org/2000/svg">
<path fill-rule="evenodd" clip-rule="evenodd" d="M3 5C3 3.34315 4.34315 2 6 2H18C19.6569 2 21 3.34315 21 5V12.8488C21 13.5899 20.7257 14.3048 20.2299 14.8557L17.3938 18.0069C16.8249 18.639 16.0144 19 15.1639 19H12.3837C12.1367 19 11.8984 19.0914 11.7148 19.2567L8.66897 21.9979C8.02544 22.5771 7 22.1204 7 21.2546V19.5C7 19.2239 6.77614 19 6.5 19H6C4.34315 19 3 17.6569 3 16V5ZM10 7C10.5523 7 11 7.44772 11 8V12C11 12.5523 10.5523 13 10 13C9.44772 13 9 12.5523 9 12V8C9 7.44772 9.44772 7 10 7ZM16 8C16 7.44772 15.5523 7 15 7C14.4477 7 14 7.44772 14 8V12C14 12.5523 14.4477 13 15 13C15.5523 13 16 12.5523 16 12V8Z" fill="#6F767E"/>
</svg>
