<svg width="24" height="24" viewBox="0 0 24 24" fill="none" xmlns="http://www.w3.org/2000/svg">
<path fill-rule="evenodd" clip-rule="evenodd" d="M7 17C8.10457 17 9 17.8954 9 19V19.0093L10.3768 17.7701C10.9277 17.2743 11.6426 17 12.3837 17H15.1639C15.4474 17 15.7176 16.8797 15.9072 16.669L18.7433 13.5178C18.9086 13.3341 19 13.0958 19 12.8488V5C19 4.44772 18.5523 4 18 4H6C5.44772 4 5 4.44772 5 5V16C5 16.5523 5.44772 17 6 17H7ZM6 2C4.34315 2 3 3.34315 3 5V16C3 17.6569 4.34315 19 6 19H7V21.2546C7 22.1204 8.02544 22.5771 8.66897 21.9979L11.7148 19.2567C11.8984 19.0914 12.1367 19 12.3837 19H15.1639C16.0144 19 16.8249 18.639 17.3938 18.0069L20.2299 14.8557C20.7257 14.3048 21 13.5899 21 12.8488V5C21 3.34315 19.6569 2 18 2H6Z" fill="#6F767E"/>
<path fill-rule="evenodd" clip-rule="evenodd" d="M10 7C10.5523 7 11 7.44772 11 8V12C11 12.5523 10.5523 13 10 13C9.44772 13 9 12.5523 9 12V8C9 7.44772 9.44772 7 10 7Z" fill="#6F767E"/>
<path fill-rule="evenodd" clip-rule="evenodd" d="M15 7C15.5523 7 16 7.44772 16 8V12C16 12.5523 15.5523 13 15 13C14.4477 13 14 12.5523 14 12V8C14 7.44772 14.4477 7 15 7Z" fill="#6F767E"/>
</svg>
