<svg width="24" height="24" viewBox="0 0 24 24" fill="none" xmlns="http://www.w3.org/2000/svg">
<path d="M12 1C12.5523 1 13 1.44772 13 2V3.04939C17.7248 3.51855 21.4822 7.27636 21.9507 12.0014C22.0051 12.551 21.5522 13 20.9999 13H13V19C13 20.6569 11.6569 22 10 22C8.34315 22 7 20.6569 7 19V18C7 17.4477 7.44772 17 8 17C8.55228 17 9 17.4477 9 18V19C9 19.5523 9.44772 20 10 20C10.5523 20 11 19.5523 11 19V13H2.99989C2.44761 13 1.99464 12.551 2.04913 12.0014C2.5176 7.27629 6.27507 3.51843 11 3.04936V2C11 1.44772 11.4477 1 12 1Z" fill="#6F767E"/>
</svg>
