<svg width="24" height="24" viewBox="0 0 24 24" fill="none" xmlns="http://www.w3.org/2000/svg">
<path fill-rule="evenodd" clip-rule="evenodd" d="M13 2C13 1.44772 12.5523 1 12 1C11.4477 1 11 1.44772 11 2V3.04938C6.27512 3.5185 2.51772 7.27633 2.04925 12.0014C1.99476 12.551 2.44773 13 3.00002 13H11V19C11 19.5523 10.5523 20 10 20C9.44772 20 9 19.5523 9 19V18C9 17.4477 8.55228 17 8 17C7.44772 17 7 17.4477 7 18V19C7 20.6569 8.34315 22 10 22C11.6569 22 13 20.6569 13 19V13H21C21.5523 13 22.0053 12.551 21.9508 12.0014C21.4823 7.27632 17.7249 3.51848 13 3.04937V2ZM19.7484 11C18.8609 7.55022 15.7273 5 12 5C8.27277 5 5.13917 7.55022 4.25166 11H19.7484Z" fill="#6F767E"/>
</svg>
