<svg width="24" height="24" viewBox="0 0 24 24" fill="none" xmlns="http://www.w3.org/2000/svg">
<path fill-rule="evenodd" clip-rule="evenodd" d="M5 21C5 20.4477 5.44772 20 6 20H18C18.5523 20 19 20.4477 19 21C19 21.5523 18.5523 22 18 22H6C5.44772 22 5 21.5523 5 21Z" fill="#6F767E"/>
<path fill-rule="evenodd" clip-rule="evenodd" d="M6 2C6.55228 2 7 2.44772 7 3V11C7 13.7614 9.23858 16 12 16C14.7614 16 17 13.7614 17 11V3C17 2.44772 17.4477 2 18 2C18.5523 2 19 2.44772 19 3V11C19 14.866 15.866 18 12 18C8.13401 18 5 14.866 5 11V3C5 2.44772 5.44772 2 6 2Z" fill="#6F767E"/>
</svg>
