<svg width="24" height="24" viewBox="0 0 24 24" fill="none" xmlns="http://www.w3.org/2000/svg">
<path d="M20.1418 14.7428C19.057 10.6943 14.8957 8.29179 10.8472 9.37657C8.57429 9.98559 6.85037 11.5573 5.95622 13.5496L7.41065 13.1553C7.9437 13.0108 8.49296 13.3258 8.63746 13.8588C8.78197 14.3918 8.46699 14.9411 7.93395 15.0856L4.76357 15.9451C4.72819 15.9568 4.69204 15.9667 4.65529 15.9744L4.24959 16.0844C3.99312 16.1539 3.71952 16.1185 3.48921 15.986C3.25889 15.8535 3.09079 15.6347 3.02201 15.3781L2.03402 11.6908C1.89108 11.1573 2.20766 10.609 2.74112 10.4661C3.27459 10.3231 3.82293 10.6397 3.96587 11.1732L4.29231 12.3915C5.45943 10.0402 7.5721 8.18358 10.3296 7.44472C15.445 6.07405 20.703 9.10976 22.0736 14.2252C22.2166 14.7586 21.9 15.307 21.3665 15.4499C20.8331 15.5928 20.2847 15.2763 20.1418 14.7428Z" fill="#6F767E"/>
</svg>
