<svg width="24" height="24" viewBox="0 0 24 24" fill="none" xmlns="http://www.w3.org/2000/svg">
<path d="M20.1417 14.7428C19.0569 10.6943 14.8956 8.29179 10.8471 9.37657C8.57423 9.98559 6.85031 11.5573 5.95616 13.5496L7.41059 13.1553C7.94363 13.0108 8.4929 13.3258 8.6374 13.8588C8.78191 14.3918 8.46693 14.9411 7.93389 15.0856L4.76351 15.9451C4.72813 15.9568 4.69198 15.9667 4.65523 15.9744L4.24952 16.0844C3.99306 16.1539 3.71946 16.1185 3.48915 15.986C3.25883 15.8535 3.09072 15.6347 3.02195 15.3781L2.03396 11.6908C1.89101 11.1573 2.2076 10.609 2.74106 10.4661C3.27453 10.3231 3.82287 10.6397 3.96581 11.1732L4.29225 12.3915C5.45937 10.0402 7.57204 8.18358 10.3295 7.44472C15.4449 6.07405 20.7029 9.10976 22.0736 14.2252C22.2165 14.7586 21.8999 15.307 21.3665 15.4499C20.833 15.5928 20.2847 15.2763 20.1417 14.7428Z" fill="#6F767E"/>
</svg>
