<svg xmlns="http://www.w3.org/2000/svg" width="18" height="25" viewBox="0 0 18 25">
  <path id="Vector" d="M17.473,5.357H12.6V.523ZM18,7.143V22.321a2.671,2.671,0,0,1-.792,1.893A2.714,2.714,0,0,1,15.3,25H2.7a2.714,2.714,0,0,1-1.908-.785A2.671,2.671,0,0,1,0,22.321V2.679A2.671,2.671,0,0,1,.792.785,2.714,2.714,0,0,1,2.7,0h8.1V6.25a.889.889,0,0,0,.264.631.9.9,0,0,0,.636.262Zm-8.1,12.5a.889.889,0,0,0-.264-.631.905.905,0,0,0-1.273,0,.888.888,0,0,0,0,1.263.905.905,0,0,0,1.273,0A.889.889,0,0,0,9.9,19.643Zm2.644-8.676A3.559,3.559,0,0,0,11.75,9.3a3.613,3.613,0,0,0-6.014.8,3.542,3.542,0,0,0-.337,1.51.889.889,0,0,0,.264.631.905.905,0,0,0,1.273,0,.889.889,0,0,0,.264-.631,1.782,1.782,0,0,1,.652-1.375,1.809,1.809,0,0,1,2.475.165,1.781,1.781,0,0,1-.64,2.861,2.621,2.621,0,0,0-1.167.98A2.59,2.59,0,0,0,8.1,15.7v1.268a.889.889,0,0,0,.264.631.905.905,0,0,0,1.273,0,.889.889,0,0,0,.264-.631V15.7a.834.834,0,0,1,.119-.464.844.844,0,0,1,.356-.324,3.584,3.584,0,0,0,1.789-1.589,3.54,3.54,0,0,0,.38-2.352Z" fill="#ee2727"/>
</svg>
