<svg width="24" height="24" viewBox="0 0 24 24" fill="none" xmlns="http://www.w3.org/2000/svg">
<path fill-rule="evenodd" clip-rule="evenodd" d="M12 4C13.3966 4 14.5725 4.95512 14.9056 6.24926C15.0433 6.78411 15.5884 7.1061 16.1233 6.96844C16.6581 6.83078 16.9801 6.28559 16.8425 5.75074C16.2875 3.59442 14.3312 2 12 2C9.23862 2 7.00004 4.23858 7.00004 7L7 8C5.34315 8 4 9.34315 4 11V19C4 20.6569 5.34315 22 7 22H17C18.6569 22 20 20.6569 20 19V11C20 9.34315 18.6569 8 17 8H9.00004V7C9.00004 5.34315 10.3432 4 12 4ZM14 14C14 14.7403 13.5978 15.3866 13 15.7324V17C13 17.5523 12.5523 18 12 18C11.4477 18 11 17.5523 11 17V15.7324C10.4022 15.3866 10 14.7403 10 14C10 12.8954 10.8954 12 12 12C13.1046 12 14 12.8954 14 14Z" fill="#6F767E"/>
</svg>
