<svg width="24" height="24" viewBox="0 0 24 24" fill="none" xmlns="http://www.w3.org/2000/svg">
<path d="M13 15.7324C13.5978 15.3866 14 14.7403 14 14C14 12.8954 13.1046 12 12 12C10.8954 12 10 12.8954 10 14C10 14.7403 10.4022 15.3866 11 15.7324V17C11 17.5523 11.4477 18 12 18C12.5523 18 13 17.5523 13 17V15.7324Z" fill="#6F767E"/>
<path fill-rule="evenodd" clip-rule="evenodd" d="M14.9055 6.24926C14.5724 4.95512 13.3965 4 12 4C10.3431 4 8.99998 5.34315 8.99998 7V8H17C18.6569 8 20 9.34315 20 11V19C20 20.6569 18.6569 22 17 22H7C5.34315 22 4 20.6569 4 19V11C4 9.34315 5.34314 8.00001 6.99998 8V7C6.99998 4.23858 9.23856 2 12 2C14.3312 2 16.2874 3.59442 16.8424 5.75074C16.9801 6.28559 16.6581 6.83078 16.1232 6.96844C15.5884 7.1061 15.0432 6.78411 14.9055 6.24926ZM7 10C6.44772 10 6 10.4477 6 11V19C6 19.5523 6.44772 20 7 20H17C17.5523 20 18 19.5523 18 19V11C18 10.4477 17.5523 10 17 10H7Z" fill="#6F767E"/>
</svg>
