<svg width="24" height="24" viewBox="0 0 24 24" fill="none" xmlns="http://www.w3.org/2000/svg">
<path d="M17.2071 9.29052C17.5976 9.68104 17.5976 10.3142 17.2071 10.7047C16.8166 11.0953 16.1834 11.0953 15.7929 10.7047L13.002 7.91379V15C13.002 15.5523 12.5542 16 12.002 16C11.4497 16 11.002 15.5523 11.002 15V7.91369L8.20897 10.7067C7.81845 11.0972 7.18528 11.0972 6.79475 10.7067C6.40423 10.3162 6.40423 9.68299 6.79475 9.29247L11.2948 4.79242C11.4823 4.60488 11.7367 4.49953 12.0019 4.49953C12.2671 4.49953 12.5215 4.60488 12.709 4.79242L17.2071 9.29052Z" fill="#6F767E"/>
<path fill-rule="evenodd" clip-rule="evenodd" d="M4 14C4.55228 14 5 14.4477 5 15V17C5 17.5523 5.44772 18 6 18H18C18.5523 18 19 17.5523 19 17V15C19 14.4477 19.4477 14 20 14C20.5523 14 21 14.4477 21 15V17C21 18.6569 19.6569 20 18 20H6C4.34315 20 3 18.6569 3 17V15C3 14.4477 3.44772 14 4 14Z" fill="#6F767E"/>
</svg>
