<svg width="24" height="24" viewBox="0 0 24 24" fill="none" xmlns="http://www.w3.org/2000/svg">
<path fill-rule="evenodd" clip-rule="evenodd" d="M20 4C20 3.44772 19.5523 3 19 3C16.2386 3 14 5.23858 14 8V14C14 14.5523 14.4477 15 15 15H18L18 20C18 20.5523 18.4477 21 19 21C19.5523 21 20 20.5523 20 20L20 4ZM16 13H18L18 5.17071C16.8348 5.58254 16 6.69378 16 8L16 13Z" fill="#6F767E"/>
<path fill-rule="evenodd" clip-rule="evenodd" d="M6 4C6 3.44772 5.55228 3 5 3C4.44772 3 4 3.44772 4 4V9C4 10.8638 5.27477 12.4299 7 12.874V20C7 20.5523 7.44772 21 8 21C8.55228 21 9 20.5523 9 20V12.874C10.7252 12.4299 12 10.8638 12 9V4C12 3.44772 11.5523 3 11 3C10.4477 3 10 3.44772 10 4V7H9V4C9 3.44772 8.55228 3 8 3C7.44772 3 7 3.44772 7 4V7H6V4ZM6 9C6 10.1046 6.89543 11 8 11C9.10457 11 10 10.1046 10 9H6Z" fill="#6F767E"/>
</svg>
