<svg width="24" height="24" viewBox="0 0 24 24" fill="none" xmlns="http://www.w3.org/2000/svg">
<path d="M20 21C20 21.5523 19.5523 22 19 22C18.4477 22 18 21.5523 18 21L18 15H15C14.4477 15 14 14.5523 14 14V8C14 5.23858 16.2386 3 19 3C19.5523 3 20 3.44772 20 4L20 21Z" fill="#6F767E"/>
<path d="M6 4C6 3.44772 5.55228 3 5 3C4.44772 3 4 3.44772 4 4V9C4 10.8638 5.27477 12.4299 7 12.874V21C7 21.5523 7.44772 22 8 22C8.55228 22 9 21.5523 9 21V12.874C10.7252 12.4299 12 10.8638 12 9V4C12 3.44772 11.5523 3 11 3C10.4477 3 10 3.44772 10 4V8H9V4C9 3.44772 8.55228 3 8 3C7.44772 3 7 3.44772 7 4V8H6V4Z" fill="#6F767E"/>
</svg>
