<svg width="24" height="24" viewBox="0 0 24 24" fill="none" xmlns="http://www.w3.org/2000/svg">
<path d="M11 4C9.89543 4 9 4.89543 9 6L5.73244 6C5.38663 5.4022 4.74028 5 4 5C2.89543 5 2 5.89543 2 7C2 8.10457 2.89543 9 4 9C4.74028 9 5.38663 8.5978 5.73244 8H7.10102C5.80447 9.27052 5 11.0413 5 13V14C3.89543 14 3 14.8954 3 16V18C3 19.1046 3.89543 20 5 20H7C8.10457 20 9 19.1046 9 18V16C9 14.8954 8.10457 14 7 14V13C7 11.2785 7.86997 9.76026 9.19423 8.86085C9.51597 9.53455 10.2036 10 11 10H13C13.7964 10 14.484 9.53455 14.8058 8.86085C16.13 9.76026 17 11.2785 17 13V14C15.8954 14 15 14.8954 15 16V18C15 19.1046 15.8954 20 17 20H19C20.1046 20 21 19.1046 21 18V16C21 14.8954 20.1046 14 19 14V13C19 11.0413 18.1955 9.27052 16.899 8H18.2676C18.6134 8.5978 19.2597 9 20 9C21.1046 9 22 8.10457 22 7C22 5.89543 21.1046 5 20 5C19.2597 5 18.6134 5.4022 18.2676 6H15C15 4.89543 14.1046 4 13 4H11Z" fill="#6F767E"/>
</svg>
