<svg width="24" height="24" viewBox="0 0 24 24" fill="none" xmlns="http://www.w3.org/2000/svg">
<path fill-rule="evenodd" clip-rule="evenodd" d="M5.73244 6L9 6C9 4.89543 9.89543 4 11 4H13C14.1046 4 15 4.89543 15 6H18.2676C18.6134 5.4022 19.2597 5 20 5C21.1046 5 22 5.89543 22 7C22 8.10457 21.1046 9 20 9C19.2597 9 18.6134 8.5978 18.2676 8H16.899C18.1956 9.27051 19 11.0413 19 13V14C20.1046 14 21 14.8954 21 16V18C21 19.1046 20.1046 20 19 20H17C15.8954 20 15 19.1046 15 18V16C15 14.8954 15.8954 14 17 14V13C17 11.2785 16.13 9.76023 14.8058 8.86081C14.484 9.53453 13.7964 10 13 10H11C10.2036 10 9.51595 9.53453 9.19421 8.86081C7.86996 9.76023 7 11.2785 7 13V14C8.10457 14 9 14.8954 9 16V18C9 19.1046 8.10457 20 7 20H5C3.89543 20 3 19.1046 3 18V16C3 14.8954 3.89543 14 5 14V13C5 11.0413 5.80445 9.27051 7.10097 8H5.73244C5.38663 8.5978 4.74028 9 4 9C2.89543 9 2 8.10457 2 7C2 5.89543 2.89543 5 4 5C4.74028 5 5.38663 5.4022 5.73244 6ZM13 6H11V8H13V6ZM7 16H5V18H7V16ZM17 16H19V18H17V16Z" fill="#6F767E"/>
</svg>
