<svg width="24" height="24" viewBox="0 0 24 24" fill="none" xmlns="http://www.w3.org/2000/svg">
<path d="M6.4158 5H5C3.34315 5 2 6.34315 2 8V16C2 17.6569 3.34315 19 5 19H14C15.6569 19 17 17.6569 17 16V15.5842L15 13.5842V16C15 16.5523 14.5523 17 14 17H5C4.44772 17 4 16.5523 4 16V8C4 7.44772 4.44772 7 5 7H8.4158L6.4158 5Z" fill="#6F767E"/>
<path d="M15 10.7558V8C15 7.44772 14.5523 7 14 7H11.2442L9.24423 5H14C15.6569 5 17 6.34315 17 8V8.57145L18.8375 7.25893C20.1613 6.31341 22 7.25965 22 8.8864V15.1136C22 15.8645 21.6083 16.4703 21.0563 16.8121L20 15.7558V8.8864L17 11.0293V12.7558L15 10.7558Z" fill="#6F767E"/>
<path fill-rule="evenodd" clip-rule="evenodd" d="M2.29289 2.29289C2.68342 1.90237 3.31658 1.90237 3.70711 2.29289L21.7071 20.2929C22.0976 20.6834 22.0976 21.3166 21.7071 21.7071C21.3166 22.0976 20.6834 22.0976 20.2929 21.7071L2.29289 3.70711C1.90237 3.31658 1.90237 2.68342 2.29289 2.29289Z" fill="#6F767E"/>
</svg>
