<svg width="24" height="24" viewBox="0 0 24 24" fill="none" xmlns="http://www.w3.org/2000/svg">
<path fill-rule="evenodd" clip-rule="evenodd" d="M17 15.4286V16C17 17.6569 15.6569 19 14 19H5C3.34315 19 2 17.6569 2 16V8C2 6.34315 3.34315 5 5 5H14C15.6569 5 17 6.34315 17 8V8.57142L18.8375 7.2589C20.1613 6.31338 22 7.25962 22 8.88637V15.1136C22 16.7404 20.1613 17.6866 18.8375 16.7411L17 15.4286ZM5 7H14C14.5523 7 15 7.44772 15 8V16C15 16.5523 14.5523 17 14 17H5C4.44772 17 4 16.5523 4 16V8C4 7.44772 4.44772 7 5 7ZM17 12.9708L20 15.1136V8.88637L17 11.0292V12.9708Z" fill="#6F767E"/>
</svg>
