<svg width="24" height="24" viewBox="0 0 24 24" fill="none" xmlns="http://www.w3.org/2000/svg">
<path d="M8.41578 6.99998H7C5.34315 6.99998 4 8.34313 4 9.99998V14C4 15.6568 5.34315 17 7 17H9L13.683 21.0976C14.9762 22.2291 17 21.3108 17 19.5924V15.5842L15 13.5842L15 19.5924L10.317 15.4948C9.95243 15.1758 9.48445 15 9 15H7C6.44772 15 6 14.5523 6 14V9.99998C6 9.4477 6.44772 8.99998 7 8.99998H9C9.38959 8.99998 9.76853 8.88626 10.0916 8.67581L8.41578 6.99998Z" fill="#6F767E"/>
<path d="M15 10.7558L15 4.40752L11.6143 7.37004L10.1969 5.95268L13.683 2.90236C14.9762 1.77084 17 2.6892 17 4.40752V12.7558L15 10.7558Z" fill="#6F767E"/>
<path fill-rule="evenodd" clip-rule="evenodd" d="M2.29289 2.29289C2.68342 1.90237 3.31658 1.90237 3.70711 2.29289L21.7071 20.2929C22.0976 20.6834 22.0976 21.3166 21.7071 21.7071C21.3166 22.0976 20.6834 22.0976 20.2929 21.7071L2.29289 3.70711C1.90237 3.31658 1.90237 2.68342 2.29289 2.29289Z" fill="#6F767E"/>
</svg>
