<svg width="24" height="24" viewBox="0 0 24 24" fill="none" xmlns="http://www.w3.org/2000/svg">
<path fill-rule="evenodd" clip-rule="evenodd" d="M17.8099 14.3925C18.0441 14.2154 18.2523 14.0038 18.427 13.7634C18.7994 13.2508 19 12.6335 19 12C19 11.3665 18.7994 10.7492 18.427 10.2366C18.2523 9.99609 18.0438 9.78439 17.8096 9.60721C17.7526 9.56411 17.6979 9.51733 17.6462 9.4674C17.5988 9.42164 17.554 9.37323 17.5122 9.3226C17.2476 9.00151 17.1077 8.59078 17.236 8.19577C17.4067 7.67052 17.9781 7.37485 18.459 7.64647C18.6527 7.75589 18.8388 7.87803 19.0159 8.01202M19.0159 8.01202C19.4063 8.30725 19.7538 8.66024 20.0451 9.06107C20.6657 9.91531 21 10.9441 21 12C21 13.0559 20.6657 14.0847 20.0451 14.9389C19.7538 15.3399 19.4064 15.6927 19.0159 15.988C18.8388 16.122 18.6527 16.2441 18.459 16.3535C17.9781 16.6251 17.4067 16.3295 17.236 15.8042C17.1077 15.4092 17.2476 14.9985 17.5122 14.6774C17.554 14.6268 17.5988 14.5784 17.6462 14.5326C17.6979 14.4827 17.753 14.4356 17.8099 14.3925" fill="#6F767E"/>
<path fill-rule="evenodd" clip-rule="evenodd" d="M8 15C8.48445 15 8.95243 15.1758 9.31701 15.4948L14 19.5925L14 4.40753L9.31701 8.50515C8.95243 8.82416 8.48445 9 8 9H6C5.44772 9 5 9.44771 5 10V14C5 14.5523 5.44772 15 6 15H8ZM8 17L12.683 21.0976C13.9762 22.2291 16 21.3108 16 19.5925V4.40753C16 2.68922 13.9762 1.77086 12.683 2.90238L8 7H6C4.34315 7 3 8.34314 3 10V14C3 15.6569 4.34315 17 6 17H8Z" fill="#6F767E"/>
</svg>
