<svg width="24" height="24" viewBox="0 0 24 24" fill="none" xmlns="http://www.w3.org/2000/svg">
<path fill-rule="evenodd" clip-rule="evenodd" d="M15.81 14.3925C16.0441 14.2154 16.2524 14.0038 16.4271 13.7634C16.7994 13.2508 17 12.6336 17 12C17 11.3665 16.7994 10.7492 16.4271 10.2367C16.2523 9.9961 16.0439 9.78441 15.8096 9.60723C15.7526 9.56413 15.6979 9.51734 15.6462 9.46742C15.5988 9.42165 15.554 9.37325 15.5123 9.32262C15.2476 9.00152 15.1077 8.59079 15.2361 8.19579C15.4067 7.67053 15.9782 7.37486 16.459 7.64649C16.6527 7.7559 16.8388 7.87804 17.016 8.01203M17.016 8.01203C17.4063 8.30727 17.7539 8.66025 18.0451 9.06109C18.6657 9.91532 19 10.9441 19 12C19 13.0559 18.6657 14.0847 18.0451 14.9389C17.7538 15.3399 17.4064 15.6927 17.016 15.988C16.8388 16.122 16.6527 16.2441 16.459 16.3535C15.9782 16.6252 15.4067 16.3295 15.2361 15.8042C15.1077 15.4092 15.2476 14.9985 15.5123 14.6774C15.554 14.6268 15.5988 14.5784 15.6462 14.5326C15.6979 14.4827 15.753 14.4356 15.81 14.3925" fill="#6F767E"/>
<path fill-rule="evenodd" clip-rule="evenodd" d="M17.8875 17.2595C18.6587 16.8361 19.3316 16.2459 19.8541 15.5267C20.5989 14.5016 21 13.2671 21 12C21 10.7329 20.5989 9.49838 19.8541 8.47329C19.3064 7.71938 18.5934 7.10721 17.7751 6.68033C17.7738 6.67966 17.7725 6.679 17.7713 6.67833C17.7358 6.65968 17.7014 6.63944 17.6681 6.61776C17.632 6.59421 17.5972 6.56894 17.5639 6.54212C17.2062 6.25412 17.0187 5.78699 17.1631 5.34261C17.3338 4.81735 17.9016 4.52431 18.4015 4.75913C18.5021 4.80642 18.6017 4.85576 18.7001 4.90711C19.7912 5.47626 20.7418 6.29246 21.4721 7.29772C22.4652 8.6645 23 10.3106 23 12C23 13.6894 22.4652 15.3355 21.4721 16.7023C20.7418 17.7075 19.7912 18.5237 18.7001 19.0929C18.6017 19.1442 18.5021 19.1936 18.4015 19.2409C17.9016 19.4757 17.3338 19.1827 17.1631 18.6574C17.0187 18.213 17.2062 17.7459 17.5639 17.4579C17.5972 17.4311 17.632 17.4058 17.6681 17.3822C17.7014 17.3606 17.7358 17.3403 17.7713 17.3217C17.7725 17.321 17.7738 17.3203 17.7751 17.3197C17.8128 17.3 17.8503 17.28 17.8875 17.2595Z" fill="#6F767E"/>
<path d="M14 19.5925V4.40753C14 2.68922 11.9762 1.77086 10.683 2.90238L6 7H4C2.34315 7 1 8.34314 1 10V14C1 15.6569 2.34315 17 4 17H6L10.683 21.0976C11.9762 22.2291 14 21.3108 14 19.5925Z" fill="#6F767E"/>
</svg>
