<svg width="24" height="24" viewBox="0 0 24 24" fill="none" xmlns="http://www.w3.org/2000/svg">
<path fill-rule="evenodd" clip-rule="evenodd" d="M5 2C3.34315 2 2 3.34315 2 5V19C2 20.6569 3.34315 22 5 22H19C20.6569 22 22 20.6569 22 19V9C22 7.69378 21.1652 6.58254 20 6.17071V5C20 3.34315 18.6569 2 17 2H5ZM5 4C4.44772 4 4 4.44772 4 5C4 5.55228 4.44772 6 5 6H18V5C18 4.44772 17.5523 4 17 4H5ZM17 12C15.8954 12 15 12.8954 15 14C15 15.1046 15.8954 16 17 16H19C19.5523 16 20 15.5523 20 15V13C20 12.4477 19.5523 12 19 12H17Z" fill="#6F767E"/>
</svg>
