<svg width="24" height="24" viewBox="0 0 24 24" fill="none" xmlns="http://www.w3.org/2000/svg">
<path fill-rule="evenodd" clip-rule="evenodd" d="M7.99193 4.37141C8.28834 2.9882 9.51073 2 10.9253 2H13.0748C14.4895 2 15.7119 2.9882 16.0083 4.37141L16.4926 6.63167C17.5352 7.50514 18.3196 8.6767 18.7146 10.0152C19.4414 10.1194 20 10.7444 20 11.5V12.5C20 13.2556 19.4414 13.8806 18.7146 13.9848C18.3196 15.3233 17.5352 16.4948 16.4926 17.3683L16.0083 19.6286C15.7119 21.0118 14.4895 22 13.0749 22H10.9254C9.51077 22 8.28838 21.0118 7.99197 19.6286L7.50764 17.3685C5.97477 16.0845 5 14.1561 5 12C5 9.84394 5.97476 7.91555 7.50763 6.63148L7.99193 4.37141ZM17 12C17 9.23858 14.7614 7 12 7C9.23858 7 7 9.23858 7 12C7 14.7614 9.23858 17 12 17C14.7614 17 17 14.7614 17 12Z" fill="#6F767E"/>
<path fill-rule="evenodd" clip-rule="evenodd" d="M12 8C12.5523 8 13 8.44772 13 9V11.5858L14.2071 12.7929C14.5976 13.1834 14.5976 13.8166 14.2071 14.2071C13.8166 14.5976 13.1834 14.5976 12.7929 14.2071L11.4393 12.8536C11.158 12.5722 11 12.1907 11 11.7929V9C11 8.44772 11.4477 8 12 8Z" fill="#6F767E"/>
</svg>
