<svg width="24" height="24" viewBox="0 0 24 24" fill="none" xmlns="http://www.w3.org/2000/svg">
<path fill-rule="evenodd" clip-rule="evenodd" d="M12 8C12.5523 8 13 8.44772 13 9V11.5858L14.2071 12.7929C14.5976 13.1834 14.5976 13.8166 14.2071 14.2071C13.8166 14.5976 13.1834 14.5976 12.7929 14.2071L11.4393 12.8536C11.158 12.5722 11 12.1907 11 11.7929V9C11 8.44772 11.4477 8 12 8Z" fill="#6F767E"/>
<path fill-rule="evenodd" clip-rule="evenodd" d="M7.99183 4.37141L7.50751 6.63158C5.97471 7.91565 5 9.844 5 12C5 14.156 5.97474 16.0844 7.50757 17.3684L7.99191 19.6286C8.28832 21.0118 9.51071 22 10.9253 22H13.0748C14.4894 22 15.7118 21.0118 16.0082 19.6286L16.4925 17.3684C17.5352 16.4949 18.3196 15.3233 18.7146 13.9848C19.4414 13.8806 20 13.2556 20 12.5V11.5C20 10.7444 19.4414 10.1194 18.7146 10.0152C18.3196 8.67666 17.5352 7.50506 16.4925 6.63158L16.0081 4.37141C15.7117 2.9882 14.4894 2 13.0747 2H10.9252C9.51062 2 8.28823 2.9882 7.99183 4.37141ZM13.0747 4H10.9252C10.4537 4 10.0462 4.3294 9.94743 4.79047L9.829 5.34318C10.5125 5.12042 11.2422 5 12 5C12.7578 5 13.4875 5.12043 14.171 5.34318L14.0525 4.79047C13.9537 4.3294 13.5463 4 13.0747 4ZM17 12C17 9.23858 14.7614 7 12 7C9.23858 7 7 9.23858 7 12C7 14.7614 9.23858 17 12 17C14.7614 17 17 14.7614 17 12ZM9.94751 19.2095L9.82907 18.6568C10.5125 18.8796 11.2422 19 12 19C12.7578 19 13.4876 18.8796 14.171 18.6568L14.0526 19.2095C13.9538 19.6706 13.5463 20 13.0748 20H10.9253C10.4538 20 10.0463 19.6706 9.94751 19.2095Z" fill="#6F767E"/>
</svg>
