<svg width="24" height="24" viewBox="0 0 24 24" fill="none" xmlns="http://www.w3.org/2000/svg">
<path fill-rule="evenodd" clip-rule="evenodd" d="M3 10C2.44772 10 2 10.4477 2 11V19C2 20.6569 3.34315 22 5 22H19C20.6569 22 22 20.6569 22 19V11C22 10.4477 21.5523 10 21 10H3ZM15.2929 17.0071C14.9024 17.3977 14.9024 18.0308 15.2929 18.4213C15.6834 18.8119 16.3166 18.8119 16.7071 18.4213L18.4214 16.7071C18.8119 16.3165 18.8119 15.6834 18.4214 15.2928L16.7071 13.5786C16.3166 13.188 15.6834 13.188 15.2929 13.5786C14.9024 13.9691 14.9024 14.6022 15.2929 14.9928L16.3001 15.9999L15.2929 17.0071ZM8.70711 18.4213C9.09763 18.0308 9.09763 17.3977 8.70711 17.0071L7.69993 15.9999L8.70711 14.9928C9.09763 14.6022 9.09763 13.9691 8.70711 13.5786C8.31658 13.188 7.68342 13.188 7.29289 13.5786L5.57861 15.2928C5.18808 15.6834 5.18808 16.3165 5.57861 16.7071L7.29289 18.4213C7.68342 18.8119 8.31658 18.8119 8.70711 18.4213ZM11.8956 12.7253C12.0474 12.1943 12.6009 11.8868 13.1319 12.0385C13.6629 12.1902 13.9704 12.7437 13.8187 13.2747L12.1044 19.2747C11.9527 19.8058 11.3992 20.1133 10.8682 19.9615C10.3371 19.8098 10.0296 19.2563 10.1814 18.7253L11.8956 12.7253Z" fill="#6F767E"/>
<path fill-rule="evenodd" clip-rule="evenodd" d="M5 2C3.34315 2 2 3.34315 2 5V7C2 7.55228 2.44772 8 3 8H21C21.5523 8 22 7.55228 22 7V5C22 3.34315 20.6569 2 19 2H5ZM5 6C5.55228 6 6 5.55228 6 5C6 4.44772 5.55228 4 5 4C4.44772 4 4 4.44772 4 5C4 5.55228 4.44772 6 5 6ZM9 5C9 5.55228 8.55228 6 8 6C7.44772 6 7 5.55228 7 5C7 4.44772 7.44772 4 8 4C8.55228 4 9 4.44772 9 5ZM11 6C11.5523 6 12 5.55228 12 5C12 4.44772 11.5523 4 11 4C10.4477 4 10 4.44772 10 5C10 5.55228 10.4477 6 11 6Z" fill="#6F767E"/>
</svg>
