<svg width="24" height="24" viewBox="0 0 24 24" fill="none" xmlns="http://www.w3.org/2000/svg">
<path d="M7 6C7 6.55228 6.55228 7 6 7C5.44772 7 5 6.55228 5 6C5 5.44772 5.44772 5 6 5C6.55228 5 7 5.44772 7 6Z" fill="#6F767E"/>
<path d="M10 6C10 6.55228 9.55228 7 9 7C8.44772 7 8 6.55228 8 6C8 5.44772 8.44772 5 9 5C9.55228 5 10 5.44772 10 6Z" fill="#6F767E"/>
<path d="M13 6C13 6.55228 12.5523 7 12 7C11.4477 7 11 6.55228 11 6C11 5.44772 11.4477 5 12 5C12.5523 5 13 5.44772 13 6Z" fill="#6F767E"/>
<path fill-rule="evenodd" clip-rule="evenodd" d="M14.7929 17.4213C14.4024 17.0308 14.4024 16.3977 14.7929 16.0071L15.8001 14.9999L14.7929 13.9928C14.4024 13.6022 14.4024 12.9691 14.7929 12.5786C15.1834 12.188 15.8166 12.188 16.2071 12.5786L17.9214 14.2928C18.3119 14.6834 18.3119 15.3165 17.9214 15.7071L16.2071 17.4213C15.8166 17.8119 15.1834 17.8119 14.7929 17.4213Z" fill="#6F767E"/>
<path fill-rule="evenodd" clip-rule="evenodd" d="M9.20711 17.4213C9.59763 17.0308 9.59763 16.3977 9.20711 16.0071L8.19993 14.9999L9.20711 13.9928C9.59763 13.6022 9.59763 12.9691 9.20711 12.5786C8.81658 12.188 8.18342 12.188 7.79289 12.5786L6.07861 14.2928C5.68808 14.6834 5.68808 15.3165 6.07861 15.7071L7.79289 17.4213C8.18342 17.8119 8.81658 17.8119 9.20711 17.4213Z" fill="#6F767E"/>
<path fill-rule="evenodd" clip-rule="evenodd" d="M13.1319 11.0385C12.6009 10.8868 12.0474 11.1943 11.8956 11.7253L10.1814 17.7253C10.0296 18.2563 10.3371 18.8098 10.8682 18.9615C11.3992 19.1133 11.9527 18.8058 12.1044 18.2747L13.8187 12.2747C13.9704 11.7437 13.6629 11.1902 13.1319 11.0385Z" fill="#6F767E"/>
<path fill-rule="evenodd" clip-rule="evenodd" d="M2 5C2 3.34315 3.34315 2 5 2H19C20.6569 2 22 3.34315 22 5V19C22 20.6569 20.6569 22 19 22H5C3.34315 22 2 20.6569 2 19V5ZM5 4H19C19.5523 4 20 4.44771 20 5V8H4V5C4 4.44772 4.44771 4 5 4ZM4 10V19C4 19.5523 4.44772 20 5 20H19C19.5523 20 20 19.5523 20 19V10H4Z" fill="#6F767E"/>
</svg>
