<svg width="24" height="24" viewBox="0 0 24 24" fill="none" xmlns="http://www.w3.org/2000/svg">
<path d="M14 18C14 19.1046 13.1046 20 12 20C10.8954 20 10 19.1046 10 18C10 16.8954 10.8954 16 12 16C13.1046 16 14 16.8954 14 18Z" fill="#6F767E"/>
<path d="M13.5996 12.1838C13.0858 12.0636 12.5502 12 12 12C10.0641 12 8.31009 12.7872 7.04395 14.0566C6.65392 14.4476 6.65472 15.0807 7.04574 15.4708C7.43676 15.8608 8.06993 15.86 8.45996 15.469C9.36624 14.5604 10.6167 14 12 14C13.3833 14 14.6338 14.5604 15.54 15.469C15.9187 15.8486 16.5267 15.8604 16.9196 15.5038L13.5996 12.1838Z" fill="#6F767E"/>
<path d="M9.66442 8.24862C7.5665 8.70242 5.69104 9.75465 4.22721 11.2165C3.83642 11.6067 3.83599 12.2399 4.22625 12.6307C4.61651 13.0215 5.24967 13.0219 5.64046 12.6317C7.14499 11.1292 9.17589 10.1576 11.4333 10.0175L9.66442 8.24862Z" fill="#6F767E"/>
<path d="M14.6362 10.392C16.0592 10.8271 17.3322 11.6056 18.3596 12.6317C18.7504 13.0219 19.3836 13.0215 19.7738 12.6307C20.1641 12.2399 20.1637 11.6067 19.7729 11.2165C17.8379 9.28411 15.1836 8.06746 12.247 8.00272L14.6362 10.392Z" fill="#6F767E"/>
<path d="M6.46883 5.05303C4.55044 5.81451 2.82644 6.96013 1.39244 8.39441C1.00195 8.78497 1.00201 9.41813 1.39257 9.80862C1.78313 10.1991 2.4163 10.199 2.80678 9.80849C4.25329 8.36171 6.03794 7.25477 8.03221 6.61641L6.46883 5.05303Z" fill="#6F767E"/>
<path d="M10.3481 6.10389C10.8891 6.03533 11.4404 6 12 6C15.5906 6 18.8396 7.45434 21.1933 9.80849C21.5838 10.199 22.217 10.1991 22.6075 9.80862C22.9981 9.41813 22.9981 8.78497 22.6077 8.39441C19.8942 5.68044 16.1424 4 12 4C10.8398 4 9.71022 4.13183 8.62551 4.38128L10.3481 6.10389Z" fill="#6F767E"/>
<path fill-rule="evenodd" clip-rule="evenodd" d="M2.29289 2.29289C2.68342 1.90237 3.31658 1.90237 3.70711 2.29289L21.7071 20.2929C22.0976 20.6834 22.0976 21.3166 21.7071 21.7071C21.3166 22.0976 20.6834 22.0976 20.2929 21.7071L2.29289 3.70711C1.90237 3.31658 1.90237 2.68342 2.29289 2.29289Z" fill="#6F767E"/>
</svg>
