<svg width="24" height="24" viewBox="0 0 24 24" fill="none" xmlns="http://www.w3.org/2000/svg">
<path fill-rule="evenodd" clip-rule="evenodd" d="M13 16.353C13 16.1062 13.181 15.8983 13.4219 15.8448C16.5008 15.1608 18.7359 12.303 18.5013 9.01779L18.1327 3.85751C18.0579 2.8109 17.1871 2 16.1378 2H7.86225C6.81297 2 5.94209 2.81089 5.86733 3.8575L5.49874 9.01779C5.26409 12.303 7.49924 15.1608 10.5781 15.8448C10.819 15.8983 11 16.1062 11 16.353V18.6529C11 19.1417 10.6466 19.5589 10.1644 19.6393L8.83561 19.8607C8.35343 19.9411 8.00001 20.3583 8.00001 20.8471V21C8.00001 21.5523 8.44773 22 9.00001 22H15C15.5523 22 16 21.5523 16 21V20.8471C16 20.3583 15.6466 19.9411 15.1644 19.8607L13.8356 19.6393C13.3534 19.5589 13 19.1417 13 18.6529V16.353ZM16.1378 4L7.86225 4L7.64796 7H16.3521L16.1378 4Z" fill="#6F767E"/>
</svg>
