<svg width="24" height="24" viewBox="0 0 24 24" fill="none" xmlns="http://www.w3.org/2000/svg">
<path fill-rule="evenodd" clip-rule="evenodd" d="M7.86222 2H16.1377C17.187 2 18.0579 2.8109 18.1327 3.85751L18.5013 9.01779C18.7465 12.4513 16.294 15.4179 13 15.924V18.6529C13 19.1417 13.3534 19.5589 13.8356 19.6393L15.1644 19.8607C15.6466 19.9411 16 20.3583 16 20.8471V21C16 21.5523 15.5523 22 15 22H9C8.44772 22 8 21.5523 8 21V20.8471C8 20.3583 8.35341 19.9411 8.8356 19.8607L10.1644 19.6393C10.6466 19.5589 11 19.1417 11 18.6529V15.924C7.70602 15.4179 5.25346 12.4513 5.49871 9.01779L5.8673 3.8575C5.94206 2.81089 6.81294 2 7.86222 2ZM16.1377 4L7.86222 4L7.71936 6H16.2806L16.1377 4ZM16.4235 8H7.57651L7.49363 9.16028C7.30683 11.7755 9.37809 14 12 14C14.6219 14 16.6931 11.7755 16.5063 9.16029L16.4235 8Z" fill="#6F767E"/>
</svg>
