<svg width="24" height="24" viewBox="0 0 24 24" fill="none" xmlns="http://www.w3.org/2000/svg">
<path fill-rule="evenodd" clip-rule="evenodd" d="M5.90677 7.68932L5.4088 7.74465C5.00371 7.78966 4.67782 8.09827 4.61081 8.5003C4.22462 10.8174 4.22462 13.1825 4.61081 15.4997C4.67782 15.9017 5.00371 16.2103 5.40879 16.2553L5.90677 16.3107C9.95642 16.7606 14.0435 16.7606 18.0931 16.3107L18.5911 16.2553C18.9962 16.2103 19.3221 15.9017 19.3891 15.4997C19.7753 13.1825 19.7753 10.8174 19.3891 8.5003C19.3221 8.09827 18.9962 7.78966 18.5911 7.74465L18.0931 7.68932C14.0435 7.23936 9.95642 7.23936 5.90677 7.68932ZM5.18793 5.75689C3.89351 5.90071 2.85213 6.88683 2.63802 8.1715C2.21555 10.7063 2.21555 13.2936 2.63802 15.8285C2.85213 17.1132 3.89351 18.0993 5.18793 18.2431L5.6859 18.2984C9.88235 18.7647 14.1175 18.7647 18.314 18.2984L18.8119 18.2431C20.1064 18.0993 21.1477 17.1132 21.3619 15.8285C21.7843 13.2936 21.7843 10.7063 21.3619 8.1715C21.1477 6.88683 20.1064 5.90071 18.812 5.75689L18.314 5.70156C14.1175 5.23528 9.88235 5.23528 5.68591 5.70156L5.18793 5.75689Z" fill="#6F767E"/>
<path d="M14.7519 11.168C15.3457 11.5638 15.3457 12.4362 14.7519 12.8321L11.5547 14.9635C10.8901 15.4066 10 14.9302 10 14.1315V9.86852C10 9.06982 10.8901 8.59343 11.5547 9.03647L14.7519 11.168Z" fill="#6F767E"/>
</svg>
