<svg width="24" height="24" viewBox="0 0 24 24" fill="none" xmlns="http://www.w3.org/2000/svg">
<path fill-rule="evenodd" clip-rule="evenodd" d="M5.27894 5.74677C3.93075 5.89657 2.84612 6.92365 2.62311 8.26168C2.21059 10.7368 2.21059 13.2631 2.62311 15.7383C2.84612 17.0763 3.93075 18.1034 5.27893 18.2532L5.8092 18.3121C9.92378 18.7693 14.0763 18.7693 18.1909 18.3121L18.7212 18.2532C20.0694 18.1034 21.154 17.0763 21.377 15.7383C21.7895 13.2631 21.7895 10.7368 21.377 8.26168C21.154 6.92365 20.0694 5.89657 18.7212 5.74677L18.1909 5.68785C14.0763 5.23068 9.92378 5.23068 5.8092 5.68785L5.27894 5.74677ZM14.7519 12.832C15.3457 12.4362 15.3457 11.5638 14.7519 11.1679L11.5547 9.03645C10.8901 8.59342 10 9.06981 10 9.8685V14.1315C10 14.9302 10.8901 15.4066 11.5547 14.9635L14.7519 12.832Z" fill="#6F767E"/>
</svg>
